<svg xmlns="http://www.w3.org/2000/svg" width="63.998" height="55.284" viewBox="0 0 63.998 55.284">
  <g id="affordable-pricing" transform="translate(-1 -5.358)">
    <path id="Path_4359" data-name="Path 4359" d="M62.005,30.47c-.381-2.253-.982-5.117-5.01-5.2l-5.053-8.884c-2.056-3.6-4.2-4.96-9.427-1.7l-1.074.671q-4.8-3.995-9.6-8c-3.241-2.7-5.721-3.121-9.427,1.712L2.88,34.561c-2.9,3.772-2.4,5.815,1.178,8.429,1.182.855,2.153,1.469,3.812,2.625A9.589,9.589,0,0,0,7.781,56.3a9.783,9.783,0,0,0,4.813,3.717.248.248,0,0,0,.45.141,9.458,9.458,0,0,0,5.474.142,9.739,9.739,0,0,0,4.791-3.16c2.381,1.371,5.289.956,8.044.41,33.269-6.57,32.4-6.053,33.283-7.486h0C65.384,48.855,65.181,49.061,62.005,30.47Zm-7.89-4.9c-.012-.024-.01-.052-.03-.072l-.127-.127a.239.239,0,0,0,.14-.058l1.13-1.13.633,1.114A17.591,17.591,0,0,0,54.115,25.57ZM41.852,28.113a.251.251,0,0,0,.1.044l-.189.04Zm.348-.347.73-.73.494.494-.4.4-.826.176A.249.249,0,0,0,42.2,27.766Zm2.784-1.09.587.586a.25.25,0,0,0,.354-.354l-.587-.587L46.36,25.3l1.192,1.193-.6.6-3.032.646Zm4.6-1.5.875.875-.379.379-2.224.474Zm1.563.893,1.4-1.4,1.019,1.019-2.377.507A.23.23,0,0,0,51.143,26.065Zm-8.1-10.538c4.891-3.045,6.362-1.571,8.03,1.351l3.921,6.893a.239.239,0,0,0-.1.042l-1.146,1.146a.239.239,0,0,0-.058.14L52.9,24.31,53.8,23.4a.25.25,0,0,0-.353-.353l-.906.906-.691-.691a.25.25,0,0,0-.354.354l.691.691-1.383,1.383-.875-.875L51.7,23.051a.25.25,0,1,0-.353-.354L49.58,24.465l-.4-.4a.25.25,0,0,0-.353.353l.4.4-1.32,1.32-1.192-1.193,1.418-1.418a.25.25,0,1,0-.354-.354l-2.795,2.794-.289-.29a.25.25,0,0,0-.354.354l.289.289-.854.854-.494-.494.831-.831a.25.25,0,1,0-.354-.353l-.831.831-.1-.1a.25.25,0,1,0-.354.354l.1.1-.727.727-.586-.585a.25.25,0,0,0-.354.354l.586.585-.626.626-.682.145c-.011-.018-.008-.041-.024-.057l-.652-.651L41.03,26.3a.25.25,0,0,0-.354-.354l-1.521,1.521-.31-.31a.25.25,0,0,0-.353.354l.31.31-1.2,1.2c-.018.018-.015.043-.027.064l-.824.176c.007,0,.016,0,.022-.009a.25.25,0,0,0,0-.354l-.314-.314L37.5,27.546a.25.25,0,0,0-.354-.354L36.1,28.234l-.268-.268a.25.25,0,0,0-.354.353l.268.268-.684.684-.494-.494.329-.329a.25.25,0,1,0-.354-.353l-.367.367a.22.22,0,0,0-.277.277l-.892.892-.522-.522c-.014-.014-.034-.011-.05-.021l.149-.149a.25.25,0,0,0-.354-.353l-1.13,1.13-.141-.141a.25.25,0,1,0-.354.354l.141.141-.6.6-.412.088c-.011-.019-.008-.043-.025-.06L29,29.985l.857-.857a.25.25,0,1,0-.354-.354l-1.81,1.811-.162-.162a.25.25,0,1,0-.354.354l.162.162-.374.374c-.011.011-.008.028-.017.04l-.57.121-.755-.755c-.014-.014-.034-.011-.049-.02l.988-.987a.25.25,0,0,0-.354-.354l-1.99,1.99-.162-.162a.25.25,0,0,0-.354.354l.162.162-.035.034a.239.239,0,0,0-.027.288l-1.5.319-.083.019-.109-.109L23.664,30.7a.25.25,0,0,0-.354-.354L21.77,31.9l-.035-.035a.25.25,0,1,0-.354.354l.035.035-.406.406c-3.749,1.073-4.114,3.361-3.273,6.848.136.57.352,1.384.507,1.943a10.073,10.073,0,0,0-2.769-.234c-.415-.592-.831-1.184-1.219-1.771-.82-1.236-1.6-2.551-1.345-3.828.268-1.342,1.574-2.254,2.889-3.073ZM39.632,28.652l-1.2.256.729-.729Zm-7.9,1.685-.265-.265.657-.657c.01.016.007.036.021.05l.522.522-.1.1c-.022.022-.021.053-.033.08Zm-.583.124-.091.02.055-.055Zm3.078-1.328.494.494-.093.093-1.255.267Zm2.2.124a.24.24,0,0,0,.127.053l-1.027.219.586-.586ZM28.2,31.088l-.149-.148.6-.6.538.537Zm-3.492.745-.131-.13.678-.678c.01.016.007.036.02.049l.526.526Zm-10.936.089.116.116-.369.369a.25.25,0,0,0,0,.354.243.243,0,0,0,.142.059,7.237,7.237,0,0,0-.652.621l-.369-.369,1.117-1.116C13.77,31.947,13.767,31.933,13.775,31.922Zm3.516-2.576.67.67-1.333.833-.42-.42Zm5.354-3.687a.235.235,0,0,0,.045-.108l.568.569-.657.656a.248.248,0,0,0,0,.344l-.382.239-.635-.635Zm4.466-1.606a.25.25,0,0,0,.354,0,.235.235,0,0,0,.039-.26c.016,0,.029.019.045.019a.249.249,0,0,0,.177-.073l.771-.771.195.195a.244.244,0,0,0,.144.06l-2.982,1.863s0-.01,0-.013l-.418-.418,1.141-1.141Zm4.345-4.045.887.887a.235.235,0,0,0,.131.054l-1.4.872a.243.243,0,0,0-.059-.144l-.616-.616Zm-.792,2.024c.013.013.032.01.046.019l-1.626,1.016a.235.235,0,0,0-.04-.257l-.195-.195,1.2-1.2Zm-5.241,3.322-1.535.959a.229.229,0,0,0,.035-.152l1.154-1.154Zm-1.742,1.089-.1.065.076-.076C23.663,26.433,23.671,26.442,23.681,26.443Zm-1.9,1.187-1.439.9-.284-.283,1.17-1.169Zm-5.588,3.491-.92.575c-.2.128-.412.261-.618.4l-.055-.056,1.255-1.255Zm-4.325,5.025-.171-.171.194-.194C11.878,35.9,11.867,36.025,11.867,36.146Zm-7.22,6.035c-3.143-2.295-3.5-3.72-.973-7.012L23.2,9.669c3.157-4.118,4.945-4.092,7.992-1.553q3.163,2.641,6.336,5.278l-1.714,1.715a.25.25,0,0,0,.353.354l.4-.4.911.911-.456.456a.25.25,0,1,0,.354.354l.456-.456.631.632a.25.25,0,1,0,.354-.354l-.631-.632.829-.829a.25.25,0,0,0-.353-.353l-.829.829-.911-.911.995-.995q1.315,1.094,2.628,2.189l-7.8,4.875a.234.234,0,0,0-.047-.24l-.887-.887,1.2-1.2.652.652-1,1a.25.25,0,1,0,.354.354l1-1,.078.078a.25.25,0,1,0,.354-.354l-.078-.078,1.428-1.428.431.431a.25.25,0,0,0,.353-.354l-.431-.431.082-.082a.25.25,0,1,0-.354-.354l-.082.082-.944-.944a.25.25,0,0,0-.354.353l.944.944-1.428,1.428L33.36,18.1l.234-.234a.25.25,0,0,0-.354-.354l-.234.234-.053-.053a.25.25,0,0,0-.353.354l.053.053-1.2,1.2a.248.248,0,0,0-.35.35l-1.056,1.056-.139-.139a.25.25,0,0,0-.353.353l.139.139-1.2,1.2-.541-.541a.25.25,0,0,0-.354.354l.541.541-.771.771a.245.245,0,0,0-.065.157L26.765,23c-.006-.007,0-.017-.01-.024s-.017,0-.024-.01l-.27-.271a.25.25,0,0,0-.353.354l.11.11L25.077,24.3l-.283-.283a.25.25,0,0,0-.354.354l.283.283-1.112,1.112-.657-.657a.25.25,0,0,0-.354,0,.243.243,0,0,0-.063.152.235.235,0,0,0-.247.044l-1.064,1.064-.053-.053a.25.25,0,1,0-.353.354l.053.053L19.7,27.891l-.484-.484a.25.25,0,1,0-.354.354l.484.484-.656.656a.25.25,0,1,0,.354.354L19.7,28.6l.2.2-1.51.944-.751-.752.8-.8a.25.25,0,0,0-.354-.354l-2.237,2.238-.255-.254a.25.25,0,0,0-.354.354l.254.254-1.255,1.255-.656-.656a.25.25,0,1,0-.354.354l.207.206c-.01.008-.025,0-.034.014l-1.117,1.116-.2-.2a.25.25,0,0,0-.353.354l.2.2-.714.714a.25.25,0,0,0,.353.354l.714-.714.4.4a4.092,4.092,0,0,0-.592,1.046l-.752.752-.4-.4a.25.25,0,1,0-.354.354l.4.4-.283.283a.25.25,0,0,0,.354.354l.283-.283.611.611A9.047,9.047,0,0,0,13.422,40c.294.445.6.893.915,1.342a9.655,9.655,0,0,0-2.472.781l-.111-.111.773-.773a.25.25,0,0,0-.353-.354l-.774.773-.973-.973a.25.25,0,0,0-.353.354l.973.972L9.878,43.178l-.393-.394.8-.8a.25.25,0,0,0-.353-.354l-.806.805-.024-.024a.25.25,0,0,0-.354.354l.024.024-.884.884a.247.247,0,0,0-.35.349l-.092.092C6.586,43.525,5.434,42.75,4.647,42.181Zm4.062,2.3-.46-.46.882-.882.462.462C9.41,43.761,8.9,44.264,8.709,44.481Zm-.814-.107.125.125-.149-.1Zm.721,11.378a8.722,8.722,0,1,1,15.792-6.8h0a8.214,8.214,0,0,1,.217,1.588c-.218-.231-.431.066-.655.29l-.382-.382a.25.25,0,1,0-.353.354l.382.382-.353.353a.25.25,0,1,0,.353.354l.353-.353.572.572a8.5,8.5,0,0,1-.449,1.788L23.5,53.3l.826-.826a.25.25,0,1,0-.354-.354l-.826.827-.53-.53a.25.25,0,0,0-.354.354l.53.53-.912.913a.25.25,0,1,0,.354.354l.912-.913.663.663c.02.02.048.018.073.03a8.954,8.954,0,0,1-.893,1.563l-.328-.328.149-.149a.25.25,0,0,0-.354-.353l-.149.149-1.1-1.1a.25.25,0,0,0-.353.354l1.1,1.1-.9.9-.956-.956.613-.613a.25.25,0,0,0-.354-.354L18.6,56.323l-.25-.25a.25.25,0,0,0-.354.353l.25.25-1.1,1.1-.707-.706a.25.25,0,1,0-.354.354l.707.706-1.133,1.133-.853-.859,1.222-1.222a.25.25,0,1,0-.353-.354l-1.222,1.222-.486-.486a.25.25,0,1,0-.354.354l.486.486-.8.8A8.819,8.819,0,0,1,8.616,55.752ZM23.33,44.674a3.394,3.394,0,0,1,2.208-2.34,3.216,3.216,0,0,1,4.251,2.689A3.4,3.4,0,0,1,28.633,47.9c-.1-.1-.209-.234-.333-.382-.1-.116-.2-.237-.307-.358l.657-.657a.25.25,0,0,0,0-.354c-.022-.022-.054-.021-.081-.033a.241.241,0,0,0,.132-.054.25.25,0,0,0,0-.354L26.633,43.64a.25.25,0,1,0-.354.353l.136.136a.244.244,0,0,0-.183.071l-1.918,1.918A9.071,9.071,0,0,0,23.33,44.674Zm3.328-.3,1.69,1.69c.022.022.054.021.081.033a.241.241,0,0,0-.132.054l-.644.645c-.692-.691-1.271-.912-2.1-.218l-.5-.495,1.526-1.526A.256.256,0,0,0,26.658,44.372Zm-1.345,4.09c-.037-.133-.193-.587-.226-.678.086-.1.372-.415.461-.508l.7.7a.246.246,0,0,0,.159.066l-.563.563A3.659,3.659,0,0,1,25.313,48.462Zm-.6-2.028.487.486c-.107.114-.209.23-.307.341-.1-.233-.2-.464-.317-.69Zm1.959,1.345a.243.243,0,0,0-.066-.159l-.685-.686c.575-.458.863-.311,1.383.212Zm-2.021,3.5c0,.067-.021.133-.025.2l-.3-.3.3-.3c.008-.008.006-.021.012-.03C24.635,50.995,24.653,51.138,24.646,51.279Zm2.993-3.765c.1.113.194.225.279.326.115.137.218.256.313.36a2.979,2.979,0,0,1-1.751.473Zm-7.15,10.7-.229-.229.8-.8.41.41a8.955,8.955,0,0,1-.941.7C20.514,58.268,20.514,58.234,20.489,58.21Zm-.366.341a8.548,8.548,0,0,1-.853.422l.637-.638Zm-.216-.923-.956-.956.8-.8.956.956Zm-5.461,1.134.846.846a9,9,0,0,1-1.449-.242Zm1.53.875c.005,0,.012,0,.017-.007l1.148-1.148.832.833a.236.236,0,0,0,.141.058A8.278,8.278,0,0,1,15.976,59.637Zm2.332-.314s.013,0,.018-.007a.25.25,0,0,0,0-.354l-.833-.833,1.1-1.1.956.956-.824.824a.25.25,0,0,0,0,.354c.01.01.024.007.035.014C18.613,59.227,18.461,59.278,18.308,59.323Zm3.534-2.059-.432-.432.9-.9.329.329c.022.022.053.021.08.033A9.225,9.225,0,0,1,21.842,57.264Zm41.945-7.721c-.619,1-.2.627-32.626,7.031-2.449.483-5.2.894-7.247-.209.013-.018.021-.039.034-.057a9.258,9.258,0,0,0,1.579-6.747,4.268,4.268,0,0,0,2.8-.268,4.429,4.429,0,0,0,2.454-4.38,4.271,4.271,0,0,0-2.162-3.246,4.335,4.335,0,0,0-3.4-.28,4.4,4.4,0,0,0-2.658,2.477,9.355,9.355,0,0,0-3.178-2.059c-.239-.85-.475-1.695-.675-2.529-.924-3.834-.187-5.1,3.815-5.953l31.415-6.7c5.491-1.211,6.5.583,7.08,4.012C63.9,47.492,64.377,48.581,63.787,49.543Z" fill="#000c1e"/>
    <path id="Path_4360" data-name="Path 4360" d="M57.7,35.391a4.344,4.344,0,0,0-3.4-.281h0a4.267,4.267,0,0,0-1.826,7,4.314,4.314,0,0,0,7.389-3.473A4.283,4.283,0,0,0,57.7,35.391Zm-3.082.666a3.324,3.324,0,0,1,2.6.213,3.177,3.177,0,0,1,1.141,1.078l-.494.494-.537-.537a.25.25,0,1,0-.354.354l.537.537-.364.364a.247.247,0,0,0-.072.18l-.007-.007a.25.25,0,1,0-.353.354l.991.991-.965.965-.619-.619.608-.608a.25.25,0,0,0-.354-.354l-.609.608-.083-.083a.25.25,0,0,0-.354.354l.083.083-.9.9-.6-.6a.25.25,0,1,0-.353.354l.6.6-.271.271a3.15,3.15,0,0,1-.7-.532A3.27,3.27,0,0,1,54.618,36.057Zm-.1,5.975.273.273a3.8,3.8,0,0,1-.418-.127Zm.985.377a.244.244,0,0,0-.071-.17l-.561-.561.9-.9.619.619-.321.321a.25.25,0,1,0,.354.354l.321-.321.319.319c-.027.014-.05.032-.078.045A3.238,3.238,0,0,1,55.5,42.409Zm1.992-.6c-.005-.007,0-.016-.009-.022L57.1,41.4l.965-.965.152.152a.209.209,0,0,0,.289.027A3.437,3.437,0,0,1,57.493,41.805Zm1.127-1.448a.239.239,0,0,0-.053-.128l-.152-.152.305-.305a.25.25,0,0,0-.354-.354l-.305.305-.738-.738h0a.249.249,0,0,0,.177-.073l.364-.364.5.5a.25.25,0,0,0,.354-.354l-.5-.5.378-.378a3.029,3.029,0,0,1,.021,2.54Z" fill="#000c1e"/>
    <path id="Path_4361" data-name="Path 4361" d="M41.77,33.5h0c-3.668-.3-7.734,2.2-8.887,5.463a9.255,9.255,0,0,0,3.045,9.763,8.72,8.72,0,0,0,9.841.316A8.518,8.518,0,0,0,41.77,33.5Zm3.446,14.709a7.7,7.7,0,0,1-8.683-.279,8.3,8.3,0,0,1-2.707-8.635c.788-2.231,3.565-4.8,7.862-4.8A7.516,7.516,0,0,1,45.216,48.207Z" fill="#000c1e"/>
    <path id="Path_4362" data-name="Path 4362" d="M41.04,39.077a.487.487,0,0,0,.337-.109,6.443,6.443,0,0,1,2.077-.06.5.5,0,0,0,.09-1,8.591,8.591,0,0,0-1.969.007,3.14,3.14,0,0,0-.185-.833.5.5,0,0,0-.934.355,2.108,2.108,0,0,1,.123.743,3.107,3.107,0,0,0-1.61,1.36,2.262,2.262,0,0,0,.4,2.715,3.4,3.4,0,0,0,1.985.655c.5.054,1.192.141,1.474.561a1,1,0,0,1-.193,1.179c-.8.822-2.21.431-3.229.126a.5.5,0,1,0-.288.957,6.118,6.118,0,0,0,2.478.384,5.842,5.842,0,0,0,.176,1.4.5.5,0,0,0,.483.371.477.477,0,0,0,.129-.017.5.5,0,0,0,.355-.612,4.858,4.858,0,0,1-.148-1.4,2.49,2.49,0,0,0,.762-.51,1.984,1.984,0,0,0,.306-2.433,2.713,2.713,0,0,0-2.077-.985,2.938,2.938,0,0,1-1.554-.426C39.374,40.934,39.584,39.609,41.04,39.077Z" fill="#000c1e"/>
    <path id="Path_4363" data-name="Path 4363" d="M15.932,51.074c.5.056,1.2.138,1.479.561a1,1,0,0,1-.193,1.179c-.8.822-2.2.434-3.23.126a.5.5,0,0,0-.288.959,6.131,6.131,0,0,0,2.478.383c.012.626.033,1.769.66,1.769a.514.514,0,0,0,.129-.017.5.5,0,0,0,.354-.612,4.83,4.83,0,0,1-.148-1.4,2.5,2.5,0,0,0,.762-.514c.974-1,1.062-3.11-1.9-3.431a2.61,2.61,0,0,1-1.429-.413c-.657-.576-.442-1.9,1.012-2.431a.488.488,0,0,0,.333-.108,6.4,6.4,0,0,1,2.079-.061.5.5,0,1,0,.09-1,8.536,8.536,0,0,0-1.969.008,3.14,3.14,0,0,0-.185-.833.5.5,0,1,0-.934.356,2.14,2.14,0,0,1,.123.744c-2.243.907-2.27,3.143-1.208,4.075A3.411,3.411,0,0,0,15.932,51.074Z" fill="#000c1e"/>
    <path id="Path_4364" data-name="Path 4364" d="M11.161,39.136l-.513.513A.25.25,0,0,0,11,40l.513-.513,1.477,1.477a.25.25,0,1,0,.353-.354l-1.477-1.477.475-.475a.25.25,0,0,0-.353-.353l-.475.475L10.83,38.1a.25.25,0,1,0-.353.354Z" fill="#000c1e"/>
  </g>
</svg>
