<svg width="25" height="25" viewBox="0 0 25 25" fill="none" xmlns="http://www.w3.org/2000/svg">
<path d="M12.5151 13.3306L5.87451 19.9712C5.41553 20.4302 4.67334 20.4302 4.21924 19.9712L3.11572 18.8677C2.65674 18.4087 2.65674 17.6665 3.11572 17.2124L7.82275 12.5054L3.11572 7.79834C2.65674 7.33936 2.65674 6.59717 3.11572 6.14307L4.21436 5.02979C4.67334 4.5708 5.41553 4.5708 5.86963 5.02979L12.5103 11.6704C12.9741 12.1294 12.9741 12.8716 12.5151 13.3306ZM21.8901 11.6704L15.2495 5.02979C14.7905 4.5708 14.0483 4.5708 13.5942 5.02979L12.4907 6.1333C12.0317 6.59229 12.0317 7.33447 12.4907 7.78857L17.1978 12.4956L12.4907 17.2026C12.0317 17.6616 12.0317 18.4038 12.4907 18.8579L13.5942 19.9614C14.0532 20.4204 14.7954 20.4204 15.2495 19.9614L21.8901 13.3208C22.3491 12.8716 22.3491 12.1294 21.8901 11.6704Z" fill="white"/>
</svg>
