<?xml version="1.0" encoding="utf-8"?>
<!-- Generator: Adobe Illustrator 22.1.0, SVG Export Plug-In . SVG Version: 6.00 Build 0)  -->
<svg height="60" width="60" version="1.1" id="Layer_1" xmlns="http://www.w3.org/2000/svg" xmlns:xlink="http://www.w3.org/1999/xlink" x="0px" y="0px"
	 viewBox="0 0 512 512" style="enable-background:new 0 0 512 512;" xml:space="preserve">
<style type="text/css">
	.st0{fill:#DD0031;stroke:#FFFFFF;stroke-width:3;stroke-miterlimit:10;}
	.st1{fill:#C3002F;}
	.st2{fill:#FFFFFF;}
</style>
<g>
	<polygon class="st0" points="256,9 256,9 256,9 26.1,91 61.1,395.1 256,503 256,503 256,503 450.9,395.1 485.9,91 	"/>
	<polygon class="st0" points="256,9 256,9 256,9 26.1,91 61.1,395.1 256,503 256,503 256,503 450.9,395.1 485.9,91 	"/>
	<polygon class="st1" points="256,12.9 256,63.8 256,63.6 256,313.8 256,313.8 256,498.7 256,498.7 447.4,392.7 481.8,93.5 	"/>
	<path class="st2" d="M256,63.6L112.2,386l0,0h53.6l0,0l28.9-72.1h122l28.9,72.1l0,0h53.6l0,0L256,63.6L256,63.6L256,63.6L256,63.6
		L256,63.6z M297.9,269.3h-84L256,168.2L297.9,269.3z"/>
</g>
</svg>
