<svg xmlns="http://www.w3.org/2000/svg" width="64.004" height="63.62" viewBox="0 0 64.004 63.62">
  <g id="bank-accounts" transform="translate(-0.999 -1.19)">
    <path id="Path_4132" data-name="Path 4132" d="M18.923,40.322c-.882-1.346-1.98-2.05-3.465-1.143-.456.279-2.31,1.434-2.782,1.781C11.251,42,11.481,43.3,12.5,44.716l1.641,2.3c.976,1.369,1.879,1.59,3.3.661l2.71-1.764c1.2-.788,1.437-1.517.563-2.853Zm.678,4.752-2.71,1.764c-.951.624-1.275.529-1.939-.4l-1.642-2.3c-.677-.948-1.017-1.659-.044-2.368.414-.305,2.131-1.378,2.713-1.734.981-.6,1.507-.08,2.106.836l1.788,2.738C20.419,44.443,20.358,44.578,19.6,45.074Z" fill="#000c1e"/>
    <path id="Path_4133" data-name="Path 4133" d="M19.031,48.678l-5.3,3.547a.5.5,0,0,0,.556.83l5.3-3.547a.5.5,0,0,0-.556-.83Z" fill="#000c1e"/>
    <path id="Path_4134" data-name="Path 4134" d="M29.392,41.471l-6.451,4.321a.5.5,0,0,0,.556.83L29.948,42.3a.5.5,0,0,0-.556-.83Z" fill="#000c1e"/>
    <path id="Path_4135" data-name="Path 4135" d="M39.386,34.933a.5.5,0,0,0-.693-.137l-5.647,3.783a.5.5,0,0,0,.556.83l5.647-3.783A.5.5,0,0,0,39.386,34.933Z" fill="#000c1e"/>
    <path id="Path_4136" data-name="Path 4136" d="M43.3,32.914l6.229-4.173a.5.5,0,1,0-.556-.83l-6.229,4.173a.5.5,0,0,0,.556.83Z" fill="#000c1e"/>
    <path id="Path_4137" data-name="Path 4137" d="M47.846,35.957a2.262,2.262,0,0,0,.34,2.312,2.471,2.471,0,0,0,2.964.573A2.435,2.435,0,0,0,52.3,36.047,2.35,2.35,0,0,0,47.846,35.957Zm1.1,1.667a1.274,1.274,0,0,1-.173-1.3,1.348,1.348,0,0,1,2.566.023A1.388,1.388,0,0,1,48.951,37.624Z" fill="#000c1e"/>
    <path id="Path_4138" data-name="Path 4138" d="M42.495,39.541a2.264,2.264,0,0,0,.34,2.313,2.473,2.473,0,0,0,2.965.572,2.436,2.436,0,0,0,1.148-2.794A2.351,2.351,0,0,0,42.495,39.541Zm2.833,2a1.457,1.457,0,0,1-1.728-.335,1.276,1.276,0,0,1-.174-1.305,1.351,1.351,0,0,1,2.566.024A1.429,1.429,0,0,1,45.328,41.544Z" fill="#000c1e"/>
    <path id="Path_4139" data-name="Path 4139" d="M37.789,42.694a2.259,2.259,0,0,0,.34,2.313,2.39,2.39,0,0,0,4.113-2.221A2.351,2.351,0,0,0,37.789,42.694Zm1.1,1.668a1.276,1.276,0,0,1-.173-1.305,1.348,1.348,0,0,1,2.566.025A1.388,1.388,0,0,1,38.893,44.362Z" fill="#000c1e"/>
    <path id="Path_4140" data-name="Path 4140" d="M6.8,36.875A3.012,3.012,0,0,0,4.774,39.37a4.064,4.064,0,0,0,1.279,2.3c1.3,1.252,3.1.924,3.861-1.055a3.132,3.132,0,0,0,.023-2.484A2.628,2.628,0,0,0,6.8,36.875Zm2.178,3.382c-.5,1.29-1.437,1.46-2.234.692a3.06,3.06,0,0,1-.973-1.572,2.028,2.028,0,0,1,1.342-1.551h0a1.63,1.63,0,0,1,1.92.737A2.238,2.238,0,0,1,8.981,40.257Z" fill="#000c1e"/>
    <path id="Path_4141" data-name="Path 4141" d="M60.937,6.742h0c-.979-4.973-2.884-6.265-8.11-5.21C44.758,3.171,19.334,8.5,13.049,9.665c-4.143.764-5.11,2.331-4.49,5.906a.467.467,0,0,0,.069.4c.555,3.133.669,3.77,1.033,5.823a.388.388,0,0,0,.05.281q.786,4.436,1.574,8.869c-3.8,2.594-6.08,4.137-7.352,4.973C.5,38.166.25,39.971,2.3,43.114L14.183,61.476A11.1,11.1,0,0,0,16,63.737c-.046.189.086.368.32.266,2,1.518,3.829.666,5.753-.668L54.508,40.973c2.779-1.923,4.559-3.842,3.208-7.013,2.489-.509,5.409-.944,6.684-3.083.883-1.483.627-3.258.29-4.946ZM63.893,29.3,62.3,30.894l-1.189-1.189,1.081-1.081.941.941a.25.25,0,0,0,.354-.354l-2.92-2.92a.25.25,0,0,0-.354.354L61.84,28.27l-1.081,1.081-.965-.965.478-.478a.25.25,0,1,0-.354-.354l-.478.478-.547-.547a.25.25,0,0,0-.354.354l.547.547-1.277,1.277-.92-.92a.25.25,0,0,0-.354.354l.92.92-.613.613-.622-.623a.25.25,0,0,0-.354.354l.622.623-.337.337-1.12-1.667.379-.379c.022-.011.048-.009.066-.027s.016-.045.028-.066l1.066-1.065c.009,0,.016.01.025.01a.249.249,0,0,0,.177-.073.238.238,0,0,0,.063-.2l.207-.207a.25.25,0,0,0-.354-.354l-.162.162-.753-.752a.25.25,0,0,0-.353.354l.753.752-.891.891-.808-.808a.25.25,0,1,0-.354.353l.808.808-.18.18-1.06-1.577.646-.646.232.232a.25.25,0,1,0,.354-.354l-.233-.232.142-.142a.25.25,0,1,0-.354-.354l-.139.142-.91-.91.066-.066a.25.25,0,1,0-.354-.354l-.066.066-.678-.678a.25.25,0,0,0-.354.354l.678.678-.329.329-6.28-9.345c5.1-.7,10.246-1.337,15.319-1.9l2.124,10.862a.238.238,0,0,0-.133.055l-.074.074L62.091,24.21a.25.25,0,0,0-.354.354l1.254,1.254-.957.957a.25.25,0,1,0,.354.353l.957-.957.458.458a7.548,7.548,0,0,1,.123,2.659C63.917,29.3,63.9,29.293,63.893,29.3Zm-5.73,2.647-.965-.965.613-.613.965.965Zm0-1.932,1.277-1.277.965.965-1.277,1.277Zm-5.49-3.875.4-.4.91.91-.577.577Zm8.563-12.653c-5.217.581-10.511,1.24-15.75,1.959-2.188-3.249-4.3-4.6-7.914-2.511-.977.564-1.919,1.24-7.028,4.756a.562.562,0,0,0-.058,0c-6.61,1.071-13.3,2.272-19.906,3.564q-.458-2.578-.915-5.158L60.121,7.78ZM12.189,30.322q-.72-4.04-1.434-8.082c5.923-1.158,11.911-2.23,17.855-3.214C22.538,23.208,17.195,26.893,12.189,30.322ZM13.23,10.648c6.308-1.165,32.2-6.6,39.8-8.136,4.561-.923,6.034-.05,6.9,4.287L9.495,15.113C9.006,12.06,10.067,11.231,13.23,10.648Zm1.982,47.9L14.161,59.6l-.655-1.013c.007-.006.017,0,.023-.01l.856-.856Zm.47,3.338.284-.284H17.48a.234.234,0,0,0,.2-.14l.26.26-1.267,1.267A7.2,7.2,0,0,1,15.682,61.889ZM17.074,63.3,18.3,62.078l1.413,1.413c.021.021.05.019.076.031A2.557,2.557,0,0,1,17.074,63.3Zm3.289-3.289,1.418,1.418-1,1a.25.25,0,0,0,0,.354.2.2,0,0,0,.273.033,9.429,9.429,0,0,1-.937.55.232.232,0,0,0-.05-.233L18.65,61.725Zm1.144,2.5c-.1.073-.21.144-.316.215l.944-.944.175.175Zm7.381-7.482,1.159,1.16-1.394,1.394-1.163.8-.979-.979Zm-1.817,3.645-1.984,1.368-.606-.606,1.676-1.676Zm-2.4,1.657-1.942,1.339s0,0,0-.005l-.236-.236,1.639-1.639ZM53.938,40.15,30.93,56.014l1.832-1.832.046.046a.25.25,0,0,0,.354-.354l-.046-.046,1.135-1.135a.25.25,0,1,0-.354-.354l-1.135,1.135-1.226-1.226a.25.25,0,1,0-.354.354l1.226,1.226L30.4,55.836,29.175,54.61a1.549,1.549,0,0,0-.576,0l-2.443,2.443-.377-.377a.25.25,0,1,0-.354.354l.377.377-1.676,1.676-.856-.857a.25.25,0,1,0-.353.354l.856.857-1.639,1.639-1.418-1.418L23.8,56.576a.25.25,0,1,0-.354-.354L20.35,59.316a.244.244,0,0,0-.313.017.241.241,0,0,0-.017.312L18.3,61.37l-.562-.562a.25.25,0,0,0-.354,0,.239.239,0,0,0-.024.3h-.892l1.389-1.389.609.609a.25.25,0,1,0,.353-.354l-.609-.609.5-.5a.25.25,0,1,0-.354-.354l-.5.5-1.078-1.078a.25.25,0,1,0-.353.354L17.5,59.361,15.756,61.1h-.267a.239.239,0,0,0-.226.193c-.083-.122-.165-.245-.244-.367l-.582-.9L15.564,58.9l.422.422a.25.25,0,1,0,.354-.354l-.422-.422.28-.28a.25.25,0,0,0-.353-.354l-.28.28-.947-.947c-.012-.027-.011-.058-.033-.081s-.053-.021-.081-.033l-.976-.976a.25.25,0,1,0-.354.354l.856.856-.8.8L3.14,42.569C1.386,39.88,1.53,38.685,4.481,36.75,8.054,34.4,37.934,13.882,38.071,13.8c3.137-1.813,4.7-.617,6.657,2.306C56.015,32.9,56.049,32.884,56.56,33.834h0C58.065,36.733,56.642,38.28,53.938,40.15Zm3.322-7.115c-.157-.271-.461-.755-.791-1.246l-.031-.046.406-.406.965.965-.195.195a.25.25,0,0,0,.354.354l1.162-1.162.162.162a.25.25,0,0,0,.354-.354l-.162-.162,1.277-1.277,1.189,1.189-.506.507A.235.235,0,0,0,61.4,32,24.415,24.415,0,0,1,57.26,33.035ZM62.7,31.29l-.042-.042.887-.887,0,0A3.3,3.3,0,0,1,62.7,31.29Z" fill="#000c1e"/>
    <path id="Path_4142" data-name="Path 4142" d="M13.47,16.66l-.733.245a.5.5,0,1,0,.315.949l.735-.245a.5.5,0,0,0-.317-.949Z" fill="#000c1e"/>
    <path id="Path_4143" data-name="Path 4143" d="M15.115,18.155l-.018.018.354.354.4.3a.485.485,0,0,0-.03-.685A.514.514,0,0,0,15.115,18.155Z" fill="#000c1e"/>
    <path id="Path_4144" data-name="Path 4144" d="M17.8,16.381a.5.5,0,0,0-.59-.389l-.179.035a.5.5,0,0,0,.093.991.517.517,0,0,0,.095-.009l.192-.039A.5.5,0,0,0,17.8,16.381Z" fill="#000c1e"/>
    <path id="Path_4145" data-name="Path 4145" d="M19.279,15.2h-.335a.5.5,0,0,0,0,1h.335a.5.5,0,0,0,0-1Z" fill="#000c1e"/>
    <path id="Path_4146" data-name="Path 4146" d="M21.276,16.884l-.217.036a.5.5,0,0,0,.077.994.525.525,0,0,0,.079-.006l.228-.038a.5.5,0,0,0-.167-.986Z" fill="#000c1e"/>
    <path id="Path_4147" data-name="Path 4147" d="M25.81,15.1l-.225.037a.5.5,0,0,0,.083.993.488.488,0,0,0,.085-.007l.223-.037a.5.5,0,1,0-.166-.986Z" fill="#000c1e"/>
    <path id="Path_4148" data-name="Path 4148" d="M28.16,13.827h-.112a.5.5,0,0,0,0,1h.112a.5.5,0,0,0,0-1Z" fill="#000c1e"/>
    <path id="Path_4149" data-name="Path 4149" d="M31.635,13.267l-.354.354-.3.4a.469.469,0,0,0,.321.127A.508.508,0,0,0,31.663,14a.516.516,0,0,0-.012-.71Z" fill="#000c1e"/>
    <path id="Path_4150" data-name="Path 4150" d="M29.758,15.722a.5.5,0,0,0,0,1H29.8a.484.484,0,0,0,.481-.5A.516.516,0,0,0,29.758,15.722Z" fill="#000c1e"/>
    <path id="Path_4151" data-name="Path 4151" d="M12.054,18.827l-.166.035a.5.5,0,1,0,.216.977l.178-.038a.488.488,0,0,0,.376-.588A.513.513,0,0,0,12.054,18.827Z" fill="#000c1e"/>
    <path id="Path_4152" data-name="Path 4152" d="M45.6,10.8l-.087-.045a.466.466,0,0,0-.627.246.538.538,0,0,0,.253.686A.5.5,0,0,0,45.6,10.8Z" fill="#000c1e"/>
    <path id="Path_4153" data-name="Path 4153" d="M46.628,13.6h-.075a.47.47,0,0,0-.463.5.534.534,0,0,0,.538.5.5.5,0,0,0,0-1Z" fill="#000c1e"/>
    <path id="Path_4154" data-name="Path 4154" d="M50.061,11.443a.5.5,0,0,0-.106-.994l-.338.037a.5.5,0,0,0,.055,1,.563.563,0,0,0,.058,0Z" fill="#000c1e"/>
    <path id="Path_4155" data-name="Path 4155" d="M53.91,10.371H53.8a.5.5,0,0,0,0,1h.111a.5.5,0,0,0,0-1Z" fill="#000c1e"/>
    <path id="Path_4156" data-name="Path 4156" d="M56.437,10.108a.5.5,0,1,0,0-1H56.4a.484.484,0,0,0-.481.5A.516.516,0,0,0,56.437,10.108Z" fill="#000c1e"/>
    <path id="Path_4157" data-name="Path 4157" d="M50.469,12.611l-.376.074a.5.5,0,0,0,.1.99.518.518,0,0,0,.1-.01l.368-.074a.5.5,0,1,0-.193-.98Z" fill="#000c1e"/>
    <path id="Path_4158" data-name="Path 4158" d="M56.586,12.414h-.148a.5.5,0,0,0,0,1h.148a.5.5,0,0,0,0-1Z" fill="#000c1e"/>
    <path id="Path_4159" data-name="Path 4159" d="M59,10.536l.353-.353a.479.479,0,0,0-.682.012.522.522,0,0,0,0,.718l.367-.339.324-.383Z" fill="#000c1e"/>
    <path id="Path_4160" data-name="Path 4160" d="M52.524,12.851l.346.361-.354-.354a.479.479,0,0,0,.012.682.486.486,0,0,0,.352.144.536.536,0,0,0,.366-.142l-.339-.367Z" fill="#000c1e"/>
    <path id="Path_4161" data-name="Path 4161" d="M17.94,18.078l-.223.111a.5.5,0,1,0,.447.9l.223-.111a.5.5,0,0,0-.447-.9Z" fill="#000c1e"/>
    <path id="Path_4162" data-name="Path 4162" d="M25.427,17.169l-.037.037a.492.492,0,0,0,.363.827.546.546,0,0,0,.382-.156.5.5,0,0,0-.708-.708Z" fill="#000c1e"/>
    <path id="Path_4163" data-name="Path 4163" d="M23.292,14.942h-.074a.47.47,0,0,0-.463.5.533.533,0,0,0,.537.5.5.5,0,1,0,0-1Z" fill="#000c1e"/>
    <path id="Path_4164" data-name="Path 4164" d="M31.838,24.816a3.158,3.158,0,0,1-1.528-.876l2.925-2.2a5.437,5.437,0,0,0,1.132.852.251.251,0,0,0,.244-.438,4.908,4.908,0,0,1-.974-.716l2.5-1.877a1.733,1.733,0,0,0,.944.825.25.25,0,0,0,.162-.472,1.234,1.234,0,0,1-.71-.65l2.036-1.528.25.6a.25.25,0,1,0,.461-.193l-.3-.715.465-.349a.251.251,0,0,0,.05-.351.254.254,0,0,0-.351-.05l-.363.273-.04-.095a.25.25,0,1,0-.461.193l.088.211-2.033,1.526a.238.238,0,0,0-.182-.043.25.25,0,0,0-.21.284c0,.015.01.028.013.043l-2.671,2.006a5.023,5.023,0,0,1-.373-.487.25.25,0,1,0-.416.278,5.5,5.5,0,0,0,.387.512l-2.9,2.179a3.021,3.021,0,0,1-.269-.417.25.25,0,1,0-.449.219,3.453,3.453,0,0,0,.319.5L26.8,25.954l-.875-.806a.25.25,0,0,0-.338.368l.807.743-2.423,1.819a4.269,4.269,0,0,1-.649-1.491.25.25,0,1,0-.488.106,4.747,4.747,0,0,0,.739,1.684L22,29.554a.251.251,0,0,0,.3.4l1.576-1.183a4.69,4.69,0,0,0,.787.756.25.25,0,1,0,.3-.4,4.19,4.19,0,0,1-.686-.652L26.764,26.6l.756.7a.25.25,0,0,0,.338-.368L27.17,26.3,29.9,24.246a3.631,3.631,0,0,0,1.823,1.06.251.251,0,0,0,.111-.49Z" fill="#000c1e"/>
  </g>
</svg>
