<svg width="22" height="23" viewBox="0 0 22 23" fill="none" xmlns="http://www.w3.org/2000/svg">
<path d="M6.84211 0.454465C7.44598 0.2708 8.09398 0.301313 8.67826 0.540924C9.26254 0.780536 9.74784 1.21479 10.0534 1.7714L10.1569 1.97882L11.0691 4.02661C11.3463 4.64816 11.4363 5.33822 11.3279 6.01097C11.2194 6.68371 10.9173 7.30944 10.4591 7.81035L10.2769 7.99411L8.83621 9.34863C8.57677 9.59642 8.77135 10.5556 9.71113 12.1955C10.5543 13.6711 11.2429 14.3602 11.5797 14.3978H11.639L11.7121 14.3839L14.5411 13.511C14.9213 13.3934 15.3271 13.3887 15.7098 13.4976C16.0926 13.6065 16.4362 13.8243 16.6995 14.1249L16.8264 14.285L18.6977 16.9022C19.0649 17.415 19.248 18.0387 19.2169 18.6705C19.1858 19.3024 18.9423 19.9047 18.5266 20.3783L18.3582 20.5537L17.6089 21.2692C16.9372 21.9109 16.097 22.3445 15.1882 22.5185C14.2794 22.6924 13.3402 22.5995 12.4822 22.2507C9.81187 21.1648 7.38583 18.6841 5.18197 14.8335C2.97397 10.9732 2.05627 7.60849 2.46613 4.72684C2.59028 3.85559 2.94607 3.03454 3.49569 2.35092C4.04532 1.6673 4.76825 1.14664 5.58769 0.844255L5.85403 0.75516L6.84211 0.454465V0.454465Z" fill="#049E9D"/>
</svg>
