<svg xmlns="http://www.w3.org/2000/svg" width="60.996" height="63.96" viewBox="0 0 60.996 63.96">
  <g id="complete-transparency" transform="translate(-2.5 -1.021)">
    <path id="Path_3460" data-name="Path 3460" d="M3.27,53.621C3.1,60.839,5.1,62.926,11.3,63.807a123.566,123.566,0,0,0,26.414.812c6.846-.531,8.32-3.019,8.32-8.766,0-1.192,0-2.393.009-3.586a15.567,15.567,0,0,0,1.562-.959c.781.86.574.51,1.467,1.51-.141,2.194,1.08,4.016,2.579,5.634a24.674,24.674,0,0,0,3.846,3.4,9.167,9.167,0,0,0,2.746,1.432c4.427,1.3,7.284-3.769,3.47-8.017-.823-.918-4.861-5.013-6.342-5.8a5.039,5.039,0,0,0-2.418-.567l-1.589-1.361a14.9,14.9,0,0,0-5.28-21.46q.015-4.077.019-8.153c0-5.115-1.418-7.133-7.4-7.253l-2.646-.051c.2-3.507-1.229-4.56-4.158-4.857-.668-.07-1.336-.132-2-.193-.024-.089-.05-.176-.078-.259A5.81,5.81,0,0,0,18.609,5.3c-.029.087-.056.176-.08.266-.668.061-1.336.123-2,.192a5.094,5.094,0,0,0-3.1,1.075,4.337,4.337,0,0,0-1.088,3.383c-6.154.262-9.406,3.306-9.821,8.916C2.337,21.71,3.424,47.207,3.27,53.621Zm15.694,9.994.358-.358.412.412C19.477,63.652,19.221,63.635,18.964,63.615ZM23.607,62.4h0l.917.917-.385.385a.241.241,0,0,0-.064.2c-.489-.017-.978-.042-1.466-.065a.234.234,0,0,0-.048-.116l-.138-.138Zm2.49.052a.235.235,0,0,0,.052.126l.887.887-.492.492c-.352-.005-.7-.01-1.057-.018,0,0,.006,0,.009,0a.25.25,0,0,0,0-.354l-.264-.264Zm1.292,1.366.156.156-.306-.005Zm-2.25.114c-.172,0-.343,0-.514-.009l.253-.253Zm3.009.044a.251.251,0,0,0-.073-.178l-.333-.333,1.09-1.09c.012.029.012.061.035.085l1.5,1.495C29.625,63.968,28.887,63.977,28.148,63.977Zm7.75-.807-.649-.649.829-.828,1.272,1.272-.5.5a.24.24,0,0,0-.06.21q-1.431.1-2.864.169l.972-.972.649.649a.25.25,0,1,0,.354-.354ZM37.467,60.3l1.272,1.272L37.7,62.611l-1.272-1.272Zm.173,3.319c-.086.007-.173.01-.259.017l1.71-1.71.636.636a.25.25,0,0,0,.354-.354l-.636-.636.947-.947,1.065,1.065-1.124,1.123a.25.25,0,0,0,0,.354.232.232,0,0,0,.132.055A19.069,19.069,0,0,1,37.64,63.622Zm3.106-3.348L41.87,59.15l1.065,1.065-1.124,1.124Zm1.064,1.772.509.509a7.543,7.543,0,0,1-1.629.61Zm3.228-6.736a.239.239,0,0,0-.295.024l-.065.065-.533-.533.9-.9Q45.038,54.641,45.038,55.31Zm0,.437v.013l-.007-.007Zm11.848,5.815L57,61.443l.429.429Q57.152,61.727,56.885,61.562Zm1.637.757c-.138-.038-.269-.093-.4-.143a.246.246,0,0,0-.009-.333l-.754-.754.822-.822,1.082,1.082-.439.439a.25.25,0,1,0,.354.353l.439-.439.7.7A3.637,3.637,0,0,1,58.522,62.319Zm.387-2.781c.009.015.007.034.019.047l1.049,1.049L59.615,61l-1.082-1.082Zm3.479.734-1.354-1.354.662-.663,0,0a.25.25,0,0,0,.354-.354l-.136-.136c-.011-.021-.009-.046-.026-.063s-.043-.015-.063-.026l-.689-.689.376-.377A4.493,4.493,0,0,1,62.388,60.272Zm-1.415-4.341c.078.087.159.181.239.281l-.426.426L60.55,56.4a.25.25,0,0,0-.354.354l.237.237a.249.249,0,0,0,.352.352l.558.558-.663.663-.13-.13a.25.25,0,0,0-.354.354l.131.131a.249.249,0,0,0,.352.352l1.475,1.475c.018.018.044.015.065.027a2.585,2.585,0,0,1-1.488,1.5.235.235,0,0,0-.057-.217l-.706-.706.362-.362.377.377a.25.25,0,1,0,.354-.354l-.377-.377.361-.361a.25.25,0,1,0-.354-.354l-.361.361-1.049-1.049c-.013-.013-.032-.01-.047-.019l.222-.222a.25.25,0,0,0-.354-.354l-.922.922-.068-.068a.25.25,0,0,0-.354.354l.068.068L57,60.736l-.454-.454a.25.25,0,0,0-.354.354l.454.454-.2.2c-.125-.084-.252-.168-.373-.254a23.674,23.674,0,0,1-3.689-3.258c-4.9-5.286-1.136-9.331,2.52-7.424C56.137,51,59.933,54.772,60.973,55.931ZM49.284,51.57c-.276-.272-.607-.572-.868-.846a13.962,13.962,0,0,0,2.367-2.371l.877.751A3.8,3.8,0,0,0,49.284,51.57ZM50.2,30.828A14.227,14.227,0,0,1,50.934,46.4a14.019,14.019,0,0,1-20.349,3.877c-13.064-9.986-.118-31,14.779-23.467A13.649,13.649,0,0,1,50.2,30.828ZM43.369,12.864,42.9,12.39a3.868,3.868,0,0,1,.587.361ZM41.4,12.748l-.807-.807a.226.226,0,0,0,.019-.157,9.05,9.05,0,0,1,1.173.2l.187.187Zm-1.709-1.04c.011.022.009.048.027.066l.19.19-.515.515-.809-.809.107,0C39.026,11.677,39.36,11.69,39.692,11.708Zm-3.639,1.8a.25.25,0,0,0,.354,0l.653-.653.573.573-1.016,1.016-.94-.94a15.468,15.468,0,0,0,.289-1.744l.741.741-.653.653A.249.249,0,0,0,36.053,13.51Zm.485-1.881,1.023.02-.5.5ZM25.981,2.365l0,0-.007-.007Zm-1.314-.347-.4.4-.408-.408A2.484,2.484,0,0,1,24.667,2.018Zm-3.293,1,.431.431L20.717,4.537a.25.25,0,1,0,.354.353L22.159,3.8l.5.5a.25.25,0,1,0,.354-.353l-.5-.5.814-.814a.25.25,0,0,0-.354-.353l-.814.814-.368-.368a4.235,4.235,0,0,1,1.457-.62l.665.665-.488.487a.25.25,0,1,0,.354.354l.488-.487.17.17a.25.25,0,1,0,.354-.354l-.17-.17.528-.528.477.477-.181.181a.25.25,0,0,0,.354.353l.181-.181.389.388a.25.25,0,0,0,.353-.354l-.389-.388.115-.115a5.427,5.427,0,0,1,2.43,3.013A3.414,3.414,0,0,1,29,6.112a.5.5,0,0,0,.449.42c.785.071,1.571.143,2.357.225,2.528.256,3.524.9,3.226,4.309l-.02.218c-.171,1.69-.438,3.416-1.636,4.328a5.938,5.938,0,0,1-3.692.748c-6.559-.074-4.305-.075-10.557,0a.231.231,0,0,0-.046-.112.25.25,0,0,0-.354,0l-.117.116c-.4,0-.791,0-1.163-.027-1.775-.112-2.991-.652-3.6-2.635l.506-.506.576.576a.25.25,0,1,0,.354-.354l-.576-.575,1.053-1.053a.25.25,0,0,0-.354-.354l-1.053,1.053-.669-.669.962-.962.4.4A.25.25,0,1,0,15.4,10.9l-.4-.4.929-.929a.237.237,0,0,0,.049-.118l.094.094a.25.25,0,1,0,.354-.353L15.293,8.061l.9-.9.924.924,0,0a.25.25,0,1,0,.354.353l0,0,.476.476a.25.25,0,0,0,.354-.353l-.476-.476.809-.809.7.7a.25.25,0,1,0,.354-.354l-.7-.7.8-.8a.249.249,0,0,0,0-.353.236.236,0,0,0-.251-.043c.012-.039.017-.079.03-.118a4.859,4.859,0,0,1,.2-.522L20.674,6a.25.25,0,1,0,.354-.353l-1.02-1.021A5.46,5.46,0,0,1,21.374,3.018ZM33.324,16.8l.023-.011-.282.282-.107-.107C33.069,16.922,33.23,16.845,33.324,16.8Zm-4.256,1.644c-.007.007,0,.017-.01.025-.012-.023-.01-.051-.029-.071l-.646-.646.4-.4.888.01.4,0h.071a0,0,0,0,1,0,0ZM28.03,17.4l-.058-.058h.115Zm-2.157-.081-.043.043-.044-.044Zm-3.553,0-.117.117-.115-.115Zm-1.991.023-.076.076-.074-.074ZM14.106,7.58l.481.481-.82.819a.25.25,0,0,0,.354.354l.819-.82.754.754a.23.23,0,0,0-.118.049l-.93.929L13.434,8.934A2.5,2.5,0,0,1,14.106,7.58Zm.417-.29a3.86,3.86,0,0,1,1.25-.414l-.832.832ZM14.294,10.5l-.86.86c0-.025-.006-.051-.008-.076l-.06-.617a8.964,8.964,0,0,1-.008-1.1ZM14,12.839l-.3.3c-.054-.24-.1-.486-.135-.736Zm4.633-6.268,0,0h.009Zm-.621.054c.01.017.007.039.022.054l.245.245-.809.809-.952-.953a.1.1,0,0,0,0-.01l.111-.014C17.092,6.709,17.552,6.668,18.012,6.625ZM3.522,19.209c.4-5.441,3.573-7.773,8.892-7.994l.016.169C12.769,14.737,13.6,16.941,17,17.3l.338.338c-.273.273-.79.638-.537.891a.25.25,0,0,0,.354,0l.537-.537.846.847a.25.25,0,0,0,.354-.354l-.846-.846.275-.275.45,0,.715-.008.42.42-.711.711a.25.25,0,1,0,.354.354l.711-.711.411.411a.25.25,0,1,0,.353-.354l-.411-.411.437-.437.344,0,.46.461-.73.73a.25.25,0,0,0,.354.354l.73-.73.576.576a.25.25,0,0,0,.353-.354l-.576-.576L23,17.349c.01-.01.007-.025.015-.036,1.445-.016,1.009-.016,2.057,0l.405.406-.846.846a.25.25,0,1,0,.354.354l.846-.846.427.427a.25.25,0,1,0,.353-.353l-.427-.427.389-.389.774.009a.241.241,0,0,0,.063.151l.267.267-.692.692a.25.25,0,1,0,.354.354l.691-.692.646.646a.235.235,0,0,0,.364-.025.226.226,0,0,0,.383.071L30.5,17.722l.894.894a.25.25,0,0,0,.353-.354l-.894-.894.023-.023a8.239,8.239,0,0,0,1.543-.211l.293.293-.749.749a.25.25,0,0,0,.353.354l.749-.749.348.348a.25.25,0,1,0,.354-.354l-.348-.348,1.113-1.113.633.633a.25.25,0,1,0,.354-.354l-.863-.863a2.375,2.375,0,0,0,.381-.563,4.738,4.738,0,0,0,.483-1.108l.743.742-.981.981a.25.25,0,0,0,.354.354l.986-.986a.239.239,0,0,0,.337-.007.246.246,0,0,0,.007-.336L38.174,13.6a.249.249,0,0,0,0-.353.228.228,0,0,0-.119-.049c-.012-.03-.012-.064-.037-.088l-.6-.6.65-.65.978.978-.209.209a.25.25,0,0,0,.354.354l.226-.227a.213.213,0,0,0,.295-.024.239.239,0,0,0,.024-.3l.532-.532.826.826a.239.239,0,0,0,.058.213.2.2,0,0,0,.213.058.251.251,0,0,0,.373.019.245.245,0,0,0,.013-.323l.582-.582.688.688-.363.363a.25.25,0,1,0,.354.354l.409-.408c.008,0,.015.01.023.01a.249.249,0,0,0,.177-.073.241.241,0,0,0,.064-.2l.176-.175c.056.056.119.1.171.163,1,1.142,1.083,2.862,1.083,4.674q0,3.827-.017,7.653c-6.82-3.014-14.3-.312-18.356,5.587a14.705,14.705,0,0,0,18.306,21.6c0,.164,0,.329,0,.493l-1.251,1.251-.03-.03a.25.25,0,0,0-.354.354l.917.917-1.065,1.065-.207-.207a.25.25,0,0,0-.354.354l.207.207-.089.089a.25.25,0,0,0,.354.354l.089-.089,1.1,1.1a.25.25,0,1,0,.354-.354l-1.1-1.1,1.065-1.065.355.355C45,58.9,44.724,61.014,42.768,62.3l-.6-.6,1.124-1.124.217.217a.25.25,0,1,0,.354-.354l-.217-.217.419-.419a.25.25,0,0,0-.354-.354l-.419.419L42.223,58.8l.645-.645a.25.25,0,1,0-.354-.354l-.645.645-.3-.3a.25.25,0,1,0-.354.354l.3.3L40.391,59.92l-1.064-1.064a.25.25,0,1,0-.354.354l1.064,1.064-.947.947-1.272-1.272.834-.834a.25.25,0,1,0-.354-.354l-2.223,2.223-.175-.177a.25.25,0,1,0-.354.354l.178.178-.828.828-.887-.887a.25.25,0,1,0-.354.354l.887.887L33.19,63.873c-.739.03-1.477.061-2.217.077a.234.234,0,0,0-.032-.077l.94-.94.762.762A.25.25,0,1,0,33,63.342l-.762-.762,2.435-2.435a.25.25,0,1,0-.353-.354l-2.436,2.435-.473-.473a.25.25,0,0,0-.354.354l.473.473-.917.917-1.389-1.389c-.023-.023-.056-.023-.085-.035l2.293-2.293a.25.25,0,1,0-.354-.354l-3.687,3.687-.887-.887a.235.235,0,0,0-.126-.052l1.3-1.3a.25.25,0,1,0-.354-.354l-2.444,2.444-.917-.917h0l.678-.677a.25.25,0,1,0-.354-.354L22.07,63.23l-1-1.005a.25.25,0,0,0-.354.353l1,1.005-.2.205c-.361-.02-.721-.047-1.082-.07a.238.238,0,0,0-.044-.1l-.71-.71,2.04-2.041a.25.25,0,1,0-.354-.354L19.32,62.549l-.444-.444a.25.25,0,0,0-.354.354l.444.444-.5.5a.246.246,0,0,0-.069.168q-3.486-.282-6.953-.758c-5.6-.795-7.331-2.39-7.172-9.172C4.423,47.236,3.342,21.682,3.522,19.209Z" fill="#000c1e"/>
    <path id="Path_3461" data-name="Path 3461" d="M25.149,10.933a3.3,3.3,0,0,0,1.414-2.958,3.125,3.125,0,0,0-.983-2.151,2.382,2.382,0,0,0-2.407-.49A3.623,3.623,0,0,0,21.41,7.915a2.968,2.968,0,0,0,.435,2.7A2.675,2.675,0,0,0,25.149,10.933ZM22.4,9.643a2.032,2.032,0,0,1-.1-.7l.4.4Zm3.161-1.609a2.321,2.321,0,0,1-.957,2.058,1.68,1.68,0,0,1-1.885-.062l.335-.335.094.094a.25.25,0,1,0,.354-.353l-.095-.094.632-.632a.25.25,0,0,0-.354-.354l-.632.632-.7-.7c.01-.054.012-.1.024-.16a4.194,4.194,0,0,1,.337-.952l.12.121a.246.246,0,0,0,.009.333.236.236,0,0,0,.333.009l.466.466A.25.25,0,1,0,24,7.755L23.944,7.7c.009,0,.016.011.026.011a.249.249,0,0,0,.177-.073l.37-.37a.216.216,0,0,0,.3-.023.241.241,0,0,0,.023-.3l.031-.031a.25.25,0,1,0-.354-.354l-.015.015-.358-.358a1.486,1.486,0,0,1,.771.354A2.12,2.12,0,0,1,25.564,8.034ZM24.147,6.927l-.354.353a.239.239,0,0,0-.063.2l-.188-.188.486-.486ZM23.5,6.283l.173.173-.485.486-.2-.2A1.377,1.377,0,0,1,23.5,6.283Z" fill="#000c1e"/>
    <path id="Path_3462" data-name="Path 3462" d="M39.224,29.418a10.335,10.335,0,0,0-7.454,3.535,9.57,9.57,0,0,0-2.224,4.325,9.816,9.816,0,0,0,3.575,9.673c8.941,6.792,20.427-4.658,13.742-13.622a9.552,9.552,0,0,0-3.393-2.821A10.227,10.227,0,0,0,39.224,29.418Zm-1.5,1.22.863.863-.931.931L36.222,31a8.112,8.112,0,0,1,1.471-.436C37.7,30.589,37.7,30.618,37.723,30.638ZM35.044,32.46a.25.25,0,0,0-.354,0l-.4.4-.46-.462a10.5,10.5,0,0,1,1.913-1.174L37.3,32.787,35.759,34.33l-1.115-1.115.4-.4A.251.251,0,0,0,35.044,32.46Zm-2.526,1.157a9.64,9.64,0,0,1,.925-.894l.492.492L32.7,34.452l-.468-.468C32.328,33.863,32.414,33.734,32.518,33.617Zm-.3,1.672a.25.25,0,0,0,.354,0l.129-.129.625.625-1.849,1.849-.741-.741c-.009-.009-.024-.006-.034-.014a8.5,8.5,0,0,1,1.219-2.5l.426.426-.129.129A.25.25,0,0,0,32.216,35.289Zm-1.643,5.822.976.976-.494.494A9.189,9.189,0,0,1,30.573,41.111Zm-.131-.839a8.627,8.627,0,0,1-.071-1.212.236.236,0,0,0,.363.022l.741-.741,1.744,1.744a.228.228,0,0,0,.319.015L31.9,41.734Zm-.062-1.543c-.009.009-.006.023-.014.033a7.9,7.9,0,0,1,.159-1.274c0-.025.016-.049.021-.074l.575.575Zm15.681-4.8c5.969,8.005-4.271,18.357-12.333,12.23a8.51,8.51,0,0,1-2.454-3.086l.63-.63.56.56a.25.25,0,0,0,.354-.354l-.56-.56L34.2,40.145a.25.25,0,1,0-.354-.354l-.257.257a.244.244,0,0,0-.015-.319l-1.744-1.744,1.849-1.849.863.863a.25.25,0,0,0,.354-.354l-.91-.91a.244.244,0,0,0-.066-.194.241.241,0,0,0-.194-.066l-.672-.672,1.237-1.237L35.4,34.681l-.374.374a.25.25,0,0,0,.354.354l.374-.374.074.074a.25.25,0,0,0,.354-.354l-.074-.074,1.543-1.543.313.313a.25.25,0,1,0,.354-.354l-.313-.313.931-.932,1.054,1.054-.435.435a.25.25,0,0,0,.354.354l.6-.6s.007,0,.01,0,0-.007,0-.01l1.043-1.043a.25.25,0,0,0-.354-.353l-.874.873L39.294,31.5l.014-.014a.25.25,0,1,0-.354-.353l-.014.014-.678-.678A6.236,6.236,0,0,1,39,30.412q.1,0,.195,0a9.23,9.23,0,0,1,3.83.984A8.606,8.606,0,0,1,46.061,33.926Z" fill="#000c1e"/>
    <path id="Path_3463" data-name="Path 3463" d="M41.5,30.9a.25.25,0,0,0-.354.354L42.5,32.6l-.864.863a.25.25,0,0,0,.354.354l.864-.863.732.732a.25.25,0,1,0,.353-.354l-.732-.732.251-.251A.25.25,0,0,0,43.106,32l-.251.251Z" fill="#000c1e"/>
    <path id="Path_3464" data-name="Path 3464" d="M8.628,34.312,12.5,30.443l1.13,1.13-3.153,3.153-.5-.5a.25.25,0,1,0-.354.354l.5.5L8.812,36.387a.25.25,0,0,0,.354.354l1.307-1.307,2.074,2.074-2.074,2.074-.363-.363a.25.25,0,1,0-.354.354l.363.363L9.084,40.97a.25.25,0,1,0,.354.354l1.037-1.037,2.572,2.572a.25.25,0,1,0,.354-.354l-2.572-2.572L12.9,37.859l3.065,3.065a.25.25,0,0,0,.354-.354l-3.065-3.065,3.152-3.153,1.1,1.1-1.826,2.019a.25.25,0,1,0,.371.335l1.809-2,.466.466a.25.25,0,1,0,.354-.354l-.483-.483,2.85-3.152a.249.249,0,0,0-.009-.344L17.5,28.4l.477-.477a.25.25,0,1,0-.354-.353l-.477.477-1.13-1.13,1.934-1.934a.25.25,0,0,0-.354-.354l-1.934,1.934-1.239-1.239a.25.25,0,0,0-.354.353l1.239,1.239L12.5,29.734,10.92,28.16a.25.25,0,0,0-.354.354l1.576,1.576L8.274,33.958a.25.25,0,0,0,.354.354ZM12.9,37.153l-2.074-2.074,3.153-3.152L16.054,34Zm7.617-5.026-2.674,2.957L16.761,34l.426-.426a.25.25,0,0,0-.354-.354l-.426.426-2.074-2.074,2.815-2.815Zm-4.852-4.853L16.8,28.4l-2.815,2.815-1.13-1.13Z" fill="#000c1e"/>
  </g>
</svg>
