<svg id="operations" xmlns="http://www.w3.org/2000/svg" width="61.899" height="55.374" viewBox="0 0 61.899 55.374">
  <path id="Path_757" data-name="Path 757" d="M58.166,32.839a27.691,27.691,0,0,1-54,1.825l3.456-.9a24.112,24.112,0,0,0,46.889-.922H50.822L56.361,26.1,61.9,32.839ZM39.558,17.558a.7.7,0,0,0-.084-.071.533.533,0,0,0-.084-.045l-.006-.006a.217.217,0,0,0-.077-.026h-.1a.59.59,0,0,0-.11.006.217.217,0,0,0-.077.026l-.013.006a.7.7,0,0,1-.071.039.7.7,0,0,0-.084.071l-1.5,1.5a.889.889,0,0,1-.548.258.863.863,0,0,1-.58-.155c-.077-.052-.168-.1-.258-.155h0c-.11-.064-.2-.116-.277-.155l-.013-.006c-.09-.052-.187-.1-.284-.148a3.023,3.023,0,0,0-.3-.135L35.1,18.55c-.09-.045-.193-.09-.3-.135s-.213-.084-.316-.123l-.019-.006c-.129-.052-.29-.1-.458-.161l-.168-.071a.82.82,0,0,1-.426-.316.885.885,0,0,1-.168-.522V14.927a.59.59,0,0,0-.006-.11v-.006l-.019-.077a.533.533,0,0,0-.045-.084.556.556,0,0,0-.142-.142.347.347,0,0,0-.084-.045h0a.319.319,0,0,0-.084-.026.556.556,0,0,0-.11-.006H29.879a.521.521,0,0,0-.1.006.363.363,0,0,0-.077.026l-.013.006a.7.7,0,0,0-.071.039.409.409,0,0,0-.084.071.683.683,0,0,0-.064.077.348.348,0,0,0-.045.084.363.363,0,0,0-.026.077.556.556,0,0,0-.006.11v2.089a.888.888,0,0,1-.206.567.866.866,0,0,1-.522.3c-.174.039-.335.084-.484.129l-.142.039c-.2.058-.406.135-.613.213l-.019.006a.411.411,0,0,1-.045.013c-.11.039-.219.09-.335.142l-.226.1c-.2.09-.387.187-.555.277a.875.875,0,0,1-.548.1.854.854,0,0,1-.5-.251C24.676,18.1,24.07,17.545,23.528,17a.816.816,0,0,0-.084-.071l-.013-.006a.141.141,0,0,1-.032-.019c-.013-.006-.019-.006-.032-.013h0a.608.608,0,0,0-.058-.019.457.457,0,0,0-.1-.006.521.521,0,0,0-.1.006H23.1c-.026.006-.052.013-.071.019l-.006.006a.481.481,0,0,0-.077.045,1.143,1.143,0,0,0-.1.09l-1.992,2.005a.994.994,0,0,0-.084.09.481.481,0,0,0-.045.077l-.006.013c-.006.019-.013.045-.019.071h0a.521.521,0,0,0-.006.1.512.512,0,0,0,.032.187.646.646,0,0,0,.123.168l1.5,1.5a.889.889,0,0,1,.258.548.863.863,0,0,1-.155.58c-.052.084-.1.168-.155.258h0c-.064.11-.116.2-.155.277l-.006.013c-.052.09-.1.187-.148.284s-.09.2-.135.3l-.006.006c-.045.09-.09.193-.135.3s-.084.213-.123.316l-.006.019c-.052.129-.1.29-.161.458l-.058.168a.829.829,0,0,1-.322.438.885.885,0,0,1-.522.168H18.222a.556.556,0,0,0-.11.006.417.417,0,0,0-.084.026.533.533,0,0,0-.084.045.556.556,0,0,0-.142.142.481.481,0,0,0-.045.077.475.475,0,0,0-.026.09.556.556,0,0,0-.006.11v2.869a.466.466,0,0,0,.032.174.449.449,0,0,0,.052.09h0a.444.444,0,0,0,.071.084h0a.683.683,0,0,0,.077.064.347.347,0,0,0,.084.045.363.363,0,0,0,.077.026h.006a.521.521,0,0,0,.1.006h2.089a.888.888,0,0,1,.567.206.866.866,0,0,1,.3.522c.039.174.084.335.129.484l.039.135c.026.09.058.193.1.3.045.123.077.219.116.309s.084.2.123.309.09.206.135.322q.1.222.193.406l.1.206a.9.9,0,0,1,.084.529.858.858,0,0,1-.251.49c-.509.471-1.174,1.122-1.638,1.631a.844.844,0,0,0-.077.084c-.013.019-.026.032-.026.045s-.006.019-.013.032a.3.3,0,0,0-.019.058l-.006.013a.341.341,0,0,0-.006.084.521.521,0,0,0,.006.1v.006c.006.026.013.045.019.071l.006.013a.315.315,0,0,0,.045.071,1.144,1.144,0,0,0,.09.11l1.973,2.005.09.071a.533.533,0,0,0,.084.045h0a.475.475,0,0,0,.09.026.59.59,0,0,0,.11.006.627.627,0,0,0,.116-.006h.006c.026-.006.052-.013.071-.019s.058-.026.09-.045l.084-.064,1.47-1.5a.882.882,0,0,1,.548-.264.871.871,0,0,1,.587.155c.084.052.168.1.258.155h0c.11.064.2.116.277.155l.013.006a4.828,4.828,0,0,0,.58.284l.019.006c.09.045.187.084.29.129s.213.084.316.123l.019.006c.129.052.29.11.458.161l.161.058a.829.829,0,0,1,.438.322.885.885,0,0,1,.168.522V40.4a.618.618,0,0,0,.032.2.481.481,0,0,0,.045.077.683.683,0,0,0,.064.077.572.572,0,0,0,.155.11.47.47,0,0,0,.193.032h2.869a.466.466,0,0,0,.174-.032.449.449,0,0,0,.09-.052.409.409,0,0,0,.084-.071.683.683,0,0,0,.064-.077.348.348,0,0,0,.045-.084.364.364,0,0,0,.026-.077.556.556,0,0,0,.006-.11V38.307a.888.888,0,0,1,.206-.567.908.908,0,0,1,.522-.309c.174-.039.335-.084.484-.129l.135-.039c.2-.058.406-.135.613-.213s.406-.168.625-.264q.222-.1.406-.193l.206-.1a.9.9,0,0,1,.529-.084.858.858,0,0,1,.49.251c.471.509,1.122,1.174,1.631,1.638a.844.844,0,0,0,.084.077c.019.013.032.026.045.026s.019.006.032.013a.3.3,0,0,0,.058.019.556.556,0,0,0,.11.006.59.59,0,0,0,.11-.006.3.3,0,0,0,.058-.019l.013-.006c.019-.013.045-.026.064-.039h0c.026-.019.052-.045.077-.064,0,0,1.857-1.831,2.031-2.005.026-.032.052-.064.071-.09a.533.533,0,0,0,.045-.084h0a.475.475,0,0,0,.026-.09.59.59,0,0,0,.006-.11.524.524,0,0,0-.032-.193c-.013-.026-.026-.058-.045-.09s-.039-.052-.064-.084l-1.5-1.47a.882.882,0,0,1-.264-.548.871.871,0,0,1,.155-.587c.052-.084.1-.168.155-.258s.11-.193.155-.277l.006-.013a4.828,4.828,0,0,0,.284-.58l.006-.019c.045-.09.084-.187.129-.29s.084-.213.123-.316l.006-.019c.052-.129.1-.29.161-.458l.058-.168a.829.829,0,0,1,.322-.438.885.885,0,0,1,.522-.168h2.289a.618.618,0,0,0,.2-.032.48.48,0,0,0,.077-.045.556.556,0,0,0,.142-.142.347.347,0,0,0,.045-.084h0a.364.364,0,0,0,.026-.077h0a.556.556,0,0,0,.006-.11V26.585a.521.521,0,0,0-.006-.1l-.019-.077-.006-.013a.481.481,0,0,0-.045-.077l-.006-.013A.642.642,0,0,0,44,26.23a.682.682,0,0,0-.077-.064.347.347,0,0,0-.084-.045.364.364,0,0,0-.077-.026.556.556,0,0,0-.11-.006H41.563a.9.9,0,0,1-.574-.213.919.919,0,0,1-.3-.522c-.052-.2-.1-.4-.161-.6-.026-.084-.058-.187-.1-.3s-.077-.213-.116-.316l-.006-.019a.121.121,0,0,1-.013-.052c-.064-.168-.142-.342-.213-.509l-.026-.058a5.559,5.559,0,0,0-.277-.555l-.006-.013a.9.9,0,0,1-.1-.542.854.854,0,0,1,.251-.5c.548-.555,1.1-1.115,1.651-1.664a.845.845,0,0,0,.077-.084l.006-.013a.141.141,0,0,1,.019-.032c.006-.013.006-.019.013-.032A.3.3,0,0,0,41.711,20a.457.457,0,0,0,.006-.1.521.521,0,0,0-.006-.1v-.006c-.006-.026-.013-.045-.019-.071l-.006-.006a.48.48,0,0,0-.045-.077,1.143,1.143,0,0,0-.09-.1l-1.992-1.979Zm.522-1.76a2.228,2.228,0,0,1,.387.206,2.445,2.445,0,0,1,.348.29l2.018,2.018a2.444,2.444,0,0,1,.29.348,1.863,1.863,0,0,1,.206.387v.006a1.858,1.858,0,0,1,.129.419,2.084,2.084,0,0,1,.045.445,2.144,2.144,0,0,1-.045.451,2.339,2.339,0,0,1-.135.426h0a1.876,1.876,0,0,1-.219.38,2.044,2.044,0,0,1-.29.335L41.653,22.7c.013.032.032.064.045.09h0c.09.193.174.393.251.587l.026.064a.217.217,0,0,1,.032.09v.013c.039.1.077.213.116.322s.084.245.123.38c.006.026.019.052.026.077h1.412a2.084,2.084,0,0,1,.445.045,1.912,1.912,0,0,1,.426.129,1.892,1.892,0,0,1,.387.213,2.848,2.848,0,0,1,.342.284l.019.019.013.019a2.678,2.678,0,0,1,.271.335,1.957,1.957,0,0,1,.2.38,2.419,2.419,0,0,1,.129.419,2.394,2.394,0,0,1,.045.432v2.869a2,2,0,0,1-.045.445,2.4,2.4,0,0,1-.123.419h0a2.228,2.228,0,0,1-.206.387,2.5,2.5,0,0,1-.638.638,1.863,1.863,0,0,1-.387.206,2.244,2.244,0,0,1-.419.123,2.612,2.612,0,0,1-.451.045H42.034c-.013.039-.026.071-.039.11-.077.2-.168.406-.258.613-.045.1-.09.213-.142.3-.084.174-.161.342-.251.509l-.032.058c.348.342.7.683,1.045,1.032a2.25,2.25,0,0,1,.271.342,1.835,1.835,0,0,1,.2.387,2.785,2.785,0,0,1,.123.413,2.574,2.574,0,0,1,.039.438,2.464,2.464,0,0,1-.039.438,1.793,1.793,0,0,1-.123.413,2.348,2.348,0,0,1-.193.38h0a2.112,2.112,0,0,1-.258.335.21.21,0,0,1-.084.084l-1.973,1.947a1.925,1.925,0,0,1-.348.3,2.261,2.261,0,0,1-.387.213h-.006a2.194,2.194,0,0,1-.413.129,2.312,2.312,0,0,1-.909,0,2.579,2.579,0,0,1-.432-.135,1.969,1.969,0,0,1-.393-.219h0a2.788,2.788,0,0,1-.335-.284l-1.167-1.167-.1.045h0c-.219.1-.458.193-.709.3l-.019.006c-.116.045-.232.084-.348.129-.135.045-.264.09-.38.123l-.071.026V40.4a2.084,2.084,0,0,1-.045.445,1.912,1.912,0,0,1-.129.426,1.892,1.892,0,0,1-.213.387,2.849,2.849,0,0,1-.284.342l-.032.032a2.627,2.627,0,0,1-.335.264,3.036,3.036,0,0,1-.374.206h0a2.419,2.419,0,0,1-.419.129,2.394,2.394,0,0,1-.432.045H29.17a2.308,2.308,0,0,1-.877-.168,2.188,2.188,0,0,1-.729-.5,2.444,2.444,0,0,1-.29-.348,1.863,1.863,0,0,1-.206-.387,2.245,2.245,0,0,1-.123-.419,2.612,2.612,0,0,1-.045-.451V38.752l-.11-.039c-.206-.077-.406-.168-.613-.258-.1-.045-.2-.09-.3-.142h0c-.174-.084-.348-.161-.516-.251l-.058-.019c-.342.348-.683.7-1.032,1.045a2.25,2.25,0,0,1-.342.271,1.835,1.835,0,0,1-.387.2,2.784,2.784,0,0,1-.413.123,2.574,2.574,0,0,1-.438.039,2.518,2.518,0,0,1-.438-.039,1.793,1.793,0,0,1-.413-.123,2.348,2.348,0,0,1-.38-.193l-.019-.013a1.968,1.968,0,0,1-.316-.245.21.21,0,0,1-.084-.084l-1.96-1.986a2.444,2.444,0,0,1-.29-.348,1.863,1.863,0,0,1-.206-.387V36.3a1.912,1.912,0,0,1-.129-.413,2.1,2.1,0,0,1-.045-.451,2.144,2.144,0,0,1,.045-.451,2.339,2.339,0,0,1,.135-.426h0a1.876,1.876,0,0,1,.219-.38,2.31,2.31,0,0,1,.284-.329l1.167-1.167-.045-.1h0c-.052-.116-.1-.232-.148-.342l-.006-.013c-.045-.116-.1-.232-.142-.355l-.006-.019c-.045-.116-.084-.232-.129-.348-.045-.135-.09-.264-.123-.38-.006-.026-.013-.045-.019-.071H18.235a2.084,2.084,0,0,1-.445-.045,1.912,1.912,0,0,1-.426-.129,2.26,2.26,0,0,1-.387-.213,2.849,2.849,0,0,1-.342-.284l-.019-.019a2.855,2.855,0,0,1-.277-.348,3.036,3.036,0,0,1-.206-.374h0A2.419,2.419,0,0,1,16,29.222a2.394,2.394,0,0,1-.045-.432V25.92A2,2,0,0,1,16,25.475a2.4,2.4,0,0,1,.123-.419h0a2.229,2.229,0,0,1,.206-.387,2.444,2.444,0,0,1,.29-.348,2.213,2.213,0,0,1,.735-.5,2.245,2.245,0,0,1,.419-.123,2.612,2.612,0,0,1,.451-.045h1.657c.013-.039.026-.071.039-.11.077-.206.168-.406.258-.613.045-.1.09-.2.142-.3h0c.084-.174.168-.348.251-.516l.032-.058-1-1a2.419,2.419,0,0,1-.284-.342,2.847,2.847,0,0,1-.219-.387h0a2.339,2.339,0,0,1-.135-.426,2.084,2.084,0,0,1-.045-.445,2.144,2.144,0,0,1,.045-.451,2.339,2.339,0,0,1,.135-.426,1.861,1.861,0,0,1,.213-.387,2.4,2.4,0,0,1,.29-.342c.664-.664,1.348-1.4,2.031-2.031a2.251,2.251,0,0,1,.335-.277,1.863,1.863,0,0,1,.387-.206h.006a1.859,1.859,0,0,1,.419-.129,2.084,2.084,0,0,1,.445-.045,2.144,2.144,0,0,1,.451.045,2.339,2.339,0,0,1,.426.135,2.014,2.014,0,0,1,.38.219l.013.013a2.616,2.616,0,0,1,.322.277l1.186,1.161c.026-.013.052-.026.1-.045l.077-.039c.181-.077.368-.161.555-.239a.239.239,0,0,1,.123-.045c.1-.039.213-.077.322-.116.135-.045.264-.09.38-.123l.071-.026V14.959a2.084,2.084,0,0,1,.045-.445,1.912,1.912,0,0,1,.129-.426,1.892,1.892,0,0,1,.213-.387,2.848,2.848,0,0,1,.284-.342l.026-.019a3.386,3.386,0,0,1,.342-.277,3.036,3.036,0,0,1,.374-.206h0a2.419,2.419,0,0,1,.419-.129,2.394,2.394,0,0,1,.432-.045h2.869a2,2,0,0,1,.445.045,2.4,2.4,0,0,1,.419.123h0a1.863,1.863,0,0,1,.387.206,2.914,2.914,0,0,1,.355.29l.006.006a2.445,2.445,0,0,1,.29.348,1.863,1.863,0,0,1,.206.387,2.245,2.245,0,0,1,.123.419,2.612,2.612,0,0,1,.045.451v1.657l.11.039c.123.045.245.09.368.148l.013.006c.123.052.239.1.355.161l.187.09c.174.084.342.161.509.251l.058.032,1-1a2.419,2.419,0,0,1,.342-.284,2.847,2.847,0,0,1,.387-.219h0a2.339,2.339,0,0,1,.426-.135,2.1,2.1,0,0,1,.451-.045,2.043,2.043,0,0,1,.445.045,2.415,2.415,0,0,1,.29.077.183.183,0,0,1,.1.013Zm-9.13,5.345c.213,0,.432.013.658.032a5.069,5.069,0,0,1,.638.1h0a5.954,5.954,0,0,1,.625.161c.206.064.413.142.613.226l.013.006a5.775,5.775,0,0,1,.567.277,4.43,4.43,0,0,1,.522.329l.006.006a6.467,6.467,0,0,1,.941.774l.006.006c.148.148.284.3.413.458s.251.329.368.5l.013.019c.11.174.219.342.309.516s.193.368.284.561l.019.039a.12.12,0,0,1,.013.045,5.675,5.675,0,0,1,.348,1.161q.058.309.1.638c.019.219.032.438.032.658s-.013.432-.032.658a5.07,5.07,0,0,1-.1.638h0a5.955,5.955,0,0,1-.161.625c-.064.206-.142.413-.226.613l-.006.013a6.877,6.877,0,0,1-.6,1.09l-.006.013c-.116.174-.239.335-.361.49s-.264.309-.413.458l-.006-.006c-.148.148-.3.284-.458.413s-.329.251-.5.368l-.019.013c-.174.11-.342.219-.516.309s-.368.193-.561.284l-.006.006a.324.324,0,0,1-.084.032,5.973,5.973,0,0,1-1.161.348q-.309.058-.638.1c-.219.019-.438.032-.658.032s-.432-.013-.658-.032a5.07,5.07,0,0,1-.638-.1h0a5.955,5.955,0,0,1-.625-.161c-.206-.064-.413-.142-.613-.226l-.013-.006a6.877,6.877,0,0,1-1.09-.6l-.013-.006c-.174-.116-.335-.239-.49-.361s-.309-.264-.458-.413l-.006-.006c-.148-.148-.284-.3-.413-.458s-.251-.329-.368-.5l-.013-.019a7.6,7.6,0,0,1-.593-1.077l-.006-.006a.324.324,0,0,1-.032-.084,4.871,4.871,0,0,1-.2-.561,4.67,4.67,0,0,1-.142-.593q-.058-.309-.1-.638c-.019-.219-.032-.438-.032-.658s.013-.432.032-.658a5.07,5.07,0,0,1,.1-.638h0a5.955,5.955,0,0,1,.161-.625c.064-.206.142-.413.226-.613l.006-.013c.084-.187.174-.374.271-.555s.213-.361.329-.535l.006-.013a6.467,6.467,0,0,1,.774-.941l.006-.006c.148-.148.3-.284.458-.413s.329-.251.5-.368l.019-.013c.174-.11.342-.219.516-.309s.368-.193.561-.284l.006-.006a.324.324,0,0,1,.084-.032,5.8,5.8,0,0,1,.561-.2c.2-.058.393-.11.6-.148h0q.309-.058.638-.1c.239-.019.451-.032.671-.032Zm.9,1.857c-.142-.026-.277-.045-.419-.058s-.309-.026-.477-.026a3.91,3.91,0,0,0-.484.026,4.864,4.864,0,0,0-.909.181q-.193.058-.387.135l-.045.019-.013.006c-.142.064-.284.129-.419.2l-.013.006a3.838,3.838,0,0,0-.387.232l-.006.006c-.123.084-.239.168-.355.258h0c-.123.1-.232.193-.342.3s-.2.213-.3.329l-.013.013c-.09.11-.174.226-.258.348l-.006.013a4.231,4.231,0,0,0-.226.38c-.077.142-.142.284-.206.432V25.8q-.087.213-.155.426a3.543,3.543,0,0,0-.11.451h0c-.032.161-.052.316-.071.477s-.019.309-.019.477a3.911,3.911,0,0,0,.026.484,3.953,3.953,0,0,0,.071.471,4.355,4.355,0,0,0,.11.438c.039.135.084.264.135.4.006.013.013.032.019.045l.006.013c.064.142.129.284.2.419l.006.013c.071.129.148.264.232.387l.006.006c.084.123.168.239.264.355s.193.226.3.335a3.712,3.712,0,0,0,.342.3c.116.09.232.181.355.258l.013.006a4.231,4.231,0,0,0,.38.226c.142.077.284.142.432.206l.006.006q.213.087.426.155a3.542,3.542,0,0,0,.451.11h0c.161.032.316.052.477.071s.309.019.477.019a3.91,3.91,0,0,0,.484-.026,4.865,4.865,0,0,0,.909-.181,3.8,3.8,0,0,0,.38-.135A.234.234,0,0,1,32.787,32l.013-.006c.142-.064.284-.129.419-.2l.013-.006c.129-.071.264-.148.387-.232l.006-.006c.123-.084.239-.168.355-.258h0c.123-.1.232-.193.342-.3s.2-.213.3-.329l.013-.013c.09-.11.174-.226.258-.348H34.9a4.231,4.231,0,0,0,.226-.38h0c.077-.142.142-.284.206-.432l.006-.006q.087-.213.155-.426a3.543,3.543,0,0,0,.11-.451h0c.032-.161.052-.316.071-.477s.019-.309.019-.477a3.91,3.91,0,0,0-.026-.484,4.865,4.865,0,0,0-.181-.909q-.058-.193-.135-.387a.233.233,0,0,1-.019-.045l-.006-.013c-.064-.142-.129-.284-.2-.419l-.006-.013A3.838,3.838,0,0,0,34.883,25l-.006-.006c-.084-.123-.168-.239-.264-.355s-.193-.226-.3-.335a3.712,3.712,0,0,0-.342-.3c-.116-.09-.232-.181-.355-.258l-.013-.006a3.114,3.114,0,0,0-.38-.226h0c-.142-.077-.284-.142-.432-.206l-.006-.006q-.213-.087-.426-.155a3.543,3.543,0,0,0-.451-.11c-.019-.013-.039-.019-.058-.032ZM3.759,22.535A27.689,27.689,0,0,1,57.186,18.8l-1.7.574-1.7.574c-.045-.142-.1-.284-.148-.419A24.113,24.113,0,0,0,7.4,22.542h3.669L5.539,29.28,0,22.535Z" fill="#fcfcfc"/>
</svg>
