<svg xmlns="http://www.w3.org/2000/svg" width="57.749" height="58.247" viewBox="0 0 57.749 58.247">
  <g id="ecommerce-development3" transform="translate(-148.364 -146.396)">
    <path id="Path_5942" data-name="Path 5942" d="M206.079,169.889c-.2-3.96-1.655-4.59-4.227-4.633l-7.64-.118c-2.073-3.6-4.223-7.327-6.268-10.892a5.367,5.367,0,1,0-9.486-5.02,5.289,5.289,0,0,0,4.521,7.9c1.388,2.792,2.308,4.677,3.915,7.915-6.563-.1-12.271-.182-19.164-.289l3.771-7.625a5.565,5.565,0,0,0,3.954-1.891,5.157,5.157,0,0,0,.564-6.011,5.4,5.4,0,0,0-10.115,1.922,5.39,5.39,0,0,0,.631,3.1q-2.982,5.2-5.991,10.395l-5.611-.077c-4.485-.083-6.318,1.187-6.547,6.625-.186,3.815.759,5.905,4.654,5.963q.954,8.781,1.934,17.562c.693,6.369,2.363,8.627,9.259,9.264a159.165,159.165,0,0,0,26.415.217c5.993-.444,7.7-2.263,8.706-8.318l3.206-19.195c3.252-.954,3.7-3.446,3.52-6.794Zm-26.828-20.217a4.5,4.5,0,0,1,8.419,1.58,4.352,4.352,0,0,1-.274,2.035c-.083-.145-.165-.289-.25-.435l-.053-.089a8.716,8.716,0,0,0-1.981-2.571c-1.76-1.392-4.056-.944-4.586.725a2.66,2.66,0,0,0,.229,2.042c.745,1.382.946,1.67,1.747,3.211a4.363,4.363,0,0,1-3.251-6.5Zm2.306,2.858c-.986-1.842,1.156-3.069,2.987-1.623,1.034.818,1.1,1.184,7.243,11.846,3.415,5.925,3.825,6.452,4.016,7.362.427,1.97-1.515,3.132-3.8,1.119a18.264,18.264,0,0,1-3.954-5.9l-.011-.021a.026.026,0,0,1,0-.007c-6.972-14.011-3.02-6.34-6.482-12.775Zm3.393,13.393-.638.638a.225.225,0,0,0-.066.16l-.822-.822Zm-6.621-.1-.188.188-.195-.195.383.006Zm-2.748-.042-.07.07-.073-.073C175.485,165.779,175.534,165.779,175.581,165.78Zm-4.421-.066,1.211.018.165.165-.747.747c-.01-.02-.008-.045-.025-.061l-.737-.737Zm-4.353-14.464a4.491,4.491,0,0,1,8.418-1.578,4.276,4.276,0,0,1-.465,4.974,4.593,4.593,0,0,1-2.779,1.524c.682-1.318,1.1-2.011,1.743-3.209,1.44-2.685-1.725-4.853-4.36-2.767a8.712,8.712,0,0,0-1.981,2.571l-.3.523a4.347,4.347,0,0,1-.274-2.038Zm3.126-.343c1.82-1.438,3.972-.22,2.984,1.623-.489.91-2,3.452-6.491,12.8h0v0a18.255,18.255,0,0,1-3.958,5.9c-1.581,1.4-2.907,1.208-3.5.521-1.016-1.2.343-3.142,1.015-4.307,9.041-15.648,8.829-15.659,9.949-16.545Zm-4.186,18.717-.406-.406c.395-.611.755-1.24,1.084-1.867a.216.216,0,0,0,.052.125.224.224,0,0,0,.157.064l.6.6Zm.274.917a.222.222,0,0,0-.16.066l-1.508,1.508-.708-.708c-.007-.007-.019-.005-.027-.012a12.842,12.842,0,0,0,1.468-1.791Zm.629-3.627c.234-.458.416-.823.631-1.259h.075l.31.31-.981.981Zm-5.1,5.993-.7.7-.426-.426a2.713,2.713,0,0,0,1.121-.269Zm36.9,22.821c-.963,5.775-2.444,7.157-7.877,7.56a158.354,158.354,0,0,1-26.262-.217c-6.392-.59-7.786-2.47-8.437-8.457q-.968-8.738-1.925-17.476c8.611-.22,45.251.138,47.647-.236Zm3.6-19.838c-1.619.37-47.7.354-48.612.354-3.531.049-4.326-1.352-4.148-5.013.21-5.018,1.727-5.822,5.623-5.756l5.108.071c-1.292,2.267-3.344,4.924-1.747,6.8a2.5,2.5,0,0,0,1.5.8c.067.11.659.687.751.778l-.227.227a.227.227,0,0,0,.321.322l1.234-1.233.857.857a.227.227,0,1,0,.321-.322l-.857-.857,1.164-1.164.684.684-.48.48a.227.227,0,0,0,.322.321l.48-.48.342.342a.227.227,0,0,0,.322-.321l-.342-.342,1.508-1.508a.226.226,0,0,0,.066-.16l.043.044a.228.228,0,1,0,.322-.322l-.545-.545,1.484-1.484.526.526a.227.227,0,1,0,.321-.321l-.526-.526.818-.818a.228.228,0,0,0-.322-.322l-.818.818-.547-.547.981-.981,1.653,1.653a.228.228,0,0,0,.322-.322l-1.653-1.653a1.383,1.383,0,0,0,.257-.292l1.668.025.148.148-.714.714a.228.228,0,1,0,.322.322l.714-.714.738.737c.016.017.041.014.061.025l-.36.36a.228.228,0,1,0,.322.322l1.393-1.393.944.944a.227.227,0,1,0,.321-.322l-.944-.944.053-.053a.217.217,0,0,0,.041-.1l1.6.025a.228.228,0,0,0,.063.152l.251.251-.891.891a.227.227,0,0,0,.322.321l.891-.891.917.917a.228.228,0,0,0,.322-.322l-.917-.917.088-.088a.223.223,0,0,0,.01-.3l1.583.024a.214.214,0,0,0,.03.249l.274.273-.274.274a.228.228,0,1,0,.322.322l.273-.274.672.672a.227.227,0,1,0,.322-.321l-.672-.672.5-.5,1.078.016-.575.575a.227.227,0,0,0,.321.321l.571-.571,1.193,1.193a.228.228,0,1,0,.322-.322l-1.189-1.188,1.924.029-.673.673a.227.227,0,0,0,.322.321l.763-.763c.007.009,0,.023.013.031l1.01,1.01a.227.227,0,0,0,.322,0,.213.213,0,0,0,.032-.244c.083.032.144.059.237-.035l.754-.754.865.865a.228.228,0,0,0,.322-.322l-.735-.735,1.51.023a18.342,18.342,0,0,0,4.061,5.961c2.966,2.622,5.9.827,5.285-1.993-.2-.954-.651-1.61-1.952-3.869l7.1.11c2.017.033,3.159.233,3.333,3.77.165,3.04-.126,5.2-3.114,5.95Z" fill="#000b1e"/>
    <path id="Path_5943" data-name="Path 5943" d="M420.881,188.32c.076.746,1.338.479,1.133-.3S420.578,187.634,420.881,188.32Z" transform="translate(-237.908 -35.97)" fill="#000b1e"/>
    <path id="Path_5944" data-name="Path 5944" d="M322.823,188.333c.3-.69-.927-1.073-1.134-.3C321.481,188.823,322.749,189.066,322.823,188.333Z" transform="translate(-151.32 -35.983)" fill="#000b1e"/>
    <path id="Path_5945" data-name="Path 5945" d="M500.576,326.734a.7.7,0,0,0,.5-.208.662.662,0,0,0,.165-.6.612.612,0,0,0-.372-.446l-.022-.008a.6.6,0,0,0-.189-.062.585.585,0,0,0-.56.226.456.456,0,0,0-.085.214.471.471,0,0,0-.025.111l-.023.226a.455.455,0,0,0,.228.441A.78.78,0,0,0,500.576,326.734Z" transform="translate(-307.004 -156.306)" fill="#000b1e"/>
    <path id="Path_5946" data-name="Path 5946" d="M246.446,326.012c-.158-.727-1.348-.652-1.226.057l-.031,0C245.07,327.252,246.639,326.9,246.446,326.012Zm-.627-.1c0,.007-.074.188-.077.2a1.179,1.179,0,0,0-.181-.019.23.23,0,0,1,.259-.176Z" transform="translate(-84.538 -156.387)" fill="#000b1e"/>
    <path id="Path_5947" data-name="Path 5947" d="M460.606,415.052c-1.6-.039-4.033-.1-4.835,2.829-.106.388-.394,2.124-.855,4.924-.346,2.105-.725,4.405-.993,5.857-.36,1.955.3,2.774,2.277,2.872,1.851.092,2.685-.241,3.529-2.285a56.155,56.155,0,0,0,3.289-11.066c.427-2.271-.44-3.079-2.413-3.131Zm1.109,1.1-.42.42-.295-.295a.218.218,0,0,0-.025-.263c-.023-.023-.054-.023-.083-.034A2.177,2.177,0,0,1,461.715,416.149Zm-.964-.178a.192.192,0,0,0-.039.016l-.019-.019Zm-.71-.012.332.332-.547.546L459,416.01a7.98,7.98,0,0,1,1.042-.052Zm-3.391,2.162a3.484,3.484,0,0,1,.522-1.1l.535.535-1.1,1.1a.209.209,0,0,0-.051.124l-.031-.031c.056-.311.1-.532.125-.625Zm-.223,1.171.845.845-1.188,1.188c.126-.766.246-1.472.343-2.032Zm-.611,3.662c.057-.349.114-.7.172-1.041l.768.768-.857.857-.154-.154C455.767,423.24,455.791,423.1,455.815,422.953Zm-.469,2.826.209.209-.293.293C455.291,426.116,455.318,425.948,455.346,425.779Zm-.337,1.979.876.876-.526.526-.335-.335a.215.215,0,0,0-.2-.052C454.884,428.469,454.945,428.126,455.009,427.758Zm-.251,1.444.28.28-.288.288A2.339,2.339,0,0,1,454.758,429.2Zm7.367-11.187a55.193,55.193,0,0,1-3.236,10.886c-.676,1.636-1.138,1.8-2.643,1.723a1.93,1.93,0,0,1-1.32-.387l.433-.433.316.316A.227.227,0,1,0,456,429.8l-.316-.316.526-.526.051.051a.227.227,0,0,0,.321-.322l-.051-.051.531-.531a.227.227,0,0,0,0-.322c-.236-.236-.6.277-.852.531l-.977-.976a.219.219,0,0,0-.139-.057c.013-.074.025-.148.038-.223l.746-.746.527.527a.228.228,0,0,0,.322-.322l-.527-.527.687-.687a.228.228,0,0,0-.322-.322l-.687.687-.438-.438c.039-.234.078-.47.117-.706l.341-.341.586.586a.228.228,0,0,0,.322-.322l-.586-.586.887-.887a.176.176,0,0,0,.217-.044.213.213,0,0,0,.044-.216l.063-.063a.228.228,0,1,0-.322-.322l-.032.032-.692-.692,1.208-1.208.166.166a.228.228,0,0,0,.322-.322l-.166-.166.15-.15a.228.228,0,0,0-.322-.322l-.15.15-.789-.789a.226.226,0,0,0,.124-.051l1.1-1.1.583.583a.228.228,0,0,0,.322-.322l-.583-.583.023-.023a.227.227,0,0,0-.321-.322l-.023.023-.553-.553a1.9,1.9,0,0,1,1-.546l1.043,1.043a.218.218,0,0,0,.022.271.194.194,0,0,0,.271.021.223.223,0,0,0,.33-.3l.553-.553.543.543a.227.227,0,0,0,.322,0,.215.215,0,0,0,.034-.24l.449-.449a2.342,2.342,0,0,1,.083,1.552Z" transform="translate(-266.72 -234.571)" fill="#000b1e"/>
    <path id="Path_5948" data-name="Path 5948" d="M237.6,422.83c-.46-2.8-.749-4.536-.855-4.924-.743-2.714-2.816-2.875-4.835-2.829-1.954.051-2.844.842-2.413,3.131a56.073,56.073,0,0,0,3.289,11.066c.828,2.006,1.645,2.377,3.53,2.285,1.974-.1,2.637-.919,2.277-2.872-.269-1.451-.648-3.752-.994-5.857Zm-2.9-6.394-.041.041-.143-.143C234.576,416.366,234.637,416.4,234.7,416.437Zm-2.186-.458a7.528,7.528,0,0,1,.931.056l-.509.509-.562-.562Zm-.961.027-.8.8-.289-.289c.228-.409.621-.48,1.092-.513Zm-1.24,1.009.114.114-.12.12C230.3,417.17,230.3,417.092,230.31,417.016Zm.083,1.026c-.013-.067-.02-.136-.031-.2l.386-.386,1.169,1.169-.606.605-.845-.845c-.022-.113-.053-.225-.073-.34Zm.382,1.781q-.068-.31-.133-.62l.347.346-.17.17A.207.207,0,0,0,230.775,419.822Zm.548,2.239c-.007-.026-.014-.052-.021-.078l.05.05Zm.453,1.651c-.114-.381-.212-.767-.318-1.15,0,0,.008,0,.012-.005l.2-.2.706.706-.568.568A.2.2,0,0,0,231.777,423.712Zm.573,1.762c-.043-.126-.083-.255-.124-.382l.253.253Zm3.922,5.176c-1.505.08-1.97-.094-2.643-1.723-.109-.264-.2-.534-.307-.8l.042-.042.469.469a.227.227,0,1,0,.321-.322l-.469-.469.808-.808a.228.228,0,1,0-.322-.322l-.808.808-.495-.495c-.126-.344-.255-.686-.375-1.033a.215.215,0,0,0,.1-.043l.2-.2.138.138a.228.228,0,0,0,.322-.322l-.138-.138,1.2-1.2a.228.228,0,1,0-.322-.322l-1.2,1.2-.885-.885c-.017-.056-.037-.112-.054-.168a.194.194,0,0,0,.273-.02L234.086,422a.228.228,0,0,0-.322-.322l-1.062,1.062-.706-.706,1.566-1.566a.228.228,0,1,0-.322-.322l-1.566,1.566-.609-.609c-.087-.352-.163-.706-.243-1.06a.223.223,0,0,0,.317,0l.17-.17.882.882a.228.228,0,0,0,.322-.322l-.882-.882,1.289-1.289a.228.228,0,1,0-.322-.322l-.361.361-1.169-1.169.9-.9.639.639-.137.137a.228.228,0,1,0,.322.322l.137-.137.539.539a.227.227,0,0,0,.321-.322l-.539-.539.572-.572.507.507-.071.071a.228.228,0,1,0,.322.322l.071-.071.38.38a.228.228,0,0,0,.322-.322l-.38-.38.081-.081a3.171,3.171,0,0,1,.809,1.429c.1.361.472,2.634.834,4.831.348,2.111.727,4.418,1,5.874.257,1.387,0,1.73-1.425,1.8Z" transform="translate(-70.75 -234.597)" fill="#000b1e"/>
    <path id="Path_5949" data-name="Path 5949" d="M392.85,414.838c-3.845-.243-4.663,1.829-4.469,5.4a57.735,57.735,0,0,1-.318,7.265c-.333,5.609,3.762,5.365,5.289,3.081.968-1.448.894-2.434,1.987-12.667.214-1.991-.369-2.953-2.489-3.083Zm-.677.922c.01-.009.006-.024.014-.035h0c.095,0,.187.006.281.01l.3.3-.5.5-.433-.433Zm-.656.011-.008.008-.006-.006Zm-.543.116.214.214-.81.81-.4-.4a2.051,2.051,0,0,1,1-.619Zm-1.278.986.36.36-.075.075a.228.228,0,1,0,.322.322l.075-.075.5.5-1.353,1.354-.278-.278a4.262,4.262,0,0,1,.445-2.261Zm-.168,3.182.9.9-.834.834-.193-.193c-.022-.022-.052-.021-.078-.032,0-.733-.006-.758-.033-1.281Zm-.22,2.587a.22.22,0,0,0,.145-.06l.146-.146.787.786-.976.976-.175-.175q.048-.687.073-1.381Zm-.148,2.417c.019-.01.042-.008.058-.024l.193-.193.786.786-1.046,1.046-.106-.106c.069-.91.015-.27.114-1.511Zm-.149,4.351c-.014-.081-.03-.161-.04-.243l.142.142Zm5.424-11.588c-1.1,10.292-1.028,11.044-1.839,12.258s-2.747,1.794-3.451-.161l.289-.289.2.2a.228.228,0,1,0,.322-.322l-.2-.2.594-.594a.228.228,0,1,0-.322-.322l-.594.594-.5-.5c0-.31.017-.622.036-.931,0-.022,0-.045,0-.066l.174-.174.717.716a.228.228,0,1,0,.322-.322l-.717-.716,1.053-1.053a.211.211,0,0,0,.3-.01.223.223,0,0,0,.01-.3l.461-.461a.228.228,0,0,0-.322-.322l-.454.454-.786-.786,1.025-1.026a.223.223,0,0,0,.223-.223l.843-.843a.227.227,0,0,0-.321-.322l-.794.794-.787-.786,1.986-1.986a.228.228,0,0,0-.322-.322l-.83.83-.9-.9,1.353-1.354.246.246a.228.228,0,0,0,.322-.322l-.246-.246,0,0a.227.227,0,1,0-.321-.321l0,0-.5-.5.81-.81.46.46a.215.215,0,0,0,.039.227c.094.094.148.064.227.039l.426.426a.228.228,0,1,0,.322-.322l-.4-.4.5-.5.48.48a.227.227,0,1,0,.322-.321l-.488-.488a.21.21,0,0,0,.031-.195c1.009.209,1.132.767,1,2Z" transform="translate(-209.279 -234.376)" fill="#000b1e"/>
    <path id="Path_5950" data-name="Path 5950" d="M315.343,420.214c.09-1.672.2-3.753-1.543-4.875a4.791,4.791,0,0,0-2.925-.529c-2.109.13-2.7,1.082-2.489,3.083l.96,8.982a8.082,8.082,0,0,0,1.028,3.686,3.044,3.044,0,0,0,3.727,1.266c1.6-.81,1.656-2.723,1.562-4.346a57.81,57.81,0,0,1-.319-7.267Zm-4.413-4.494c.2-.012.4-.021.6-.021.072,0,.144.005.216.008l.69.69-.448.448-.671-.671a.2.2,0,0,0-.281-.281l-.168-.168.061,0Zm-.628.08.395.395-.59.59-.6-.6A1.365,1.365,0,0,1,310.3,415.8Zm-1,.826.48.48-.467.467a.218.218,0,0,0-.04.1A3.3,3.3,0,0,1,309.3,416.626Zm.017,1.479-.029-.271c.01.02.008.044.025.06a.226.226,0,0,0,.321,0l.467-.467.65.65-.732.732Zm.077.721.3.3-.246.246Zm.12,1.132.5-.5.552.552a.227.227,0,0,0,.161.066.233.233,0,0,0,.153-.063l-.7.7-.657-.657Zm.089.819.259.259-.209.209Zm.112,1.047.468-.468.6.6a.209.209,0,0,0,.1.043l-.762.762-.344-.344Zm.809,6.759.694.694-.326.326a5.1,5.1,0,0,1-.368-1.02Zm3.159,2.432a2.164,2.164,0,0,1-2.56-.959c-.005-.008-.008-.019-.014-.027l.43-.43.456.456a.228.228,0,1,0,.322-.322l-.456-.456.792-.792a.228.228,0,1,0-.322-.322l-.792.792-.833-.833,1.231-1.231a.228.228,0,1,0-.322-.322l-1.231,1.231-.014-.014c-.051-.341-.093-.681-.127-1.008l-.069-.651.7.7a.228.228,0,0,0,.322-.322l-.756-.756,1.292-1.292a.228.228,0,0,0-.322-.322l-1.292,1.292-.025-.025-.191-1.79.216-.216.661.661a.228.228,0,0,0,.322-.322l-.661-.661.913-.914a.227.227,0,0,0,0-.322.216.216,0,0,0-.189-.055.226.226,0,0,0-.065-.158l-.6-.6,1.1-1.1a.228.228,0,0,0-.322-.322l-.383.383a.226.226,0,0,0,0-.313l-.552-.552.818-.818a.206.206,0,0,0,.037-.091s.012,0,.015-.006a.227.227,0,0,0,0-.322l-.789-.789.59-.59.651.651-.123.123a.227.227,0,0,0,.321.321l.123-.123.163.163a.228.228,0,1,0,.322-.322l-.163-.163.448-.448.488.488a.228.228,0,0,0,.322-.322l-.527-.527a.217.217,0,0,0-.056-.187.213.213,0,0,0-.187-.055l-.334-.334c2.336.472,2.041,2.982,1.945,4.864a67.474,67.474,0,0,0,.342,6.889c.055.915.22,2.837-1.062,3.485Z" transform="translate(-139.688 -234.348)" fill="#000b1e"/>
  </g>
</svg>
