<svg xmlns="http://www.w3.org/2000/svg" width="86.147" height="58.247" viewBox="0 0 86.147 58.247">
  <g id="education" transform="translate(-146.407 -220.742)">
    <path id="Path_6176" data-name="Path 6176" d="M232.116,239.072c-14.266-5.321-28.409-12.057-42.207-18.271a.677.677,0,0,0-.658.059c-12.6,8.687-28.929,10.76-42.5,18.252a.673.673,0,0,0-.071,1.134c4,2.911,8.184,4.181,14.4,6.636q-2.174,8.238-4.364,16.47a.673.673,0,0,0,.378.788c6.857,3.03,12.776,5.7,21.814,9.761.016.035.015.077.043.1a.333.333,0,0,0,.238.1c.032,0,.058-.029.09-.037,3.542,1.589,7.1,3.18,10.733,4.784a.641.641,0,0,0,.92-.127c5.5-2.6,10.949-5.089,16.121-7.458-.253,3.767,5.195,5.087,7.8,1.291a7.351,7.351,0,0,0,1.055-5.363q2.855-1.317,5.729-2.681a.673.673,0,0,0,.373-.724L218.907,246l13.24-5.684a.672.672,0,0,0-.03-1.247Zm-73.946,24.07q2.1-7.889,4.177-15.764c9.5,3.72,18.164,7.421,27.411,10.932v1.727a.321.321,0,0,0-.147.061l-.407.407-.225-.225a.337.337,0,1,0-.476.476l.225.225-.937.938a.337.337,0,0,0,.476.476l.937-.938.553.553v1.925a.315.315,0,0,0-.336.058l-.253.253-1.116-1.116a.336.336,0,1,0-.475.476l1.116,1.116-1.187,1.187a.336.336,0,1,0,.475.476l1.241-1.241c.019,0,.034.021.053.021a.337.337,0,0,0,.238-.1.318.318,0,0,0,.077-.291l.169-.169v3.371a.315.315,0,0,0-.058-.14l-1.291-1.291a.336.336,0,0,0-.475.476l1.044,1.044-1.732,1.734-.047-.047a.337.337,0,0,0-.476.476l1.543,1.543-1.2,1.2-1.163-1.163.84-.84a.337.337,0,0,0-.476-.476l-.864.864a.306.306,0,0,0-.426.426l-1.224,1.224-1.257-1.259a.337.337,0,1,0-.476.476l1.257,1.259-.545.545c-.026.026-.023.062-.037.092-.174-.078-.351-.156-.525-.233.032-.016.07-.013.1-.04a.336.336,0,0,0,0-.476l-1.1-1.1,2.007-2.006a.336.336,0,1,0-.475-.476l-2.007,2.006-1.044-1.044a.328.328,0,0,0-.218-.09l.761-.761a.336.336,0,1,0-.476-.475l-1.444,1.446-1.044-1.044a.337.337,0,1,0-.476.476l1.044,1.044-.4.4c-8.675-3.9-13.669-6.145-19.227-8.6Zm26.986,11.267-.926-.926,1.2-1.2,1.163,1.163-1.365,1.365a.327.327,0,0,0-.021.425c-.627-.28-1.264-.561-1.89-.841l.437-.437.926.926a.337.337,0,0,0,.477-.476Zm.548.879,1.365-1.365,2.343,2.343c.137.137.225.1.347.053v.942c-1.432-.634-2.839-1.263-4.254-1.893a.318.318,0,0,0,.2-.081Zm3.357-2.721a.337.337,0,0,0,.476-.476l-1.814-1.814,1.806-1.808c.029-.029.026-.067.042-.1a.31.31,0,0,0,.13-.053.333.333,0,0,0,.058-.14v7.488l-2.215-2.216,1.2-1.2Zm.7-11.509-.078-.078.078-.078Zm-10.678,9.951a.331.331,0,0,0,.09.218l1.044,1.044-.418.418a.317.317,0,0,0-.053-.346l-1-1Zm-.242,1.382-.786-.352.217-.217Zm1.853.355.863.863c-.4-.179-.793-.357-1.192-.534Zm10.412,4.414V257.943l18.645-8.005v10.146a3.062,3.062,0,0,0-1.893,2.039c-.4,1.167-.4,4.021-.684,7.615-5.3,2.427-10.681,4.883-16.068,7.425Zm17.293-5.89c.037-.341.063-.668.09-1.035.226-2.638.32-6.75.64-7.677a1.717,1.717,0,0,1,2.947-.78c1.153.938,2.167,3.73,2.45,5.146h0s.011.077.011.079a.309.309,0,0,0-.064-.155.337.337,0,0,0-.476,0l-.383.383-.49-.49a.336.336,0,1,0-.476.475l.49.491-.579.579a.332.332,0,0,0-.007.459.32.32,0,0,0-.171.071.334.334,0,0,0,0,.475l1.219,1.219-.959.958-.739-.739.381-.381a.337.337,0,0,0-.476-.476l-1.816,1.816,0,0a.337.337,0,0,0-.476.476l0,0-.61.61c-.029-.029-.063-.051-.089-.082a1.843,1.843,0,0,1-.418-1.424Zm9.591-7.085a.336.336,0,0,0,.475,0l.35-.35.354.354-1.253.587-1.013-1.012.92-.92.517.517-.35.35a.335.335,0,0,0,0,.475Zm-.721.9c-.539.252-1.079.509-1.617.758-.011-.037-.027-.077-.037-.114-.059-.209-.121-.418-.195-.637.005,0,.01.007.015.007a.334.334,0,0,0,.238-.1l.755-.755ZM214.522,270a.328.328,0,0,0-.424.021l-.019.019-1.206-1.2a.329.329,0,0,0,.164-.067l.579-.579.9.9a.324.324,0,0,0,.141.059A6.194,6.194,0,0,1,214.522,270Zm-.43-2.287.383-.383a.326.326,0,0,0,.081-.195,4.178,4.178,0,0,1,.113,1.155Zm-2.239,5.029a.337.337,0,0,0,.476,0l.314-.314.172.172c.032.032.078.032.117.048a3.861,3.861,0,0,1-1.47.751.313.313,0,0,0-.071-.3l-.922-.923.96-.96.739.739-.314.314a.338.338,0,0,0,0,.477Zm-1.29.75a2.679,2.679,0,0,1-1.109-.3l.54-.54.819.819A2.434,2.434,0,0,1,210.563,273.49Zm3.191-1.7h0a3.915,3.915,0,0,1-.407.459.319.319,0,0,0-.055-.132l-.172-.172.98-.98a.322.322,0,0,0,.089.037A4.785,4.785,0,0,1,213.754,271.795Zm6.062-7.907-.526-.526,1.057-1.057c.023-.023.019-.055.034-.081l.226,1.293Zm-.125-4.833a.319.319,0,0,0,.145.061l.315,1.8-1.614-1.614c-.037-.037-.086-.037-.13-.055l.739-.738Zm-.46-3.4-.272-.272.191-.191Zm-.2-1.159a.338.338,0,0,0-.23.1l-.315.315-.093-.093a.337.337,0,0,0-.476.476l.093.093-.46.46a.337.337,0,1,0,.476.476l.46-.46.8.8a.3.3,0,0,0,.129.053l.235,1.343-.079-.079a.295.295,0,0,0-.38-.38l-.73-.728a.336.336,0,0,0-.475.476l.681.681-1.711,1.71a.337.337,0,0,0,.476.476l.572-.572a.318.318,0,0,0,.055.132l1.98,1.98a.319.319,0,0,0-.171.071l-1.057,1.057-.517-.517.288-.288a.337.337,0,0,0-.476-.476l-.288.288-1.2-1.2a.337.337,0,0,0-.476.476l1.2,1.2-.92.92-1.121-1.121a.337.337,0,0,0-.476.476l1.121,1.121-.745.745a0,0,0,0,0,0,0,8.927,8.927,0,0,0-2.274-3.768,3.608,3.608,0,0,0-1.835-.808V249.358l6.541-2.808Zm-8.22-6.483c-.053-.053-.089-.124-.158-.156l-16.569-7.884a4.082,4.082,0,0,0,.209-.473c.846-2.33-.821-4.531-3.9-4.389-3.418.161-6.7,3.111-4.178,6.294,1.533,1.925,4.784,2.073,7.066-.325l15.974,7.6-19.264,8.272c-9.405-3.579-18.575-7.495-27.849-11.111-6.049-2.409-10.025-3.6-13.776-6.073,13.155-6.95,28.878-9.148,41.338-17.589,13.105,5.906,26.676,12.348,40.38,17.559Zm-23.543-7.442c-1.878-2.373,1.2-4.019,3.188-4.114,1.778-.093,3.173.928,2.571,2.587-.763,2.118-4.2,3.5-5.759,1.526Z" fill="#000b1e"/>
    <path id="Path_6177" data-name="Path 6177" d="M405,425.427a.336.336,0,0,0-.476,0l-.774.775-1.52-1.518,1.174-1.174a.337.337,0,0,0-.476-.476l-1.174,1.174-.56-.56a.337.337,0,0,0-.476.476l.56.56-.629.629-.745-.745a.337.337,0,0,0-.476.476l.745.745-3.144,3.144a.336.336,0,0,0,.475.476l3.144-3.144,1.518,1.518-1.581,1.581-1.05-1.052a.337.337,0,0,0-.476.476l1.05,1.052-1.267,1.267a.337.337,0,0,0,.476.476l1.267-1.267.973.975a.333.333,0,0,0,.238.1c.185,0,.219-.081.276-.19a.329.329,0,0,0,.2-.095l1.462-1.751.016.016a.337.337,0,0,0,.476-.476l-.058-.058.832-1a.337.337,0,0,0-.518-.431l-.791.949-.574-.574.661-.661a.268.268,0,0,0,.365-.045.317.317,0,0,0,.045-.365l.808-.808a.337.337,0,0,0,0-.479Zm-1.737,3.446-1.439,1.723-.758-.758,1.581-1.581Zm-2.135-3.086.629-.629,1.52,1.518-.629.629Z" transform="translate(-203.523 -164.262)" fill="#000b1e"/>
    <path id="Path_6178" data-name="Path 6178" d="M245.268,399.009l.339-.339a.337.337,0,0,0-.476-.476l-.339.339-.63-.63a.337.337,0,0,0-.476.476l.629.629-.791.791-1.392-1.392,1.661-1.661a.337.337,0,0,0-.476-.476l-1.661,1.661-.83-.83a.336.336,0,0,0-.475.476l.83.83-.658.658-.762-.762a.337.337,0,0,0-.476.476l.762.762-2.1,2.1a.336.336,0,1,0,.475.476l2.1-2.1,1.392,1.392-1.163,1.163a.336.336,0,0,0,.475.476l1.163-1.163.04.04a.337.337,0,0,0,.476-.476l-.04-.04.658-.658.939.939a.337.337,0,0,0,.476-.476l-.939-.939.791-.791,1.381,1.38a.337.337,0,0,0,.476-.476Zm-2.876,1.925L241,399.543l.658-.658,1.392,1.392Z" transform="translate(-74.289 -142.519)" fill="#000b1e"/>
    <path id="Path_6179" data-name="Path 6179" d="M279.8,287.778l-1.1,1.1-.894-.894a.337.337,0,0,0-.476.476l.894.894-1.159,1.159-.769-.769a.337.337,0,0,0-.476.476l.769.769-1.523,1.523a.337.337,0,0,0,.476.476l1.523-1.523.626.626a.336.336,0,0,0,.476-.475l-.626-.626,1.159-1.159.646.646a.336.336,0,0,0,.476-.475l-.646-.646,1.1-1.1a.338.338,0,0,0-.476-.479Z" transform="translate(-104.436 -54.381)" fill="#000b1e"/>
    <path id="Path_6180" data-name="Path 6180" d="M374.756,356.382l1.9-1.9.429.429a.337.337,0,1,0,.476-.476l-.429-.429.278-.278.587.587a.337.337,0,0,0,.476-.476l-.588-.586,1.209-1.209a.337.337,0,0,0-.476-.476l-1.209,1.209-.769-.769a.337.337,0,0,0-.476.476l.769.769-.278.278-1.02-1.019a.337.337,0,0,0-.476.476l1.02,1.019-1.9,1.9a.337.337,0,1,0,.477.476Z" transform="translate(-185.043 -106.201)" fill="#000b1e"/>
    <path id="Path_6181" data-name="Path 6181" d="M462.706,299.727l-1.02,1.02a.337.337,0,0,0,.476.476l1.02-1.02,1.536,1.536-.894.894a.336.336,0,0,0,.476.475l.894-.894,1.793,1.793a.337.337,0,0,0,.476-.476l-1.793-1.793,1.1-1.1a.337.337,0,1,0-.476-.476l-1.1,1.105-1.536-1.536,1.494-1.494a.337.337,0,1,0-.476-.476l-1.494,1.494-1.272-1.272a.337.337,0,0,0-.476.476Z" transform="translate(-255.848 -62.488)" fill="#000b1e"/>
  </g>
</svg>
