<svg width="27" height="21" viewBox="0 0 27 21" fill="none" xmlns="http://www.w3.org/2000/svg">
<path d="M25.6982 7.23828C25.8887 7.08691 26.1719 7.22852 26.1719 7.46777V17.4531C26.1719 18.7471 25.1221 19.7969 23.8281 19.7969H3.51562C2.22168 19.7969 1.17188 18.7471 1.17188 17.4531V7.47266C1.17188 7.22852 1.4502 7.0918 1.64551 7.24316C2.73926 8.09277 4.18945 9.17188 9.16992 12.79C10.2002 13.542 11.9385 15.124 13.6719 15.1143C15.415 15.1289 17.1875 13.5127 18.1787 12.79C23.1592 9.17188 24.6045 8.08789 25.6982 7.23828ZM13.6719 13.5469C14.8047 13.5664 16.4355 12.1211 17.2559 11.5254C23.7354 6.82324 24.2285 6.41309 25.7227 5.24121C26.0059 5.02148 26.1719 4.67969 26.1719 4.31836V3.39062C26.1719 2.09668 25.1221 1.04688 23.8281 1.04688H3.51562C2.22168 1.04687 1.17188 2.09668 1.17188 3.39062V4.31836C1.17188 4.67969 1.33789 5.0166 1.62109 5.24121C3.11523 6.4082 3.6084 6.82324 10.0879 11.5254C10.9082 12.1211 12.5391 13.5664 13.6719 13.5469Z" fill="#049E9D"/>
</svg>
