<svg xmlns="http://www.w3.org/2000/svg" width="54.082" height="52.748" viewBox="0 0 54.082 52.748">
  <g id="entertainment-media2" transform="translate(-146.482 -152.144)">
    <path id="Path_6199" data-name="Path 6199" d="M147.257,195.449c.211,7.727,2.955,8.915,7.825,8.976.391.005,37.4.467,37.786.467,6.074,0,7.425-2.351,7.454-7.332l.241-39.377c.026-4.4-1.311-5.969-6.055-5.891-11.751,0-23.837.133-35.774-.125-3.43-.073-9.558-.374-11.658,7.5-.932,3.5-.685,4.02.182,35.778ZM181,202.833a.2.2,0,0,0,.036.089l.993.993-1.863-.023-.112-.112Zm1.46,1a.214.214,0,0,0,.148-.061l1.282-1.282,1.469,1.469-2.929-.036a.216.216,0,0,0,.031-.09Zm17.068-15.137-.658-.658.609-.609a.21.21,0,0,0,.058-.139Zm-.012,2.108-.327-.327.331-.331Zm-.017,2.845-.416-.416.421-.421Zm-51.609-33.757c1.583-5.934,5.36-6.994,10.823-6.877,11.878.257,24.008.125,35.8.125h.007c4.191-.069,5.223,1.057,5.2,5.041l-.179,29.091a.208.208,0,0,0-.358-.14l-.626.626a.2.2,0,0,0-.237.025.2.2,0,0,0-.025.237l-.5.5a.212.212,0,0,0,.3.3l.487-.487.753.753a.211.211,0,0,0,.15.062c.018,0,.034-.016.052-.021l0,.413-.633.634-.275-.275a.212.212,0,0,0-.3.3l.275.275-.487.487a.212.212,0,0,0,.3.3l.487-.487.492.492a.207.207,0,0,0,.131.054l-.007,1.08a.2.2,0,0,0-.221.032l-.5.5-.381-.381a.212.212,0,1,0-.3.3l.381.381-.8.8a.212.212,0,1,0,.3.3l.8-.8.711.711-.02,3.314c-.029,4.738-1.112,6.564-7.111,6.488l-6.587-.082a.19.19,0,0,0-.013-.168l1.518-1.518,1.225,1.225a.2.2,0,0,0,.205.225c.005,0,.008-.005.013-.006l.158.158a.212.212,0,0,0,.3-.3l-.118-.118,1.556-1.556,1.4,1.4-.275.275a.212.212,0,0,0,.3.3l.275-.275.381.381a.212.212,0,0,0,.3-.3l-.381-.381,1.662-1.662,1.08,1.079-.221.221a.212.212,0,0,0,.3.3l1.282-1.282.858.858a.212.212,0,1,0,.3-.3l-.858-.858.966-.966a.212.212,0,1,0-.3-.3l-.966.966-1.08-1.079,1.822-1.822,1.5,1.5a.212.212,0,1,0,.3-.3l-1.8-1.8a.212.212,0,1,0-.3.3l.009.009-1.822,1.822-.116-.116a.212.212,0,1,0-.3.3l.116.116-.761.761-1.176-1.176a.212.212,0,0,0-.3.3l1.176,1.176L192.321,203l-1.4-1.4,2.52-2.52a.212.212,0,0,0-.3-.3l-2.52,2.52-.7-.7a.212.212,0,1,0-.3.3l.7.7-1.556,1.556-1.185-1.185,1.762-1.762a.212.212,0,0,0-.3-.3l-1.762,1.762-.434-.434a.212.212,0,0,0-.3.3l.434.434-1.5,1.5-1.292-1.29,2.037-2.036a.212.212,0,1,0-.3-.3l-3.617,3.617a.187.187,0,0,0-.036.089l-.937-.937a.2.2,0,0,0-.089-.036l.744-.744a.212.212,0,1,0-.3-.3l-1.937,1.937-.752-.752a.212.212,0,1,0-.3.3l.752.752-.1.1-24.263-.3c-4.446-.056-6.793-.924-6.99-8.154-.847-31-1.122-32.121-.211-35.538Zm47.767,42.531-1.08-1.079.761-.761,1.08,1.079Z" fill="#000b1e"/>
    <path id="Path_6200" data-name="Path 6200" d="M191.148,217.82a.209.209,0,0,0-.134.056.211.211,0,0,0,0,.3l.152.152.27,7.694c.145,4.162,1.413,5.487,5.616,5.542,10.421.134,21.058.061,31.537-.219,5.461-.147,7.064-1.829,7.169-7.142l.4-20.186c.113-5.67-1.884-6.841-5.993-6.825-8.734.033-17.913-.021-27.193.139a.188.188,0,0,0-.127,0c-2.453.043-4.906.1-7.354.178-3.577.115-5.014,1.215-4.862,5.546Zm.441-17.02,1.086,1.086c-.32.3-.636.61-.954.92l-.085-.085a.2.2,0,0,0-.171-.053,8.845,8.845,0,0,1,.123-1.868Zm.1,8.372a.2.2,0,0,0,.038.092l.566.566-.561.561Zm-.087-2.5.4.4-.372.372Zm.329,9.434.752.752-.7.7Zm.347,9.889-.025-.723.919.919-.833.833C192.309,226.68,192.292,226.334,192.28,225.991Zm-.148-4.228.879.879-.819.819Zm-.031-.878-.059-1.683.871.872Zm38.068-22.85c3.615-.045,5.247.8,5.144,5.963l-.4,20.186c-.093,4.746-1.244,6.177-6.345,6.312-10.454.281-21.052.353-31.5.219-2.788-.035-4.295-.5-4.67-3.25,0,0,.005,0,.008,0a.21.21,0,0,0,.15-.062l.924-.924.148.148a.212.212,0,0,0,.3-.3l-.148-.148,1.163-1.163a.212.212,0,0,0-.3-.3l-1.163,1.163-1.241-1.239-.021-.608,1.1-1.1,1.09,1.09a.212.212,0,1,0,.3-.3l-1.09-1.09.758-.758a.212.212,0,0,0-.3-.3l-.758.758-1.035-1.034.937-.937.416.416a.212.212,0,1,0,.3-.3l-.416-.416.872-.872a.212.212,0,0,0-.3-.3l-.872.872-1.191-1.192-.016-.45.98-.98.763.763a.212.212,0,1,0,.3-.3l-.763-.763,1.026-1.026a.212.212,0,1,0-.3-.3l-1.026,1.026-1.073-1.073-.108-3.087.816.816-.7.7a.212.212,0,0,0,.3.3l.7-.7.456.456a.212.212,0,1,0,.3-.3l-.456-.456,1.658-1.658a.212.212,0,1,0-.3-.3l-1.659,1.659-.956-.956a.2.2,0,0,0-.176-.051l-.042-1.2a.2.2,0,0,0,.284-.006l.567-.566,1.125,1.125a.212.212,0,1,0,.3-.3l-1.125-1.125,1.44-1.44a.212.212,0,0,0-.3-.3l-1.44,1.441-.567-.566a.211.211,0,0,0-.3,0,.2.2,0,0,0-.042.1l-.045-1.281a.184.184,0,0,0,.255-.018l.4-.4.763.763a.212.212,0,0,0,.3-.3l-.763-.763,1.791-1.791a.212.212,0,0,0-.3-.3l-1.79,1.792-.719-.719-.088-2.511a.212.212,0,0,0,.145-.06l.08-.077,1.459,1.459a.212.212,0,1,0,.3-.3l-1.454-1.454c.316-.309.632-.619.954-.92l.419.419a.212.212,0,0,0,.3-.3l-.408-.408c.3-.278.6-.557.891-.828l.291-.271.329.329a.212.212,0,1,0,.3-.3l-.318-.318q.643-.6,1.282-1.215l1,1a.212.212,0,1,0,.3-.3l-.993-.993c.118-.116.24-.228.358-.346a.211.211,0,0,0,0-.3.193.193,0,0,0-.077-.032c.564-.017,1.129-.028,1.694-.042l.478.478-.972.971a.212.212,0,0,0,.3.3l.971-.972.947.947a.212.212,0,0,0,.3-.3l-.947-.947.259-.259a.2.2,0,0,0,.019-.253c.339-.008.678-.018,1.018-.025l1.32,1.32a.2.2,0,0,0,.277.009.159.159,0,0,0,.2-.043l1.054-1.055.729.729a.212.212,0,1,0,.3-.3l-.722-.722c.36-.006.719-.009,1.08-.014l.592.592-.665.665a.212.212,0,0,0,.3.3l.665-.665.213.213a.212.212,0,1,0,.3-.3l-.216-.213.616-.616.58-.008.651.651-.313.313a.212.212,0,0,0,.3.3l.313-.313.765.765a.212.212,0,1,0,.3-.3l-.765-.765.673-.673,1.06-.006.7.7-.68.68a.212.212,0,0,0,.3.3l.68-.68.188.188a.212.212,0,0,0,.3-.3l-.188-.188.549-.549a.2.2,0,0,0,.056-.163l.718,0,.243.243-.894.894a.212.212,0,0,0,.3.3l.894-.894.653.653a.212.212,0,0,0,.3-.3l-.653-.653.215-.215c.009-.009.007-.023.014-.034l1-.006.448.448-.506.505a.212.212,0,1,0,.3.3l.505-.505.455.455a.2.2,0,0,0,.285.006.182.182,0,0,0,.251-.019l.906-.906.619.619a.212.212,0,1,0,.3-.3l-.609-.609c6.549-.011,8.551-.007,12.213-.021Zm-35.374.75a.211.211,0,0,0-.3,0l-.723.723-.741-.74a5.73,5.73,0,0,1,2.1-.4l.627.627c-.427.412-.853.816-1.283,1.215l-.4-.4.723-.723a.211.211,0,0,0,0-.3Zm.913-.436c.26-.008.52-.012.78-.019-.023.01-.049.009-.068.028-.119.117-.239.23-.359.345Zm3.21-.081.4-.01-.2.2Zm4.32-.1-.993.993-.956-.956C201.939,198.195,202.588,198.182,203.238,198.171Zm2.29-.03.61-.008-.309.309Zm2.386-.032c.243,0,.486-.008.729-.01l-.37.37Zm2.985-.023.818,0-.411.411Zm5.565.842-.417-.417.075-.075a.212.212,0,1,0-.3-.3l-.075.075-.152-.152,1.737,0Zm-23.812.059.821.821-.38.38a.212.212,0,0,0,.3.3l.38-.38.394.394-.278.259c-.3.275-.6.558-.9.84l-1.274-1.274a2.4,2.4,0,0,1,.941-1.339Z" transform="translate(-38.938 -39.74)" fill="#000b1e"/>
    <path id="Path_6201" data-name="Path 6201" d="M292.6,233.586c-4.167.827-6.432,3.637-8.76,6.951-8.318,11.845,7.98,24.776,18.133,13.578a13.92,13.92,0,0,0,3.7-10.082c-.413-6.731-6.261-11.8-13.075-10.447Zm12.233,10.5a13.07,13.07,0,0,1-3.486,9.462c-9.446,10.422-24.529-1.538-16.813-12.524,2.221-3.162,4.373-5.841,8.232-6.607,6.288-1.246,11.684,3.424,12.068,9.67Z" transform="translate(-119.154 -71.653)" fill="#000b1e"/>
    <path id="Path_6202" data-name="Path 6202" d="M353.224,284.183a2,2,0,0,0-1.248,1.764c-.065.81.335,3.608.293,4.393l-.262,4.927c-.093,1.76,1.2,2.078,2.641,1.186,4.587-2.84,10.308-5.291,4.776-9.012-4.315-2.9-5.048-3.635-6.2-3.257Zm-.34,11.614a1.745,1.745,0,0,1-.032-.487l.018-.351.426.426Zm.308.289.4-.4.153.153a.211.211,0,0,0,.15.062h0A1.576,1.576,0,0,1,353.193,296.087Zm1.011-.354c-.046.028-.1.058-.149.086a.208.208,0,0,0-.008-.282l-.153-.153.79-.79.518.518Zm3.973-2.46-.9.555a.194.194,0,0,0-.041-.1l-.081-.081.7-.7Zm-1.235.756s.006,0,.008,0l-.458.284.369-.369Zm2.012-5.886c2.476,1.665,2.64,3.015-.407,4.9l-.4-.4a.2.2,0,0,0-.274-.274l-.408-.407,1.008-1.008a.2.2,0,0,0,.048.116l.545.545-.128.128a.212.212,0,0,0,.3.3l.128-.128.107.107a.212.212,0,1,0,.3-.3l-.108-.108.688-.688s0,0,0-.005a.2.2,0,0,0,.088-.036.211.211,0,0,0,0-.3l-.973-.973a.212.212,0,0,0-.3.3l.8.8-.6.6-.545-.545a.2.2,0,0,0-.116-.048l.194-.194a.212.212,0,0,0-.3-.3l-1.447,1.447a.2.2,0,0,0-.251.019.211.211,0,0,0,0,.3l.06.06c.04.1.008.071.111.111l.49.49-.7.7-1.147-1.147a.212.212,0,0,0-.3.3l1.147,1.147-1.008,1.008a.209.209,0,0,0-.062.149l-.509-.509.871-.871a.212.212,0,1,0-.3-.3l-.871.871-.683-.684a.212.212,0,0,0-.3.3l.684.684-.79.79-.429-.429a.208.208,0,0,0-.279-.008l.226-4.265c.035-.684-.339-3.815-.294-4.369a1.171,1.171,0,0,1,.667-1.029c.815-.263,2.025.84,5.468,3.156Z" transform="translate(-181.278 -116.402)" fill="#000b1e"/>
    <path id="Path_6203" data-name="Path 6203" d="M243.8,506.067H212.246a3.149,3.149,0,0,0,.065-.877.033.033,0,0,0,0-.009c-.306-2.759-3.574-2.823-4.353-.139a3.707,3.707,0,0,0-.1,1.024h-6.924a.422.422,0,0,0,0,.845h7.027c.246,1.113.89,1.792,1.74,1.792h.016a2.662,2.662,0,0,0,2.278-1.792H243.8a.422.422,0,1,0,0-.844Zm-35.029-.8c.516-1.775,2.491-1.845,2.7,0,0,.051-.007.11-.007.163l-.4-.4a.211.211,0,0,0-.21-.21l-.346-.346a.212.212,0,1,0-.3.3l.3.3-.344.344a.209.209,0,0,0-.006.285c-.012.008-.027.005-.037.015a.211.211,0,0,0,0,.3l.723.723a.2.2,0,0,0,.279.008,2.668,2.668,0,0,1-.425.619l-.536-.536.215-.215a.212.212,0,0,0-.3-.3l-.215.215-.044-.044a.212.212,0,1,0-.3.3l.044.044-.546.546a3.205,3.205,0,0,1-.25-2.117Zm.936,2.589H209.7a.648.648,0,0,1-.4-.148l.572-.572.506.506A1.226,1.226,0,0,1,209.707,507.859Zm1.5-1.266a.212.212,0,0,0-.06-.145l-.712-.712c.009-.007.023,0,.031-.013l.344-.344.365.365a.193.193,0,0,0,.272.011A2.971,2.971,0,0,1,211.209,506.594Z" transform="translate(-47.66 -309.581)" fill="#000b1e"/>
    <path id="Path_6204" data-name="Path 6204" d="M234.677,166.149h.005l2.058-.05.076.562a.211.211,0,0,0,.209.183.154.154,0,0,0,.029,0,.211.211,0,0,0,.181-.237l-.07-.516,3.121-.075.023.189a.211.211,0,0,0,.419-.051l-.018-.148,1.906-.046a2.4,2.4,0,0,0,.4.625.211.211,0,0,0,.311-.285,1.966,1.966,0,0,1-.25-.351l2.589-.063a3.09,3.09,0,0,0,.532.9.211.211,0,0,0,.32-.276,2.66,2.66,0,0,1-.4-.636l1.946-.047.284.732a.211.211,0,0,0,.394-.152l-.229-.59,1.993-.048.138.746a.211.211,0,0,0,.415-.077l-.126-.679,1.387-.034.045.324a.211.211,0,1,0,.418-.058l-.038-.278,1.443-.035a.211.211,0,0,0,.206-.216.223.223,0,0,0-.216-.206l-1.491.036-.047-.367a.213.213,0,0,0-.238-.18.211.211,0,0,0-.18.238l.044.319-1.407.034-.041-.219a.211.211,0,1,0-.415.077l.028.152-2.077.049-.16-.412a.211.211,0,1,0-.394.152l.1.271-1.936.046a2.58,2.58,0,0,1-.076-.417.219.219,0,0,0-.231-.19.212.212,0,0,0-.19.231,2.988,2.988,0,0,0,.069.387l-2.637.064a2,2,0,0,1-.1-.573.211.211,0,0,0-.423,0,2.37,2.37,0,0,0,.083.582l-1.809.044-.073-.6a.211.211,0,1,0-.419.051l.068.556-3.127.075-.086-.64a.2.2,0,0,0-.237-.181.211.211,0,0,0-.181.237l.081.593-2.01.048a.214.214,0,0,0,0,.427Z" transform="translate(-77.62 -11.114)" fill="#000b1e"/>
    <path id="Path_6205" data-name="Path 6205" d="M366.125,308.811a.212.212,0,0,0-.3.3l.7.7-.38.379a.212.212,0,0,0,.3.3l.38-.38.244.244a.212.212,0,1,0,.3-.3l-.244-.244.278-.278.471.471-.283.283a.212.212,0,0,0,.3.3l.283-.283.143.143a.212.212,0,0,0,.3-.3l-.143-.143.156-.156a.212.212,0,0,0-.3-.3l-.156.156-.471-.471.287-.287a.212.212,0,1,0-.3-.3l-.287.287-.476-.476a.212.212,0,1,0-.3.3l.476.476-.278.278Z" transform="translate(-193.447 -137.843)" fill="#000b1e"/>
    <path id="Path_6206" data-name="Path 6206" d="M580.9,519.029l.751-.752.221.221a.212.212,0,1,0,.3-.3l-.221-.221.344-.344a.212.212,0,0,0-.3-.3l-.344.344-.54-.539a.212.212,0,0,0-.3.3l.54.539-.752.752a.212.212,0,0,0,.3.3Z" transform="translate(-382.923 -321.939)" fill="#000b1e"/>
    <path id="Path_6207" data-name="Path 6207" d="M486.848,386.971l1.4-1.4.434.434a.212.212,0,0,0,.3-.3l-.434-.434.782-.782.088.088a.212.212,0,0,0,.3-.3l-.088-.088.85-.85.13.13a.212.212,0,1,0,.3-.3l-.13-.13,1.371-1.371a.212.212,0,1,0-.3-.3l-.594.594-.627-.627a.212.212,0,1,0-.3.3l.627.627-.479.479-.526-.526a.212.212,0,0,0-.3.3l.526.526-.85.85-.391-.391a.212.212,0,1,0-.3.3l.391.391-.782.782-.661-.661a.212.212,0,0,0-.3.3l.661.661-1.4,1.4a.211.211,0,0,0,0,.3.214.214,0,0,0,.3,0Z" transform="translate(-299.947 -202.134)" fill="#000b1e"/>
  </g>
</svg>
