<svg xmlns="http://www.w3.org/2000/svg" width="53.412" height="55.721" viewBox="0 0 53.412 55.721">
  <g id="event-eticketing-solutions" transform="translate(-2.427 -1.106)">
    <g id="Group_6624" data-name="Group 6624" transform="translate(2.427 1.106)">
      <path id="Path_4754" data-name="Path 4754" d="M44.67,14.4c-.589,0-1.174,0-1.762-.006.021-.737.045-1.449.07-2.122.31-8.49,0-11.255-8.5-11.166-4.365.022-8.721.266-13.086.266H21.3c-5.189,0-7.314,1.038-7.148,6.235L14.4,14.4c-3.084.021-6.052.183-8.576,1.626a6,6,0,0,0-3.4,5.587c.014.957.544,12.508.385,16.7-.358,9.634,3.72,9.96,11.342,10.067-.136,5.621.981,8.447,8.276,8.447l13.452-.08c7.633-.049,7.241-3.6,7.112-7.954,8.237.136,11.656-.753,12.131-10.124l.667-12.937C56.209,17.535,53.933,14.4,44.67,14.4Zm-3.623-.01.792-.792.05.05a.218.218,0,0,0,.155.064s.007,0,.01,0c-.007.224-.014.454-.02.684Zm-5.936-.009-1.359,0,1.207-1.12.637.768-.484.353Zm1.011-.045.047.047h-.093ZM36.6,14.2l-.169-.17,1.51-1.51.784.784-1.086,1.086-.988,0A.205.205,0,0,0,36.6,14.2Zm2.433-.589.78.78-1.558,0Zm.309-.309,1.1-1.1,1.088,1.088-1.1,1.1Zm2.834-5.367-.195-.195.172-.172C42.16,7.692,42.172,7.805,42.176,7.934ZM21.308,2.248H21.4c4.364,0,8.721-.244,13.086-.266,5.527-.05,7.311,1.11,7.636,5.108-.037.01-.076-.009-.1.02l-.343.332L40.935,6.7a.217.217,0,1,0-.309.3l.738.736-.635.634a.218.218,0,0,0,.309.308l.635-.635.51.51c.005.547,0,1.125-.017,1.744L41.4,9.537l.528-.528a.219.219,0,0,0-.309-.309l-.528.528-.11-.11a.219.219,0,0,0-.309.309l.11.11-.8.8a.219.219,0,0,0,.309.309l.8-.8L42.151,10.9c-.014.432-.03.873-.046,1.339-.006.16-.011.329-.017.493l-.247.248-1.088-1.088.421-.421a.219.219,0,0,0-.309-.309l-.421.421-.962-.962a.219.219,0,0,0-.309.309l.962.962-1.1,1.1-.784-.784.741-.741a.219.219,0,1,0-.309-.309l-.741.741-.452-.452a.219.219,0,0,0-.309.309l.452.452-1.51,1.512-.768-.768,1.807-1.806a.219.219,0,0,0-.309-.309l-1.806,1.806-1.2-1.195a.219.219,0,0,0-.309.309l1.2,1.195L33.309,14.38l-2.046,0L32.4,13.239l.864.864a.219.219,0,1,0,.309-.309l-.864-.864.494-.494a.219.219,0,1,0-.309-.309l-.494.494-1.075-1.075a.218.218,0,0,0-.309,0,.206.206,0,0,0-.035.224c-.025.01-.053.01-.074.031l-1.383,1.383-1.057-1.057.209-.209a.219.219,0,1,0-.309-.309l-.246.246a.2.2,0,0,0-.233.233l-1.062,1.062-.7-.7.184-.184A.219.219,0,1,0,26,11.952l-.184.184-.262-.26a.219.219,0,0,0-.309.309l.263.263-.912.912-.9-.9.175-.175a.219.219,0,0,0-.309-.309l-.192.192a.2.2,0,0,0-.274.274l-1.138,1.138-.9-.9.868-.868a.219.219,0,0,0-.309-.309l-2.346,2.346L18.417,13a.219.219,0,0,0-.309.309l.858.858-.19.19-2.463,0,.6-.6.51.51a.219.219,0,1,0,.309-.309l-.51-.51,1.57-1.57a.219.219,0,0,0-.309-.309l-1.57,1.57-.328-.328a.219.219,0,1,0-.309.309l.328.39-.908.97h-.425l-.245-6.835C14.882,3.12,16.3,2.248,21.308,2.248ZM19.571,14.182,20.755,13l.9.9-.467.467-1.6,0A.2.2,0,0,0,19.571,14.182Zm2.389.021.157.157s.006,0,.008,0H21.8Zm.466-.152-.157-.157,1.121-1.121.9.9-.7.7-1.173,0s.007,0,.01,0A.218.218,0,0,0,22.426,14.051Zm2.169-.073.39.39h-.778Zm.721.39a.215.215,0,0,0-.006-.294l-.405-.405.912-.912.7.7-.908.908Zm1.512-.6.6.6-1.2,0Zm1.152.708c-.008,0-.017-.138-.049-.17l-.794-.821,1.025-1.038,1.057,1.1-.881.926H27.98Zm1.546-.676.575.575-1.147,0Zm1.692-1.691c.01-.01.008-.027.017-.039l.86.86-1.411,1.41-.847-.847ZM8.66,45.242l.961.961-.657.657L8,45.9Zm2.327,1.71-.749-.749.979-.979.908.908a13.81,13.81,0,0,0-1.237,1.307c-.63-.032-1.193-.092-1.717-.168l.758-.758.749.749a.219.219,0,0,0,.309-.309ZM8.7,47.195s0,.005,0,.008a8.824,8.824,0,0,1-1.571-.428l.565-.565C7.781,46.3,8.6,47.127,8.7,47.195Zm2.715.261,1.015-1.015L13.489,47.5C11.334,47.465,12.256,47.483,11.418,47.456Zm2.625.048a15.021,15.021,0,0,0-1.3-1.372l.764-.764c.275.275.572-.045.309-.309.206-.206.535-.434.33-.639s-.433.124-.639.33l-.729-.729,1-1,.114.114a.218.218,0,0,0,.309,0c.157-.157.026-.283-.114-.424l.15-.15a.219.219,0,0,0-.309-.309l-.15.15-.908-.908,1.176-1.176a2.491,2.491,0,0,0,.3.28l-.168,6.9Zm.315-7.482L14.339,40a.205.205,0,0,0,.02-.05ZM35.877,55.873l-13.446.08c-8.571,0-7.511-2.918-7.168-17.017H41.752s.331,9.4.358,9.523C42.26,53.167,42.694,55.83,35.877,55.873ZM46.342,44.828l.653.653-.957.957c-.1-.1-.388-.433-.525-.44.183-.032.269-.208.067-.41Zm1.383,3,.922-.922c.1-.052.031.02.085-.085l1.087-1.087.636.636-1.169,1.169A10.877,10.877,0,0,1,47.725,47.831Zm-.456-.162-.921-.921.957-.957.922.921Zm-1.8-1.659a.207.207,0,0,0-.119.358l.381.38-.885.885a7.8,7.8,0,0,0-.637-.671L45.273,45.9C45.34,45.964,45.37,46,45.469,46.009Zm-1.568.643-.772-.772a.206.206,0,0,0-.236-.031c0-.065-.005-.136-.008-.2l1.069-1.069,1.01,1.01Zm-.992-.375.683.683-.635.635C42.943,47.185,42.926,46.749,42.908,46.277Zm-.047-1.224c-.009-.218-.047-1.233-.063-1.63l.846.846ZM43,43l1.064-1.064c.093.093.863.864.958.956l-1.065,1.065Zm-.23-.389c-.016-.415-.031-.845-.049-1.295l.361-.361.672.671Zm-.07-1.89c0-.052,0-.1-.005-.154l.079.079Zm-.029-.794c-.008-.228-.017-.473-.025-.708l.491-.49.778.778-.832.832Zm-.047-1.305a1.988,1.988,0,0,0-.038-.445l.241.241Zm.626,9.3.652-.652a7.8,7.8,0,0,0,.671.637l-.034.034C43.664,47.928,44.233,47.94,43.248,47.921Zm1.9.027.892-.892.848.848C46.255,47.942,45.752,47.949,45.147,47.949Zm5.064-.715.568-.568a.2.2,0,0,0,.277-.277l1.24-1.24c.127.127.222.23.381.1A5.046,5.046,0,0,1,50.211,47.233Zm4.71-21.547-.667,12.937c-.12,2.375-.365,4.789-1.526,6.552a.207.207,0,0,0-.029-.24L51.433,43.67a.219.219,0,0,0-.309.309l.861.862-1.224,1.224-.636-.636.687-.687a.219.219,0,0,0-.309-.309l-.687.687-.273-.273a.219.219,0,0,0-.309.309l.273.273-.972.973-.922-.921.755-.755a.219.219,0,0,0-.309-.309l-.755.755-.653-.653.185-.185a.219.219,0,0,0-.309-.309l-.2.2a.2.2,0,0,0-.284.284l-.773.773-1.01-1.01L45.4,43.127a.2.2,0,0,0-.043-.327.2.2,0,0,0-.038-.217l-.954-.954.349-.347a.219.219,0,0,0-.309-.309l-.349.349-.672-.671.832-.832c.11.11.645.7.785.7a.219.219,0,0,0,.155-.373l-.74-.741c-.051-.1.014-.038-.09-.09l-.888-.888c.231-.231.652-.526.434-.743s-.514.2-.743.434l-.4-.4a.218.218,0,0,0-.309,0,.392.392,0,0,0-.034.32s1.316.027-27.556.027c-.237,0-.431.1-.437.332l-.038,1.485c-.01-.034-.013-.094-.04-.121a.211.211,0,0,0-.267-.029l-.3-.311a.217.217,0,0,0-.309.3l.293.292-1.4,1.4a.21.21,0,0,0,.192.357l.942.942-1,1-.4-.4a.219.219,0,0,0-.309.309l.412.412a.2.2,0,0,0,.285.285l.741.741-.764.764-.908-.908c.231-.231.653-.527.436-.744s-.515.205-.744.436l-.472-.472a.219.219,0,0,0-.309.309l.472.472-.979.979-.961-.961c.238-.238.7-.566.48-.788s-.606.3-.855.547a.173.173,0,0,0-.174.174l-.724.724L7.2,45.1a.219.219,0,0,0-.309.309l.49.49-.685.685C3.761,45.192,3.56,41.72,3.685,38.344c.161-4.229-.37-15.767-.384-16.752-.075-5.31,6.1-6.353,11.377-6.366l27.421.085v.041h.353c.742,0,1.475-.034,2.216-.034C53.289,15.317,55.317,17.862,54.921,25.686Z" transform="translate(-2.427 -1.106)" fill="#000c1e"/>
    </g>
    <g id="Group_6625" data-name="Group 6625" transform="translate(18.747 42.788)">
      <path id="Path_4755" data-name="Path 4755" d="M39.75,48.823c-18.637.35-18.654.018-18.639.874a.516.516,0,0,0,.445.515l18.211-.429a.477.477,0,0,0,.429-.488A.49.49,0,0,0,39.75,48.823Z" transform="translate(-21.11 -48.823)" fill="#000c1e"/>
    </g>
    <g id="Group_6626" data-name="Group 6626" transform="translate(18.742 46.069)">
      <path id="Path_4756" data-name="Path 4756" d="M39.749,52.578c-19.266.362-18.655.1-18.64.98,0,.238.2.623.437.623h.008l18.211-.536c.241,0,.433-.3.429-.542S39.972,52.574,39.749,52.578Z" transform="translate(-21.104 -52.578)" fill="#000c1e"/>
    </g>
    <g id="Group_6627" data-name="Group 6627" transform="translate(18.747 49.037)">
      <path id="Path_4757" data-name="Path 4757" d="M39.75,55.977l-18.211.342a.457.457,0,0,0,.008.912h.008l18.211-.362a.446.446,0,0,0,.429-.454A.453.453,0,0,0,39.75,55.977Z" transform="translate(-21.11 -55.976)" fill="#000c1e"/>
    </g>
    <g id="Group_6628" data-name="Group 6628" transform="translate(39.143 18.937)">
      <path id="Path_4758" data-name="Path 4758" d="M17.617,23.351l.77-.77a.219.219,0,0,0-.309-.309l-.77.77-1.459-1.459a.219.219,0,0,0-.309.309L17,23.351l-1.261,1.261-.659-.659.743-.743a.219.219,0,0,0-.309-.309l-.743.743-.906-.906.049-.049a.219.219,0,0,0-.309-.309L11.582,24.4l-.4-.4a.219.219,0,1,0-.309.309l.4.4-1.5,1.5L8.2,24.641a.219.219,0,0,0-.309.309l1.571,1.571L8.4,27.584a.219.219,0,0,0,.309.309L9.77,26.831l1.9,1.9a.219.219,0,0,0,.309-.309l-.719-.719a.2.2,0,0,0,.1-.042L12.8,26.233l1.475,1.475-.369.369a.219.219,0,0,0,.309.309l2.34-2.34.058.058a.219.219,0,0,0,.309-.309l-.058-.058.956-.956a.219.219,0,0,0-.309-.309l-.956.956-.507-.507L17.3,23.66l1.408,1.408a.219.219,0,1,0,.309-.309Zm-4.06-.3.906.906L12.8,25.616l-.9-.9Zm-2.5,4.309a.2.2,0,0,0-.042.1l-.935-.935,1.5-1.5.9.9Zm5.187-1.62L14.582,27.4l-1.475-1.475,1.663-1.663.659.659-.121.121a.219.219,0,0,0,.309.309l.121-.121Z" transform="translate(-7.825 -21.518)" fill="#000c1e"/>
    </g>
  </g>
</svg>
