<svg xmlns="http://www.w3.org/2000/svg" width="63.947" height="64.135" viewBox="0 0 63.947 64.135">
  <g id="fast-delivery-time" transform="translate(-1.026 -0.932)">
    <path id="Path_5662" data-name="Path 5662" d="M64.725,58.708c-1.17.006-3.965.018-7.1.047.467-1.693.353-1.279,1.049-23.885.252-7.575-2.284-9.407-8.535-9.48-2.3-.035-4.584-.058-6.879-.082C43.418,15.61,39.4,8.352,32.909,1.1a.5.5,0,0,0-.782.048c-3.08,4.405-4.707,7.271-4.707,7.271-3.042,5.12-5.448,10.675-5.651,16.611l-5.588-.069c-7.12-.106-8.5,2.43-8.462,7.563.337,29.081.261,24.023.122,26.618-2.215.025-5.093.043-6.094.048a2.963,2.963,0,0,0,.828,4.483,7.8,7.8,0,0,0,4.327.783c6.117-.121,39.176.232,49.442.581a12.517,12.517,0,0,0,5.825-.769h0A4.5,4.5,0,0,0,64.725,58.708ZM40.987,56.181,42.508,57.7l-.955.956a.234.234,0,0,0-.054.223l-1.856.014a.236.236,0,0,0-.034-.271l-.686-.686,2.031-2.031A.236.236,0,0,0,40.987,56.181Zm2.928,2.22-.7-.7L45.22,55.7l1.3,1.3-1.861,1.861q-1.308.01-2.614.021l.82-.821.7.7a.25.25,0,1,0,.353-.353Zm4.512-.2-1.2-1.2,1.722-1.722,1.817,1.816-1.569,1.569a.249.249,0,0,0-.068.163l-3.758.03,1.5-1.5,1.2,1.2a.25.25,0,0,0,.354-.354Zm2.594-5,.826.826-.672.672a.25.25,0,0,0,.354.354l.672-.672.637.637-1.722,1.721L49.3,54.918Zm3.8-.165L53.191,54.66l-.637-.637L54.182,52.4ZM39.177,58.9l-1.224.01.617-.617Zm-4.457.035.406-.406.4.4Zm2.5-22.416.981.98-.881.881-.98-.981ZM35.986,37.75l.98.981-.59.59a.25.25,0,0,0,.354.354l.59-.59.805.806c-.91-.018-1.824-.022-2.733-.018a.248.248,0,0,0-.062-.149l-.659-.659Zm-1.209,2.128-.927.008.467-.467Zm8.3-11.59a13.591,13.591,0,0,1,2.679,15.086,13.962,13.962,0,0,0-4.949-6.46A32.079,32.079,0,0,0,43.08,28.288ZM37.543,8.814a13.214,13.214,0,0,1-8.969-.378c1.247-2.106,2.609-4.175,4.01-6.2A53.18,53.18,0,0,1,37.543,8.814ZM28.072,9.3a14.052,14.052,0,0,0,10.008.381,28.959,28.959,0,0,1,4.184,16.106h0v0h0c0,.022,0,.045,0,.067-.018.481-.054.958-.094,1.434q-.1,1.189-.284,2.358c-.022.134-.053.265-.076.4q-.155.884-.363,1.75c-.069.286-.143.57-.22.853-.12.442-.253.88-.393,1.315-.092.285-.178.572-.279.853q-.336.94-.735,1.857a27.624,27.624,0,0,1-1.424,2.778l-.718-.718.912-.912a.19.19,0,0,0,.246-.045.236.236,0,0,0,.045-.246l.89-.89a.25.25,0,1,0-.354-.354l-.859.859-.981-.981.4-.4a.25.25,0,0,0-.354-.354l-.445.445a.241.241,0,0,0-.2.064.237.237,0,0,0-.064.2l-2.594,2.594-.39-.39a.25.25,0,0,0-.354.354l.39.39-.59.59a.235.235,0,0,0-.049.235l-.4,0V27.687a.5.5,0,0,0-1,0V39.9c-1,.01-2.475.029-4.113,0C20.087,31.127,22.044,19.618,28.072,9.3Zm-3.31,27.961a13.909,13.909,0,0,0-4.487,6.119,13.54,13.54,0,0,1,1.761-14.046A24.78,24.78,0,0,0,24.762,37.258Zm-8.595-11.3,5.583.069A19.387,19.387,0,0,0,21.865,28a14.545,14.545,0,0,0-1.923,16.934.5.5,0,0,0,.919-.114,12.88,12.88,0,0,1,4.424-6.686,17.18,17.18,0,0,0,1.932,2.6c.149.081.11.159.36.164,1.409.029,2.884.02,4.351,0v3.158a.5.5,0,0,0,1,0V40.892c1.8-.02,3.656-.04,5.48,0a.458.458,0,0,0,.436-.236c.161-.115,1.427-2.6,1.527-2.814a12.886,12.886,0,0,1,4.8,6.972.5.5,0,0,0,.919.115,14.592,14.592,0,0,0-2.809-17.844,1.129,1.129,0,0,0-.093-.075c.006-.064.007-.128.012-.193.011-.173.033-.343.042-.516,2.3.023,4.587.048,6.889.083,5.66.068,7.781,1.441,7.549,8.448h0L57.3,47.072l-1.246-1.246a.25.25,0,0,0-.354.354L56.725,47.2a.235.235,0,0,0-.264.037l-1.7,1.7a.25.25,0,0,0,.354.354l.153-.154,1.2,1.2a.25.25,0,0,0,.354-.354l-1.2-1.2,1.194-1.194a.235.235,0,0,0,.037-.264l.11.11a.249.249,0,0,0,.177.073.255.255,0,0,0,.153-.063c-.276,8.94-.215,9.841-.69,11.312-2.283.015-4.573.037-6.858.054l1.373-1.374,1.195,1.195a.25.25,0,1,0,.354-.354l-1.195-1.195,1.721-1.722,1.3,1.3-1.615,1.615a.25.25,0,0,0,.354.354l1.615-1.615L56.225,58.4a.25.25,0,1,0,.354-.354L55.2,56.661l.714-.714a.25.25,0,0,0-.354-.354l-.714.714-1.3-1.3,1.628-1.628,1.1,1.1a.25.25,0,0,0,.354-.354l-1.1-1.1.121-.121a.25.25,0,0,0-.353-.354l-.121.121-.669-.669a.219.219,0,0,0-.29-.29l-.044-.044a.25.25,0,0,0-.354.354l.012.012L52.2,53.665l-.826-.826,1.271-1.271a.25.25,0,0,0-.353-.354L51.007,52.5a.231.231,0,0,0-.324.324L48.947,54.56l-.719-.719a.25.25,0,1,0-.354.354l.72.719-1.722,1.722-1.3-1.3,1.731-1.731a.25.25,0,1,0-.354-.354l-1.73,1.731-.2-.2a.25.25,0,1,0-.353.354l.2.2-2,2.005-1.521-1.521a.236.236,0,0,0-.274-.033L42,54.859a.25.25,0,0,0-.354-.353L38.573,57.58l-1-1a.25.25,0,0,0-.354.354l1,1-.908.908c-.019.019-.016.045-.028.067l-1.39.011a.248.248,0,0,0,0-.344l-.406-.406,1.924-1.924a.25.25,0,0,0-.354-.354l-1.924,1.924-.672-.673a.25.25,0,1,0-.354.354l.672.673-.484.484a.237.237,0,0,0-.031.279l-1.466.012-1.211.009.431-.431.341.341a.25.25,0,0,0,.354-.354l-.341-.341,2.175-2.175a.25.25,0,0,0-.353-.354l-2.175,2.175-.2-.2a.25.25,0,0,0-.353.354l.2.2-.766.766c-.007.007,0,.017-.01.024q-11.03.094-22.044.172c.134-2.322.215,2.329-.12-26.62C8.686,28.026,9.561,25.851,16.167,25.961ZM61.738,63.368c-3.424,1.633-24.424-.514-54.853.089a6.851,6.851,0,0,1-3.777-.631,2.123,2.123,0,0,1-.893-2.639c2.554-.015,17.168-.124,30.586-.239,6.862-.059,24.282-.205,31.179-.236A3.742,3.742,0,0,1,61.738,63.368Z" fill="#000c1e"/>
    <path id="Path_5663" data-name="Path 5663" d="M30.141,22.9a5.039,5.039,0,0,0,2.247.517,5.266,5.266,0,0,0,3.495-1.306,5.441,5.441,0,0,0,1.486-5.606c-.578-1.757-2.572-3.939-4.822-3.472-2.688.561-4.365,1.815-4.985,3.729A5.259,5.259,0,0,0,30.141,22.9Zm.283-1,.677-.677,1.177,1.177a4,4,0,0,1-1.692-.4C30.529,21.979,30.48,21.938,30.424,21.906ZM36.4,19.491l-1.606-1.606.794-.794.707.707a.222.222,0,0,0,.309.019A4.5,4.5,0,0,1,36.4,19.491Zm-.388.319c-.014.009-.033.006-.046.019l-1.213,1.214-.411-.412,1.246-1.246ZM34.4,21.4l-.206.206a.227.227,0,0,0,.073.384,4.409,4.409,0,0,1-1.409.393.25.25,0,0,0-.072-.174l-.051-.051a.245.245,0,0,0,.144-.059l1.11-1.11Zm-1.875.344a.244.244,0,0,0-.06.144l-1.01-1.01,1.211-1.211.967.967Zm2.6-.3c-.008-.013-.007-.029-.017-.041l.68-.681a4.009,4.009,0,0,1-.566.647C35.186,21.394,35.15,21.415,35.119,21.441Zm-6.606-4.369c.5-1.547,1.927-2.576,4.238-3.059a1.959,1.959,0,0,1,.4-.041c1.454,0,2.845,1.568,3.265,2.847a3.977,3.977,0,0,1,.128.525l-.607-.607.188-.188a.25.25,0,0,0-.354-.354l-.188.188L35.1,15.9a.25.25,0,1,0-.354.354l.484.484-.794.794-.1-.1a.25.25,0,1,0-.354.354l.1.1-.1.1a.25.25,0,1,0,.354.354l.1-.1.794.794-1.246,1.246-.967-.969.171-.171a.25.25,0,1,0-.354-.354l-.171.171-.206-.206a.25.25,0,1,0-.354.354l.206.206L31.1,20.521l-.8-.8a.25.25,0,0,0-.354.353l.8.8-.759.759A4.254,4.254,0,0,1,28.513,17.072Z" fill="#000c1e"/>
    <path id="Path_5664" data-name="Path 5664" d="M39.572,36.067a.25.25,0,0,0,.354-.354L38.517,34.3c.027-.012.058-.011.081-.033l.824-.823.728.728a.25.25,0,0,0,.354-.353l-.728-.728.691-.691a.25.25,0,1,0-.354-.353l-.691.691-.29-.29a.25.25,0,1,0-.354.354l.29.29-.824.823a.224.224,0,0,0-.044.107.238.238,0,0,0-.289.027.25.25,0,0,0,0,.354Z" fill="#000c1e"/>
    <path id="Path_5665" data-name="Path 5665" d="M39.985,30.876l.9.9a.25.25,0,1,0,.354-.354l-.891-.891.747-.747.205.2a.25.25,0,1,0,.354-.354l-.217-.217a.234.234,0,0,0-.329-.329l-.37-.37a.25.25,0,1,0-.354.353l.357.357-1.091,1.091a.25.25,0,0,0,0,.354A.239.239,0,0,0,39.985,30.876Z" fill="#000c1e"/>
  </g>
</svg>
