<svg width="70" height="123" viewBox="0 0 70 123" fill="none" xmlns="http://www.w3.org/2000/svg">
<g clip-path="url(#clip0_104_7452)">
<path fill-rule="evenodd" clip-rule="evenodd" d="M13.165 0.5H56.6117C60.2355 0.5 63.5417 1.97933 65.9245 4.35221C68.3073 6.73503 69.7866 10.0412 69.7866 13.665V109.335C69.7866 112.959 68.3073 116.265 65.9245 118.648C63.5516 121.021 60.2355 122.5 56.6117 122.5H13.165C9.54118 122.5 6.23503 121.021 3.85221 118.648C1.47933 116.265 0 112.959 0 109.335V13.665C0 10.0412 1.47933 6.73503 3.86214 4.35221C6.23503 1.97933 9.54118 0.5 13.165 0.5ZM66.6095 104.42V14.092H3.15723V104.401C25.228 104.41 44.5487 104.42 66.6095 104.42Z" fill="black"/>
<path fill-rule="evenodd" clip-rule="evenodd" d="M35.1066 32.459L11.1494 56.4063L18.5659 63.8228L49.9297 32.459H35.1066Z" fill="black"/>
<path fill-rule="evenodd" clip-rule="evenodd" d="M34.9378 54.5508L22.1104 67.3683L29.5566 74.9238L36.9533 67.5173L49.9297 54.5508H34.9378Z" fill="black"/>
<path fill-rule="evenodd" clip-rule="evenodd" d="M29.5566 74.9222L35.186 80.5516H49.9297L36.9533 67.5156L29.5566 74.9222Z" fill="black" fill-opacity="0.9"/>
<path fill-rule="evenodd" clip-rule="evenodd" d="M22.0312 67.4476L29.4378 60.041L36.9536 67.5171L29.557 74.9237L22.0312 67.4476Z" fill="black"/>
</g>
<defs>
<clipPath id="clip0_104_7452">
<rect width="69.7866" height="122" fill="white" transform="translate(0 0.5)"/>
</clipPath>
</defs>
</svg>
