<svg xmlns="http://www.w3.org/2000/svg" width="56.754" height="52.751" viewBox="0 0 56.754 52.751">
  <g id="healthcare" transform="translate(-4.623 -6.624)">
    <path id="Path_5803" data-name="Path 5803" d="M61.244,31.01c-.663-1.567-2.9-1.168-4.661-1.053,1.963-5.3,3.438-11.907-.864-17.458-5.445-7.044-19.114-8.628-24.076.607a12.912,12.912,0,0,0-8.6-6.25c-6-1.337-24.321,2.649-15.99,23.977A2.776,2.776,0,0,0,4.732,32.5c-.472,1.338.514,3.805,4.507,3.295a56.647,56.647,0,0,0,9.229,13.273,55.252,55.252,0,0,0,9.636,8.2.226.226,0,0,0,.354.229,25.524,25.524,0,0,0,3.185,1.874c1,0,15.073-8.363,22.769-24.319,2.468-.139,4.308-.32,5.784-1.4A2.33,2.33,0,0,0,61.244,31.01ZM8.359,13.111c4-5.18,11.567-5.924,14.467-5.277a11.708,11.708,0,0,1,8.309,6.522.568.568,0,0,0,.082.23.546.546,0,0,0,.878.022.491.491,0,0,0,.079-.3c3.956-9.152,17.455-8.049,22.755-1.193C59.023,18.4,57.55,24.6,55.49,30.026q-7.294.441-14.588.91c-3.082.2-3.466-.612-4.009-2.466-.063-.213-.125-.425-.194-.633-.923-2.77-3.5-3.263-5.076.095q-1.347,2.851-2.693,5.71a67.854,67.854,0,0,0-4.35-12.813c-.825-1.817-2.364-1.5-3.391.01-2,3.007-3.43,10.5-6.884,10.129a47.672,47.672,0,0,0-6.211-.219C5.83,25.034,4.168,18.517,8.359,13.111ZM31.643,58.3c-.828-.476-1.638-.984-2.44-1.507l.879-.879,1.236,1.236a.244.244,0,0,0,.17.07c.011.019.008.042.024.058a.251.251,0,0,0,.354,0l1.594-1.6c.112.112.816.869.974.879C33.519,57.169,32.592,57.753,31.643,58.3Zm1.464-2.969-1.45,1.451L30.436,55.56l1.45-1.451Zm-.868-1.574L33.591,52.4l1.221,1.221L33.46,54.977Zm2.42,2.66a.237.237,0,0,0-.033-.273l-.812-.812,1.352-1.352a13.7,13.7,0,0,0,1.266,1.2Q35.557,55.816,34.659,56.416Zm2.084-1.467a9.459,9.459,0,0,0-1.224-1.325l1.68-1.68a11.48,11.48,0,0,0,1.477,1.374.251.251,0,0,0,.177-.427l-.645-.645,1.32-1.32c.1.1.863.87.969.954C39.286,52.962,38.036,53.989,36.743,54.949ZM40.651,49.1,39.528,50.22l-1.68-1.68,1.158-1.158a.233.233,0,0,0,.05.121Zm-.539-1.246,1.418-1.418.893.893-1.418,1.418Zm-.937,2.723-1.32,1.32-.381-.381a.234.234,0,0,0-.058-.139.25.25,0,0,0-.139-.058l-1.1-1.1,1.32-1.32Zm1.672.995c-.073-.12-.866-.9-.965-1l1.123-1.123c.126.126.866.923,1.027.923a.252.252,0,0,0,.156-.065Q41.525,50.951,40.847,51.569Zm1.369-1.287a.245.245,0,0,0-.008-.334l-.85-.85,1.418-1.418.3.3a.252.252,0,1,0,.354.354l.357.357Q43.016,49.505,42.216,50.282Zm1.919-1.95-.349-.349,1.45-1.451.273.273Q44.837,47.58,44.135,48.332Zm1.7-1.913-.241-.241,1.287-1.287.118.118C46.616,45.487,46.226,45.955,45.831,46.419ZM47.3,44.611l-1.417-1.417,1.287-1.287c.1.1,1.125,1.153,1.26,1.209Q47.88,43.872,47.3,44.611Zm3.989-5.853-.617-.617.914-.914a.25.25,0,0,0-.354-.354l-.914.914-.086-.086a.25.25,0,0,0-.354.354l.086.086-1.332,1.332a.25.25,0,0,0,.177.427,11.993,11.993,0,0,0,1.509-1.4l.705.705q-.606,1-1.252,1.978L48.593,40a.25.25,0,0,0-.354.354l1.254,1.254c-.258.381-.527.755-.794,1.129-.092-.1-1.079-1.086-1.176-1.182l.746-.746a.25.25,0,1,0-.354-.354l-2.432,2.432a.23.23,0,0,0-.261.261l-.591.591a.25.25,0,0,0,.354.354l.545-.545.991.991-1.287,1.287-1.365-1.365a.25.25,0,0,0-.354.354l1.365,1.365-1.45,1.451-.3-.3a.249.249,0,0,0-.352-.352l-.894-.894,2.488-2.488a.25.25,0,1,0-.354-.354L39.755,47.5l-.348-.348a.233.233,0,0,0-.121-.05l.106-.106a.25.25,0,1,0-.354-.354l-3.219,3.219-.085-.085a.25.25,0,0,0-.354.354l.085.085-.742.742a.25.25,0,0,0,.354.354l.742-.742,1.024,1.024-1.68,1.68L33.9,52.007a.222.222,0,0,0-.271-.271L33.5,51.61a.25.25,0,0,0-.354.354l.085.085L31.883,53.4l-.479-.479a.25.25,0,1,0-.354.354l.479.479-1.45,1.451-1.562-1.562a.25.25,0,0,0-.354.354l1.562,1.562-.953.953a54.222,54.222,0,0,1-9.577-8.128,55.612,55.612,0,0,1-8.909-12.734c9.438-1.34,7.527-.149,12.634-8.742,1.107,3.873,2.981,14.1,5.78,14.1.928,0,1.26-.745,1.479-1.238a2.748,2.748,0,0,1,.224-.44,64.461,64.461,0,0,0,3.856-6.359c2.428,3.069,3.819,2.414,5.406,2.448,4.516.043,9.072-.033,13.594-.3Q52.346,36.979,51.291,38.758Zm8.32-5.908h0c-1.277.931-3.014,1.088-5.547,1.225-3.583.228-15.587.585-16.588.272a6.82,6.82,0,0,1-2.9-2.624.5.5,0,0,0-.9.268c-.474,1.232-4,6.457-4.405,7.367-.226.508-.322.645-.566.645a.854.854,0,0,1-.638-.394,19.722,19.722,0,0,1-2.2-5.5c-.145-.5-2.211-7.986-2.2-8.459a.5.5,0,0,0-.9-.432c-4.907,8.257-4.321,8.27-7.828,8.77-6.143.839-6.985,1.133-8.142.68a1.653,1.653,0,0,1-1.118-1.843c.265-.779,1.258-1.011,2.076-1.071a48.191,48.191,0,0,1,6.449.207c4.4.467,5.828-7.578,7.815-10.565.344-.5.887-.948,1.222-.76a1.244,1.244,0,0,1,.431.609c6.715,14.409,2.673,20.206,8.856,7.111,1.316-2.807,2.688-1.809,3.223-.2.8,2.406.983,4.05,5.216,3.781C58.221,30.823,59.9,30.4,60.325,31.4,60.526,31.869,60.118,32.483,59.611,32.85Z" fill="#000c1e"/>
    <path id="Path_5804" data-name="Path 5804" d="M10.873,17.595a.249.249,0,0,0,.177-.073L12.376,16.2l.445.445a.236.236,0,0,0,.033.274.249.249,0,0,0,.177.073.263.263,0,0,0,.1-.04l.749.749-1.36,1.36a.25.25,0,0,0,.354.354l1.36-1.36.078.078a.25.25,0,0,0,.354-.354l-.078-.078.917-.917.254.254a.25.25,0,1,0,.354-.354l-.254-.254,1.265-1.265c.025.008.046.03.071.03a.249.249,0,0,0,.177-.073.235.235,0,0,0,.044-.248l1.146-1.146.234.234a.25.25,0,0,0,.354-.354l-.263-.263a.22.22,0,0,0-.3-.3L16.448,10.9a.25.25,0,0,0-.354.354l1.032,1.032-1.115,1.115-.422-.422.592-.592a.25.25,0,0,0-.354-.354l-.6.6a.238.238,0,0,0-.336.336l-1.243,1.243-.773-.773a.25.25,0,0,0-.354.354l.773.773-.917.917-.058-.058a.25.25,0,1,0-.354.354l.058.058L10.7,17.169a.25.25,0,0,0,0,.354A.257.257,0,0,0,10.873,17.595Zm3.358-.252-.726-.726.917-.917.726.726Zm3.247-4.7.726.726-1.115,1.115-.726-.726Zm-.743,2.195L15.5,16.073l-.726-.726,1.234-1.234Zm-1.5-1.5.422.422-1.234,1.234L14,14.571Zm-1.588,1.588.422.422-.917.917-.422-.422Z" fill="#000c1e"/>
    <path id="Path_5805" data-name="Path 5805" d="M39.429,18.031a.251.251,0,0,0,.354,0l1.5-1.5,1.408,1.408-1.25,1.25a.25.25,0,0,0,.354.354l1.25-1.25,1.618,1.618-1.543,1.543a.25.25,0,0,0,.354.354l1.543-1.543.727.727a.25.25,0,1,0,.354-.354l-.727-.727,1.073-1.073,1.381,1.381a.25.25,0,1,0,.354-.354L46.8,18.483l.947-.947,1.189,1.189a.25.25,0,1,0,.354-.354L48.1,17.182l1.2-1.2,1.5,1.5a.25.25,0,0,0,.354-.354L46.5,12.474a.25.25,0,0,0-.354.354l.833.833s-.006,0-.009,0l-1.193,1.193L44.367,13.45l1.316-1.316a.25.25,0,0,0-.354-.354L44.013,13.1l-.117-.117a.25.25,0,1,0-.354.354l.117.117-.947.947-.243-.243a.25.25,0,1,0-.354.354l.243.243-1.073,1.073-1.5-1.5a.25.25,0,1,0-.354.354l1.5,1.5-1.5,1.5A.248.248,0,0,0,39.429,18.031Zm3.971-.093,1.073-1.073.527.527-1.073,1.073Zm1.618,1.618-.737-.737,1.073-1.073.737.737Zm1.427-1.426-.737-.737.947-.947.737.737Zm1.705-2.959a.248.248,0,0,0,.35.014l.445.445-1.2,1.2-.737-.737,1.035-1.035Zm-.83-1.153s0-.006,0-.009l.53.53-1.2,1.2-.528-.528ZM46.3,16.092l-.947.947-.528-.528.947-.947Zm-2.29-2.29,1.408,1.408-.947.947-1.408-1.408Zm-1.3,1.3,1.408,1.408-1.073,1.073-1.408-1.408Z" fill="#000c1e"/>
  </g>
</svg>
