<svg width="71" height="123" viewBox="0 0 71 123" fill="none" xmlns="http://www.w3.org/2000/svg">
<g clip-path="url(#clip0_104_7459)">
<path fill-rule="evenodd" clip-rule="evenodd" d="M7.90299 25.0827H62.8864V82.5482H7.90299V25.0827ZM33.8558 33.3034H38.959V43.1623C38.959 44.1353 38.8001 45.0586 38.5023 45.9224C38.1945 46.7961 37.7179 47.5506 37.0726 48.2059C36.4173 48.8612 35.7422 49.3079 35.0273 49.576C34.0345 49.9434 32.8431 50.1221 31.4531 50.1221C30.6489 50.1221 29.7752 50.0625 28.8221 49.9533C27.869 49.8441 27.0747 49.6157 26.4393 49.2881C25.8039 48.9505 25.2181 48.4839 24.6919 47.8584C24.1558 47.2428 23.7983 46.6074 23.5998 45.9521C23.2821 44.8997 23.1232 43.9665 23.1232 43.1523V33.2935H28.2264V43.3807C28.2264 44.2842 28.4746 44.9891 28.971 45.4954C29.4674 46.0018 30.1624 46.2599 31.0461 46.2599C31.9198 46.2599 32.6048 46.0117 33.1112 45.5054C33.6076 45.009 33.8558 44.304 33.8558 43.3807V33.3034ZM42.5431 33.3034H47.6761V49.8441H42.5431V33.3034ZM12.3708 0.5H58.4186C61.8241 0.5 64.9316 1.88997 67.1655 4.12386C69.3994 6.35775 70.7894 9.46533 70.7894 12.8708V110.129C70.7894 113.535 69.3994 116.642 67.1655 118.876C64.9316 121.11 61.8241 122.5 58.4186 122.5H12.3708C8.96533 122.5 5.85775 121.11 3.62386 118.876C1.38997 116.642 0 113.535 0 110.129V12.8708C0 9.46533 1.38997 6.35775 3.62386 4.12386C5.85775 1.88997 8.96533 0.5 12.3708 0.5ZM7.90299 92.8638H31.1553V100.449H37.8172V92.8538H62.8963V100.449H67.8307V18.1924H2.96859V100.459H7.90299V92.8638ZM28.7327 112.691C27.9285 112.691 27.2336 112.035 27.2336 111.192C27.2336 110.387 27.8888 109.692 28.7327 109.692H42.3446C43.1488 109.692 43.8438 110.348 43.8438 111.192C43.8438 111.996 43.1885 112.691 42.3446 112.691H28.7327ZM35.3947 6.91374C36.7152 6.91374 37.7775 7.97607 37.7775 9.29655C37.7775 10.617 36.7152 11.6794 35.3947 11.6794C34.0742 11.6794 33.0119 10.617 33.0119 9.29655C33.0119 7.97607 34.0742 6.91374 35.3947 6.91374ZM67.8307 103.418H2.96859V110.09C2.96859 112.691 4.03092 115.034 5.74854 116.712C7.46615 118.429 9.80925 119.492 12.3708 119.492H58.4186C61.0199 119.492 63.363 118.429 65.0409 116.712C66.7585 114.994 67.8208 112.651 67.8208 110.09V103.418H67.8307ZM2.96859 15.1841H67.8307V12.8708C67.8307 10.2695 66.7684 7.92643 65.0508 6.24854C63.3332 4.53092 60.9901 3.46859 58.4285 3.46859H12.3708C9.76953 3.46859 7.42643 4.53092 5.74854 6.24854C4.03092 7.96615 2.96859 10.3092 2.96859 12.8708V15.1841ZM28.9015 57.4294H33.8558V67.0003C33.8558 67.9435 33.7069 68.847 33.409 69.681C33.1112 70.5249 32.6545 71.2596 32.019 71.895C31.3836 72.5304 30.7284 72.9673 30.0334 73.2254C29.0703 73.5828 27.9087 73.7616 26.5584 73.7616C25.7741 73.7616 24.9202 73.702 23.9969 73.5928C23.0736 73.4836 22.2992 73.2651 21.6836 72.9375C21.0581 72.6099 20.4922 72.1532 19.9858 71.5575C19.4696 70.9618 19.1221 70.3363 18.9235 69.7108C18.6157 68.6882 18.4668 67.7847 18.4668 67.0003V57.4294H23.4211V67.2287C23.4211 68.1024 23.6693 68.7874 24.1458 69.2739C24.6323 69.7703 25.3075 70.0186 26.1613 70.0186C27.0052 70.0186 27.6803 69.7703 28.1668 69.2938C28.6434 68.8172 28.8916 68.1222 28.8916 67.2287V57.4294H28.9015ZM36.0301 57.4294H41.5007L44.3501 62.3737L47.1102 57.4294H52.5212L47.5272 65.2132L52.9878 73.4935H47.3981L44.2508 68.3307L41.0737 73.4935H35.5436L41.0837 65.1239L36.0301 57.4294Z" fill="black"/>
</g>
<defs>
<clipPath id="clip0_104_7459">
<rect width="70.7894" height="122" fill="white" transform="translate(0 0.5)"/>
</clipPath>
</defs>
</svg>
