<svg width="129" height="122" viewBox="0 0 129 122" fill="none" xmlns="http://www.w3.org/2000/svg">
<g clip-path="url(#clip0_104_7449)">
<path d="M114.991 99.1698H13.0573C5.9039 99.1698 0.0839844 93.4011 0.0839844 86.3108V12.83C0.0839844 5.73938 5.9039 -0.0292969 13.0573 -0.0292969H114.991C122.145 -0.0292969 127.965 5.73938 127.965 12.83V86.311C127.965 93.4013 122.145 99.1698 114.991 99.1698ZM13.0573 7.31876C9.99154 7.31876 7.49746 9.79087 7.49746 12.8298V86.3108C7.49746 89.3495 9.99169 91.8219 13.0573 91.8219H114.991C118.057 91.8219 120.552 89.3493 120.552 86.3108V12.83C120.552 9.79087 118.057 7.31891 114.991 7.31891L13.0573 7.31876ZM124.258 122.032H3.79072C1.74352 122.032 0.0839844 120.387 0.0839844 118.358C0.0839844 116.328 1.74352 114.683 3.79072 114.683H124.258C126.305 114.683 127.965 116.328 127.965 118.358C127.965 120.387 126.305 122.032 124.258 122.032Z" fill="black"/>
<path d="M93.9034 43.4033L87.7427 42.6543C87.2713 41.0008 86.623 39.402 85.8088 37.885L89.6333 33.0345C90.5571 31.8627 90.3128 30.0177 89.1365 28.8516L85.1538 24.9038C83.9772 23.7378 82.1155 23.4957 80.9335 24.4114L76.179 28.0942C74.6188 27.2206 72.9662 26.5201 71.2511 26.0056L70.5168 20.0724C70.3341 18.5966 68.8452 17.4629 67.1815 17.4629H61.5489C59.8852 17.4629 58.3963 18.5966 58.2135 20.0724L57.4964 25.8685C55.7305 26.3599 54.0262 27.0472 52.4159 27.9176L47.7529 24.3054C46.5709 23.3897 44.7091 23.6316 43.5327 24.7978L39.55 28.7455C38.3737 29.9116 38.1294 31.7567 39.053 32.9284L42.6699 37.5155C41.781 39.1056 41.0759 40.79 40.5681 42.5368L34.6756 43.2531C33.1864 43.4343 32.043 44.9101 32.043 46.5591V52.1422C32.0428 53.7911 33.1864 55.267 34.6756 55.4479L40.6147 56.1702C41.1222 57.874 41.818 59.5171 42.6892 61.0696L38.9461 65.8169C38.0223 66.9885 38.2664 68.8339 39.4427 69.9996L43.4255 73.9474C44.6021 75.1139 46.4636 75.3556 47.6457 74.4398L52.5009 70.6791C54.0266 71.4957 55.6358 72.1487 57.3013 72.627L58.0624 78.7787C58.2452 80.2546 59.7341 81.3886 61.3978 81.3885H67.0303C68.6939 81.3886 70.1829 80.2546 70.3657 78.7787L71.1326 72.5807C72.755 72.1034 74.3229 71.4601 75.8109 70.6611L80.8267 74.5465C82.009 75.4621 83.8706 75.22 85.0465 74.0536L89.0295 70.1063C90.2063 68.9397 90.4501 67.0947 89.5263 65.9231L85.6343 60.9868C86.451 59.5179 87.111 57.9686 87.6038 56.364L93.9036 55.5983C95.3929 55.4172 96.5364 53.9411 96.5361 52.2921L96.5362 46.7093C96.5362 45.0603 95.3928 43.5842 93.9034 43.4033ZM64.2901 62.4809C57.0156 62.4809 51.1186 56.6359 51.1186 49.4258C51.1186 42.2155 57.0156 36.3706 64.2901 36.3706C71.5642 36.3706 77.4609 42.2155 77.4609 49.4258C77.4609 56.636 71.5642 62.4809 64.2901 62.4809Z" fill="black"/>
</g>
<defs>
<clipPath id="clip0_104_7449">
<rect width="128.05" height="122" fill="white"/>
</clipPath>
</defs>
</svg>
