<svg xmlns="http://www.w3.org/2000/svg" width="181.268" height="177.933" viewBox="0 0 181.268 177.933">
  <path id="mysql" d="M170.633,146.1c-9.867-.251-17.507.742-23.92,3.455-1.851.739-4.794.739-5.052,3.079,1,.99,1.116,2.588,1.984,3.954a28.633,28.633,0,0,0,6.409,7.511c2.584,1.98,5.178,3.94,7.9,5.667,4.8,2.966,10.23,4.692,14.9,7.649,2.722,1.719,5.428,3.943,8.154,5.795,1.34.987,2.2,2.588,3.937,3.2v-.377c-.871-1.108-1.119-2.712-1.974-3.947l-3.7-3.571a58.693,58.693,0,0,0-12.817-12.444c-3.947-2.719-12.581-6.416-14.181-10.963l-.251-.251a49.112,49.112,0,0,0,8.508-1.994c4.195-1.105,8.019-.854,12.322-1.96,1.98-.495,3.944-1.116,5.931-1.726v-1.112c-2.232-2.221-3.822-5.171-6.168-7.27a164.085,164.085,0,0,0-20.342-15.164c-3.828-2.472-8.752-4.063-12.827-6.165-1.469-.742-3.943-1.108-4.808-2.343-2.211-2.713-3.455-6.284-5.06-9.495-3.564-6.775-7.025-14.293-10.1-21.457-2.224-4.8-3.577-9.6-6.29-14.048-12.705-20.955-26.5-33.647-47.709-46.1-4.558-2.594-9.98-3.7-15.771-5.059l-9.25-.488c-1.974-.864-3.95-3.211-5.673-4.32C27.747,11.718,9.633,2.1,4.458,14.8c-3.333,8.022,4.93,15.91,7.768,19.978,2.1,2.825,4.812,6.039,6.277,9.247.868,2.1,1.112,4.32,1.98,6.534C22.457,55.981,24.3,62.017,26.9,67.08a58.8,58.8,0,0,0,4.557,7.63c.99,1.367,2.713,1.97,3.089,4.2-1.719,2.455-1.854,6.161-2.841,9.243-4.435,13.93-2.7,31.186,3.584,41.423,1.967,3.082,6.659,9.867,12.936,7.267,5.557-2.218,4.326-9.243,5.923-15.4.366-1.488.125-2.465.865-3.442v.24c1.719,3.449,3.455,6.772,5.049,10.23,3.824,6.036,10.484,12.326,16.032,16.507,2.953,2.231,5.293,6.045,8.993,7.409v-.369h-.244c-.749-1.106-1.845-1.6-2.828-2.459a59.906,59.906,0,0,1-6.412-7.4,158.817,158.817,0,0,1-13.8-22.444c-1.987-3.828-3.7-8.012-5.3-11.834-.746-1.475-.746-3.7-1.983-4.442-1.855,2.709-4.558,5.055-5.91,8.375-2.346,5.31-2.591,11.841-3.462,18.633l-.485.237c-3.927-.987-5.294-5.049-6.785-8.5-3.693-8.758-4.313-22.816-1.109-32.921.858-2.584,4.571-10.722,3.089-13.184-.743-2.359-3.211-3.7-4.564-5.56a50.115,50.115,0,0,1-4.442-7.887c-2.957-6.9-4.445-14.547-7.63-21.444-1.488-3.214-4.073-6.541-6.165-9.5-2.35-3.326-4.934-5.67-6.792-9.613-.614-1.356-1.475-3.574-.488-5.049A1.963,1.963,0,0,1,11.5,15.418c1.6-1.35,6.161.366,7.762,1.108a62.461,62.461,0,0,1,12.207,6.162c1.726,1.238,3.577,3.581,5.791,4.2h2.594c3.937.858,8.375.238,12.081,1.353a79.362,79.362,0,0,1,17.754,8.5A109.387,109.387,0,0,1,108.14,78.907c1.475,2.831,2.1,5.425,3.449,8.379,2.6,6.046,5.808,12.21,8.385,18.127,2.591,5.792,5.059,11.705,8.759,16.517,1.845,2.588,9.257,3.944,12.58,5.3,2.459,1.106,6.286,2.089,8.5,3.446,4.194,2.584,8.372,5.55,12.316,8.392,1.962,1.478,8.134,4.56,8.5,7.028M44.881,38.963a19.208,19.208,0,0,0-5.046.621v.247h.238c.993,1.97,2.719,3.336,3.95,5.056.993,1.977,1.854,3.937,2.828,5.91l.238-.244c1.739-1.231,2.6-3.2,2.6-6.165A28.156,28.156,0,0,1,48.2,41.8c-.726-1.234-2.327-1.848-3.323-2.838" transform="translate(-3.679 -8.477)" fill="#189beb"/>
</svg>
