<?xml version="1.0" encoding="utf-8"?>
<!-- Generator: Adobe Illustrator 22.1.0, SVG Export Plug-In . SVG Version: 6.00 Build 0)  -->
<svg version="1.1" id="Layer_1" xmlns="http://www.w3.org/2000/svg" xmlns:xlink="http://www.w3.org/1999/xlink" x="0px" y="0px"
	 viewBox="0 0 512 512" style="enable-background:new 0 0 512 512;" xml:space="preserve">
<style type="text/css">
	.st0{fill:#689F63;}
</style>
<g>
	<path class="st0" d="M256.1,505.2c-6.7,0-13.3-1.8-19.2-5.1L176,464c-9.1-5.1-4.7-6.9-1.7-7.9c12.1-4.3,14.6-5.2,27.6-12.6
		c1.4-0.8,3.1-0.5,4.5,0.3l46.8,27.8c1.7,0.9,4.1,0.9,5.7,0l182.7-105.4c1.7-1,2.8-2.9,2.8-4.9V150.5c0-2.1-1.1-4-2.8-5L258.9,40.1
		c-1.7-1-3.9-1-5.6,0L70.8,145.4c-1.8,1-2.9,3-2.9,5v210.8c0,2,1.1,3.9,2.8,4.9l50,28.9c27.2,13.6,43.8-2.4,43.8-18.5v-208
		c0-3,2.3-5.3,5.3-5.3h23.1c2.9,0,5.3,2.3,5.3,5.3v208.1c0,36.2-19.8,57-54.1,57c-10.6,0-18.9,0-42.1-11.4l-47.9-27.6
		c-11.8-6.9-19.2-19.7-19.2-33.3V150.4c0-13.7,7.3-26.5,19.2-33.3L236.9,11.7c11.6-6.5,26.9-6.5,38.4,0l182.6,105.5
		c11.8,6.8,19.2,19.6,19.2,33.3v210.8c0,13.7-7.4,26.4-19.2,33.3L275.3,500C269.5,503.4,262.8,505.1,256.1,505.2"/>
	<path class="st0" d="M312.5,360c-79.9,0-96.7-36.7-96.7-67.5c0-2.9,2.4-5.3,5.3-5.3h23.6c2.6,0,4.8,1.9,5.2,4.5
		c3.6,24,14.2,36.2,62.5,36.2c38.5,0,54.9-8.7,54.9-29.1c0-11.8-4.7-20.5-64.5-26.3c-50-4.9-80.9-16-80.9-56
		c0-36.9,31.1-58.8,83.2-58.8c58.5,0,87.5,20.3,91.1,63.9c0.1,1.5-0.4,3-1.4,4.1c-1,1.1-2.4,1.7-3.9,1.7h-23.7
		c-2.5,0-4.6-1.7-5.1-4.1c-5.7-25.3-19.5-33.4-57.1-33.4c-42,0-46.9,14.6-46.9,25.6c0,13.3,5.8,17.2,62.5,24.7
		c56.1,7.5,82.8,18,82.8,57.4c0,39.8-33.2,62.6-91.1,62.6"/>
</g>
</svg>
