<?xml version="1.0" encoding="utf-8"?>
<!-- Generator: Adobe Illustrator 22.1.0, SVG Export Plug-In . SVG Version: 6.00 Build 0)  -->
<svg height="60" width="60" version="1.1" id="Layer_1" xmlns="http://www.w3.org/2000/svg" xmlns:xlink="http://www.w3.org/1999/xlink" x="0px" y="0px"
	 viewBox="0 0 512 512" style="enable-background:new 0 0 512 512;" xml:space="preserve">
<style type="text/css">
	.st0{fill:#F1592A;}
</style>
<polygon class="st0" points="355.7,272.7 355.7,260 317.3,260 317.3,272.7 "/>
<path class="st0" d="M422.6,218.8c6.8-0.1,13.6,1.3,19.8,3.9l4-14.7c-7.9-3.3-16.4-4.9-25-4.5c-2-0.1-3.9-0.1-5.9,0
	c-28.1,1.5-49.6,25.4-48.1,53.5c0,30.7,19.5,50.8,51.6,50.8c8.9,0.3,17.8-1.2,26.1-4.5l-2.6-14.4c-6.4,2.6-13.2,3.9-20.1,3.8
	c-22.2,0-35.3-14.4-35.3-36.5C387.2,231.8,402,218.8,422.6,218.8z"/>
<path class="st0" d="M284.6,270c0,17.5-6.2,22.3-16.7,22.3c-3.9-0.1-7.7-0.7-11.4-1.8l-2.2,14.9c5,1.7,10.3,2.6,15.6,2.7
	c19.8,0,33.3-9.3,33.3-37.3v-65.7h-18.4L284.6,270z"/>
<path class="st0" d="M244.7,229.6c0.2-7.7-3.8-15-10.5-18.9c-8.8-5.2-18.9-7.4-29-6.4c-9,0-18,0.7-26.8,2.2l0.2,99
	c7.5,0.9,15.1,1.4,22.7,1.3c18.4,0,30.4-3.1,37.5-9.4c6.3-5.1,9.9-12.8,9.8-20.8c0-12.1-8.5-22.6-20.4-25
	C237.8,248.6,244.5,239.8,244.7,229.6z M207.1,217.9c11.7,0,18.9,5.3,18.9,13.9c0,8.6-7.2,14.6-19.9,14.6h-9.4l-0.1-27.8
	C200.1,218.1,203.6,217.8,207.1,217.9z M228.8,276.7c0,12.2-10.4,16.7-22.3,16.7c-3.3,0.1-6.5-0.1-9.8-0.4l0-32.9h9.2
	C218.6,260.1,228.8,264.6,228.8,276.7z"/>
<polygon class="st0" points="457.7,332.5 457.7,349.2 503,349.2 503,162.6 457.7,162.7 457.7,179.3 481.7,179.3 481.7,332.5 "/>
<path class="st0" d="M115.5,203c-28.5,0-48,21.9-48,53c0,29.8,18.6,51.5,46.5,51.5s48.5-19.4,48.5-53.3l0,0
	C162.6,225.9,144,203,115.5,203z M115.1,292.6c-17.7,0-28.1-16.2-28.1-36.8l-0.3,0.4c0-20.8,9.9-38.4,28.4-38.4
	c18.5,0,27.9,18,27.9,37.1C143.1,275.9,132.9,292.6,115.1,292.6z"/>
<polygon class="st0" points="54.2,179.7 54.2,163.1 8.9,163.1 8.9,349.2 54.2,349.5 54.2,332.8 30.2,332.8 30.2,179.7 "/>
</svg>
