<?xml version="1.0" encoding="utf-8"?>
<!-- Generator: Adobe Illustrator 22.1.0, SVG Export Plug-In . SVG Version: 6.00 Build 0)  -->
<svg height="60" width="60" version="1.1" id="Layer_1" xmlns="http://www.w3.org/2000/svg" xmlns:xlink="http://www.w3.org/1999/xlink" x="0px" y="0px"
	 viewBox="0 0 512 512" style="enable-background:new 0 0 512 512;" xml:space="preserve">
<style type="text/css">
	.st0{fill:#35437C;}
	.st1{fill:none;stroke:#FFFFFF;stroke-width:3;stroke-linecap:round;stroke-miterlimit:10;}
	.st2{fill:#FFFFFF;}
</style>
<circle class="st0" cx="256" cy="256" r="254"/>
<circle class="st1" cx="256" cy="256" r="244"/>
<g>
	<path class="st2" d="M106.2,204.2H159c15.5,0.1,26.7,4.6,33.7,13.4s9.3,20.8,6.9,36.1c-0.9,7-3,13.8-6.1,20.5
		c-3,6.7-7.2,12.7-12.6,18.1c-6.6,6.8-13.6,11.2-21.1,13c-7.5,1.8-15.2,2.8-23.2,2.8h-23.6l-7.5,37.4H78L106.2,204.2L106.2,204.2
		 M129.2,226.6l-11.8,59.1c0.8,0.1,1.6,0.2,2.4,0.2c0.9,0,1.8,0,2.8,0c12.6,0.1,23.1-1.1,31.5-3.7c8.4-2.8,14.1-12.3,16.9-28.8
		c2.4-13.8,0-21.7-7.1-23.8c-7-2.1-15.7-3.1-26.2-3c-1.6,0.1-3.1,0.2-4.5,0.2c-1.3,0-2.7,0-4.1,0L129.2,226.6"/>
	<path class="st2" d="M230.7,166.6h27.2l-7.7,37.6h24.4c13.4,0.3,23.4,3,29.9,8.3c6.7,5.3,8.7,15.2,5.9,29.9L297.3,308h-27.6
		l12.6-62.6c1.3-6.6,0.9-11.2-1.2-14c-2.1-2.8-6.6-4.1-13.6-4.1l-21.9-0.2l-16.2,81h-27.2L230.7,166.6L230.7,166.6"/>
	<path class="st2" d="M339.7,204.2h52.8c15.5,0.1,26.7,4.6,33.7,13.4s9.3,20.8,6.9,36.1c-0.9,7-3,13.8-6.1,20.5
		c-3,6.7-7.2,12.7-12.6,18.1c-6.6,6.8-13.6,11.2-21.1,13c-7.5,1.8-15.2,2.8-23.2,2.8h-23.6l-7.5,37.4h-27.4L339.7,204.2L339.7,204.2
		 M362.8,226.6L351,285.7c0.8,0.1,1.6,0.2,2.4,0.2c0.9,0,1.8,0,2.8,0c12.6,0.1,23.1-1.1,31.5-3.7c8.4-2.8,14.1-12.3,16.9-28.8
		c2.4-13.8,0-21.7-7.1-23.8c-7-2.1-15.7-3.1-26.2-3c-1.6,0.1-3.1,0.2-4.5,0.2c-1.3,0-2.7,0-4.1,0L362.8,226.6"/>
</g>
</svg>
