<svg xmlns="http://www.w3.org/2000/svg" width="44.444" height="63.999" viewBox="0 0 44.444 63.999">
  <g id="professional-team" transform="translate(5239.386 -8192)">
    <path id="Path_7045" data-name="Path 7045" d="M175,41c-.97,2.835-4.6,3.625-7.029,4.977a12.816,12.816,0,0,0-4.694,17.8c3.748,6.183,11.405,7.992,18.617,8.549a.433.433,0,0,0,.495.044c22.814,1.538,27.87-16.444,20.043-23.663-2.792-2.564-7.45-3.713-8.636-7.306a26.946,26.946,0,0,1-.539-2.889,17.982,17.982,0,0,0,1.414-1.986c3.166-5.186,7.047-18.369-.024-23.4-1.408-1-2.9-.981-4.227-1.614-2.225-1.052-5.431-3.943-11.27-2.767-6.929,1.393-16.4,9.565-6.591,27.693a22.818,22.818,0,0,0,2.552,3.9A1.584,1.584,0,0,1,175,41Zm5.33.083.861.86-.433.433a.236.236,0,0,0-.04.257c-.275-.062-.542-.143-.808-.229a3.194,3.194,0,0,0-.575-.645l.971-.971A.24.24,0,0,0,180.33,41.087Zm1.944,1.237-.377-.377.806-.806.9.9-.159.159a.25.25,0,1,0,.353.353l.159-.159.048.048a.25.25,0,0,0,.354-.354l-.048-.048,1.172-1.172,1.171,1.171a.25.25,0,1,0,.354-.354l-1.171-1.171.684-.684.623.623-.342.342a.25.25,0,0,0,.353.354l.342-.342.7.7a10.626,10.626,0,0,1-7.069,1.2l.415-.415.377.377a.249.249,0,1,0,.353-.351Zm9.8-6.094.623.623-1.081,1.08-.623-.623Zm-4.286,26.694s0-.009-.005-.013l-.451-.451.371-.371.29.29c.01.01.024.007.035.014-.078.183-.16.354-.24.531Zm.446-1.011-.2-.2a.225.225,0,0,0-.312-.312l-.432-.432a.25.25,0,1,0-.354.354l.411.411-1.037,1.037a.25.25,0,0,0,.354.354l.313-.313.451.451a.244.244,0,0,0,.172.071q-.347.75-.715,1.453a.248.248,0,0,0,0-.347l-.269-.27a.232.232,0,0,0-.044-.246.236.236,0,0,0-.266-.036.241.241,0,0,0-.306.02.235.235,0,0,0-.035.27l-.953.953a.238.238,0,0,0-.256.256l-.325.322a.25.25,0,0,0,.354.354l.274-.274.686.686a.244.244,0,0,0,.152.063c-.21.343-.417.69-.637,1.014a.24.24,0,0,0-.053-.128l-.191-.191a.223.223,0,0,0-.306-.306l-.356-.356a.25.25,0,1,0-.354.354l.332.333-.9.9-.137-.137a.25.25,0,1,0-.353.354l.137.137-.488.488-.117-.117a.25.25,0,0,0-.354.354l.117.117-.285.285a77.7,77.7,0,0,1-2.987-7.528.487.487,0,0,0,.1-.23,12.892,12.892,0,0,1,3.561-7.155,3.163,3.163,0,0,0,2.836-.008,8.657,8.657,0,0,1,2.823,6.717.483.483,0,0,0,.043.218c-.032.083-.064.175-.1.259Zm-2.112,4.264c-.01-.017-.007-.039-.022-.054l-.686-.686.88-.88.238.238a.249.249,0,0,0,.353,0c-.249.474-.5.939-.763,1.381Zm.118,3.9.17.17a12.953,12.953,0,0,0-1.16,1.226c-.441,0-.882,0-1.341-.017q1.161-.744,2.261-1.57a.251.251,0,0,0,.07.191Zm2.131-.743.889.889-.79.79a.242.242,0,0,0-.017.312l-.251.023c-.082-.1-.992-1.007-1.086-1.1L188.357,69a.247.247,0,0,0,.01.331Zm1.243,1.241.532.532c-.407.065-.817.127-1.238.175Zm-2.046.829q-.819.055-1.677.068l.873-.872Zm-4.1-1.532-.519-.519.489-.489.48.48q-.222.268-.45.528Zm-.325.382c-.2.216-.408.416-.614.622-.12-.25-.232-.5-.349-.755l.415-.415Zm1.1-1.292-.452-.451.9-.9.167.167a.215.215,0,0,0,.2.065c-.266.382-.532.763-.811,1.119ZM184,49.142a.228.228,0,0,0,.046.111l.44.44-.483.483a.248.248,0,0,0,0,.348.879.879,0,0,1-.171-.017.249.249,0,0,0,0-.349l-.422-.422Zm3.867-2.123c.005.006,0,.015.009.021l.461.461L187.1,48.729a.241.241,0,0,0-.019.308l-.621-.621Zm1.915-.255c.027.01.051.032.08.033-.217.3-.438.584-.666.855l-.151-.151Zm.308-.279a.163.163,0,0,0-.009-.021l.07-.07Zm-1.225,1.543a9.814,9.814,0,0,1-1.45,1.333l-.26-.26a.221.221,0,0,0,.308-.019l1.228-1.228Zm-1.875,1.615a5.968,5.968,0,0,1-1.246.6l-.551-.551.923-.923Zm-1.8.756a5.007,5.007,0,0,1-.815.108l.461-.461Zm-3.272,2.353A18.86,18.86,0,0,0,183.9,51.7c.736.392,1.495.736,2.262,1.059A2.386,2.386,0,0,1,181.916,52.753Zm1.482-2.314a2.967,2.967,0,0,1-.513-.187l.163-.163Zm-.748.8a18.106,18.106,0,0,1-6.1,2.067,75.656,75.656,0,0,1-1.411-9.8l4.583,5.308A8.4,8.4,0,0,0,182.65,51.243ZM181,53.133a3.368,3.368,0,0,0,.79,1.031,13.9,13.9,0,0,0-3.408,6.138c-.616-1.986-1.159-3.991-1.613-6.014A19.347,19.347,0,0,0,181,53.133Zm8.162,6.325a9.555,9.555,0,0,0-2.845-5.311,3.389,3.389,0,0,0,.774-1.012,27.115,27.115,0,0,0,3.6,1.084c-.281,1.185-.592,2.36-.954,3.521-.186.6-.382,1.157-.578,1.718Zm1.755-6.213a26.3,26.3,0,0,1-5.457-1.894c3.131-.738,5.394-3.893,6.9-6.615-.382,2.837-.823,5.7-1.444,8.509Zm1.6-10.993-.113-.113.332-.331q-.108.222-.219.444Zm-1.425,2.661-.134-.134.495-.495c-.119.211-.239.422-.361.629Zm.971-6.533-.094-.094.894-.894c-.169.223-.334.448-.515.666-.093.111-.191.215-.285.322Zm-1.424-.716.623.623-.8.8a.25.25,0,1,0,.354.354l.8-.8.115.115a14.872,14.872,0,0,1-1.535,1.42l-1.034-1.034Zm-.842,2.819a13.484,13.484,0,0,1-1.148.769l-.8-.8.958-.958Zm2.611-.991a14.944,14.944,0,0,0,.389,2.018c0,.011-.008.021-.011.032a.228.228,0,0,0-.04-.1.25.25,0,0,0-.354,0l-.342.342-.206-.206a.25.25,0,0,0-.354.354l.206.206-.334.334a.25.25,0,1,0,.354.354l.334-.335.23.23c-.034.067-.069.134-.1.2-.141.031-.355.281-.467.393l-.5-.5a.25.25,0,0,0-.354.354l.5.5-.753.753-.249-.249a.25.25,0,1,0-.354.354l.249.249-.376.377a.25.25,0,0,0,.354.354l.376-.376.22.22c-.055.089-.109.18-.165.268-.011-.021-.009-.046-.026-.063a.25.25,0,0,0-.354,0l-.527.527-.887-.888a.25.25,0,1,0-.354.354l.887.888-.711.711-.461-.461c-.006-.006-.015,0-.021-.009l.308-.308a.25.25,0,0,0-.354-.354l-2.047,2.046-.27-.27a.25.25,0,0,0-.353.354l.27.27-.923.923-.44-.44a.228.228,0,0,0-.111-.046l1.135-1.136a.25.25,0,1,0-.354-.354l-2.017,2.018-.568-.568a.25.25,0,0,0-.354.354l.568.568-.265.265a9.673,9.673,0,0,1-1.947-1.84l-5.035-5.83a4.124,4.124,0,0,0,.519-1.091c4,3.746,11.138,3.853,16.441-1.749Zm-18.242,4.317A78.648,78.648,0,0,0,181.2,70.464c-6.043-4.264-10.849-14.724-11.144-16.015a2.867,2.867,0,0,1,.887-3.03c1.441-1.536,1.3-2.708.663-3.339a.5.5,0,0,0-.715.015,4.344,4.344,0,0,1-1.215,1.022c-1.108.519-1.782-.418-1.265-1.393a4.379,4.379,0,0,1,1.368-1.326.491.491,0,0,0,.184-.282,15.818,15.818,0,0,0,4.2-2.307ZM164.132,63.26a11.811,11.811,0,0,1,3.286-15.742,1.911,1.911,0,0,0,2.689,2.5,3.777,3.777,0,0,0,.957-.673,2.5,2.5,0,0,1-.845,1.385,3.844,3.844,0,0,0-1.133,3.939c.3,1.29,5.027,11.94,11.45,16.532-6.41-.672-13.077-2.457-16.4-7.945ZM195.786,69.2l-.594-.594,1.48-1.481,1.2,1.2a18.516,18.516,0,0,1-2.026,1.085.231.231,0,0,0-.059-.209Zm5.243-4.856-1.059,1.059-.787-.787,1.059-1.06Zm-1.413,1.413-.84.839a.25.25,0,1,0,.353.354l.84-.84.37.37a16.841,16.841,0,0,1-2.028,1.578l-1.286-1.286,1.8-1.8Zm1.09.384-.384-.384,1.059-1.059.22.22a.234.234,0,0,0,.184.07,15.094,15.094,0,0,1-1.079,1.153Zm3.141-4.4a.236.236,0,0,0-.259.039l-.769.769-.787-.787,1.332-1.332.525.525c.1.1.167.073.258.04-.09.252-.191.5-.3.746Zm-.859,1.346s.008,0,.012-.005,0-.008.005-.012l.323-.323a13.628,13.628,0,0,1-1.308,1.968.248.248,0,0,0-.064-.155l-.22-.22Zm1.7-4.245a.233.233,0,0,0-.053-.127l-.645-.645.838-.837a11.885,11.885,0,0,1-.14,1.609Zm.109-2.742-.485-.484.385-.385C204.742,55.526,204.774,55.816,204.8,56.108Zm-.211-1.465-.638.638a.235.235,0,0,0-.33.33l-.232.232a.25.25,0,0,0,.354.354l.22-.22.712.712-1.035,1.034-.146-.146a.25.25,0,0,0-.353.354l.167.167a.238.238,0,0,0,.031.279.2.2,0,0,0,.279.031l.667.667a.25.25,0,0,0,.354,0c.018-.018.015-.043.026-.064a11.735,11.735,0,0,1-.4,1.638c-.009-.013-.006-.029-.017-.04l-.525-.525.495-.495a.25.25,0,1,0-.353-.354l-.495.495-.468-.468a.25.25,0,1,0-.354.354l.468.468-1.332,1.332-.071-.071a.25.25,0,1,0-.354.354l.071.071-.022.022a.25.25,0,1,0,.354.354l.022-.022.787.787-1.084,1.084-1.212-1.211a.25.25,0,0,0-.353.354l.071.071-1.059,1.06-.393-.393a.25.25,0,0,0-.354.353l.393.393-1.8,1.8-.666-.666a.25.25,0,1,0-.353.354l.666.666-1.48,1.481-1.212-1.211a.25.25,0,0,0-.354.354l1.212,1.211-1.162,1.162a.25.25,0,1,0,.354.354l1.162-1.162.594.594c.017.017.042.014.062.026a21.362,21.362,0,0,1-4.966,1.465.238.238,0,0,0-.027-.288l-.538-.538,1.382-1.382L192.7,70.2a.25.25,0,0,0,.354-.353L191.7,68.49l3.629-3.629a.25.25,0,0,0-.354-.354l-3.65,3.65a.224.224,0,0,0-.31.31l-1.4,1.4-.889-.889a.245.245,0,0,0-.332-.009l.976-.976a.25.25,0,1,0-.354-.354l-2.252,2.251-.17-.17a.237.237,0,0,0-.133-.055A38.2,38.2,0,0,0,198.5,54.062c.929-2.241-.042-3.307-1.781-3.156-.4.034-.863.09-.821-.309.09-.805,1.127-.71,1.924-.61a3.211,3.211,0,0,0,2.195-.289,1.631,1.631,0,0,0,.694-1.086,11.2,11.2,0,0,1,1.044.833,9.734,9.734,0,0,1,2.831,5.2Zm-5.156-6.878a.5.5,0,0,0,.225.341c.191.119.057.6-.181.75a2.4,2.4,0,0,1-1.529.137c-2.19-.27-2.933.5-3.042,1.493-.094.848.453,1.536,1.9,1.416,1.254-.109,1.282.548.772,1.776a37.2,37.2,0,0,1-12.393,15.7,35.84,35.84,0,0,0,5.506-11.337,87.474,87.474,0,0,0,2.883-14.859c1.438,2.187,3.853,3.365,5.858,4.584Zm-5.146-12.59a.233.233,0,0,0-.045-.107l-.5-.5.745-.745.015.015a.25.25,0,1,0,.354-.354l-.015-.015.5-.5a22.062,22.062,0,0,1-1.054,2.213ZM189.991,12.41c1.435.683,2.854.658,4.074,1.525,4.541,3.231,3.921,9.562,2.577,14.969-.545-2.28.216-8.877-6.446-13.68a.5.5,0,0,0-.75.2c-.807,1.84-3.283,2.09-5.012,2.231-4.994.406-8.316,2.854-10.142,6.318a6.361,6.361,0,0,1,1.045-3.431.5.5,0,0,0-.543-.761,5.689,5.689,0,0,0-3.317,3.164.234.234,0,0,0-.229.052l-1.477,1.478-.451-.451c-.037-.474-.057-.962-.054-1.468l.741.741a.25.25,0,0,0,.354-.354l-.913-.913.879-.879a.236.236,0,0,0,.235-.235l1.223-1.223a.25.25,0,0,0-.354-.354l-1.163,1.163-.741-.741a13.6,13.6,0,0,1,.5-1.857l.177.177a.242.242,0,0,0,.064.153.247.247,0,0,0,.153.064l.607.607a.25.25,0,1,0,.353-.354l-.539-.539,1.091-1.09.095.095a.25.25,0,1,0,.354-.354l-.1-.089,1-1a.2.2,0,0,0,.279-.031.238.238,0,0,0,.031-.279l.254-.254a.25.25,0,1,0-.354-.354l-.232.232-.391-.391.978-.978.613.613a.25.25,0,1,0,.353-.353l-.613-.613.71-.71a.25.25,0,0,0-.354-.354l-.71.71-.229-.228a12.832,12.832,0,0,1,1.492-1.14l1,1a.239.239,0,0,0,.064.2.212.212,0,0,0,.2.064.251.251,0,0,0,.369.015.242.242,0,0,0,.018-.311l.787-.787.252.252a.25.25,0,1,0,.354-.353l-.252-.252,1.137-1.137a.232.232,0,0,0,.039-.094l1,1a.235.235,0,0,0,.183.071.192.192,0,0,0,.241-.046L181.57,10l.989.989a.25.25,0,0,0,.354-.354l-.109-.109.878-.878.024.005.421.421,0,0a.25.25,0,0,0,.354.353l0,0,.327.328a.25.25,0,0,0,.354-.354l-.327-.327L185,9.916c1.934.515,3.174,1.635,4.995,2.495Zm.194,4.952-.522-.523a4.028,4.028,0,0,0,.4-.466c.208.163.4.342.6.516Zm-5.668,1.293c.325-.026.657-.057.988-.093l.094.094-.541.54Zm-1.04.1-.512.511L182.6,18.9a3.694,3.694,0,0,1,.879-.144Zm-3.44,1.065.7.7a.247.247,0,0,0-.184.071l-1.025,1.024-.976-.976a10.854,10.854,0,0,1,1.458-.879c.011.019.008.042.024.057Zm-2.01,2.362.533-.533a.236.236,0,0,0,.041-.256l.577.577-.681.681Zm-1.882,2.869-.826-.825c.167-.3.334-.6.53-.88l.188.188a.237.237,0,0,0,.048.237.191.191,0,0,0,.237.048l.528.528Zm-1.087-.379.733.732-.87.87-.366-.366a10.086,10.086,0,0,1,.5-1.236Zm1.1-1.723a10.9,10.9,0,0,1,.9-1.032l.265.265-.964.964Zm1.253-1.381c.237-.22.483-.426.739-.624l.311.311a.234.234,0,0,0-.256.041l-.533.533Zm-4.078,3.213-.2-.2.187-.187C173.327,24.525,173.321,24.653,173.333,24.783Zm-2.6,5.345c-.072-.2-.15-.386-.218-.584q.174-.324.308-.642l.854.855-.657.657Zm-1.3-9.744.48.48-.6.6c.026-.358.068-.717.121-1.081Zm-.044,4.424.027.027-.02.021C169.395,24.838,169.392,24.823,169.39,24.807Zm.381.38.007.007a.25.25,0,1,0,.354-.354l-.007-.007,1.015-1.015c-.485,1.517-.608,2.935-1.081,4.3,0-.015-.01-.03-.014-.044a20.686,20.686,0,0,1-.562-2.6Zm1.769,1.188.607.607L171.131,28c.16-.541.3-1.084.409-1.623Zm1.854-3.415-.487-.487a5.453,5.453,0,0,1,.839-.976A7.441,7.441,0,0,0,173.394,22.961Zm-1.33,1.259.364.364-.634.634c.078-.339.168-.671.27-1Zm.184-.523a5.989,5.989,0,0,1,.385-.79l.685.684c0,.045-.014.09-.016.135-.008.006-.019,0-.027.011l-.493.493Zm-.269-9.387.227.227a.234.234,0,0,0,.051.231.192.192,0,0,0,.231.051l.427.427-.978.978-.758-.758a12.167,12.167,0,0,1,.8-1.156Zm4.592-3.665.63.63-.775.775-.86-.86C175.895,11,176.225,10.808,176.57,10.645Zm6.481-1.07-.6.6-.526-.526.143-.143c.324.01.68.035.985.068Zm-1.97-.058.134.134-.91.91-.855-.856a9.8,9.8,0,0,1,1.631-.188Zm-4.008.924a12.02,12.02,0,0,1,1.467-.5l-.986.986Zm-3.817,2.486.244.244-.978.978-.217-.217a12.584,12.584,0,0,1,.951-1Zm-2.34,2.983.666.666-1.091,1.091-.274-.274a7.43,7.43,0,0,1,.7-1.483ZM171.058,31a.244.244,0,0,0,.137-.057l.869-.868a.191.191,0,0,0,.236-.049.235.235,0,0,0,.049-.236l.735-.735a.25.25,0,0,0-.353-.353l-.7.7-.8-.8,1.269-1.269.2.2a.25.25,0,1,0,.354-.354l-.2-.2.014-.014a.25.25,0,1,0-.354-.354l-.014.014-.833-.833c.006-.029.013-.057.019-.086a.234.234,0,0,0,.332-.009l.764-.764.25.25a.25.25,0,0,0,.354,0c.005-.005,0-.013.007-.018a7.161,7.161,0,0,0,.159.835.5.5,0,0,0,.471.367.484.484,0,0,0,.238-.05l.308.308-.082.082a.25.25,0,1,0,.354.354l.082-.082.133.133a.25.25,0,1,0,.354-.354l-.133-.133.9-.9c.084.026.142.058.245-.045a.235.235,0,0,0,.045-.245l.736-.736.317.317a.25.25,0,1,0,.354-.354l-.468-.468c-.008-.011-.005-.026-.015-.036s-.025-.007-.036-.015l-.644-.645.964-.964.839.839a.25.25,0,1,0,.354-.354L178.852,23l.681-.681.318.318a.25.25,0,0,0,.354-.354l-.318-.318,1.025-1.025a.248.248,0,0,0,.071-.183l.719.719a.25.25,0,1,0,.354-.354l-1.572-1.572a10.361,10.361,0,0,1,1.588-.534,3.9,3.9,0,0,0,.543.6l-.5.5a.25.25,0,1,0,.354.354l.5-.5.741.742a.25.25,0,0,0,.354-.354l-.741-.741.647-.646a.233.233,0,0,0,.048-.116l.706.706a.24.24,0,0,0,.021.3.218.218,0,0,0,.3.021l.45.45a.25.25,0,1,0,.354-.353l-.435-.435.54-.541.789.79a.25.25,0,1,0,.354-.354l-.789-.79.239-.239c.005-.005,0-.013.008-.019a5.609,5.609,0,0,0,1.338-.368l.249.249-.482.482a.25.25,0,0,0,.354.354l.482-.482.435.435a.25.25,0,1,0,.354-.353l-.435-.435.412-.412a.25.25,0,1,0-.354-.354l-.412.412-.132-.132a4.975,4.975,0,0,0,.94-.611l.566.566a.235.235,0,0,0,.049.237.25.25,0,0,0,.354,0l.754-.754c.006-.006,0-.015.009-.021,5.491,5.186,3.562,10.257,5.161,13.339-.095.316-.2.62-.3.924l-.418-.418.283-.283a.25.25,0,1,0-.354-.354l-.283.283-.342-.341a.25.25,0,1,0-.354.354l.342.342-.464.464a.25.25,0,1,0,.354.354l.464-.464.594.594c-.076.21-.161.408-.241.613a.228.228,0,0,0-.042-.1.25.25,0,0,0-.354,0l-.6.6-.434-.434a.25.25,0,0,0-.353.354l.434.434-.768.768a.237.237,0,0,0-.277.032.248.248,0,0,0-.005.342.241.241,0,0,0,.066.2.222.222,0,0,0,.19.068l.551.552a.191.191,0,0,0,.231.051l-.017.03a11.172,11.172,0,0,0-1.054,1l-.668-.668a.242.242,0,0,0-.065-.2.25.25,0,0,0-.354,0l-3.155,3.155-.373-.373a.25.25,0,0,0-.354.353l.373.373-.959.958-.623-.623,1.076-1.076a.25.25,0,0,0-.354-.354l-2.114,2.114-.647-.647a.25.25,0,0,0-.354.354l.647.647-1.172,1.172-.9-.9.656-.656a.25.25,0,0,0-.354-.354L181.541,41.6l-.861-.86a.239.239,0,0,0-.293-.025l.6-.6a.25.25,0,1,0-.354-.354l-1.658,1.658-.556-.556a.25.25,0,0,0-.354.354l.556.556-.083.083c-2.422-1.258-3.78-3.457-5.106-5.891A50.314,50.314,0,0,1,171.058,31Z" transform="translate(-5400.813 8183.535)" fill="#000c1e"/>
  </g>
</svg>
