<svg xmlns="http://www.w3.org/2000/svg" width="55.845" height="66.227" viewBox="0 0 55.845 66.227">
  <g id="real-estate-aggregators" transform="translate(-5.076 0.114)">
    <path id="Path_4849" data-name="Path 4849" d="M42.49,9.088,35.408,1.736c-2.11-2.171-3.928-2.8-7.08.153a69.674,69.674,0,0,0-6.912,7.5c-1.6,2.049-.719,3.508,1.329,3.6,0,2.877-.351,5.75-.525,8.482-.14,2.687.558,4.356,4.919,4.576,11.8.595,12.747.849,14.006-.439.986-1,.952-2.472.842-3.77-.639-8.025-.629-8.028-.713-8.73C43.653,13.01,44.575,11.238,42.49,9.088Zm-2.552,4.02L38.686,14.36,37.5,13.177a.241.241,0,0,0-.154-.064l.026-.026S37.347,13.085,39.938,13.108Zm-5.335.1.141-.141c.642.005,1.286.007,1.928.012l-1.1,1.1Zm-9.731.358.4-.4a.246.246,0,0,0,.068-.164c.343,0,.685.005,1.028.007l-1.022,1.023Zm-.143-.564-.21.211L24.306,13C24.446,13,24.587,13,24.729,13.005Zm3.981.025-.65.65-.658-.658Zm2.772.018-.309.31-.314-.314Zm-1.6,12.129c.051-1.22.21-2.5.246-3.649a6.028,6.028,0,0,1,.115-1.163l1.274,1.273a.25.25,0,0,0,.353-.354l-1.433-1.432a1.339,1.339,0,0,1,.878-.7l1.431,1.431a.25.25,0,0,0,.354-.354l-1.233-1.234c.284-.056.578-.1.875-.129.328-.029.653-.046.964-.043l1.4,1.405a.25.25,0,1,0,.354-.354l-.976-.976a1.646,1.646,0,0,1,.99.533,3.062,3.062,0,0,1,.389,1.959c-.027,1.358-.053,2.708-.073,4.064C33.223,25.338,31.932,25.268,29.884,25.177Zm10.55-.274a0,0,0,0,1,0,0c-.814.836-2.443.655-3.634.594.02-1.367.045-2.727.072-4.095v0c.032-2.64-.884-3.831-4.22-3.533-2.724.27-3.456,1.193-3.521,3.632-.026.845-.185,2.387-.237,3.631-.57-.031-1.139-.062-1.707-.084-4-.2-4.066-1.6-3.966-3.518.175-2.736.513-5.555.53-8.374l.415.415-.181.181a.25.25,0,0,0,.354.354l.181-.181.6.6c.012.022.009.049.028.067s.045.016.067.028l.5.5a.25.25,0,0,0,.354-.354l-.371-.371,1.184-1.185.827.827-.018.018a.25.25,0,0,0,.354.354l.018-.018.114.114a.25.25,0,1,0,.354-.354l-.114-.114,1-1,.878.006a.239.239,0,0,0,.062.2l.467.468-.271.271a.25.25,0,0,0,.354.354l.271-.271.906.906a.25.25,0,0,0,.354-.353l-.906-.906.659-.659,1.563.01.148.148-1.117,1.117a.25.25,0,0,0,.354.354l1.118-1.117,1.389,1.389a.25.25,0,1,0,.353-.354l-.065-.065,1.159-1.159a.237.237,0,0,0,.064.154l1.183,1.183-.2.2a.25.25,0,0,0,.353.354l.2-.2.182.182a.25.25,0,1,0,.354-.354l-.182-.182,1.267-1.267c.081.77-.022-.433.686,8.47C41.083,23,41.123,24.206,40.434,24.9Zm.436-12.789c-17.328-.141-17.62-.119-17.62-.119-1.711,0-2.2-.52-1.049-1.989a68.8,68.8,0,0,1,6.81-7.386c2.9-2.72,4.113-1.8,5.678-.188L41.77,9.783C43.159,11.217,42.935,12.114,40.87,12.114Z" fill="#000c1e"/>
    <path id="Path_4850" data-name="Path 4850" d="M44.771,59.055l7.829.31c.224.009.451.015.679.015,1.5,0,3.019-.25,3.88-1.467a4.937,4.937,0,0,0,.67-2.758l.408-10.644a2.853,2.853,0,0,0,2.369-1.04l0,0a2.383,2.383,0,0,0-.058-2.455,6.1,6.1,0,0,0-1.518-1.577l-7.7-6.188a6.244,6.244,0,0,0-3.874-1.781c-1.54.064-2.9,1.126-4.12,3.188-.948,1.187-5.271,5.835-6.523,7.078a1.982,1.982,0,0,0-.686,1.218,1.5,1.5,0,0,0,.961,1.4,3.092,3.092,0,0,0,1.233.2c-.235,1.472-.373,2.986-.5,4.456-.063.745-.126,1.488-.2,2.223-.208,1.952-.316,3.988.825,5.551,1.364,1.841,3.876,2.177,6.092,2.256A1.3,1.3,0,0,0,44.771,59.055Zm6.3-5.356v0l-.387,4.584-3.024-.119-2.5-.1c.037-.6.063-1.2.083-1.8.005,0,.011,0,.016-.007l.576-.576c.014-.009.033-.006.045-.019s.009-.031.019-.045l.138-.138a.25.25,0,0,0,0-.354.247.247,0,0,0-.343,0l-.406-.406c0-.058,0-.118.005-.177.005-.211.012-.423.018-.634l.612.613a.25.25,0,1,0,.354-.354l-.7-.705.579-.579a.249.249,0,0,0,.352,0l.183-.183.133.133a.25.25,0,1,0,.354-.354l-.136-.13.625-.625a.25.25,0,0,0,.175.073.253.253,0,0,0,.177-.073l.331-.33.124.123a.25.25,0,1,0,.354-.354l-.123-.123.457-.457a2.177,2.177,0,0,1,1.546.679A3.392,3.392,0,0,1,51.072,53.7Zm-5.538-2.147.623.623-.821.82,0-.117A3.926,3.926,0,0,1,45.534,51.552ZM45.27,55.41l.069.069-.073.073C45.267,55.505,45.268,55.457,45.27,55.41Zm3.078-4.723-.131-.131c.089,0,.177,0,.265,0Zm-.8-.093.447.447-.168.168a.248.248,0,0,0-.352,0l-.631.631a.244.244,0,0,0-.324-.011l-.689-.689A2.762,2.762,0,0,1,47.547,50.594ZM37.128,43.018a1.192,1.192,0,0,1,.394-.578c1.3-1.287,5.612-5.926,6.638-7.219,1.073-1.806,2.166-2.707,3.339-2.756.03,0,.061,0,.09,0a5.391,5.391,0,0,1,3.118,1.562l7.7,6.188a5.268,5.268,0,0,1,1.281,1.3,1.41,1.41,0,0,1,.085,1.4c-.353.532-1.221.6-2.053.6l-19.239.03a2.585,2.585,0,0,1-.991-.119C37.279,43.345,37.122,43.153,37.128,43.018Zm1.694,6.076c.013-.153.029-.308.042-.462l.347.347-.417.417C38.8,49.294,38.814,49.195,38.822,49.094Zm.1-1.11c.038-.424.075-.845.119-1.268l1.152,1.152c.025.025.059.025.09.037l-.72.72Zm.293-1.8-.092-.092c.054-.456.107-.912.177-1.356l.664.664-.724.724C39.225,46.14,39.228,46.164,39.217,46.183Zm.611-1.63.986,0-.494.494Zm3.425-.005-.23.23-.229-.229Zm2.2,0-.307.307-.306-.306Zm2.244,0-.092.091-.091-.091Zm2.39,0-.144.144-.143-.143ZM39.254,56.189c-.93-1.272-.832-3.021-.636-4.854.04-.385.071-.775.106-1.163l.841-.841.187.186a.25.25,0,0,0,.354-.354l-.186-.186.838-.838a.249.249,0,0,0,0-.353.245.245,0,0,0-.149-.062.238.238,0,0,0-.059-.211L39.537,46.5c.02-.011.044-.008.06-.025l.724-.724.555.555a.25.25,0,0,0,.354-.354l-.555-.555.589-.589a.235.235,0,0,0,.039-.259h.785l.582.582-.992.992a.25.25,0,0,0,.354.354l.992-.992.264.264a.25.25,0,0,0,.354-.354l-.264-.264.585-.585h.168l.658.658-.334.335a.25.25,0,0,0,.354.354l.334-.334.555.555a.25.25,0,0,0,.354-.354L45.5,45.2l.661-.661h.648l.443.443-.262.262a.25.25,0,0,0,.354.354l.262-.262.54.54a.249.249,0,0,0,.177.073.253.253,0,0,0,.177-.073.25.25,0,0,0,0-.354l-.54-.54.4-.4c.013-.013.01-.033.02-.048h.717l.5.5-.31.31a.25.25,0,0,0,.354.354l.31-.31.575.575a.25.25,0,1,0,.354-.353l-.575-.575.312-.311a.242.242,0,0,0,.069-.187h.89l5.674-.009-.406,10.592a4.151,4.151,0,0,1-.489,2.219c-.714,1.01-2.27,1.089-3.7,1.028l-.958-.038.385-4.537a4.207,4.207,0,0,0-.589-3.158c-.862-1.068-2.306-1.142-3.738-1.056a3.744,3.744,0,0,0-2.8,1.028,3.642,3.642,0,0,0-.6,2.244c-.019.557-.033,1.115-.046,1.674-.028,1.155-.061,2.345-.133,3.5C42.185,57.913,40.279,57.572,39.254,56.189Z" fill="#000c1e"/>
    <path id="Path_4851" data-name="Path 4851" d="M6.568,51.231c-.209,1.952-.316,3.988.825,5.551,1.327,1.789,4.177,2.331,6.323,2.272l7.829.31c3.959.155,5.125-1.153,5.229-4.21l.408-10.641a2.9,2.9,0,0,0,2.37-1.043.005.005,0,0,1,0,0,2.383,2.383,0,0,0-.058-2.455c-.586-1-1.2-1.326-9.218-7.766-2.951-2.385-5.527-2.766-7.995,1.407-.948,1.188-5.271,5.836-6.523,7.078-1.416,1.417-.495,2.809,1.507,2.822C6.9,46.87,6.782,49.174,6.568,51.231ZM12.042,45.4l-.6-.6.248-.249,1.145,0-.745.745A.248.248,0,0,0,12.042,45.4ZM8.014,46.521l.065.065-.085.084C8,46.62,8.008,46.571,8.014,46.521Zm.194-.513a.241.241,0,0,0-.121-.05c.046-.374.089-.75.146-1.116l.794.794-.6.6Zm.879-1.02-.435-.435h.871Zm5.8-.445-.412.412-.411-.411Zm2.184,0-.151.151-.151-.151Zm1.985,0-.155.155-.154-.154Zm6.518-.011-.743.743-.741-.741ZM7.792,48.821,7.973,49l-.218.217.012-.132C7.775,49,7.784,48.909,7.792,48.821ZM20.017,53.7v0l-.387,4.584-5.523-.217c.109-1.736.12-3.491.178-5.19.048-1.658.326-2.181,2.459-2.306,1.168-.065,2.324-.031,2.906.689A3.39,3.39,0,0,1,20.017,53.7Zm1.568,4.665-.958-.038.386-4.536c.281-3.041-.748-4.427-4.327-4.215-2.641.15-3.336,1.072-3.4,3.272-.055,1.616-.069,3.415-.18,5.173-5.225-.283-6.007-2.344-5.544-6.684.046-.443.083-.891.122-1.338l.643-.643.16.16a.25.25,0,0,0,.353-.353L8.68,49l1.256-1.256a.25.25,0,0,0-.354-.354L8.326,48.648l-.476-.476c.024-.276.049-.55.076-.826a.247.247,0,0,0,.166-.069l.339-.339.6.6a.25.25,0,1,0,.354-.353l-.6-.6.6-.6.491.491a.25.25,0,0,0,.354-.354l-.516-.516a.235.235,0,0,0-.037-.264.247.247,0,0,0-.166-.069l.726-.726h.254l.247.247-.272.272a.25.25,0,0,0,.354.354l.272-.272.9.9a.25.25,0,0,0,.353-.354l-.006-.006a.235.235,0,0,0,.108-.045l1.007-1.007.67.67-.094.1a.25.25,0,0,0,.353.354l.094-.094.7.7a.25.25,0,0,0,.354-.354l-.7-.7.767-.766h.468l.5.5-.414.414a.25.25,0,0,0,.353.354l.415-.414.728.728A.25.25,0,0,0,18,45.774l-.728-.728.506-.506h.262l.507.507-.167.167a.25.25,0,0,0,.353.354L18.9,45.4l.965.965a.25.25,0,1,0,.354-.354l-.965-.965.509-.509h.817l.345.345-.547.547a.25.25,0,0,0,.354.354l.547-.547,1.144,1.144a.25.25,0,1,0,.354-.354l-1.144-1.144.347-.347,1.343,0-.425.425a.25.25,0,0,0,.354.354l.456-.456.77.77-.312.312a.25.25,0,1,0,.354.354l.312-.312.506.506a.25.25,0,0,0,.354-.354l-.506-.506,1-1-.065,1.7-1.609,1.609a.25.25,0,0,0,.354.354l1.228-1.227-.309,8.052C25.7,57.193,25.411,58.521,21.585,58.364ZM6.467,42.439c1.3-1.286,5.61-5.925,6.637-7.219,2.026-3.408,3.725-3.476,6.547-1.2,7.529,6.052,8.487,6.649,8.98,7.49a1.412,1.412,0,0,1,.086,1.4c-.656.984-2.232.6-21.292.635C6.249,43.555,5.64,43.269,6.467,42.439Z" fill="#000c1e"/>
    <path id="Path_4852" data-name="Path 4852" d="M50.339,25.215a.5.5,0,0,0,.045.7l2.053,1.807a.5.5,0,0,0,.711-.05c.617-.721,1.275-1.34,1.911-2.082a.5.5,0,0,0-.76-.65c-.292.341-.582.647-.872.952a14.733,14.733,0,0,0-6.967-10.81.5.5,0,1,0-.512.86A13.719,13.719,0,0,1,52.476,26.28a.488.488,0,0,0,.09.23l-1.521-1.338A.5.5,0,0,0,50.339,25.215Z" fill="#000c1e"/>
    <path id="Path_4853" data-name="Path 4853" d="M41.265,62.482a.5.5,0,1,0-.541-.841,18.931,18.931,0,0,1-16.358,1.873c.236-.041.468-.085.716-.119a.5.5,0,0,0,.429-.563.491.491,0,0,0-.562-.428c-.441.06-.855.135-1.27.21-.4.072-.8.146-1.225.2a.5.5,0,0,0-.382.716l1.135,2.3a.5.5,0,0,0,.9-.444l-.555-1.125A19.86,19.86,0,0,0,41.265,62.482Z" fill="#000c1e"/>
    <path id="Path_4854" data-name="Path 4854" d="M8.55,29.591a.5.5,0,1,0,.952-.305,13.59,13.59,0,0,1,3.813-13.95c-.018.272-.034.545-.065.816a.5.5,0,0,0,.439.555l.058,0a.5.5,0,0,0,.5-.442c.085-.737.1-1.52.177-2.214.04-.347-.208-.489-.522-.558l-2.188.034a.5.5,0,0,0,.007,1h.007l1.01-.016A14.609,14.609,0,0,0,8.55,29.591Z" fill="#000c1e"/>
    <path id="Path_4855" data-name="Path 4855" d="M42.16,41.616a.249.249,0,0,0,.177-.073l1.8-1.8.966.966a.25.25,0,0,0,.354-.354l-.966-.966,1.145-1.146.375.375a.25.25,0,1,0,.354-.354l-.375-.375L47.2,36.682l.484.485a.25.25,0,0,0,.354-.354l-.484-.484L48.583,35.3a.25.25,0,1,0-.354-.354L47.2,35.975l-.542-.543a.25.25,0,0,0-.354.354l.542.543-1.205,1.206-.663-.662a.25.25,0,0,0-.354.354l.663.662-1.145,1.146-.962-.962a.25.25,0,0,0-.354.354l.962.962-1.8,1.8a.25.25,0,0,0,0,.354A.256.256,0,0,0,42.16,41.616Z" fill="#000c1e"/>
    <path id="Path_4856" data-name="Path 4856" d="M9.779,42.119l1.848-1.848.674.674a.25.25,0,1,0,.354-.354l-.674-.674.951-.951.378.378a.25.25,0,0,0,.354-.354l-.378-.378.847-.848.121.121c-.006.363.475.438.537.117a.261.261,0,0,0,0-.108.249.249,0,0,0-.063-.245l-.238-.238.855-.855a.25.25,0,1,0-.354-.354l-.854.855-.3-.3a.25.25,0,1,0-.353.353l.3.3-.847.847-.269-.27a.25.25,0,0,0-.353.354l.269.269-.951.951-.75-.75a.25.25,0,0,0-.354.354l.75.75L9.428,41.763a.25.25,0,0,0,0,.354A.245.245,0,0,0,9.779,42.119Z" fill="#000c1e"/>
    <path id="Path_4857" data-name="Path 4857" d="M30.185,4.511,29.026,5.67l-.545-.545a.25.25,0,0,0-.353.353l.545.545-1,1L27.1,6.453a.25.25,0,1,0-.353.354l.573.573L26.026,8.671l-.718-.718a.25.25,0,0,0-.354.354l.718.718-1.3,1.3a.25.25,0,1,0,.353.354l1.3-1.3.373.373a.25.25,0,0,0,.353-.354l-.373-.373,1.291-1.291.171.171a.25.25,0,1,0,.354-.353l-.17-.172,1-1,.155.155a.25.25,0,0,0,.354-.354l-.156-.155,1.159-1.159a.25.25,0,1,0-.354-.353Z" fill="#000c1e"/>
  </g>
</svg>
