<svg width="24" height="24" viewBox="0 0 24 24" fill="none" xmlns="http://www.w3.org/2000/svg">
<path d="M21.7373 14.0762C21.8789 13.3926 21.9668 12.665 21.9668 11.9375C21.9668 6.39551 17.4795 1.91309 11.9424 1.91309C11.2148 1.91309 10.4922 1.99609 9.80371 2.14258C8.87598 1.4248 7.72363 1 6.46875 1C3.45117 1 1 3.45117 1 6.46875C1 7.72363 1.4248 8.87598 2.1377 9.79883C1.99609 10.4824 1.9082 11.21 1.9082 11.9375C1.9082 17.4795 6.39551 21.9619 11.9326 21.9619C12.6602 21.9619 13.3828 21.8789 14.0713 21.7324C14.999 22.4453 16.1514 22.8701 17.4014 22.8701C20.4189 22.8701 22.8701 20.4189 22.8701 17.4014C22.875 16.1514 22.4502 14.999 21.7373 14.0762ZM12.2354 18.5439C9.03223 18.5439 6.35156 17.1182 6.35156 15.3701C6.35156 14.5889 6.79102 13.876 7.79199 13.876C9.31543 13.876 9.45703 16.0684 12.0937 16.0684C13.3486 16.0684 14.1592 15.5117 14.1592 14.7842C14.1592 13.8711 13.3779 13.7295 12.1084 13.417C9.05664 12.665 6.35645 12.3428 6.35645 9.15918C6.35645 6.26855 9.21777 5.19922 11.6836 5.19922C14.374 5.19922 17.0938 6.26855 17.0938 7.9043C17.0938 8.72949 16.5371 9.45703 15.6143 9.45703C14.2324 9.45703 14.1885 7.82129 11.9521 7.82129C10.6973 7.82129 9.90137 8.16309 9.90137 8.91992C9.90137 9.88672 10.917 9.98437 13.2754 10.5312C15.2969 10.9854 17.7041 11.8398 17.7041 14.3203C17.7041 17.2061 14.916 18.5439 12.2354 18.5439Z" fill="#049E9D"/>
</svg>
