<svg xmlns="http://www.w3.org/2000/svg" width="76.209" height="72.234" viewBox="0 0 76.209 72.234">
  <g id="sports" transform="translate(-178.773 -189.053)">
    <path id="Path_2203" data-name="Path 2203" d="M235.32,225.271a17.87,17.87,0,0,0-6.4,4.514c.076-7.089.248-31.35-.946-34a5.637,5.637,0,0,0-3.643-2.8.684.684,0,0,0-.394-1.247h-4.7c-.417-2.283-1.324-2.877-6.846-2.619-1.912.085-3.581.721-3.629,2.619-.341,0-4.423-.055-4.693.1-.27-.154-4.7-.1-5.045-.1-.409-2.541-1.857-2.852-6.84-2.619a4.268,4.268,0,0,0-3.072,1.1,2.276,2.276,0,0,0-.57,1.519h-4.343a.693.693,0,0,0-.693.693.67.67,0,0,0,.1.337,4.41,4.41,0,0,0-4.3,1.714c-1.842,2.69,1.734,55.34,2.343,62.788.439,5.476,4.527,4.408,5.844,2.351,2.523-3.934,1.743-52.378,1.5-60-.089-2.728-.336-5.243-3.835-6.5h3.143c-1.237,4.507,3.638,3.954,6.616,3.946,2.66-.018,4.263-1.015,4.242-3.946h2.232c-2.564,1.127-2.443,3.51-2.186,6.292,0,0,.416,27.855,2.862,57.853.429,5.342,4.472,4.494,5.846,2.35,1.974-3.078,2.584-60.214.8-63.91,1.005,1.7,3.617,1.395,6.407,1.358a4.315,4.315,0,0,0,3.28-1.052c-.227,1.386.814,35.933,2.9,61.25.081.98.232,2.8,1.625,3.659a3.288,3.288,0,0,0,4.225-1.3c.968-1.522.922-2.835,1.254-11.049a15.818,15.818,0,0,0,24.322-2.881h0c8.7-13.581-9.891-23.362-17.392-20.411Zm-51.866,33.818a6.831,6.831,0,0,0,1.077-.984l1.3,1.3c-.832.672-1.841.746-2.377-.316Zm3.4-8.775a.292.292,0,0,0,.412,0c-.051,1.166-.088,2.336-.144,3.5a24.85,24.85,0,0,0-1.842-1.93Zm1.041-22.137-.787-.789.8-.8c0,.531-.006,1.06-.011,1.589Zm-.047,2.352a7.127,7.127,0,0,0-.53-.506l.55-.55c0,.353-.015.7-.02,1.056Zm-.074,3.686q-.019.971-.038,1.943l-1.109-1.109.991-.991Zm-.106,5.257-.57-.568.593-.593C187.679,238.7,187.676,239.085,187.666,239.473Zm-.134,4.351c-.028.829-.071,1.654-.1,2.481a11.213,11.213,0,0,0-1.227-1.152Zm-.576,12.884-.514-.514.6-.6c-.023.4-.053.765-.091,1.118Zm-.1.721a3.977,3.977,0,0,1-.555,1.463l-1.278-1.278.929-.929c.18.177.675.749.9.745Zm.74-57.766c.273,8.486.363,17.025.31,25.564l-1.328-1.328a.347.347,0,0,0-.491.491l1.521,1.521-.991.991-.268-.268a.347.347,0,0,0-.491.491l.268.268c-.3.3-.681.574-.381.872s.574-.085.872-.383l.933.933L185.4,230.96a.347.347,0,0,0,.491.491l.959-.959c.114.149.844.868.976,1-.007.467-.02.934-.028,1.4l-.184.184-.922-.922a.347.347,0,0,0-.491.491l.922.922-1.837,1.837a.347.347,0,0,0,.245.592c.205,0,.441-.3.6-.457l1.58,1.579c0,.065,0,.129,0,.194l-1.1,1.1-.517-.517a.347.347,0,0,0-.491.491l.517.517-1.512,1.512a.347.347,0,0,0,.491.491l1.512-1.512a10.265,10.265,0,0,0,1.041.979q-.037,1.275-.079,2.548a.286.286,0,0,0-.057.023l-1.543-1.543a.347.347,0,0,0-.491.491l1.5,1.5L184.374,246a.347.347,0,0,0,.245.592c.223,0,.994-.85,1.166-1.023.068.18,1.347,1.537,1.608,1.537-.022.585-.048,1.17-.072,1.755l-.482.482-1.176-1.176a.347.347,0,0,0-.491.491l1.176,1.176-3,3a.347.347,0,0,0,.491.491l.947-.947a15.577,15.577,0,0,0,2.025,1.884c.2,0,.247-.1.3-.227-.01.183-.014.368-.022.55-.146.118-1,.986-1.137,1.118l-.89-.89a.347.347,0,0,0-.491.491l.89.89-.929.929a.347.347,0,1,0-.491.491l-.825.825a10.331,10.331,0,0,1-.2-1.285c-1.716-21.155-3.516-60.514-2.571-61.9a3.041,3.041,0,0,1,2.907-1.127c4.145.368,4.179,3.539,4.242,5.536Zm63.414,32.481a19.8,19.8,0,0,1-16.985,18.426,14.544,14.544,0,0,1-3.167-1.738,20.157,20.157,0,0,0,18.451-18.353,14.5,14.5,0,0,1,1.7,1.666Zm-12.666-5.99a18.293,18.293,0,0,1,9.675,3.328.609.609,0,0,0-.018.071,18.79,18.79,0,0,1-18.292,17.972.691.691,0,0,0-.3.083c-9.169-8.837,1.91-21.455,8.935-21.455ZM220.617,193.12a3.874,3.874,0,0,0-1.35,1.011,6.139,6.139,0,0,0,.085-1.011Zm-2.9,1.417-.306-.306c.132-.132.408-.4.52-.532A3.04,3.04,0,0,1,217.718,194.536Zm.2-2.243c-.029.143-.048.1.01.312l-.406-.406.328-.328c.028.136.05.275.068.423Zm-5.471-1.8c.994-.045,4.756-.237,5.182.663a4.238,4.238,0,0,0-.6.549l-.568-.567a.347.347,0,0,0-.491.491l.567.567c-.389.389.088.893.491.489l.5.5a3.763,3.763,0,0,0-.61.553l-.987-.987c.189-.189.328-.387.112-.6-.273-.273-.492,0-.757.266-.168.065-.114.011-.18.18l-.974.977c-.472-.472-.962.018-.491.491l-.858.858-.767-.767,1.256-1.256a.347.347,0,0,0-.491-.491l-1.254,1.254c-.211-.211-.408-.4-.651-.161s-.05.439.161.651l-1.015,1.015c-.459-.459-.309-1.32-.123-1.943.5-1.7-.326-2.6,2.548-2.73Zm2.174,3.567.822-.822.987.987-.82.822ZM212.1,195.7a5.985,5.985,0,0,1-1.441-.189l.866-.866.767.767c-.184.183-.161.165-.192.288Zm-14.522-1.38-.093-.093.177-.177c-.024.094-.054.183-.085.27Zm.1-2.2c.008.06.017.122.023.184l-.1-.1Zm-7.76-.259c-.063-1.073,1.247-1.312,2.326-1.36,4.083-.183,4.973.057,5.264.81l-.4.4c-.345-.345-.729-.9-1.058-.567s.222.711.567,1.058c-.389.389.089.891.491.491l.5.5a3.763,3.763,0,0,0-.61.553l-.987-.987c.514-.514-.071-.909-.378-.6l-.266.266c-.168.065-.114.011-.18.18l-.976.976c-.472-.472-.961.02-.491.491l-.858.858-.767-.767,1.254-1.254a.347.347,0,0,0-.491-.491l-1.254,1.254-.161-.161a.347.347,0,0,0-.491.491l.161.161-1.137,1.137c-1.07-.752.021-2.183-.055-3.435Zm4.781,2.205.82-.82.987.987-.82.82Zm-2.528,1.654a7.4,7.4,0,0,1-1.5-.141l.931-.931.767.767C192.227,195.555,192.2,195.56,192.17,195.719Zm1.414-.018a.839.839,0,0,0-.235-.288l.858-.858.99.99a.319.319,0,0,0-.054.131C193.757,195.693,195.335,195.647,193.584,195.7Zm2.628-.122-.036-.036.82-.82.237.237A1.516,1.516,0,0,1,196.212,195.579Zm4.359,3.706c-.217-2.326-.558-5.176,2.781-5.176a4.721,4.721,0,0,1,4.128,2.246c.721,1.6,1.007,14.192.858,29.049l-1.507-1.507a.347.347,0,0,0-.491.491l1.521,1.521-.991.991-.268-.268a.347.347,0,0,0-.491.491l.268.268c-.3.3-.681.574-.381.872s.574-.085.872-.383l.933.933-2.147,2.147a.347.347,0,0,0,.491.491l.959-.959c.114.149,1.014,1.037,1.145,1.169-.005.351-.013.7-.02,1.055l-.361.361-.922-.922a.347.347,0,0,0-.491.491l.922.922-1.837,1.837a.347.347,0,0,0,.245.592c.205,0,.441-.3.6-.457a21.954,21.954,0,0,0,1.713,1.636l-1.241,1.241-.517-.517a.347.347,0,0,0-.491.491l.517.517-1.512,1.512a.347.347,0,0,0,.491.491l1.512-1.512c.172.172.958,1.038,1.189,1.033q-.035,1.262-.075,2.516a.31.31,0,0,0-.209,0l-1.543-1.543a.347.347,0,0,0-.491.491l1.5,1.5L204.632,246a.347.347,0,0,0,.245.592c.223,0,.994-.85,1.166-1.023a6.944,6.944,0,0,0,1.607,1.539.344.344,0,0,0,.187-.078c-.021.548-.04,1.094-.063,1.636l-.678.678-1.176-1.176a.347.347,0,0,0-.491.491l1.176,1.176-3,3a.347.347,0,0,0,.245.592c.223,0,1.019-.875,1.192-1.048l1.781,1.783a.347.347,0,0,0,.491-.491l-1.781-1.783,1.575-1.575a.333.333,0,0,0,.47-.47l.157-.157q-.1,2.464-.219,4.826a7.964,7.964,0,0,0-1.309,1.189l-.89-.89a.347.347,0,0,0-.491.491l.89.89-.929.929a.347.347,0,1,0-.491.491l-.694.694a10.892,10.892,0,0,1-.169-1.153c-2.437-29.89-2.862-57.869-2.862-57.869Zm7.383,44.372c-.03.946-.063,1.888-.1,2.822a14.731,14.731,0,0,0-1.4-1.325Zm.119-4.031-.722-.721.76-.76Q208.094,238.884,208.074,239.625Zm.126-5.237c-.014.644-.028,1.292-.043,1.938l-1.277-1.277.99-.99Zm.126-7.964q-.01.949-.023,1.908l-.941-.943Zm-.035,2.885q-.01.691-.022,1.386c-.132-.132-.546-.557-.694-.671Zm-4.446,29.724c.14-.119.812-.8.943-.929.139.139,1.223,1.249,1.393,1.347-.856.648-1.825.667-2.336-.418Zm2.781-.022c-.1-.171-1.209-1.257-1.347-1.4l.929-.929c.3.3.744.9,1.08.671a3.819,3.819,0,0,1-.662,1.654Zm.727-2.148c-.123-.141-.524-.535-.656-.668l.774-.774C207.444,255.92,207.418,256.32,207.353,256.862Zm-1.792-63.742h2.934a3.417,3.417,0,0,0,.169,2.519A5.545,5.545,0,0,0,205.561,193.12Zm7.95,2.583a.861.861,0,0,0-.235-.29l.858-.858.99.99a.31.31,0,0,0-.055.134C214.53,195.681,214.05,195.693,213.51,195.7Zm2.673-.078-.083-.083.82-.822.4.4a1.892,1.892,0,0,1-1.142.5Zm6.724,62.993,1.577-1.577.448.448-1.453,1.453a.347.347,0,0,0,.491.491l1.453-1.453c.155.155.5.545.691.588-.693,1.387-2.612,2.118-3.205.051Zm3.459-.674-.455-.455c.287-.287.624-.54.337-.826s-.54.05-.826.337l-.448-.447.75-.75a.347.347,0,0,0-.491-.491l-.75.75c-.331-.331-.684-.836-1.005-.515s.183.674.515,1.005l-1.251,1.251c-1.529-11.293-3.169-60.931-2.946-58.491-.215-2.35-.549-5.2,2.786-5.2a4.733,4.733,0,0,1,4.127,2.243c.823,1.832.939,18.527.86,29.8l-.315.315c-.306-.306-.608-.732-.915-.426s.118.608.426.915l-.872.872a.347.347,0,0,0,.245.592c.223,0,1.066-.923,1.241-1.1.184-.043.144-.053.183-.1q-.01,1.254-.023,2.387l-.62-.62a.347.347,0,0,0-.491.491c.229.229.8.919,1.1.838-.005.4-.011.792-.017,1.163-.132.177-.6.858-.881,1.332l-.583-.583,1.367-1.367a.347.347,0,0,0-.491-.491l-1.413,1.413a.3.3,0,0,0-.4.4l-.293.293a.347.347,0,0,0,.245.592c.2,0,.338-.2.491-.348l.717.717c-2.17,3.94-2.589,8.117-.237,12.123l-.616.616-.47-.47a.347.347,0,0,0-.491.491l.47.47-.918.918a.347.347,0,0,0,.491.491l.918-.918c.165.165.811.888,1.033.888a.347.347,0,0,0,.245-.592l-.789-.787.5-.5c.005.008.591.844.654.924-.021.552-.051,1.1-.073,1.658-.149-.729-.74-.005-1.26.514-.285-.285-.538-.624-.826-.336s.05.54.336.826l-1.231,1.231a.347.347,0,0,0,.245.592c.223,0,1.3-1.158,1.475-1.332l.743.744a.3.3,0,0,0,.414.03q-.012.285-.025.568c-.128-.941-1.282.506-1.983,1.206l-.739-.739a.347.347,0,0,0-.491.491c.233.233,2.731,2.869,3.043,2.8a11.3,11.3,0,0,1-.331,2.6Zm.365-3.3-1.356-1.356a12.679,12.679,0,0,0,1.487-1.6c-.044.986-.082,1.972-.131,2.956Zm.187-4.192-.694-.694c.149-.149.712-.66.764-.861-.02.518-.047,1.037-.069,1.555Zm9.985.914a21.179,21.179,0,0,0,15.327-17.541C256.991,241.868,248,253.357,236.9,251.366Z" transform="translate(0 0)"/>
    <path id="Path_2204" data-name="Path 2204" d="M190.445,235.388a.346.346,0,0,0-.693,0v1.364h-.7a.346.346,0,0,0,0,.693h.694v2.208c-.441,0-.966-.09-.966.346s.527.346.966.346v1.835h-.694a.346.346,0,0,0,0,.693h.694v2.357c-.488,0-1.189-.126-1.189.346s.7.346,1.189.346v2.357h-1.067a.346.346,0,0,0,0,.693h1.067v2.133c-.344,0-.668-.028-.668.346s.325.346.668.346v1.888a.346.346,0,0,0,.693,0V251.8c.557,0,1.568.169,1.568-.346s-1.011-.346-1.568-.346v-2.133h.7a.346.346,0,0,0,0-.693h-.7v-2.357c.459,0,1.042.1,1.042-.346s-.583-.346-1.042-.346v-2.357h.643a.346.346,0,0,0,0-.693h-.643v-1.835c.386,0,.771.053.771-.346s-.384-.346-.771-.346v-2.208h1a.346.346,0,0,0,0-.693h-1Z" transform="translate(-7.72 -37.106)"/>
    <path id="Path_2205" data-name="Path 2205" d="M300.541,271.826v-1.888h1.22a.346.346,0,0,0,0-.693h-1.22v-2.133c.459,0,1.042.1,1.042-.346s-.583-.346-1.042-.346v-2.357h.694a.346.346,0,0,0,0-.693h-.694v-2.357c.454,0,.989.09.989-.346s-.535-.346-.989-.346v-1.835h.423a.346.346,0,0,0,0-.693h-.423v-2.208c.521,0,1.343.144,1.343-.346s-.822-.346-1.343-.346v-1.366a.346.346,0,0,0-.693,0v1.364c-.459,0-1.042-.1-1.042.346s.583.346,1.042.346v2.208h-.621a.346.346,0,0,0,0,.693h.621v1.835c-.459,0-1.042-.1-1.042.346s.583.346,1.042.346v2.357h-.843a.346.346,0,0,0,0,.693h.843v2.357c-.537,0-1.414-.149-1.414.346s.876.346,1.414.346v2.133h-.323a.346.346,0,0,0,0,.693h.323v1.888A.346.346,0,0,0,300.541,271.826Z" transform="translate(-96.542 -51.738)"/>
    <path id="Path_2206" data-name="Path 2206" d="M400.212,237.99h-1.221v-2.133c.459,0,1.042.1,1.042-.346s-.583-.346-1.042-.346v-2.357h.7a.346.346,0,0,0,0-.693h-.7v-2.357c.454,0,.99.09.99-.346s-.537-.346-.99-.346v-1.835h.424a.346.346,0,0,0,0-.693h-.424v-2.208c.521,0,1.345.144,1.345-.346s-.823-.346-1.345-.346V222.27a.346.346,0,0,0-.693,0v1.364c-.459,0-1.041-.1-1.041.346s.583.346,1.041.346v2.208h-.62a.346.346,0,0,0,0,.693h.62v1.835c-.459,0-1.041-.1-1.041.346s.583.346,1.041.346v2.357h-.843a.346.346,0,0,0,0,.693h.843v2.357c-.537,0-1.414-.149-1.414.346s.876.346,1.414.346v2.134h-.321a.346.346,0,0,0,0,.693h.321v1.888a.346.346,0,0,0,.693,0v-1.888h1.221A.346.346,0,0,0,400.212,237.99Z" transform="translate(-175.972 -26.523)"/>
    <path id="Path_2207" data-name="Path 2207" d="M445.221,407.005c-.088.262.082.517.408.408l1.577,1.577-1.346,1.346a.347.347,0,0,0,.491.491l1.346-1.346c.174.174,1.04,1.118,1.263,1.118a.347.347,0,0,0,.245-.592l-1.017-1.017,1.343-1.343c.164.164.611.684.826.684a.347.347,0,0,0,.245-.592l-.581-.581,1.053-1.054c.165.165.472.54.685.54a.347.347,0,0,0,.245-.592l-.439-.439,1.335-1.335c.31.106.5-.133.408-.408.4-.4,1.224-.986.86-1.35s-.921.431-1.309.818l-.62-.62a.347.347,0,0,0-.491-.491l-.463-.463a.306.306,0,0,0-.416-.416l-.275-.275a.347.347,0,0,0-.491.49l.237.237-1.3,1.3c-.227-.227-.427-.442-.679-.19s-.038.452.19.679l-1.1,1.1a.3.3,0,0,0-.408.408l-1.385,1.385c-.426-.428-.995-.017-.448.531Zm4.309-.34-.62-.62,1.054-1.054.62.62Zm2.838-2.836-1.295,1.3-.62-.62,1.3-1.3Zm-1.536-1.537.427.427-1.3,1.3-.427-.427Zm-1.359,2.21-1.054,1.054-.427-.427,1.054-1.054Zm-1.97,1.118.427.427c-.309.309-.739.613-.431.921s.611-.121.921-.431l.62.62L447.7,408.5l-1.536-1.536Z" transform="translate(-214.789 -170.975)"/>
  </g>
</svg>
