<svg xmlns="http://www.w3.org/2000/svg" width="63.99" height="64" viewBox="0 0 63.99 64">
  <g id="unmatchable-quality" transform="translate(8946 135)">
    <g id="Group_4999" data-name="Group 4999" transform="translate(-8947.005 -136)">
      <path id="Path_3698" data-name="Path 3698" d="M31.394,12.8a19.7,19.7,0,0,0-8.55,2.716A27.353,27.353,0,0,0,13.116,26.2c-2.467,4.848-1.129,12.044,1.467,16.646A20.523,20.523,0,0,0,46.34,47.765a20.908,20.908,0,0,0,4.886-22.788A20.547,20.547,0,0,0,31.394,12.8Zm-.759,1.082-.812.812-.587-.587C29.7,14.017,30.168,13.943,30.635,13.886Zm-6.367,1.989-.143.143-.041-.041C24.146,15.943,24.206,15.907,24.268,15.875Zm-2.754,5-.545-.545.582-.582a.25.25,0,1,0-.354-.354l-.582.582-.853-.853c.358-.333.719-.656,1.085-.959l1.688,1.688Zm-2.122-1.417.871.871-1.387,1.387-.844-.844C18.474,20.381,18.926,19.906,19.392,19.457ZM13.222,36.25l.977.977-.6.6C13.456,37.308,13.331,36.781,13.222,36.25ZM12.805,32.3l1.619,1.619-1.376,1.376A19.229,19.229,0,0,1,12.805,32.3Zm.325-.382a.244.244,0,0,0-.316-.016,14.646,14.646,0,0,1,.227-2.286L14.4,30.967,13.29,32.073Zm.128-2.792-.092-.092a10.515,10.515,0,0,1,.826-2.341l.713.713-1.423,1.423A.24.24,0,0,0,13.258,29.122Zm32.4,17.911a19.519,19.519,0,0,1-30.2-4.676,20.5,20.5,0,0,1-1.689-3.988l.788-.788,1.078,1.078a.25.25,0,0,0,.354-.354l-1.078-1.078.6-.6a.25.25,0,0,0-.354-.354l-.6.6-1.19-1.19,1.467-1.467c.007-.007.005-.019.011-.027a.24.24,0,0,0,.149-.062.25.25,0,0,0,0-.354l-1.347-1.347,1.106-1.106.072.072a.25.25,0,1,0,.354-.354l-.072-.072.491-.491a.25.25,0,0,0-.354-.354l-.491.491L13.338,29.2a.215.215,0,0,0,.3-.023l1.423-1.423.325.325a.25.25,0,0,0,.354-.354l-.325-.325.251-.251a.25.25,0,0,0-.354-.354l-.251.251-.816-.816a25.522,25.522,0,0,1,1.541-2.524l.578.578L15.246,25.4a.25.25,0,1,0,.354.354l1.115-1.115.558.558a.25.25,0,0,0,.354-.354l-.558-.558.739-.739a.25.25,0,0,0-.354-.354l-.739.739-.634-.634c.509-.706,1.055-1.389,1.626-2.046l.831.831a.241.241,0,0,0,.021.3.217.217,0,0,0,.3.021l.309.309a.25.25,0,1,0,.354-.354l-.294-.294,1.387-1.387.654.654a.228.228,0,0,0,.039.095.25.25,0,0,0,.354,0l2-2a.25.25,0,0,0-.354-.354l-.415.415L21.246,17.85a19.315,19.315,0,0,1,2.106-1.473c.1-.057.2-.108.3-.164.01.016.007.035.02.049l.1.1-1.4,1.4a.25.25,0,1,0,.354.354l1.4-1.4.723.723a.25.25,0,0,0,.354-.354l-.723-.723,1.12-1.12c.178-.076.357-.152.537-.222l.864.869-.918.918a.25.25,0,1,0,.354.354l.918-.918.331.331a.25.25,0,0,0,.354-.354l-.331-.331,1.1-1.1a.25.25,0,0,0-.354-.354l-1.1,1.1-.7-.7a18.589,18.589,0,0,1,2.008-.6l.811.811-.862.862a.25.25,0,0,0,.354.354l.862-.862.3.305a.25.25,0,0,0,.354-.354l-.3-.305.826-.826.433.433-.525.525a.25.25,0,1,0,.354.354l.525-.525.275.275a.25.25,0,0,0,.354-.354l-.275-.275.19-.19a.25.25,0,0,0-.354-.354l-.19.19-.487-.487c.055,0,.109-.013.164-.017a19.508,19.508,0,0,1,18.84,11.566A19.887,19.887,0,0,1,45.658,47.033Z" fill="#000c1e"/>
    </g>
    <g id="Group_5001" data-name="Group 5001" transform="translate(-8947.005 -136)">
      <path id="Path_3700" data-name="Path 3700" d="M64.7,38.249A.5.5,0,0,0,65,37.787c-.062-3.611-.167-7.07-.237-10.63a.5.5,0,0,0-.4-.481L58.276,25.49a23.411,23.411,0,0,0-2.088-5.172,35.935,35.935,0,0,0,2.946-6.024.5.5,0,0,0-.122-.536c-2.649-2.545-5.145-4.894-7.694-7.343a.5.5,0,0,0-.626-.054C48.7,7.706,47.236,8.694,45.615,9.782A26.893,26.893,0,0,0,40.4,7.534a35.3,35.3,0,0,0-2.158-6.24A.52.52,0,0,0,37.779,1c-3.487.069-6.942.174-10.618.248a.5.5,0,0,0-.481.4L25.534,7.483a26.178,26.178,0,0,0-5.606,2.468,35.766,35.766,0,0,0-6.009-2.813.5.5,0,0,0-.533.13c-2.473,2.645-4.739,5.129-7.23,7.8a.5.5,0,0,0-.045.626L9.3,20.277a25.75,25.75,0,0,0-3.039,5.657A35.167,35.167,0,0,0,1.3,27.752.5.5,0,0,0,1,28.215c.061,3.623.163,6.921.237,10.63a.5.5,0,0,0,.4.481q2.536.492,4.955.971a27.6,27.6,0,0,0,2.715,6.22A34.978,34.978,0,0,0,6.866,51.71a.5.5,0,0,0,.123.534c2.587,2.486,5.091,4.844,7.694,7.343a.5.5,0,0,0,.626.054l4.611-3.106a26.87,26.87,0,0,0,5.768,2.248,34.621,34.621,0,0,0,2.07,5.925.5.5,0,0,0,.453.292h.01c3.628-.072,6.985-.175,10.619-.247a.5.5,0,0,0,.481-.4L40.5,58.371a26.983,26.983,0,0,0,5.467-2.4,35.581,35.581,0,0,0,6.117,2.887.5.5,0,0,0,.533-.13c2.485-2.66,4.7-5.086,7.23-7.8a.5.5,0,0,0,.046-.625c-1.235-1.787-2.452-3.525-3.64-5.243a26.93,26.93,0,0,0,1.8-4.567A34.832,34.832,0,0,0,64.7,38.249Zm-5.011-.705a.239.239,0,0,0,.047.114l.651.651L60.2,38.5a.25.25,0,0,0,0,.354c.009.009.023.006.033.014-.145.045-.291.089-.437.132l-.779-.78Zm1.618.977-.212-.212.532-.532.431.431c.016.016.04.013.059.024C61.853,38.332,61.583,38.427,61.311,38.521Zm-.526.182-.116.035.076-.076Zm3.144-4.133-.26-.26.2-.2a.241.241,0,0,0,.051-.122C63.92,34.185,63.925,34.377,63.929,34.57ZM56.922,16.881l-.051-.051.141-.141C56.982,16.753,56.953,16.818,56.922,16.881Zm.716-1.568-1.167-1.167.734-.734.874.836C57.942,14.6,57.79,14.959,57.638,15.313ZM4.574,38.88,4.189,38.8l-.372-.371.781-.421.422.422Zm.8-.092.31.311L5.165,39Zm9.709,19.8c-.345-.331-.682-.652-1.022-.977l.8-.8.908.908a.205.205,0,0,0,.147.308Zm1.014-1.25-.882-.882.882-.882.882.882Zm1.235-.528.157.157-.963.649ZM31,63.939l-.54.012-.758-.759.938-.938,1.022,1.022Zm1.015-.309.277.277-.568.014Zm-2.247.336-.859.019.439-.439Zm3.214-.076-.613-.613.994-.994,1.05,1.05L34,63.746a.241.241,0,0,0-.05.121Zm1.62-.04.164-.164.056.056a.25.25,0,1,0,.354-.354l-.056-.056,1.19-1.19a8.1,8.1,0,0,0,1.243,1.139.249.249,0,0,0,.177-.073.246.246,0,0,0,.071-.172.241.241,0,0,0,.145-.06l.781-.781-.309,1.567C37.12,63.788,35.858,63.819,34.6,63.85Zm17.509-6.04c-.844-.31-1.69-.672-2.534-1.066l1.317-1.317.96.96-.166.166a.25.25,0,0,0,.354.354l.166-.166.465.465Zm.9-.971-.452-.452.96-.96.416.416C53.631,56.173,53.32,56.507,53.011,56.839Zm2.609-2.817-.805-.805.76-.76.775.775Zm1.516-2.461-.875.875-.332-.332.875-.875Zm-.446,1.3-.076-.076.875-.875.042.042Zm.485-12.921a25.919,25.919,0,0,1-1.95,4.931.5.5,0,0,0,.032.516c1.208,1.748,2.349,3.378,3.582,5.158-.328.351-.646.695-.967,1.041l-.029-.029.226-.226a.25.25,0,0,0-.354-.354l-.226.226-1.166-1.166a.25.25,0,1,0-.354.354l.48.48-.875.875-.338-.338a.25.25,0,1,0-.354.354l.338.338-.76.76-.195-.195a.25.25,0,0,0-.354.354l1.366,1.366-1.005,1.087-.4-.4.224-.224a.25.25,0,1,0-.354-.354l-.224.224-.794-.794a.25.25,0,0,0-.354.354l.794.794-.96.96-.96-.96.489-.489a.25.25,0,0,0-.354-.354l-.489.489-.109-.109a.25.25,0,0,0-.354.354l.109.109-1.366,1.366a.232.232,0,0,0-.042.1q-1.461-.707-2.907-1.573a.5.5,0,0,0-.513,0,25.957,25.957,0,0,1-5.79,2.536.5.5,0,0,0-.347.382l-.577,2.929-1.559-1.559a.25.25,0,0,0-.354.354l1.685,1.686a.237.237,0,0,0,.106.044l-1.286,1.286c-.019.019-.016.045-.028.068l-.9-.9.977-.977a.25.25,0,1,0-.354-.354l-.977.977L35.859,61a.25.25,0,0,0-.354.354l.441.441-1.19,1.19-1.05-1.05,1.482-1.483a.25.25,0,1,0-.354-.354l-1.482,1.483-.525-.525a.25.25,0,0,0-.354.354l.525.525L32,62.925,30.982,61.9l.85-.85a.25.25,0,0,0-.354-.354l-.85.85-.1-.1a.25.25,0,0,0-.354.354l.1.1-.938.938-.665-.666a.25.25,0,0,0-.354.354l.665.666-.562.562a34.066,34.066,0,0,1-1.846-5.5.5.5,0,0,0-.366-.367,25.868,25.868,0,0,1-6.092-2.374.5.5,0,0,0-.518.025l-.5.34a.236.236,0,0,0-.029-.284L17.845,54.37a.25.25,0,1,0-.354.354l1.226,1.226a.247.247,0,0,0,.173.072l-.979.66-.226-.226.3-.3a.25.25,0,1,0-.354-.354l-.3.3-.881-.882.241-.241a.25.25,0,0,0-.354-.354l-.241.241-.048-.048a.25.25,0,1,0-.354.354l.048.048-.882.882-.385-.385a.25.25,0,0,0-.354.354l.385.385-.809.809c-2.346-2.239-3.739-3.554-5.781-5.513a34.334,34.334,0,0,1,2.413-4.992.5.5,0,0,0-.011-.522,26.4,26.4,0,0,1-2.846-6.513.5.5,0,0,0-.382-.35l-.622-.122a.243.243,0,0,0-.053-.128l-.69-.69.389-.39a.25.25,0,0,0-.354-.354l-.389.39-.553-.553a.249.249,0,0,0-.3-.043l-1.077.58L2.8,37.416a.25.25,0,0,0-.354.354l.543.543-.351.187-.4-.079c-.07-3.418-.164-6.551-.223-9.9a34.725,34.725,0,0,1,4.778-1.7.5.5,0,0,0,.342-.33,24.714,24.714,0,0,1,3.188-5.932.5.5,0,0,0,0-.572L7.16,15.449c2.3-2.463,4.331-4.689,6.729-7.26a35.025,35.025,0,0,1,5.784,2.772c.138.083.356.1.694-.112A25.177,25.177,0,0,1,26.1,8.354a.5.5,0,0,0,.351-.383l1.127-5.733c3.263-.067,6.532-.164,9.885-.233a34.44,34.44,0,0,1,2.028,6.036.5.5,0,0,0,.343.364,25.94,25.94,0,0,1,5.547,2.4.5.5,0,0,0,.528-.018c1.6-1.069,3.4-2.287,5-3.369,1.934,1.855,3.541,3.374,5.928,5.653l-.726.726L55.92,13.6a.25.25,0,0,0-.354.354l.195.195-.08.08a.25.25,0,1,0,.354.354l.08-.08L57.3,15.689l-.789.789L56.1,16.06l.511-.511a.25.25,0,0,0-.354-.354l-.511.511-.452-.452a.25.25,0,0,0-.354.354l.452.452-1.017,1.017-.623-.623a.25.25,0,1,0-.354.354l.623.623-.337.337a.25.25,0,1,0,.354.354l.337-.337.88.88a.25.25,0,1,0,.354-.354l-.88-.88,1.017-1.017.418.418-.594.594a.25.25,0,0,0,.354.354l.594-.594.171.171Q56,18.722,55.182,20.045a.5.5,0,0,0-.008.513,22.3,22.3,0,0,1,2.214,5.488.5.5,0,0,0,.39.366l5.989,1.169c.025,1.25.055,2.467.084,3.679a.263.263,0,0,0-.065.027l-.379-.379a.25.25,0,0,0-.354.354l.366.366-.594.594a.25.25,0,0,0,.354.354l.594-.594c.12.12.017.018.1.071q.022.912.043,1.827a.234.234,0,0,0-.048-.116.25.25,0,0,0-.354,0l-.2.2-.252-.252a.25.25,0,0,0-.354.354l.252.252-.651.651a.25.25,0,0,0,0,.354c.281.281.724-.371,1.005-.651l.437.437a.249.249,0,0,0,.177.073c.005,0,.008-.005.012-.005.017.762.033,1.526.047,2.306q-.749.336-1.534.638a.235.235,0,0,0-.039-.258l-.431-.431.738-.738a.25.25,0,1,0-.354-.354l-.738.734-.451-.451a.25.25,0,1,0-.354.354l.451.451-.532.532-.651-.651a.235.235,0,0,0-.114-.047l.731-.731a.25.25,0,0,0-.354-.354l-2.274,2.274a.25.25,0,0,0,.354.354l.223-.223.59.59q-.838.231-1.7.427A.5.5,0,0,0,57.175,39.944Z" fill="#000c1e"/>
    </g>
    <g id="Group_5002" data-name="Group 5002" transform="translate(-8947.005 -136)">
      <path id="Path_3701" data-name="Path 3701" d="M63.371,36.833a.25.25,0,1,0,.354-.354l-1-1a.25.25,0,0,0-.354.354Z" fill="#000c1e"/>
    </g>
    <g id="Group_5003" data-name="Group 5003" transform="translate(-8947.005 -136)">
      <path id="Path_3702" data-name="Path 3702" d="M11.9,23.872l-.3-.216a28.117,28.117,0,0,1,1.635-2.5l.1.07a.25.25,0,0,0,.3-.4l-.1-.073q.813-1.067,1.726-2.053a2.551,2.551,0,0,0,.5.275.25.25,0,0,0,.188-.464,1.989,1.989,0,0,1-.336-.176,28.947,28.947,0,0,1,2.447-2.277,1.512,1.512,0,0,0,.72.2h.041a.25.25,0,1,0-.014-.5.914.914,0,0,1-.336-.046c.663-.528,1.351-1.022,2.058-1.489a2.569,2.569,0,0,0,.346.322.25.25,0,1,0,.3-.4,2.157,2.157,0,0,1-.209-.218c.734-.465,1.491-.892,2.265-1.286l.265.349a.251.251,0,1,0,.4-.3l-.207-.272c.785-.381,1.585-.729,2.4-1.031a.25.25,0,1,0-.173-.469,26.959,26.959,0,0,0-2.539,1.093l-.4-.529a.251.251,0,0,0-.4.3l.347.457c-.776.4-1.537.827-2.273,1.3a2.163,2.163,0,0,1-.226-.451.25.25,0,0,0-.476.152,2.61,2.61,0,0,0,.279.584c-.755.5-1.489,1.034-2.194,1.6a1.018,1.018,0,0,1-.243-.371.25.25,0,0,0-.472.162,1.482,1.482,0,0,0,.335.525,29.216,29.216,0,0,0-2.426,2.268,2.077,2.077,0,0,1-.409-.6.25.25,0,0,0-.459.2,2.584,2.584,0,0,0,.524.769c-.613.666-1.2,1.358-1.746,2.078l-.606-.45a.25.25,0,0,0-.3.4l.609.452a28.211,28.211,0,0,0-1.641,2.5l-.623-.452a.25.25,0,0,0-.294.4l.667.484a27.231,27.231,0,0,0-1.49,3.082.25.25,0,1,0,.464.188,26.655,26.655,0,0,1,1.433-2.974l.255.185a.25.25,0,0,0,.349-.056A.253.253,0,0,0,11.9,23.872Z" fill="#000c1e"/>
    </g>
    <g id="Group_5004" data-name="Group 5004" transform="translate(-8947.005 -136)">
      <path id="Path_3703" data-name="Path 3703" d="M47.928,36.992c.173-.477.336-.963.481-1.464a.25.25,0,0,0-.48-.14q-.19.657-.412,1.285l-.154-.119a.25.25,0,1,0-.306.4l.273.211q-.285.756-.614,1.466l-.342-.259a.25.25,0,1,0-.3.4l.428.324c-.283.573-.594,1.116-.922,1.641l-.381-.339a.25.25,0,1,0-.332.374l.446.4a17.243,17.243,0,0,1-1.332,1.752l-.522-.616a.25.25,0,1,0-.382.324l.564.665a16.132,16.132,0,0,1-1.506,1.443c-.468-.585.09.151-.676-.859a.251.251,0,1,0-.4.3c.839,1.1.157.207.684.867a16.147,16.147,0,0,1-2.218,1.47l-.608-.744a.25.25,0,0,0-.387.317l.541.662a17.089,17.089,0,0,1-1.8.8l-.4-.63a.25.25,0,1,0-.422.268l.334.526a19.366,19.366,0,0,1-1.865.539.25.25,0,0,0,.112.488,19.058,19.058,0,0,0,2.026-.6l.256.4a.25.25,0,0,0,.422-.268l-.195-.308a17.54,17.54,0,0,0,1.848-.837l.085.1a.25.25,0,0,0,.387-.317l-.025-.03A16.878,16.878,0,0,0,42.04,45.4c.036.039.063.083.1.121a.25.25,0,1,0,.361-.347c-.025-.026-.046-.059-.07-.086a17.062,17.062,0,0,0,1.513-1.447l.091.108a.25.25,0,1,0,.382-.324l-.13-.153a18.086,18.086,0,0,0,1.382-1.8l.269.239a.25.25,0,1,0,.332-.374l-.328-.291c.34-.533.659-1.087.952-1.665l.265.2a.25.25,0,0,0,.3-.4l-.344-.26c.223-.469.43-.954.623-1.451l.478.37a.25.25,0,0,0,.306-.4Z" fill="#000c1e"/>
    </g>
    <path id="Path_3566" data-name="Path 3566" d="M37.011,35.172c-.441.407-5.259,4.834-5.676,5.265-2.257,2.32-2.042-.183-3.635-.652-2.272-1.211-4.531.421-3.916,2.991.311,1.29,2.753,5.506,5.495,6.024,2.069.395,3.977-.906,5.528-2.329a36.155,36.155,0,0,0,6.484-7.915,5.855,5.855,0,0,0,.9-2.155C42.5,34.315,40.481,31.968,37.011,35.172ZM24.663,42.567c-.27-1.126.209-2.275,1.479-2.275,2.527,0,2.653,4.059,5.842.775.129-.133.254-.262.375-.374,5.3-4.889,7-7.027,8.44-5.949a1.612,1.612,0,0,1,.5,1.527,2.7,2.7,0,0,1-.077.32l-.329-.329.184-.184a.226.226,0,0,0-.32-.32l-.184.184-.181-.181a.226.226,0,0,0-.32.32l.181.181-.758.758c-.022.011-.047.009-.065.027s-.016.043-.027.065l-.351.351a.226.226,0,0,0,.32.32l.237-.237.191.19-.029.029a.226.226,0,1,0,.32.32l.03-.03.253.253h0c-.177.288-.37.565-.555.848l-.569-.569.031-.031a.226.226,0,0,0-.32-.32l-.145.145c-.022.011-.047.009-.065.027s-.016.043-.027.065L36.7,40.5l-.09-.09a.226.226,0,0,0-.32.319l.09.09-.879.879a.2.2,0,0,0-.26.26l-.306.306a.226.226,0,0,0,.32.32l.277-.277,1.055,1.055c-.263.294-.522.59-.8.875l-.358-.358.352-.352a.226.226,0,1,0-.32-.32l-.352.352-.54-.54a.226.226,0,1,0-.32.32l.54.54-1.38,1.382-.841-.841a.216.216,0,0,0-.122-.051l.622-.622a.226.226,0,1,0-.319-.32l-1.948,1.948c-.022.011-.047.009-.065.027s-.016.043-.027.065l-.852.852-.464-.464a.226.226,0,0,0-.32.32l.464.464-.965.965C26.989,46.792,24.948,43.751,24.663,42.567ZM40.62,37.915l-.179-.179.583-.583A7.776,7.776,0,0,1,40.62,37.915Zm.146-1.142-.644.643-.191-.191.644-.644Zm-1.717,3.539-.176-.175.644-.643.05.05C39.393,39.8,39.228,40.06,39.049,40.312Zm-1.094,1.436-.347-.347.946-.945.219.22C38.506,41.038,38.234,41.4,37.955,41.748Zm-1.069,1.272-1.035-1.035.85-.85.267.266-.181.181a.226.226,0,0,0,.319.32l.181-.181.39.39C37.424,42.423,37.151,42.718,36.886,43.021Zm2.045-4.114.267.267-.643.643-.267-.267Zm-.963.963.267.267-.946.946-.267-.266Zm-5.8,6.635-.927-.927.963-.963a.222.222,0,0,0,.051.122l.841.841Zm-.972.972a.22.22,0,0,0-.053.128s0-.012-.006-.016l-.953-.953.738-.738.927.927Zm-1.749.437a3.052,3.052,0,0,1-.422-.122l.837-.837.922.922A3.3,3.3,0,0,1,29.446,47.914Zm4.75-2.107a10.088,10.088,0,0,1-2.416,1.723l.43-.43s.007,0,.011,0a.225.225,0,0,0,.16-.066.217.217,0,0,0,.061-.17l.972-.972.151.151a.226.226,0,0,0,.32-.32l-.151-.151L35.115,44.2l.356.356C35.052,44.977,34.636,45.4,34.2,45.808Z" transform="translate(-8947.986 -145.189)" fill="#000c1e"/>
  </g>
</svg>
