<svg xmlns="http://www.w3.org/2000/svg" width="124.788" height="113.438" viewBox="0 0 124.788 113.438">
  <g id="xamarin-icon" transform="translate(-3 -5)">
    <g id="Group_4985" data-name="Group 4985" transform="translate(3 5)">
      <path id="Path_3446" data-name="Path 3446" d="M91.765,10.672a4.1,4.1,0,0,1,3.423,2.039l26.383,46.806a4.751,4.751,0,0,1,.017,4.376L95.183,110.741a4.1,4.1,0,0,1-3.417,2.028H39.021A4.1,4.1,0,0,1,35.6,110.73L9.215,63.924A4.751,4.751,0,0,1,9.2,59.548L35.6,12.7a4.1,4.1,0,0,1,3.417-2.028H91.765m0-5.672H39.021a9.793,9.793,0,0,0-8.366,4.926L4.254,56.763a10.413,10.413,0,0,0,0,9.912l26.4,46.837a9.787,9.787,0,0,0,8.366,4.926H91.765a9.793,9.793,0,0,0,8.366-4.926l26.4-46.837a10.413,10.413,0,0,0,0-9.912l-26.4-46.837A9.793,9.793,0,0,0,91.765,5Z" transform="translate(-3 -5)" fill="#189beb"/>
      <path id="Path_3447" data-name="Path 3447" d="M65.949,71.72H57.3a1.165,1.165,0,0,1-1-.615L41.661,43.922a1.449,1.449,0,0,1-.136-.448,1.427,1.427,0,0,1-.136.448L26.7,71.1a1.1,1.1,0,0,1-.944.615H17.1a1.233,1.233,0,0,1-.97-1.767L30.444,43.36,16.131,16.71A1.234,1.234,0,0,1,16.885,15h8.868a1.144,1.144,0,0,1,.944.59L41.389,42.773a1.291,1.291,0,0,1,.136.448,1.233,1.233,0,0,1,.136-.448L56.3,15.59a1.166,1.166,0,0,1,1-.59h8.653a1.23,1.23,0,0,1,.97,1.71L52.605,43.36,66.918,69.954A1.235,1.235,0,0,1,65.949,71.72Z" transform="translate(20.869 13.36)" fill="#189beb"/>
    </g>
  </g>
</svg>
