<svg width="70" height="122" viewBox="0 0 70 122" fill="none" xmlns="http://www.w3.org/2000/svg">
<g clip-path="url(#clip0_104_7447)">
<path fill-rule="evenodd" clip-rule="evenodd" d="M28.3357 20.7176C28.3357 19.4216 28.7048 18.2186 29.3429 17.1947H40.6571C41.2952 18.2114 41.6643 19.4216 41.6643 20.7176C41.6643 24.4053 38.6786 27.3959 35 27.3959C31.3214 27.3959 28.3357 24.4053 28.3357 20.7176ZM13.0643 54.0472C12.15 54.0472 11.4071 53.3049 11.4071 52.386C11.4071 51.4718 12.15 50.7271 13.0643 50.7271H56.9357C57.85 50.7271 58.5929 51.4718 58.5929 52.386C58.5929 53.3049 57.85 54.0472 56.9357 54.0472H13.0643ZM13.0643 63.8427C12.15 63.8427 11.4071 63.1004 11.4071 62.1839C11.4071 61.2673 12.15 60.5226 13.0643 60.5226H55.3167C56.231 60.5226 56.9738 61.2673 56.9738 62.1839C56.9738 63.1004 56.231 63.8427 55.3167 63.8427H13.0643ZM13.0643 73.6406C12.15 73.6406 11.4071 72.8959 11.4071 71.9794C11.4071 71.0628 12.15 70.3205 13.0643 70.3205H49.1476C50.0619 70.3205 50.8048 71.0628 50.8048 71.9794C50.8048 72.8959 50.0619 73.6406 49.1476 73.6406H13.0643ZM13.0643 93.234C12.15 93.234 11.4071 92.4893 11.4071 91.5728C11.4071 90.6563 12.15 89.9116 13.0643 89.9116H24.5905C25.5048 89.9116 26.2476 90.6563 26.2476 91.5728C26.2476 92.4893 25.5048 93.234 24.5905 93.234H13.0643ZM13.0643 83.4361C12.15 83.4361 11.4071 82.6938 11.4071 81.7773C11.4071 80.8607 12.15 80.1161 13.0643 80.1161H31.3976C32.3119 80.1161 33.0548 80.8607 33.0548 81.7773C33.0548 82.6938 32.3119 83.4361 31.3976 83.4361H13.0643ZM13.1476 0H56.8548C64.1143 0 70 5.90977 70 13.1824V108.82C70 116.097 64.1143 122 56.8548 122H13.1476C5.8881 122 0 116.097 0 108.82V13.1657C0 5.87158 5.87619 0 13.1476 0ZM4.52857 103.691H65.4524V13.0559H4.52857V103.691ZM34.9833 107.815C37.9571 107.815 40.3881 110.216 40.3881 113.233C40.3881 116.219 37.9952 118.654 34.9833 118.654C32.0095 118.654 29.5762 116.255 29.5762 113.233C29.5762 110.254 31.9714 107.815 34.9833 107.815ZM42.8595 93.1242C43.1388 93.3696 43.3094 93.7161 43.334 94.0876C43.3585 94.459 43.235 94.8251 42.9905 95.1053C42.4833 95.6877 41.5976 95.745 41.0167 95.2366L36.6048 91.3604C36.0238 90.852 35.9667 89.9641 36.4738 89.3817L36.6167 89.2409L41.0167 85.3766C41.1548 85.2553 41.3155 85.1624 41.4895 85.1033C41.6635 85.0442 41.8474 85.0201 42.0307 85.0323C42.214 85.0445 42.3931 85.0927 42.5578 85.1743C42.7225 85.256 42.8695 85.3693 42.9905 85.5079C43.1115 85.6464 43.2041 85.8075 43.263 85.9819C43.322 86.1563 43.346 86.3407 43.3339 86.5244C43.3217 86.7082 43.2736 86.8877 43.1922 87.0528C43.1108 87.2179 42.9977 87.3653 42.8595 87.4866L39.65 90.3054L42.8595 93.1242ZM53.4452 95.2366C53.1659 95.4811 52.8013 95.6045 52.4313 95.5799C52.0613 95.5553 51.7161 95.3846 51.4714 95.1053C50.9643 94.5205 51.0214 93.635 51.6024 93.1242L54.8119 90.3054L51.6024 87.4866C51.4642 87.3653 51.3512 87.2179 51.2698 87.0528C51.1884 86.8877 51.1403 86.7081 51.1281 86.5244C51.1036 86.1533 51.227 85.7877 51.4714 85.5079C51.7158 85.2281 52.0611 85.0571 52.4312 85.0324C52.8014 85.0078 53.1661 85.1316 53.4452 85.3766L57.8476 89.2409L57.9881 89.3817C58.1092 89.5202 58.2018 89.6813 58.2607 89.8557C58.3197 90.0301 58.3437 90.2145 58.3316 90.3982C58.3194 90.582 58.2713 90.7615 58.1899 90.9266C58.1085 91.0917 57.9954 91.2391 57.8571 91.3604L53.4452 95.2366ZM46.9762 84.5746C47.1524 83.8204 47.9071 83.3502 48.6619 83.5244C49.4143 83.7011 49.8833 84.4577 49.7095 85.2143L47.1881 96.0361C47.0119 96.7904 46.2571 97.263 45.5048 97.0864C45.1427 97.0015 44.8288 96.7763 44.632 96.46C44.4352 96.1438 44.3715 95.7622 44.4548 95.3989L46.9762 84.5746ZM54.2333 20.9706V22.3693C54.2333 23.6773 53.1667 24.749 51.8595 24.749H49.431C49.1214 26.1214 48.6238 27.4222 47.9667 28.6228L49.5881 30.2482C50.5095 31.1743 50.5095 32.6875 49.5881 33.6136L47.6143 35.5923C46.6905 36.5184 45.181 36.5184 44.2571 35.5923L42.7786 34.1125C41.5354 34.8877 40.1841 35.4733 38.769 35.8501V37.8717C38.769 39.1797 37.7 40.2514 36.3952 40.2514H33.6048C32.2976 40.2514 31.231 39.1797 31.231 37.8717V35.8787C29.8023 35.509 28.4371 34.9265 27.181 34.1506L25.7429 35.5923C24.819 36.5184 23.3071 36.5184 22.3857 35.5923L20.4119 33.6136C19.4881 32.6899 19.4881 31.1743 20.4119 30.2482L21.9667 28.692C21.2797 27.4567 20.7738 26.1287 20.4643 24.749H18.1381C16.8333 24.749 15.7643 23.6773 15.7643 22.3693V19.5719C15.7643 18.2998 16.7714 17.2543 18.0262 17.1947H25.9738C25.5927 18.2458 25.3984 19.3558 25.4 20.4742C25.4 20.6388 25.4024 20.8059 25.4119 20.9706C25.4024 21.1353 25.4 21.3 25.4 21.4647C25.4 26.7515 29.6738 31.0382 34.9476 31.0382C40.2214 31.0382 44.4952 26.7515 44.4952 21.4647C44.4952 21.3 44.4929 21.1353 44.4833 20.9706C44.4929 20.8059 44.4952 20.6388 44.4952 20.4742C44.4952 19.3213 44.2929 18.2162 43.9214 17.1947H51.9738C53.2262 17.2543 54.2333 18.2998 54.2333 19.5719V20.9706Z" fill="black"/>
</g>
<defs>
<clipPath id="clip0_104_7447">
<rect width="70" height="122" fill="white"/>
</clipPath>
</defs>
</svg>
