<svg width="25" height="25" viewBox="0 0 25 25" fill="none" xmlns="http://www.w3.org/2000/svg">
<rect width="25" height="25" fill="white"/>
<path d="M6.45898 21.8745H1.92383V7.27002H6.45898V21.8745ZM4.18896 5.27783C2.73877 5.27783 1.5625 4.07666 1.5625 2.62646C1.5625 1.92988 1.83922 1.26183 2.33177 0.769274C2.82433 0.276716 3.49238 0 4.18896 0C4.88555 0 5.5536 0.276716 6.04616 0.769274C6.53871 1.26183 6.81543 1.92988 6.81543 2.62646C6.81543 4.07666 5.63867 5.27783 4.18896 5.27783ZM23.4326 21.8745H18.9072V14.7651C18.9072 13.0708 18.873 10.8979 16.5493 10.8979C14.1914 10.8979 13.8301 12.7388 13.8301 14.6431V21.8745H9.29981V7.27002H13.6494V9.26221H13.7129C14.3184 8.11475 15.7974 6.90381 18.0039 6.90381C22.5938 6.90381 23.4375 9.92627 23.4375 13.8521V21.8745H23.4326Z" fill="#049E9D"/>
</svg>
