<svg width="36" height="37" viewBox="0 0 36 37" fill="none" xmlns="http://www.w3.org/2000/svg">
<path d="M10.0736 13.0829L10.0736 11.5499C10.0736 10.9008 10.5984 10.376 11.2441 10.3795L24.6646 10.376C25.3137 10.376 25.8385 10.9008 25.835 11.5465L25.835 24.9636C25.835 25.6127 25.3102 26.1375 24.6646 26.134L23.1316 26.134C22.4756 26.134 21.9473 25.5919 21.9612 24.9359L22.158 16.8187L12.235 26.7417C11.7758 27.2009 11.0369 27.2009 10.5777 26.7417L9.47285 25.6368C9.01364 25.1776 9.01364 24.4388 9.47285 23.9795L19.3958 14.0566L11.2717 14.2534C10.6122 14.2706 10.0702 13.7424 10.0736 13.0829Z" fill="white"/>
</svg>
