<svg width="619" height="501" viewBox="0 0 619 501" fill="none" xmlns="http://www.w3.org/2000/svg">
<path d="M0 1H600V392.365C600 392.365 556.653 349.01 522.807 342.922C454.537 330.643 445.213 452.042 376.608 461.306C332.461 467.267 308.778 427.124 264.912 435.54C221.923 443.788 210.457 506.056 167.251 499.607C125.058 493.309 127.291 445.244 86.5497 412.56C56.3018 388.294 0 370.777 0 370.777V1Z" fill="url(#paint0_linear_180_1298)"/>
<path d="M293.24 375.845L80.0864 428.171C57.7998 433.642 45.1211 419.61 51.7672 396.828L134.199 114.295C140.846 91.5138 164.302 68.611 186.588 63.1391L399.741 10.8131C422.028 5.34237 434.707 19.3742 428.061 42.1558L345.629 324.689C338.983 347.47 315.527 370.373 293.24 375.845Z" stroke="#0A58CF" stroke-width="2.38933"/>
<path d="M357.757 140.317L298.93 154.758C292.78 156.269 289.281 152.396 291.115 146.108L313.865 68.1326C315.699 61.8448 322.173 55.524 328.323 54.0147L387.15 39.5738C393.301 38.0644 396.8 41.9365 394.966 48.2242L372.216 126.199C370.382 132.487 363.908 138.808 357.757 140.317Z" fill="white" fill-opacity="0.0980392"/>
<path d="M221.159 364.687L162.332 379.128C156.181 380.638 152.682 376.765 154.516 370.477L177.266 292.502C179.1 286.214 185.574 279.893 191.725 278.384L250.552 263.943C256.702 262.433 260.201 266.306 258.368 272.593L235.617 350.569C233.782 356.856 227.309 363.177 221.159 364.687Z" fill="white" fill-opacity="0.0980392"/>
<path d="M197.106 329.443L138.279 343.884C132.129 345.394 128.629 341.521 130.463 335.234L153.213 257.258C155.047 250.971 161.522 244.65 167.672 243.14L226.499 228.699C232.649 227.19 236.149 231.062 234.315 237.35L211.565 315.325C209.73 321.612 203.256 327.933 197.106 329.443Z" fill="white" fill-opacity="0.0980392"/>
<path d="M328.068 99.0607L292.04 107.905C288.273 108.83 286.129 106.458 287.253 102.608L301.186 54.8526C302.31 51.0026 306.274 47.1305 310.042 46.2065L346.07 37.3621C349.837 36.437 351.98 38.8097 350.857 42.6597L336.923 90.4147C335.799 94.2658 331.835 98.1368 328.068 99.0607Z" fill="white" fill-opacity="0.239216"/>
<path d="M478.832 351.72L442.803 360.564C439.036 361.489 436.893 359.117 438.016 355.266L451.95 307.512C453.073 303.661 457.037 299.789 460.805 298.865L496.834 290.021C500.6 289.096 502.744 291.469 501.62 295.319L487.687 343.074C486.564 346.924 482.598 350.796 478.832 351.72Z" fill="white" fill-opacity="0.0980392"/>
<path d="M495.57 362.939L468.998 369.462C466.221 370.144 464.64 368.394 465.468 365.554L473.036 340.011C473.865 337.171 476.789 334.316 479.567 333.634L506.138 327.111C508.916 326.429 510.496 328.178 509.668 331.019L502.1 356.562C501.272 359.402 498.347 362.258 495.57 362.939Z" fill="white" fill-opacity="0.239216"/>
<path d="M531.846 34.3104L467.579 50.0876C463.746 51.0281 461.565 48.6146 462.708 44.6974L465.825 34.015C466.969 30.0966 471.002 26.1583 474.835 25.2168L539.102 9.44068C542.935 8.49912 545.116 10.9126 543.973 14.8309L540.856 25.5133C539.712 29.4306 535.679 33.37 531.846 34.3104Z" fill="white" fill-opacity="0.137255"/>
<path d="M526.851 25.0744L462.584 40.8516C458.751 41.7921 456.57 39.3786 457.713 35.4613L460.83 24.7789C461.974 20.8605 466.007 16.9223 469.84 15.9808L534.107 0.203556C537.94 -0.738004 540.121 1.67653 538.978 5.59382L535.861 16.2762C534.718 20.1946 530.684 24.1339 526.851 25.0744Z" fill="white" fill-opacity="0.137255"/>
<path d="M190.44 163.046C153.525 159.429 126.529 126.543 130.142 89.5924C133.755 52.6417 166.609 25.6189 203.523 29.2353C240.437 32.8517 267.433 65.7377 263.82 102.688C260.208 139.639 227.354 166.662 190.44 163.046Z" fill="#FFBB00"/>
<path d="M411.284 435.902C413.434 441.76 438.815 426.677 438.815 426.677L431.328 410.995C431.328 410.995 407.138 424.603 411.284 435.902Z" fill="#063985"/>
<path d="M442.588 407.319C442.588 407.319 452.183 420.579 456.625 424.815C461.067 429.051 478.301 428.622 485.24 426.79C492.179 424.956 506.975 419.686 509.871 424.592C512.766 429.498 487.682 444.988 482.233 448.658C476.784 452.327 471.28 456.802 465.978 460.019C460.676 463.236 457.736 472.395 451.169 465.47C444.602 458.545 444.023 443.479 441.201 440.857C438.379 438.235 418.315 419.399 418.315 419.399C418.315 419.399 436.965 406.817 442.588 407.319Z" fill="#FFBB00"/>
<path d="M465.977 460.02C471.279 456.803 476.783 452.328 482.232 448.659C487.681 444.989 512.764 429.498 509.87 424.593C506.974 419.686 492.178 424.957 485.239 426.791C479.732 428.245 467.745 428.813 460.81 426.868C457.793 432.024 455.877 443.704 451.212 446.404C448.747 447.831 446.502 449.774 444.767 451.494C446.086 456.469 447.874 461.996 451.169 465.471C457.735 472.396 460.676 463.237 465.977 460.02Z" fill="white"/>
<path d="M386.054 365.556C386.054 365.556 373.613 386.138 370.503 392.019C367.393 397.899 360.481 416.578 358.926 424.189C357.371 431.8 361 443.997 355.125 445.854C349.25 447.712 344.93 431.454 344.239 419.173C343.547 406.893 339.4 401.185 338.71 395.131C338.018 389.077 347.177 385.791 352.187 384.408C357.198 383.024 366.755 355.678 366.755 355.678L386.054 365.556Z" fill="#FFBB00"/>
<path d="M344.01 419.28C344.722 431.913 349.166 448.64 355.21 446.729C361.253 444.819 357.52 432.27 359.121 424.441C360.1 419.649 363.143 410.595 366.091 402.902C361.077 398.379 354.688 399.34 351.655 397.216C348.977 395.339 349.05 389.001 350.217 384.1C344.957 385.773 337.694 389.049 338.322 394.547C339.033 400.774 343.299 406.646 344.01 419.28Z" fill="white"/>
<path d="M287.566 212.207C287.566 212.207 295.86 215.205 298.855 224.199C298.855 224.199 357.142 231.703 386.632 234.062C416.121 236.422 445.841 244.493 437.317 280.008C428.793 315.523 396.538 378.25 396.538 378.25L364.745 357.495C364.745 357.495 371.427 346.425 372.349 336.97C373.27 327.515 374.883 319.674 379.26 311.834C383.637 303.992 384.559 291.77 385.711 281.162L296.782 286.236L234.123 238.615L287.566 212.207Z" fill="#0A58CF"/>
<path d="M385.712 281.16L415.893 279.719" stroke="#063985" stroke-width="2.66554"/>
<path d="M393.256 286.291L410.708 293.383" stroke="#063985" stroke-width="2.66554"/>
<path d="M400.802 314.368C392.392 300.992 386.172 297.764 385.167 286.291C384.181 295.526 382.946 305.231 379.261 311.831C374.884 319.673 373.271 327.513 372.349 336.968C371.427 346.423 364.747 357.493 364.747 357.493L396.54 378.248C396.54 378.248 404.527 362.715 413.6 342.735C409.015 334.577 406.547 323.507 400.802 314.368Z" fill="#0848A8"/>
<path d="M359.366 282.663C353.918 279.827 346.414 276.83 341.938 274.703C335.026 271.416 329.843 265.19 319.129 261.903C301.978 256.642 299.777 255.331 286.644 247.893C273.512 240.456 266.37 242.144 266.37 242.144L269.908 265.808L296.781 286.233L359.366 282.663Z" fill="#0848A8"/>
<path d="M207.853 249.797C207.853 249.797 203.575 283.963 234.462 299.032C275.654 319.129 329.031 336.54 329.031 336.54C329.031 336.54 333.414 352.188 346.085 362.336C358.756 372.483 361.29 374.559 366.589 383.091C371.888 391.624 372.349 395.314 383.637 401.309C394.926 407.305 397.691 414.224 411.284 435.901C411.284 435.901 410.823 426.216 445.381 410.072C445.381 410.072 391.931 333.508 376.034 315.521C360.137 297.533 345.162 286.931 318.898 272.514C292.634 258.098 266.37 242.144 266.37 242.144L258.768 228.119L207.853 249.797Z" fill="#0A58CF"/>
<path d="M224.901 266.863C224.901 266.863 232.273 280.008 264.988 294.306C297.703 308.603 337.56 323.132 337.56 323.132C337.56 323.132 350.416 341.12 361.29 351.729C372.164 362.337 378.108 375.713 394.695 389.78C411.283 403.847 423.462 416.596 424.745 421.406" stroke="white" stroke-width="2.66554"/>
<path d="M298.855 224.199C295.86 215.205 287.567 212.207 287.567 212.207L234.123 238.612L207.853 249.798C207.853 249.798 207.647 251.45 207.652 254.187L209.709 257.489C209.709 257.489 221.33 257.119 236.191 252.449C251.05 247.779 257.225 238.683 276.636 237.703C287.042 237.177 298.697 238.209 304.508 233.366C308.146 230.335 313.57 228.049 320.426 226.89C307.787 225.349 298.855 224.199 298.855 224.199Z" fill="#0848A8"/>
<path d="M280.194 180.152C291.253 182.458 304.853 162.709 304.5 147.52C304.32 139.803 277.314 149.308 277.314 149.308C277.314 149.308 270.427 178.114 280.194 180.152Z" fill="#819DC7"/>
<path d="M309.222 120.653L325.464 123.42C325.464 123.42 377.186 79.4888 380.872 75.6828C384.559 71.878 391.931 64.2672 396.078 62.3069C400.225 60.3466 414.278 56.888 417.619 55.8494C420.959 54.8119 417.503 58.0401 415.084 58.8472C412.665 59.6542 407.251 62.1912 407.251 62.1912C407.251 62.1912 408.682 64.3819 408.081 66.5726C408.863 69.4557 408.081 71.6464 408.081 71.6464C408.081 71.6464 408.748 73.7214 406.79 75.7975C404.832 77.8724 399.073 80.4093 395.616 78.911C395.616 78.911 364.053 124.458 353.917 139.101C343.78 153.745 330.763 165.332 305.536 163.2C280.308 161.069 270.172 159.337 270.172 159.337C270.172 159.337 294.708 119.731 309.222 120.653Z" fill="#FF6363"/>
<path d="M301.033 154.864C295.678 144.388 298.214 129.053 304.146 124.217L299.934 124.09C286.141 133.569 270.172 159.338 270.172 159.338C267.204 158.473 280.8 161.038 295.795 162.509C299.938 162.916 302.927 158.573 301.033 154.864Z" fill="#CC3737"/>
<path d="M398.095 63.9508C400.859 63.4315 404.747 64.0368 405.438 65.5936C406.13 67.1504 406.216 73.0313 405.438 73.3763C404.66 73.7225 402.673 71.0412 402.673 67.8417C402.673 67.8417 401.032 73.1173 395.33 72.3389" stroke="#CC3737" stroke-width="2.66554" stroke-linecap="square"/>
<path d="M161.545 135.412C161.545 135.412 209.235 122.014 225.823 116.606C242.41 111.197 257.61 112.963 266.14 116.606C269.135 117.885 271.439 115.348 281.115 118.117C290.791 120.884 301.389 116.272 309.222 120.654C309.222 120.654 294.937 128.033 284.11 151.557C273.282 175.079 280.193 180.153 280.193 180.153L266.14 178.539C266.14 178.539 273.743 181.537 277.198 188.455C280.655 195.373 279.963 199.524 286.414 202.061C292.865 204.598 301.159 207.135 298.855 211.286C296.551 215.437 265.219 229.882 242.41 242.147C219.602 254.412 204.626 261.33 200.48 257.409C196.333 253.489 197.715 250.407 193.108 242.147C188.5 233.887 172.566 207.366 172.566 207.366L168.172 218.064C167.154 220.543 165.081 222.433 162.513 223.19C156.688 224.908 145.641 226.982 135.281 222.354C120.306 215.666 116.619 209.671 115.007 205.289C113.525 201.264 120.536 201.599 121.458 195.373C122.38 189.146 122.149 186.841 126.296 181.767C130.443 176.693 134.13 172.312 136.894 163.549C139.658 154.784 145.879 141.177 161.545 135.412Z" fill="white"/>
<path d="M196.506 314.774C176.366 306.204 166.979 282.914 175.541 262.754C184.102 242.593 207.369 233.197 227.509 241.767C247.65 250.337 257.036 273.627 248.475 293.787C239.914 313.947 216.647 323.343 196.506 314.774Z" fill="#FFBB00"/>
<path d="M194.202 181.304C197.485 166.603 186.772 167.121 184.353 173.866C181.934 180.612 172.566 207.363 172.566 207.363C172.566 207.363 181.996 223.059 188.445 234.061C183.406 214.259 191.223 194.648 194.202 181.304Z" fill="#FFD685"/>
<path d="M246.385 140.14C255.197 147.578 253.544 168.821 266.272 177.123" stroke="#FFD685" stroke-width="2.66554"/>
<path d="M266.142 178.537L266.406 178.649C266.244 178.58 266.142 178.537 266.142 178.537Z" fill="#FFD685"/>
<path d="M266.142 178.537L280.195 180.151C280.195 180.151 277.189 177.938 278.252 169.678C273.701 163.993 270.668 156.521 266.142 152.316C266.006 152.191 265.871 152.068 265.735 151.949C260.639 147.481 252.864 152.441 254.776 158.947C257.025 166.602 259.759 174.373 266.142 178.537Z" fill="#FFD685"/>
<path d="M196.763 273.607C198.701 271.113 208.317 265.338 213.747 262.35" stroke="white" stroke-width="2.66554"/>
<path d="M197.32 292.165C195.819 291.319 195.432 289.332 196.514 287.99C201.916 281.288 216.283 263.489 219.384 259.909C223.223 255.479 227.437 256.312 236.232 258.211C245.027 260.108 246.913 262.869 246.033 265.413C245.153 267.956 240.327 268.923 235.14 269.248C229.953 269.572 227.421 270.796 222.879 276.482C218.338 282.169 206.962 297.607 206.962 297.607L197.32 292.165Z" fill="#0A58CF"/>
<path d="M241.142 268.443C238.278 269.352 233.122 271.606 233.122 271.606L220.373 284.718L216.065 282.499L221.476 271.753C223.367 267.997 227.014 265.442 231.188 264.953C233.268 264.709 235.496 264.448 237.342 264.232C242.351 263.644 244.83 267.274 241.142 268.443Z" fill="#0C2C5E"/>
<path d="M161.89 218.318L151.005 244.435C151.005 244.435 197.486 275.222 203.015 275.568C208.544 275.914 215.974 271.59 224.441 272.108C232.908 272.628 233.426 276.432 231.007 276.605C228.588 276.779 223.405 276.432 222.194 276.605C222.194 276.605 227.205 276.952 226.514 280.065C225.822 283.179 219.43 289.578 215.973 289.751C212.518 289.924 210.271 289.405 206.643 289.751C203.015 290.097 199.385 289.232 198.695 285.773C198.695 285.773 158.089 279.892 132.516 271.763C106.943 263.634 107.634 246.165 111.781 232.156C115.928 218.146 120.075 204.309 120.075 204.309L161.89 218.318Z" fill="#FF6363"/>
<path d="M137.009 232.847C143.955 231.398 150.741 231.235 157.5 228.852L161.89 218.319L120.075 204.309C120.075 204.309 115.928 218.146 111.781 232.156C111.632 232.659 111.489 233.166 111.352 233.676C119.867 239.404 129.481 234.416 137.009 232.847Z" fill="#CC3737"/>
<path d="M151.004 244.435L140.925 238.612" stroke="#CC3737" stroke-width="2.66554"/>
<path d="M169.78 295.833C167.062 295.751 164.967 294.62 163.555 292.468C162.247 290.476 162.228 288.034 163.498 285.211C166.881 277.69 178.345 269.869 188.033 268.472C200.718 266.641 210.921 264.618 218.337 261.143C218.76 260.638 219.115 260.216 219.383 259.908C220.039 259.149 220.71 258.556 221.411 258.085C214.045 262.735 202.665 265.119 187.856 267.255C177.813 268.704 165.906 276.858 162.376 284.706C160.943 287.893 160.994 290.812 162.527 293.143C164.149 295.614 166.644 296.969 169.741 297.063C169.854 297.066 169.968 297.067 170.084 297.067C176.419 297.067 184.899 291.889 190.726 284.521L189.342 284.293C183.654 291.229 175.602 296.032 169.78 295.833Z" fill="white"/>
<path d="M168.737 216.688L121.858 192.485C121.74 193.357 121.615 194.304 121.458 195.372C120.536 201.598 113.525 201.263 115.007 205.289C116.619 209.67 120.306 215.667 135.281 222.353C145.641 226.981 156.688 224.907 162.513 223.189C165.081 222.432 167.153 220.542 168.172 218.064L168.737 216.688Z" fill="white"/>
<path d="M183.953 69.188C186.222 69.3192 188.498 68.8793 190.356 67.5684C192.396 66.1296 193.965 64.4394 197.311 62.6533C202.495 59.886 206.124 63.8639 211.826 61.7889C217.528 59.714 222.885 62.4813 223.921 68.3611C224.958 74.242 218.219 77.7006 213.036 78.2199C207.852 78.7392 208.197 82.0248 201.114 82.7171C194.029 83.4084 190.055 81.6797 187.981 82.7171C187.981 82.7171 188.327 104.683 181.588 108.143C181.588 108.143 180.206 102.089 177.614 97.0732C175.023 92.0578 173.525 89.4624 173.179 82.7171C172.869 76.6951 177.841 68.833 183.953 69.188Z" fill="#020914"/>
<path d="M208.773 77.7593C208.773 77.7593 208.197 86.2917 210.04 93.3259C211.883 100.36 215.022 115.638 204.655 116.099L206.21 122.758C206.21 122.758 224.324 137.489 220.984 142.562C217.643 147.635 202.438 130.685 185.62 128.841L181.587 108.143C181.587 108.143 173.165 110.687 172.602 104.165C171.965 96.7801 179.629 96.209 183.43 99.8981C185.158 92.9797 184.812 81.4494 184.812 81.4494C184.812 81.4494 190.111 79.6049 195.065 80.7582C200.018 81.9103 206.354 80.2962 208.773 77.7593Z" fill="#FF6363"/>
<path d="M204.655 116.099C200.235 116.538 192.949 115.859 188.508 110.651C188.035 110.097 187.159 110.572 187.364 111.269C189.345 118.009 193.366 123.364 206.21 122.757L204.655 116.099Z" fill="#CC3737"/>
<path d="M186.846 89.6191L178.764 95.5805L181.355 100.453C181.355 100.453 185.071 98.1086 189.779 100.794L186.846 89.6191Z" fill="#0A58CF"/>
<path d="M213.137 97.7513L191.336 100.907C189.333 101.197 187.475 99.8064 187.185 97.802L186.352 92.0303C186.062 90.0259 187.451 88.1659 189.453 87.8759L211.254 84.7205C214.849 84.2001 218.186 86.6951 218.704 90.2938C219.224 93.8924 216.732 97.2309 213.137 97.7513Z" fill="#0C2C5E"/>
<path d="M214.421 97.566L198.524 99.867C195.638 100.285 192.961 98.2815 192.544 95.3929L192.173 92.8207C191.756 89.9321 193.757 87.2519 196.643 86.8351L212.54 84.5341C215.426 84.1163 218.103 86.1196 218.52 89.0082L218.891 91.5804C219.308 94.4679 217.307 97.1481 214.421 97.566Z" fill="#0A58CF"/>
<path d="M212.468 91.8705L200.661 93.5795C200.184 93.6489 199.742 93.3171 199.673 92.8397C199.604 92.3623 199.935 91.9201 200.411 91.8507L212.219 90.1418C212.696 90.0723 213.137 90.4042 213.207 90.8816C213.275 91.359 212.945 91.8022 212.468 91.8705Z" fill="#FFBB00"/>
<path d="M183.954 69.1879C183.501 69.1615 183.057 69.1934 182.619 69.253C177.084 74.4602 173.891 84.1151 177.282 96.1238L179.646 95.4546C176.824 85.4579 178.936 73.35 187.071 68.9641C186.057 69.1802 185.005 69.2486 183.954 69.1879Z" fill="#0C2C5E"/>
<path d="M178.614 91.8297C176.704 92.1528 174.618 93.9885 174.618 93.9885L174.818 95.5419C174.022 97.5871 173.767 100.274 174.248 103.115C174.644 105.465 175.484 107.542 176.568 109.137L176.894 111.671C176.894 111.671 181.77 112.386 182.08 112.333C185.448 111.763 187.403 106.711 186.446 101.049C185.489 95.3865 181.982 91.2597 178.614 91.8297Z" fill="#0C2C5E"/>
<path d="M182.206 101.767C183.029 106.633 180.965 111.04 177.597 111.611C174.229 112.183 170.831 108.7 170.008 103.833C169.185 98.9665 171.249 94.5597 174.617 93.9886C177.987 93.4186 181.384 96.9004 182.206 101.767Z" fill="#0A58CF"/>
<path d="M177.713 103.822L173.624 104.514C173.036 104.614 172.479 104.218 172.379 103.629C172.28 103.04 172.676 102.482 173.264 102.383L177.352 101.691C177.941 101.592 178.498 101.987 178.597 102.576C178.696 103.165 178.301 103.723 177.713 103.822Z" fill="#FFBB00"/>
<path d="M242.411 242.145C265.219 229.88 296.551 215.435 298.855 211.284C301.159 207.133 292.866 204.596 286.414 202.059C279.963 199.522 280.655 195.371 277.199 188.453C275.972 185.996 274.221 184.043 272.475 182.533C277.197 188.454 271.753 204.703 259.831 217.749C250.097 228.402 243.707 237.102 241.123 242.831C241.557 242.601 241.972 242.381 242.411 242.145Z" fill="#FFD685"/>
<path d="M492.836 164.609L517.881 78.7676C519.438 73.4336 516.469 70.1491 511.251 71.4292L418.641 94.1633C413.424 95.4445 407.932 100.806 406.376 106.14L381.33 191.982L492.836 164.609Z" fill="white" fill-opacity="0.388235"/>
<path d="M381.331 191.982L365.44 246.447C363.884 251.781 366.852 255.067 372.07 253.785L464.679 231.051C469.897 229.77 475.388 224.409 476.945 219.075L492.835 164.61L381.331 191.982Z" fill="white"/>
<path d="M441.801 103.147L469.731 96.2903C471.148 95.9419 470.672 98.1965 469.193 98.8393L446.024 108.907L441.801 103.147Z" fill="#0A58CF"/>
<path d="M423.646 165.376L451.576 158.519C452.992 158.172 453.86 155.821 452.556 155.862L432.141 156.494L423.646 165.376Z" fill="#0A58CF"/>
<path d="M439.967 117.163L428.075 120.083C426.79 120.398 426.09 119.483 426.511 118.04C426.933 116.595 428.315 115.169 429.601 114.853L441.493 111.934C442.778 111.619 443.478 112.534 443.057 113.977C442.636 115.421 441.253 116.848 439.967 117.163Z" fill="#FFBB00"/>
<path d="M442.2 126.001L430.307 128.92C429.022 129.236 428.323 128.321 428.743 126.877C429.165 125.433 430.548 124.008 431.833 123.691L443.725 120.772C445.011 120.456 445.711 121.371 445.289 122.815C444.869 124.259 443.485 125.686 442.2 126.001Z" fill="#FFBB00"/>
<path d="M430.34 150.165L418.448 153.085C417.162 153.4 415.779 154.827 415.358 156.271C414.936 157.716 415.637 158.63 416.922 158.314L428.814 155.395C430.1 155.079 431.483 153.653 431.904 152.208C432.326 150.765 431.625 149.85 430.34 150.165Z" fill="#FFBB00"/>
<path d="M438.472 138.784L426.579 141.704C425.294 142.019 423.911 143.446 423.49 144.889C423.068 146.333 423.769 147.248 425.054 146.933L436.946 144.013C438.232 143.698 439.615 142.271 440.036 140.827C440.458 139.384 439.757 138.469 438.472 138.784Z" fill="#FFBB00"/>
<path d="M484.198 119.67L439.018 98.5955C438.193 98.2108 437.251 98.8205 437.263 99.7312L437.492 118.193C437.612 127.822 434.319 139.108 428.128 150.287L417.739 169.048C417.096 170.209 418.483 171.43 419.55 170.643L484.506 122.749C485.603 121.939 485.434 120.248 484.198 119.67Z" fill="#0A58CF"/>
<path d="M471.219 124.812C469.553 130.524 464.081 136.165 458.998 137.413C453.914 138.661 451.144 135.043 452.811 129.331C454.477 123.619 459.949 117.977 465.032 116.729C470.117 115.481 472.886 119.099 471.219 124.812Z" fill="white"/>
<path d="M470.495 183.839L393.52 202.735C392.295 203.036 391.626 202.163 392.028 200.785C392.43 199.406 393.75 198.046 394.977 197.745L471.951 178.849C473.177 178.548 473.845 179.421 473.443 180.799C473.04 182.176 471.721 183.538 470.495 183.839Z" fill="#FFBB00"/>
<path d="M434.878 187.949L394.975 197.745C393.749 198.046 392.428 199.406 392.026 200.785C391.624 202.163 392.293 203.036 393.519 202.735L433.422 192.939L434.878 187.949Z" fill="#12B849"/>
<path d="M439.757 189.067C439.008 191.633 436.55 194.168 434.266 194.729C431.982 195.289 430.738 193.664 431.487 191.097C432.236 188.53 434.695 185.995 436.978 185.435C439.261 184.875 440.506 186.501 439.757 189.067Z" fill="#0A58CF"/>
<path d="M465.411 200.915L388.651 219.758C387.366 220.074 386.635 219.264 387.018 217.95L387.085 217.72C387.468 216.405 388.822 215.083 390.107 214.768L466.867 195.925C468.152 195.609 468.884 196.419 468.5 197.733L468.433 197.963C468.05 199.278 466.696 200.598 465.411 200.915Z" fill="#FFBB00"/>
<path d="M453.221 199.274L389.999 214.794C388.773 215.095 387.452 216.457 387.05 217.834C386.648 219.212 387.317 220.086 388.543 219.785L451.765 204.264L453.221 199.274Z" fill="#12B849"/>
<path d="M456.628 200.754C455.879 203.321 453.421 205.855 451.137 206.415C448.854 206.975 447.609 205.35 448.358 202.784C449.107 200.217 451.566 197.682 453.849 197.122C456.132 196.562 457.377 198.187 456.628 200.754Z" fill="#0A58CF"/>
<path d="M460.545 217.938L383.57 236.834C382.344 237.135 381.676 236.262 382.078 234.883C382.48 233.505 383.799 232.145 385.026 231.844L462.001 212.948C463.227 212.647 463.895 213.52 463.493 214.898C463.091 216.275 461.772 217.635 460.545 217.938Z" fill="#FFBB00"/>
<path d="M453.974 214.918L385.026 231.844C383.8 232.145 382.48 233.506 382.078 234.883C381.676 236.262 382.344 237.135 383.57 236.834L452.518 219.908L453.974 214.918Z" fill="#12B849"/>
<path d="M455.79 216.788C455.041 219.354 452.582 221.889 450.299 222.449C448.015 223.009 446.771 221.384 447.519 218.817C448.268 216.252 450.727 213.716 453.01 213.156C455.294 212.596 456.539 214.222 455.79 216.788Z" fill="#0A58CF"/>
<path d="M554.544 208.991L495.85 223.4C489.576 224.94 486.006 220.99 487.877 214.576L512.966 128.585C514.837 122.171 521.441 115.724 527.714 114.183L586.409 99.7743C592.683 98.2341 596.253 102.184 594.381 108.598L569.293 194.59C567.421 201.003 560.818 207.451 554.544 208.991Z" fill="#0A58CF"/>
<path d="M559.305 133.48C557.077 141.117 549.761 148.661 542.964 150.329C536.167 151.997 532.464 147.159 534.692 139.522C536.92 131.884 544.236 124.341 551.033 122.673C557.83 121.005 561.533 125.843 559.305 133.48Z" stroke="white" stroke-width="3.02251"/>
<path d="M556.526 151.207C540.791 153.912 531.915 174.622 517.338 176.009C509.675 176.739 502.208 180.464 496.846 183.833L488.041 214.013C486.08 220.737 489.34 224.997 495.324 223.528L555.069 208.861C561.054 207.392 567.495 200.75 569.456 194.025L588.691 128.098C578.559 136.118 568.192 149.202 556.526 151.207Z" fill="#12B849"/>
<path d="M564.748 158.384L537.553 194.4L506.248 199.107" stroke="white" stroke-width="2.19078"/>
<path d="M564.104 77.8738C557.311 79.5408 547.266 86.4581 543.523 99.286C541.166 107.365 542.7 112.209 544.991 118.815C546.39 122.847 546.337 131.385 546.172 136.275C546.138 137.287 547.497 136.953 548.094 135.803C550.977 130.246 556.282 120.419 560.431 115.025C567.229 106.187 572.044 99.7843 574.401 91.705C578.144 78.8782 570.896 76.2067 564.104 77.8738ZM556.858 102.708C553.178 103.612 551.173 100.992 552.379 96.856C553.585 92.7204 557.547 88.6356 561.228 87.7326C564.908 86.8285 566.913 89.4492 565.707 93.5848C564.5 97.7193 560.538 101.804 556.858 102.708Z" fill="#FF6363"/>
<path d="M570.71 156.921C569.63 160.621 566.086 164.275 562.794 165.084C559.501 165.892 557.707 163.548 558.787 159.848C559.866 156.148 563.41 152.493 566.703 151.685C569.995 150.877 571.789 153.221 570.71 156.921Z" fill="white"/>
<path d="M543.513 192.937C542.434 196.637 538.89 200.292 535.597 201.1C532.305 201.908 530.511 199.564 531.59 195.864C532.67 192.164 536.214 188.509 539.506 187.701C542.8 186.893 544.594 189.237 543.513 192.937Z" fill="white"/>
<path d="M512.21 197.642C511.13 201.343 507.586 204.997 504.294 205.806C501.001 206.614 499.207 204.27 500.287 200.57C501.366 196.87 504.91 193.215 508.203 192.407C511.495 191.6 513.289 193.944 512.21 197.642Z" fill="white"/>
<path d="M454.632 52.6123C451.449 63.5219 440.999 74.2969 431.291 76.6794C421.583 79.0631 416.292 72.1513 419.476 61.2418C422.659 50.3334 433.108 39.5573 442.816 37.1747C452.525 34.7922 457.816 41.7039 454.632 52.6123Z" fill="#FFBB00"/>
<path d="M434.947 64.1515C431.403 65.0214 429.464 62.4889 430.626 58.5066C431.788 54.5231 435.618 50.575 439.162 49.7051C442.707 48.8352 444.644 51.3677 443.482 55.3511C442.32 59.3335 438.492 63.2816 434.947 64.1515ZM438.548 51.8098C436.037 52.4261 433.323 55.2243 432.5 58.0468C431.677 60.8693 433.051 62.6631 435.562 62.0468C438.073 61.4305 440.786 58.6322 441.609 55.8109C442.431 52.9895 441.059 51.1924 438.548 51.8098Z" fill="white"/>
<path d="M434.477 68.8527L432.534 69.329L439.632 45.0028L441.575 44.5254L434.477 68.8527Z" fill="white"/>
<path d="M425.911 60.6764L426.549 58.4934L448.198 53.1792L447.56 55.3622L425.911 60.6764Z" fill="white"/>
<path d="M531.065 52.1867L461.947 69.1546C459.453 69.7665 458.095 67.9914 458.912 65.1899C459.73 62.3884 462.414 59.621 464.908 59.008L534.025 42.0401C536.519 41.4282 537.877 43.2033 537.06 46.0048C536.243 48.8074 533.558 51.5748 531.065 52.1867Z" fill="#12B849"/>
<path d="M565.712 38.9719C564.894 41.7734 562.21 44.5418 559.717 45.1537C557.223 45.7656 555.865 43.9906 556.682 41.189C557.499 38.3875 560.184 35.6202 562.677 35.0072C565.17 34.3953 566.529 36.1703 565.712 38.9719Z" fill="#0A58CF"/>
<path d="M583.299 34.6546C582.482 37.4561 579.797 40.2245 577.304 40.8364C574.81 41.4483 573.451 39.6733 574.269 36.8717C575.087 34.0702 577.771 31.3018 580.264 30.6899C582.758 30.0769 584.116 31.853 583.299 34.6546Z" fill="#0A58CF"/>
<path d="M600.887 30.3369C600.07 33.1385 597.386 35.9069 594.892 36.5188C592.399 37.1307 591.041 35.3556 591.858 32.5541C592.675 29.7526 595.359 26.9841 597.853 26.3722C600.347 25.7592 601.705 27.5354 600.887 30.3369Z" fill="#0A58CF"/>
<path d="M618.475 26.0193C617.658 28.8209 614.974 31.5893 612.48 32.2012C609.987 32.8131 608.628 31.0381 609.446 28.2365C610.263 25.435 612.947 22.6677 615.441 22.0547C617.935 21.4416 619.293 23.2167 618.475 26.0193Z" fill="#0A58CF"/>
<path d="M337.935 272.907L280.199 287.08C274.162 288.562 270.728 284.762 272.529 278.591L294.856 202.063C296.657 195.892 303.01 189.688 309.047 188.207L366.782 174.034C372.819 172.552 376.254 176.352 374.453 182.523L352.126 259.051C350.325 265.222 343.972 271.426 337.935 272.907Z" fill="white" fill-opacity="0.388235"/>
<path d="M298.608 236.369C294.088 232.562 295.856 223.012 302.557 215.039C309.259 207.066 318.356 203.689 322.877 207.496C327.398 211.303 325.63 220.853 318.928 228.826C312.227 236.799 303.129 240.177 298.608 236.369Z" fill="white"/>
<path d="M313.897 211.159C311.705 211.697 310.404 213.157 310.063 214.843C309.722 216.527 309.877 220.105 309.877 220.105L311.396 219.732L312.914 219.36C312.914 219.36 315.341 215.148 316.007 213.383C316.673 211.619 316.089 210.621 313.897 211.159Z" fill="#020914"/>
<path d="M296.502 232.963C297.624 236.878 301.143 238.823 306.187 237.585C311.229 236.346 316.515 232.241 320.271 227.127C320.22 226.162 320.133 225.279 319.987 224.611C319.307 221.502 316.598 222.35 314.805 222.462L310 224.515L305.744 224.686C303.745 225.504 301.151 225.959 298.412 229.908C297.823 230.757 297.167 231.822 296.502 232.963Z" fill="#FFBB00"/>
<path d="M312.601 221.286L313.204 217.881L311.837 218.216L310.471 218.551L309.028 222.162C308.696 222.991 307.958 223.769 307.205 224.081L305.743 224.686C305.828 225.952 307.485 226.709 309.503 226.214C311.522 225.719 313.911 223.967 314.805 222.462L313.498 222.536C312.825 222.573 312.462 222.067 312.601 221.286Z" fill="#FF6363"/>
<path d="M312.758 220.398L313.204 217.881L311.837 218.216L310.47 218.551L309.663 220.573C309.761 221.351 310.148 221.995 310.974 221.792C311.591 221.641 312.225 221.072 312.758 220.398Z" fill="#CC3737"/>
<path d="M315.563 215.309C315.413 214.974 314.419 215.657 314.419 215.657L314.784 213.998L312.935 214.452L311.085 214.907L310.465 216.628C310.465 216.628 309.746 216.364 309.363 216.83C308.708 217.629 308.856 219.028 309.816 218.428C309.567 219.533 309.831 221.135 311.074 220.829C312.316 220.524 313.628 218.535 314.034 217.392C314.767 217.577 315.819 215.883 315.563 215.309Z" fill="#FF6363"/>
<path d="M331.468 228.306C326.947 224.498 328.715 214.948 335.416 206.975C342.118 199.002 351.216 195.625 355.736 199.432C360.257 203.24 358.489 212.789 351.788 220.763C345.086 228.736 335.988 232.113 331.468 228.306Z" fill="white"/>
<path d="M348.645 210.508C349.173 209.136 349.454 208.439 349.325 207.557C349.197 206.675 349.045 206.321 349.217 205.11C349.44 203.553 348.779 202.559 346.769 203.053C344.759 203.547 343.371 205.043 342.65 206.723C342.088 208.029 341.689 208.519 340.986 209.605C340.284 210.691 340.169 211.347 339.918 212.651C339.666 213.955 338.772 215.078 338.772 215.078L343.607 213.891L348.441 212.705C348.441 212.705 348.116 211.879 348.645 210.508Z" fill="#063985"/>
<path d="M345.937 214.25C345.449 214.327 345.175 213.986 345.284 213.438L345.916 210.253L344.571 210.583L343.226 210.912L341.953 214.255C341.734 214.831 341.204 215.368 340.689 215.537L339.131 216.049C339.264 218.501 341.934 219.622 341.934 219.622C341.934 219.622 345.721 216.916 347.415 214.016L345.937 214.25Z" fill="#FF6363"/>
<path d="M345.303 213.347L345.916 210.253L344.571 210.583L343.226 210.912L342.211 213.578C342.569 214.369 343.428 215.269 345.303 213.347Z" fill="#CC3737"/>
<path d="M352.078 219.671C352.43 216.664 351.309 214.434 348.951 213.987C348.457 213.893 347.94 213.887 347.415 214.016L342.465 217.802L339.131 216.049C338.607 216.178 338.006 216.459 337.378 216.827C334.374 218.59 331.678 221.758 330.195 225.042L329.765 225.997C331.198 229.161 334.503 230.634 339.048 229.518C343.592 228.403 348.333 224.955 351.976 220.544L352.078 219.671Z" fill="#063985"/>
<path d="M348.423 207.243C348.273 206.907 347.279 207.591 347.279 207.591C346.384 207.348 346.499 205.777 346.499 205.777C345.143 207.471 343.327 208.562 343.327 208.562C343.327 208.562 342.609 208.298 342.225 208.764C341.57 209.563 341.719 210.962 342.678 210.362C342.429 211.467 342.693 213.069 343.936 212.764C345.178 212.459 346.49 210.47 346.897 209.327C347.627 209.511 348.679 207.817 348.423 207.243Z" fill="#FF6363"/>
<path d="M313.838 255.619C311.32 264.251 303.051 272.777 295.369 274.662C287.688 276.548 283.502 271.079 286.02 262.447C288.538 253.816 296.808 245.29 304.489 243.405C312.171 241.519 316.356 246.988 313.838 255.619Z" fill="white"/>
<path d="M307.828 263.38C308.128 262.018 307.595 261.069 306.497 261.014L302.759 260.827L302.62 259.041L299.898 259.141L296.82 260.465L295.537 262.599L291.104 264.792C289.802 265.436 288.591 266.813 288.082 268.227L286.661 272.172C288.308 274.608 291.354 275.648 295.371 274.661C299.388 273.675 303.558 270.864 306.99 267.18L307.828 263.38Z" fill="#063985"/>
<path d="M296.805 266.515L295.568 263.063L296.045 262.891L296.972 265.475L298.583 263.406L299.145 264.941L302.008 261.249L302.409 261.561L298.983 265.98L298.421 264.441L296.805 266.515Z" fill="#0A58CF"/>
<path d="M295.124 274.71C295.208 274.691 295.285 274.683 295.369 274.663C295.452 274.642 295.537 274.61 295.621 274.588L298.223 265.667L297.727 265.789L295.124 274.71Z" fill="#0A58CF"/>
<path d="M305.379 249.303C306.134 248.367 305.568 247.331 304.516 248.128C304.395 247.002 303.069 248.271 303.069 248.271C303.069 248.271 302.336 247.507 301.489 248.871C300.776 248.507 299.472 250.002 299.755 250.683C298.948 250.805 298.421 252.228 299.064 252.28C298.937 253.099 298.585 254.803 298.585 254.803L300.993 255.386L304.14 253.439C304.14 253.439 304.804 251.658 305.172 250.779C305.947 250.38 306.233 249.016 305.379 249.303Z" fill="#063985"/>
<path d="M301.077 260.894L298.775 262.99L297.436 261.787L299.621 255.638L302.42 254.95L301.077 260.894Z" fill="#FF6363"/>
<path d="M301.426 259.349L302.42 254.95L299.621 255.637L298.331 259.268C298.808 260.344 299.978 260.421 301.426 259.349Z" fill="#CC3737"/>
<path d="M304.746 252.387C304.596 252.052 303.601 252.735 303.601 252.735L303.968 251.076L302.119 251.53L300.268 251.984L299.648 253.705C299.648 253.705 298.93 253.442 298.547 253.908C297.891 254.707 298.04 256.106 298.999 255.506C298.75 256.611 299.015 258.213 300.257 257.907C301.5 257.602 302.811 255.613 303.218 254.469C303.95 254.655 305.001 252.961 304.746 252.387Z" fill="#FF6363"/>
<path d="M346.696 247.554C344.178 256.185 335.908 264.711 328.227 266.596C320.545 268.482 316.36 263.013 318.878 254.382C321.397 245.75 329.665 237.224 337.347 235.339C345.028 233.453 349.215 238.922 346.696 247.554Z" fill="white"/>
<path d="M338.107 249.661C338.211 248.562 338.481 247.918 338.539 247.066C338.599 246.214 338.214 245.673 338.485 244.653C338.756 243.633 338.952 242.776 338.541 242.329C338.129 241.881 338.22 239.807 335.877 240.383C333.533 240.958 332.335 243.303 331.578 244.037C330.821 244.772 330.51 245.657 330.181 246.691C329.852 247.725 329.069 248.553 328.602 249.506C328.135 250.459 328.04 251.06 327.47 252.273C326.899 253.487 325.524 255.981 325.524 255.981L331.774 254.446L338.024 252.912C338.024 252.912 338.003 250.761 338.107 249.661Z" fill="#FFD685"/>
<path d="M339.793 251.063C338.854 250.901 336.478 251.16 335.186 251.323C334.673 251.388 334.389 251.028 334.49 250.449L335.05 247.229L333.788 247.539L332.525 247.849L331.147 251.269C330.9 251.883 330.347 252.449 329.795 252.646C328.406 253.141 325.826 254.098 324.641 254.782C323.158 255.637 322.371 257.188 322.371 257.188C322.371 257.188 325.617 257.604 331.255 256.22C336.893 254.836 340.902 252.639 340.902 252.639C340.902 252.639 340.967 251.266 339.793 251.063Z" fill="#FF6363"/>
<path d="M334.517 250.293L335.049 247.229L333.787 247.539L332.525 247.849L331.538 250.299C331.933 251.747 333.103 251.775 334.517 250.293Z" fill="#CC3737"/>
<path d="M342.31 256.142C341.828 254.906 341.784 253.476 341.957 252.699C342.201 251.599 341.646 251.389 339.958 252.063C338.271 252.738 331.538 255.257 331.538 255.257C331.538 255.257 325.349 255.91 323.824 256.023C322.3 256.138 321.527 256.674 321.116 257.815C320.826 258.621 319.877 260.296 318.544 261.977C319.666 265.891 323.185 267.835 328.228 266.598C333.269 265.358 338.554 261.254 342.31 256.142Z" fill="#FFBB00"/>
<path d="M337.603 244.321C337.453 243.985 336.459 244.669 336.459 244.669C335.564 244.426 335.678 242.855 335.678 242.855C334.322 244.549 332.506 245.64 332.506 245.64C332.506 245.64 331.787 245.376 331.404 245.843C330.749 246.641 330.897 248.04 331.857 247.44C331.608 248.545 331.872 250.147 333.115 249.841C334.357 249.537 335.669 247.547 336.075 246.404C336.808 246.589 337.859 244.896 337.603 244.321Z" fill="#FF6363"/>
<path d="M355.211 183.181L316.654 192.647C313.074 193.525 311.038 191.272 312.105 187.612L312.292 186.97C313.36 183.31 317.128 179.631 320.707 178.753L359.264 169.287C362.844 168.409 364.881 170.662 363.813 174.322L363.626 174.964C362.558 178.625 358.791 182.303 355.211 183.181Z" fill="#12B849"/>
<path d="M532.908 38.1483L468.641 53.9255C464.808 54.8659 462.628 52.4525 463.771 48.5352L466.888 37.8528C468.031 33.9344 472.065 29.9962 475.898 29.0546L540.165 13.2774C543.998 12.337 546.179 14.7504 545.035 18.6677L541.918 29.3501C540.775 33.2685 536.74 37.2078 532.908 38.1483Z" stroke="white" stroke-width="2.18935"/>
<path d="M482.863 37.8276C482.234 39.9819 480.371 41.6986 478.063 42.2653L476.867 42.5585L476.2 44.8463L473.406 45.532L476.122 36.2223L480.111 35.2432C482.42 34.6765 483.492 35.6732 482.863 37.8276ZM480.047 38.5189C480.245 37.8408 479.997 37.5189 479.228 37.7074L478.21 37.9577L477.573 40.1385L478.592 39.8882C479.362 39.6997 479.849 39.1969 480.047 38.5189Z" fill="white"/>
<path d="M487.173 33.5102L489.966 32.8245L487.961 39.7009L491.701 38.7825L490.991 41.2169L484.458 42.8211L487.173 33.5102Z" fill="white"/>
<path d="M500.368 37.4076L497.219 38.1805L496.189 39.9401L493.349 40.6369L499.686 30.4385L502.432 29.7649L503.338 38.186L500.45 38.8949L500.368 37.4076ZM500.259 35.3349L500.137 33.1915L498.649 35.7296L500.259 35.3349Z" fill="white"/>
<path d="M511.539 33.0349L510.554 36.413L507.76 37.0988L508.757 33.681L507.351 28.5564L510.298 27.8332L511.053 30.6358L513.695 26.9986L516.393 26.3359L511.539 33.0349Z" fill="white"/>
<path d="M535.348 24.9035L527.645 21.0722C527.075 20.7888 526.388 21.0898 526.209 21.7006L522.612 34.0291C522.337 34.9729 523.421 35.7237 524.206 35.1327L535.507 26.6355C536.116 26.1791 536.029 25.2419 535.348 24.9035Z" fill="white"/>
<path d="M541.384 234.503L464.41 253.399C463.184 253.7 462.516 252.827 462.918 251.449C463.32 250.071 464.639 248.71 465.866 248.409L542.84 229.513C544.066 229.212 544.735 230.085 544.333 231.463C543.931 232.84 542.61 234.202 541.384 234.503Z" fill="#0A58CF"/>
<path d="M505.769 238.613L465.866 248.409C464.64 248.71 463.32 250.072 462.918 251.449C462.516 252.827 463.184 253.7 464.41 253.399L504.313 243.603L505.769 238.613Z" fill="#7DAEFA"/>
<path d="M510.649 239.732C509.9 242.299 507.441 244.834 505.158 245.394C502.874 245.955 501.63 244.329 502.379 241.762C503.128 239.195 505.586 236.661 507.87 236.101C510.152 235.539 511.397 237.166 510.649 239.732Z" fill="white"/>
<path d="M536.302 251.579L459.543 270.422C458.258 270.738 457.526 269.928 457.91 268.614L457.977 268.384C458.36 267.069 459.714 265.748 460.999 265.432L537.759 246.589C539.044 246.274 539.775 247.083 539.392 248.397L539.325 248.627C538.942 249.942 537.588 251.264 536.302 251.579Z" fill="#0A58CF"/>
<path d="M524.112 249.938L460.891 265.459C459.665 265.76 458.344 267.121 457.942 268.498C457.54 269.877 458.209 270.75 459.435 270.449L522.656 254.929L524.112 249.938Z" fill="#7DAEFA"/>
<path d="M527.52 251.418C526.771 253.985 524.312 256.52 522.029 257.08C519.746 257.641 518.501 256.015 519.25 253.448C519.999 250.881 522.457 248.346 524.741 247.786C527.024 247.226 528.269 248.853 527.52 251.418Z" fill="white"/>
<path d="M531.434 268.602L454.46 287.498C453.234 287.799 452.565 286.926 452.967 285.548C453.369 284.17 454.689 282.809 455.916 282.508L532.89 263.612C534.116 263.311 534.785 264.184 534.383 265.562C533.981 266.94 532.661 268.301 531.434 268.602Z" fill="#0A58CF"/>
<path d="M524.864 265.583L455.916 282.509C454.69 282.81 453.369 284.171 452.967 285.548C452.565 286.926 453.234 287.8 454.46 287.499L523.408 270.573L524.864 265.583Z" fill="#7DAEFA"/>
<path d="M526.68 267.453C525.931 270.02 523.472 272.555 521.189 273.115C518.904 273.675 517.661 272.05 518.409 269.483C519.158 266.917 521.616 264.382 523.899 263.822C526.184 263.261 527.428 264.887 526.68 267.453Z" fill="white"/>
<path d="M560.959 57.0553C560.141 59.8569 557.457 62.6253 554.964 63.2372C552.47 63.8491 551.112 62.0741 551.929 59.2725C552.746 56.471 555.431 53.7026 557.924 53.0907C560.417 52.4787 561.776 54.2538 560.959 57.0553Z" fill="white" fill-opacity="0.2"/>
<path d="M578.547 52.7377C577.729 55.5392 575.045 58.3077 572.551 58.9196C570.058 59.5315 568.7 57.7564 569.517 54.9549C570.334 52.1534 573.018 49.386 575.512 48.773C578.006 48.1611 579.364 49.9362 578.547 52.7377Z" fill="white" fill-opacity="0.2"/>
<path d="M596.135 48.4203C595.317 51.2219 592.633 53.9903 590.139 54.6022C587.646 55.2141 586.288 53.4391 587.105 50.6375C587.922 47.836 590.606 45.0686 593.1 44.4556C595.594 43.8437 596.952 45.6188 596.135 48.4203Z" fill="white" fill-opacity="0.2"/>
<path d="M613.721 44.103C612.904 46.9045 610.22 49.6729 607.726 50.2848C605.233 50.8967 603.875 49.1217 604.692 46.3201C605.509 43.5186 608.193 40.7502 610.687 40.1383C613.181 39.5264 614.539 41.3014 613.721 44.103Z" fill="white" fill-opacity="0.2"/>
<path d="M288.434 353.818H278.661V344.035H274.944V353.818H265.172V357.539H274.944V367.322H278.661V357.539H288.434V353.818Z" fill="#FFBB00"/>
<path d="M550.912 303.166H541.14V293.383H537.422V303.166H527.649V306.887H537.422V316.668H541.14V306.887H550.912V303.166Z" fill="#FFBB00"/>
<path d="M277.772 18.6675H267.999V8.88477H264.282V18.6675H254.51V22.3885H264.282V32.1702H267.999V22.3885H277.772V18.6675Z" fill="#FFBB00"/>
<defs>
<linearGradient id="paint0_linear_180_1298" x1="300" y1="1" x2="300" y2="499.607" gradientUnits="userSpaceOnUse">
<stop stop-color="#0A58CF"/>
<stop offset="1" stop-color="#FFBB00"/>
</linearGradient>
</defs>
</svg>
