<svg width="600" height="499" viewBox="0 0 600 499" fill="none" xmlns="http://www.w3.org/2000/svg">
<g clip-path="url(#clip0_178_166)">
<path d="M0 0.937256H600V390.744C600 390.744 556.654 347.56 522.807 341.498C454.537 329.269 445.213 450.184 376.607 459.411C332.46 465.349 308.777 425.366 264.912 433.748C221.924 441.963 210.457 503.982 167.252 497.56C125.059 491.287 127.291 443.412 86.5498 410.859C56.3016 386.691 0 369.243 0 369.243V0.937256Z" fill="url(#paint0_linear_178_166)"/>
<path d="M0 0H600V389.806C600 389.806 556.654 346.623 522.807 340.56C454.537 328.332 445.213 449.247 376.607 458.473C332.46 464.412 308.777 424.429 264.912 432.81C221.924 441.026 210.457 503.045 167.252 496.623C125.059 490.35 127.291 442.475 86.5498 409.921C56.3016 385.753 0 368.306 0 368.306V0Z" fill="url(#paint1_linear_178_166)"/>
<path d="M299.656 401.695C393.103 401.695 468.858 351.742 468.858 290.122C468.858 228.502 393.103 178.55 299.656 178.55C206.208 178.55 130.454 228.502 130.454 290.122C130.454 351.742 206.208 401.695 299.656 401.695Z" fill="#F5F5F5"/>
<path d="M430.728 310.203L386.318 280.943C386.127 280.869 385.961 280.728 385.843 280.541C385.725 280.353 385.662 280.129 385.662 279.898C385.662 279.667 385.725 279.443 385.843 279.255C385.961 279.068 386.127 278.927 386.318 278.853L414.866 260.06C415.357 259.775 415.9 259.627 416.451 259.627C417.001 259.627 417.544 259.775 418.035 260.06L462.439 289.32C462.63 289.394 462.796 289.534 462.913 289.722C463.031 289.909 463.094 290.134 463.094 290.365C463.094 290.595 463.031 290.82 462.913 291.008C462.796 291.195 462.63 291.336 462.439 291.41L433.891 310.211C433.4 310.493 432.858 310.639 432.309 310.637C431.759 310.636 431.218 310.487 430.728 310.203Z" fill="#E0E0E0"/>
<path d="M238.41 365.872C279.617 365.872 313.022 343.845 313.022 316.674C313.022 289.502 279.617 267.475 238.41 267.475C197.202 267.475 163.797 289.502 163.797 316.674C163.797 343.845 197.202 365.872 238.41 365.872Z" fill="#E0E0E0"/>
<path d="M308.843 338.761C335.682 338.761 357.44 324.414 357.44 306.717C357.44 289.02 335.682 274.673 308.843 274.673C282.003 274.673 260.245 289.02 260.245 306.717C260.245 324.414 282.003 338.761 308.843 338.761Z" fill="#E0E0E0"/>
<path d="M164.222 274.974L164.822 264.106C164.822 264.106 164.259 250.22 152.21 237.412C144.89 229.629 138.836 233.818 137.321 238.056C135.806 242.295 137.065 248.724 144.18 254.734C155.321 264.139 164.676 279.029 165.891 289.587L164.222 274.974Z" fill="#37474F"/>
<path d="M163.848 271.906C163.749 271.917 163.65 271.889 163.568 271.826C163.485 271.764 163.424 271.671 163.394 271.563C157.911 250.83 142.166 238.391 141.968 238.265C141.923 238.228 141.884 238.181 141.855 238.126C141.826 238.071 141.807 238.01 141.8 237.947C141.792 237.883 141.796 237.818 141.811 237.757C141.826 237.695 141.852 237.638 141.888 237.588C141.95 237.482 142.047 237.409 142.157 237.384C142.266 237.359 142.38 237.384 142.473 237.454C142.635 237.58 158.658 250.203 164.229 271.27C164.259 271.392 164.247 271.523 164.195 271.635C164.143 271.747 164.056 271.832 163.95 271.872L163.848 271.906Z" fill="white"/>
<path d="M164.705 275.333C164.634 274.146 164.249 273.012 163.599 272.081C162.428 270.535 160.379 270.033 159.39 268.319C158.999 267.467 158.685 266.57 158.453 265.644C157.72 263.649 156.352 262.045 154.625 261.155C152.897 260.296 150.993 260.006 149.128 260.319C147.715 260.52 146.346 261.013 144.933 261.238C140.3 261.999 136.01 257.142 131.399 260.402C128.632 262.375 128.822 265.82 130.359 268.704C131.163 270.171 132.172 271.479 133.346 272.575C134.59 273.778 135.901 274.506 136.032 276.596C136.12 278.117 135.703 279.63 135.718 281.16C135.77 282.416 136.059 283.643 136.564 284.76C137.069 285.877 137.779 286.856 138.646 287.631C140.395 289.166 142.454 290.175 144.633 290.565C146.236 290.916 148.081 291.192 148.967 292.756C149.337 293.611 149.584 294.528 149.699 295.473C150.083 296.985 150.744 298.386 151.639 299.584C152.534 300.782 153.642 301.748 154.889 302.42C157.405 303.739 160.194 304.226 162.941 303.824C165.306 303.64 167.574 302.676 169.47 301.049C172.603 298.123 170.802 292.597 168.738 289.52C167.838 288.166 166.725 287.012 165.898 285.6C164.244 282.799 164.514 280.375 164.668 277.173C164.725 276.562 164.737 275.947 164.705 275.333Z" fill="#455A64"/>
<path d="M167.149 295.932C167.079 295.948 167.005 295.938 166.939 295.904C166.874 295.869 166.819 295.812 166.783 295.74C155.577 272.7 137.599 266.263 137.416 266.196C137.328 266.165 137.254 266.096 137.21 266.004C137.167 265.912 137.156 265.804 137.181 265.703C137.21 265.602 137.272 265.518 137.354 265.468C137.436 265.418 137.531 265.406 137.621 265.435C137.804 265.502 156.045 272.04 167.391 295.356C167.413 295.401 167.427 295.45 167.433 295.501C167.438 295.553 167.434 295.605 167.422 295.654C167.41 295.704 167.389 295.75 167.361 295.791C167.333 295.832 167.299 295.865 167.259 295.891C167.227 295.916 167.189 295.93 167.149 295.932Z" fill="white"/>
<path d="M156.463 280.09H156.382C151.456 279.856 144.004 282.113 143.938 282.138C143.894 282.153 143.847 282.158 143.802 282.152C143.756 282.145 143.712 282.128 143.672 282.102C143.632 282.075 143.597 282.039 143.57 281.997C143.543 281.954 143.524 281.906 143.514 281.854C143.501 281.804 143.498 281.752 143.504 281.701C143.509 281.649 143.524 281.599 143.546 281.554C143.568 281.509 143.598 281.47 143.634 281.438C143.67 281.406 143.711 281.383 143.755 281.369C144.063 281.277 151.39 279.054 156.419 279.296C156.51 279.288 156.6 279.322 156.67 279.39C156.739 279.459 156.782 279.555 156.788 279.66C156.795 279.764 156.766 279.867 156.706 279.946C156.646 280.025 156.561 280.074 156.47 280.082L156.463 280.09Z" fill="white"/>
<path d="M152.868 276.27C152.777 276.28 152.687 276.25 152.615 276.186C152.542 276.122 152.494 276.03 152.48 275.927C152.194 273.083 152.26 270.206 152.678 267.383C152.695 267.281 152.748 267.192 152.823 267.134C152.898 267.076 152.991 267.054 153.08 267.074C153.125 267.083 153.168 267.102 153.206 267.13C153.244 267.158 153.277 267.195 153.303 267.237C153.329 267.28 153.347 267.328 153.357 267.379C153.366 267.43 153.367 267.482 153.358 267.534C152.962 270.275 152.9 273.066 153.175 275.827C153.186 275.932 153.159 276.038 153.101 276.121C153.044 276.204 152.96 276.257 152.868 276.27Z" fill="white"/>
<path opacity="0.3" d="M453.896 114.32L318.542 25.0769C316.507 23.7393 314.882 24.8261 314.882 27.5096V149.933C314.948 151.392 315.314 152.813 315.95 154.081C316.586 155.349 317.474 156.428 318.542 157.232L453.896 246.475C455.931 247.812 457.556 246.726 457.556 244.042V121.618C457.489 120.159 457.123 118.739 456.488 117.471C455.852 116.203 454.964 115.124 453.896 114.32Z" fill="#2D147A"/>
<path opacity="0.5" d="M453.896 114.32L318.542 25.0769C316.507 23.7393 314.882 24.8261 314.882 27.5096V149.933C314.948 151.392 315.314 152.813 315.95 154.081C316.586 155.349 317.474 156.428 318.542 157.232L453.896 246.475C455.931 247.812 457.556 246.726 457.556 244.042V121.618C457.489 120.159 457.123 118.739 456.488 117.471C455.852 116.203 454.964 115.124 453.896 114.32Z" fill="white"/>
<path opacity="0.3" d="M454.613 223.426V207.743L445.69 201.891V213.662L442.74 211.672V192.059L436.789 188.139V195.98L433.817 194.016V209.699L427.851 205.82V194.016L424.879 192.059V188.139L421.9 186.174V182.253L418.928 180.297V184.218L415.956 182.253V186.174L412.984 184.218V188.139L407.033 184.218V172.455L398.118 166.603V186.174L395.16 184.218V172.455L389.209 168.526V180.297L386.237 178.332V174.412L380.293 170.491V162.649L374.342 158.728V162.649L371.356 160.676V172.464L368.384 170.499V154.824L365.412 152.859V148.939L362.433 146.982V143.062L359.461 141.097V145.018L356.489 143.062V146.982L353.517 145.018V164.605L350.545 162.649V154.824L341.724 148.972V152.96L335.671 148.972V141.13L332.691 139.174V135.253L329.719 133.289V129.368L326.748 127.412V131.324L323.776 129.368V133.289L320.804 131.324V139.174L314.853 135.245V149.984C314.919 151.443 315.285 152.863 315.921 154.131C316.557 155.399 317.444 156.478 318.513 157.282L453.896 246.475C455.931 247.812 457.556 246.726 457.556 244.042V225.391L454.613 223.426Z" fill="#2D147A"/>
<g opacity="0.3">
<path d="M316.895 25.3441C317.349 25.3699 317.79 25.5282 318.176 25.8039L453.53 115.038C454.49 115.769 455.289 116.743 455.865 117.884C456.442 119.025 456.78 120.303 456.853 121.618V244.042C456.853 244.694 456.721 246.207 455.543 246.207C455.089 246.181 454.648 246.023 454.262 245.747L318.908 156.496C317.946 155.767 317.146 154.794 316.569 153.652C315.993 152.51 315.656 151.232 315.585 149.916V27.5093C315.585 26.8572 315.716 25.3441 316.895 25.3441ZM316.895 24.5081C315.687 24.5081 314.853 25.6032 314.853 27.5093V149.933C314.919 151.392 315.285 152.813 315.921 154.081C316.557 155.348 317.444 156.428 318.513 157.231L453.896 246.474C454.393 246.823 454.96 247.019 455.543 247.043C456.751 247.043 457.585 245.948 457.585 244.042V121.618C457.519 120.159 457.153 118.738 456.517 117.47C455.881 116.203 454.993 115.123 453.925 114.32L318.542 25.0765C318.045 24.728 317.478 24.5322 316.895 24.5081Z" fill="#2D147A"/>
</g>
<path opacity="0.5" d="M353.905 88.4039L412.589 127.102C416.095 129.41 418.928 135.019 418.928 139.642V158.21C418.928 162.825 416.095 164.697 412.589 162.39L353.905 123.691C350.406 121.384 347.565 115.775 347.565 111.151V92.5839C347.58 87.9441 350.406 86.0965 353.905 88.4039Z" fill="white"/>
<g opacity="0.5">
<path d="M415.422 163.803C414.353 163.759 413.313 163.396 412.406 162.749L353.721 124.059C350.127 121.685 347.199 115.9 347.199 111.151V92.5839C347.199 90.1929 347.931 88.4039 349.241 87.5679C350.552 86.7319 352.279 86.8824 354.087 88.0778L412.772 126.768C416.373 129.142 419.294 134.927 419.294 139.676V158.243C419.294 160.634 418.562 162.423 417.259 163.259C416.699 163.622 416.065 163.809 415.422 163.803ZM351.079 87.827C350.565 87.8185 350.06 87.9688 349.615 88.2618C348.539 88.9724 347.939 90.5022 347.939 92.5839V111.151C347.939 115.632 350.698 121.091 354.095 123.332L412.779 162.03C414.353 163.067 415.817 163.243 416.9 162.532C417.984 161.821 418.569 160.283 418.569 158.21V139.642C418.569 135.161 415.81 129.702 412.413 127.462L353.721 88.7801C352.928 88.205 352.017 87.8765 351.079 87.827Z" fill="#2D147A"/>
</g>
<g opacity="0.5">
<path d="M363.253 103.611C363.856 104.018 364.402 104.528 364.87 105.124C365.35 105.734 365.774 106.398 366.137 107.105C366.48 107.769 366.759 108.472 366.971 109.204C367.155 109.793 367.264 110.41 367.293 111.034C367.298 111.091 367.293 111.148 367.276 111.201C367.26 111.255 367.233 111.303 367.198 111.344C367.171 111.372 367.136 111.388 367.099 111.388C367.063 111.388 367.028 111.372 367.001 111.344L365.2 110.165C365.085 110.082 364.981 109.981 364.892 109.864C364.804 109.719 364.724 109.568 364.651 109.413C364.651 109.346 364.585 109.237 364.526 109.087C364.453 108.906 364.367 108.733 364.27 108.568C364.148 108.361 364.011 108.165 363.86 107.983C363.681 107.772 363.477 107.592 363.253 107.448C363.093 107.345 362.926 107.256 362.755 107.18C362.62 107.12 362.475 107.091 362.33 107.097C362.271 107.1 362.213 107.117 362.16 107.147C362.107 107.177 362.06 107.22 362.023 107.272C361.934 107.428 361.892 107.614 361.906 107.799C361.907 108.036 361.952 108.269 362.038 108.485C362.153 108.752 362.301 109 362.477 109.22C362.733 109.551 363.007 109.864 363.297 110.157L364.556 111.452C365.033 111.935 365.476 112.461 365.881 113.024C366.249 113.539 366.566 114.1 366.825 114.696C367.075 115.276 367.265 115.888 367.389 116.519C367.516 117.205 367.578 117.906 367.572 118.609C367.595 119.29 367.488 119.969 367.257 120.598C367.079 121.061 366.766 121.44 366.371 121.668C365.948 121.882 365.477 121.938 365.024 121.827C364.426 121.691 363.854 121.437 363.333 121.075C362.7 120.657 362.125 120.133 361.628 119.52C361.125 118.9 360.681 118.222 360.303 117.497C359.944 116.808 359.652 116.076 359.432 115.315C359.233 114.663 359.122 113.981 359.102 113.292C359.098 113.235 359.103 113.177 359.118 113.123C359.133 113.068 359.158 113.017 359.19 112.974C359.217 112.946 359.252 112.93 359.289 112.93C359.326 112.93 359.361 112.946 359.388 112.974L361.188 114.161C361.305 114.231 361.407 114.328 361.489 114.445C361.573 114.567 361.647 114.699 361.708 114.838L361.877 115.265C361.961 115.484 362.059 115.696 362.169 115.9C362.302 116.156 362.459 116.394 362.638 116.611C362.84 116.859 363.075 117.07 363.333 117.238C363.7 117.51 364.115 117.687 364.548 117.756C364.87 117.789 365.031 117.564 365.031 117.079C365.029 116.826 364.969 116.578 364.856 116.36C364.707 116.058 364.528 115.778 364.321 115.524C364.08 115.231 363.78 114.897 363.406 114.521C363.033 114.144 362.601 113.685 362.096 113.175C361.215 112.303 360.509 111.225 360.025 110.015C359.576 108.833 359.354 107.556 359.373 106.269C359.361 105.654 359.451 105.041 359.637 104.463C359.785 103.997 360.056 103.594 360.413 103.31C360.778 103.044 361.211 102.926 361.642 102.975C362.214 103.047 362.764 103.264 363.253 103.611Z" fill="#4103FF"/>
<path d="M376.926 112.874C377.044 112.96 377.136 113.085 377.19 113.233C377.26 113.4 377.297 113.583 377.299 113.768V116.368C377.305 116.437 377.298 116.507 377.279 116.573C377.261 116.639 377.23 116.701 377.19 116.753C377.153 116.79 377.107 116.81 377.058 116.81C377.009 116.81 376.962 116.79 376.926 116.753L374.511 115.156V127.537C374.516 127.608 374.51 127.679 374.491 127.746C374.472 127.814 374.441 127.876 374.401 127.93C374.364 127.965 374.317 127.985 374.269 127.985C374.221 127.985 374.174 127.965 374.137 127.93L372.344 126.743C372.226 126.657 372.134 126.531 372.08 126.383C372.01 126.216 371.973 126.034 371.971 125.848V113.467L369.555 111.87C369.437 111.784 369.345 111.659 369.291 111.511C369.221 111.344 369.184 111.161 369.182 110.976V108.418C369.176 108.348 369.183 108.279 369.202 108.213C369.221 108.146 369.251 108.085 369.291 108.033C369.328 107.996 369.375 107.976 369.423 107.976C369.472 107.976 369.519 107.996 369.555 108.033L376.926 112.874Z" fill="#4407FF"/>
<path d="M383.683 117.321C383.867 117.45 384.012 117.639 384.1 117.865C384.186 118.076 384.253 118.297 384.298 118.525L387.291 135.713C387.32 135.842 387.337 135.973 387.343 136.106C387.347 136.163 387.342 136.22 387.326 136.275C387.311 136.329 387.287 136.38 387.255 136.424C387.225 136.453 387.188 136.469 387.149 136.469C387.11 136.469 387.072 136.453 387.043 136.424L385.315 135.278C385.144 135.179 385.008 135.017 384.927 134.819C384.854 134.665 384.805 134.498 384.781 134.325L384.393 132.068L380.733 129.66L380.352 131.408C380.332 131.525 380.281 131.633 380.206 131.717C380.132 131.801 380.001 131.784 379.818 131.659L378.097 130.58C377.999 130.507 377.923 130.403 377.878 130.279C377.821 130.146 377.791 130.001 377.79 129.853C377.796 129.741 377.816 129.632 377.849 129.527L380.842 116.293C380.874 116.141 380.943 116.002 381.04 115.892C381.135 115.775 381.274 115.783 381.457 115.892L383.683 117.321ZM381.487 126.408L383.683 127.871L382.57 121.384L381.487 126.408Z" fill="#3F00FF"/>
<path d="M393.58 123.892C394.168 124.282 394.711 124.754 395.198 125.297C395.673 125.835 396.082 126.445 396.413 127.111C396.757 127.811 397.016 128.562 397.181 129.343C397.368 130.204 397.459 131.089 397.452 131.976C397.496 132.91 397.351 133.842 397.028 134.702C396.917 134.974 396.749 135.209 396.538 135.388C396.327 135.566 396.08 135.681 395.82 135.722L397.518 142.593C397.545 142.688 397.56 142.787 397.562 142.886C397.567 142.942 397.562 142.998 397.547 143.051C397.532 143.105 397.507 143.154 397.474 143.195C397.444 143.225 397.405 143.242 397.364 143.242C397.324 143.242 397.285 143.225 397.254 143.195L395.388 141.966C395.217 141.86 395.08 141.693 395 141.49C394.925 141.312 394.864 141.128 394.817 140.938L393.294 134.76L392.028 133.924V139.091C392.034 139.16 392.027 139.23 392.008 139.296C391.989 139.362 391.959 139.423 391.918 139.475C391.882 139.512 391.835 139.533 391.786 139.533C391.738 139.533 391.691 139.512 391.655 139.475L389.861 138.288C389.744 138.197 389.653 138.069 389.598 137.92C389.527 137.756 389.489 137.576 389.488 137.394V121.802C389.483 121.733 389.49 121.663 389.509 121.597C389.528 121.531 389.558 121.47 389.598 121.418C389.635 121.382 389.681 121.363 389.73 121.363C389.778 121.363 389.824 121.382 389.861 121.418L393.58 123.892ZM392.028 130.187L393.58 131.207C393.715 131.32 393.87 131.4 394.034 131.441C394.197 131.483 394.367 131.486 394.531 131.45C394.788 131.358 394.912 130.973 394.912 130.296C394.939 129.707 394.806 129.123 394.531 128.624C394.287 128.207 393.962 127.86 393.58 127.612L392.028 126.584V130.187Z" fill="#3E00FF"/>
<path d="M407.033 132.72C407.148 132.812 407.237 132.94 407.289 133.088C407.362 133.252 407.402 133.431 407.407 133.615V136.181C407.411 136.251 407.403 136.321 407.382 136.387C407.362 136.453 407.331 136.514 407.289 136.566C407.254 136.601 407.208 136.62 407.161 136.62C407.114 136.62 407.069 136.601 407.033 136.566L404.618 134.977V147.359C404.623 147.428 404.616 147.498 404.597 147.564C404.578 147.63 404.548 147.691 404.508 147.743C404.472 147.78 404.425 147.801 404.376 147.801C404.327 147.801 404.281 147.78 404.244 147.743L402.48 146.598C402.366 146.506 402.277 146.378 402.224 146.23C402.153 146.066 402.116 145.886 402.114 145.703V133.314L399.699 131.725C399.581 131.635 399.49 131.507 399.435 131.358C399.364 131.194 399.327 131.014 399.325 130.831V128.273C399.319 128.202 399.326 128.131 399.345 128.064C399.364 127.996 399.395 127.934 399.435 127.88C399.472 127.844 399.519 127.825 399.567 127.825C399.615 127.825 399.662 127.844 399.699 127.88L407.033 132.72Z" fill="#3600F4" fill-opacity="0.99"/>
</g>
<path opacity="0.3" d="M328.241 38.896C329.539 39.8646 330.619 41.1685 331.393 42.7022C332.167 44.2359 332.615 45.9563 332.699 47.7241C332.699 50.9678 330.701 52.2887 328.241 50.6585C326.942 49.6937 325.861 48.3918 325.086 46.859C324.311 45.3263 323.865 43.606 323.783 41.8387C323.783 38.6201 325.774 37.2741 328.241 38.896Z" fill="#2D147A"/>
<path d="M330.818 45.5255C330.817 44.9499 330.713 44.3807 330.51 43.8535C330.328 43.298 330.001 42.8196 329.573 42.4824C328.929 42.0477 328.395 42.9255 328.307 43.9622C328.234 42.8168 327.707 41.2284 327.063 40.7937C326.92 40.6808 326.746 40.6297 326.573 40.6496C326.4 40.6695 326.239 40.7591 326.118 40.9024C325.886 41.2643 325.772 41.7082 325.796 42.1564C325.796 43.912 326.711 45.5004 327.48 47.1724L328.3 48.928L329.12 48.2676C329.888 47.6238 330.818 47.2811 330.818 45.5255Z" fill="#FAFAFA"/>
<path opacity="0.3" d="M341.622 47.7241C342.927 48.6857 344.014 49.9859 344.795 51.5186C345.576 53.0514 346.029 54.7733 346.116 56.5439C346.116 59.7959 344.118 61.1084 341.659 59.4866C340.36 58.519 339.28 57.2153 338.505 55.6814C337.731 54.1475 337.284 52.4266 337.201 50.6584C337.164 47.4148 339.155 46.0939 341.622 47.7241Z" fill="#2D147A"/>
<path d="M344.139 54.3703C344.132 53.7947 344.025 53.2265 343.825 52.6983C343.64 52.1394 343.311 51.6582 342.88 51.3189C342.244 50.8925 341.702 51.7703 341.621 52.807C341.541 51.6616 341.014 50.0649 340.377 49.6385C340.233 49.5233 340.058 49.4709 339.883 49.4908C339.709 49.5108 339.546 49.6018 339.425 49.7472C339.191 50.1085 339.077 50.5528 339.103 51.0012C339.103 52.7568 340.018 54.3452 340.787 56.0172L341.599 57.7728L342.456 57.0956C343.188 56.4686 344.132 56.1175 344.139 54.3703Z" fill="#FAFAFA"/>
<path opacity="0.3" d="M355.002 56.5438C356.3 57.5119 357.38 58.8157 358.155 60.3495C358.929 61.8833 359.377 63.604 359.46 65.372C359.46 68.624 357.462 69.9366 355.002 68.3147C353.7 67.3556 352.615 66.0593 351.834 64.5312C351.053 63.0031 350.599 61.2863 350.508 59.52C350.508 56.2345 352.535 54.922 355.002 56.5438Z" fill="#2D147A"/>
<path d="M357.521 63.1901C357.515 62.6144 357.408 62.0458 357.206 61.5181C357.019 60.9634 356.69 60.4858 356.262 60.1471C355.618 59.7124 355.083 60.5902 355.003 61.6268C354.922 60.4815 354.395 58.8931 353.751 58.4584C353.608 58.3454 353.434 58.2944 353.261 58.3143C353.088 58.3342 352.927 58.4238 352.807 58.5671C352.571 58.9279 352.455 59.3718 352.477 59.8211C352.477 61.5767 353.392 63.1651 354.168 64.8371L354.981 66.5927L355.801 65.9322C356.584 65.2885 357.514 64.9457 357.521 63.1901Z" fill="#FAFAFA"/>
<path d="M368.076 66.3335L430.457 107.465C431.361 108.112 432.119 108.994 432.67 110.038C433.22 111.082 433.548 112.26 433.626 113.476C433.626 115.641 432.206 116.46 430.457 115.306L368.076 74.1752C367.172 73.5276 366.413 72.6461 365.863 71.6019C365.312 70.5576 364.984 69.38 364.906 68.1643C364.928 65.9991 366.348 65.1798 368.076 66.3335Z" fill="#FAFAFA"/>
<path opacity="0.5" d="M366.686 69.3096C366.724 69.9177 366.887 70.507 367.162 71.0298C367.436 71.5526 367.815 71.9943 368.267 72.3192L430.933 113.693C431.804 114.27 432.514 113.86 432.514 112.773C432.475 112.167 432.311 111.579 432.036 111.058C431.762 110.536 431.384 110.096 430.933 109.772L368.267 68.3984C367.396 67.8215 366.686 68.2312 366.686 69.3096Z" fill="#2D147A"/>
<g opacity="0.3">
<path d="M436.885 114.103C436.868 114.02 436.868 113.934 436.885 113.852C436.883 113.82 436.889 113.789 436.902 113.761C436.915 113.733 436.934 113.709 436.958 113.693L438.371 112.715L438.502 112.631C438.53 112.616 438.56 112.608 438.59 112.608C438.621 112.608 438.651 112.616 438.678 112.631L439.476 113.158C439.534 113.199 439.578 113.261 439.6 113.333C439.636 113.414 439.656 113.502 439.659 113.593V121.075C439.661 121.108 439.657 121.142 439.647 121.174C439.637 121.206 439.621 121.235 439.6 121.259C439.6 121.301 439.527 121.301 439.476 121.259L438.612 120.69C438.557 120.647 438.513 120.586 438.488 120.515C438.457 120.436 438.44 120.35 438.437 120.264V115.198L437.653 115.724C437.619 115.758 437.575 115.758 437.522 115.724C437.467 115.674 437.427 115.608 437.404 115.532L436.885 114.103Z" fill="#2D147A"/>
<path d="M442.843 115.298C443.169 115.515 443.456 115.798 443.692 116.134C443.932 116.458 444.131 116.818 444.285 117.204C444.44 117.601 444.558 118.016 444.637 118.441C444.709 118.866 444.753 119.297 444.768 119.729C444.768 120.063 444.768 120.414 444.768 120.782C444.768 121.15 444.768 121.476 444.768 121.794C444.758 122.166 444.714 122.536 444.637 122.897C444.577 123.186 444.457 123.453 444.285 123.675C444.129 123.857 443.916 123.962 443.692 123.967C443.39 123.954 443.096 123.847 442.843 123.658C442.519 123.439 442.232 123.156 441.994 122.822C441.759 122.496 441.562 122.136 441.408 121.752C441.247 121.358 441.129 120.942 441.057 120.515C440.979 120.091 440.932 119.66 440.918 119.227C440.918 118.91 440.918 118.567 440.918 118.199C440.918 117.831 440.918 117.488 440.918 117.162C440.927 116.79 440.974 116.419 441.057 116.059C441.112 115.769 441.233 115.5 441.408 115.281C441.563 115.1 441.773 114.995 441.994 114.989C442.297 114.997 442.592 115.104 442.843 115.298ZM443.575 120.908C443.575 120.256 443.575 119.612 443.575 118.96C443.575 118.759 443.575 118.567 443.531 118.391C443.504 118.221 443.465 118.053 443.414 117.89C443.362 117.739 443.291 117.598 443.202 117.472C443.11 117.342 442.998 117.231 442.872 117.146C442.776 117.07 442.66 117.032 442.543 117.037C442.501 117.042 442.46 117.057 442.423 117.081C442.387 117.106 442.355 117.139 442.331 117.179C442.274 117.284 442.234 117.4 442.214 117.522C442.19 117.688 442.176 117.855 442.17 118.023C442.17 118.65 442.17 119.303 442.17 119.971C442.172 120.159 442.187 120.346 442.214 120.531C442.232 120.704 442.271 120.873 442.331 121.033C442.381 121.187 442.453 121.331 442.543 121.459C442.635 121.589 442.747 121.7 442.872 121.785C442.969 121.861 443.085 121.899 443.202 121.894C443.244 121.89 443.285 121.875 443.322 121.851C443.359 121.826 443.39 121.792 443.414 121.752C443.478 121.65 443.52 121.533 443.539 121.409C443.553 121.243 443.555 121.075 443.546 120.908H443.575Z" fill="#2D147A"/>
<path d="M449.599 122.471C449.601 122.678 449.586 122.885 449.556 123.09C449.534 123.269 449.489 123.443 449.424 123.608C449.36 123.764 449.277 123.908 449.175 124.034C449.064 124.165 448.935 124.275 448.794 124.36L447.872 124.979L449.526 126.074C449.582 126.117 449.625 126.179 449.651 126.25C449.685 126.327 449.702 126.413 449.702 126.5V127.729C449.705 127.762 449.702 127.796 449.694 127.828C449.685 127.859 449.67 127.889 449.651 127.913C449.643 127.923 449.633 127.93 449.622 127.935C449.611 127.94 449.6 127.943 449.588 127.943C449.577 127.943 449.565 127.94 449.555 127.935C449.544 127.93 449.534 127.923 449.526 127.913L446.049 125.623C445.992 125.582 445.948 125.52 445.925 125.447C445.888 125.37 445.868 125.284 445.866 125.196V124.193C445.866 124.077 445.881 123.961 445.91 123.85C445.921 123.806 445.939 123.764 445.964 123.728C445.989 123.692 446.021 123.663 446.057 123.641L448.026 122.463C448.161 122.391 448.266 122.262 448.318 122.103C448.356 121.959 448.376 121.81 448.377 121.66C448.377 121.602 448.377 121.526 448.377 121.418C448.361 121.304 448.337 121.192 448.304 121.083C448.258 120.958 448.201 120.837 448.135 120.724C448.055 120.6 447.953 120.498 447.835 120.423C447.794 120.387 447.747 120.361 447.696 120.346C447.646 120.332 447.594 120.33 447.543 120.339C447.471 120.355 447.406 120.4 447.36 120.465C447.319 120.533 447.289 120.61 447.272 120.69C447.272 120.774 447.235 120.832 447.228 120.874C447.22 120.916 447.169 121.016 447.125 121.025C447.068 121.022 447.012 121.002 446.964 120.966L446.152 120.439C446.107 120.4 446.071 120.348 446.049 120.289C446.021 120.227 446.006 120.158 446.005 120.088C446.009 119.786 446.048 119.485 446.122 119.194C446.189 118.948 446.307 118.724 446.466 118.542C446.62 118.379 446.821 118.287 447.03 118.283C447.317 118.288 447.596 118.387 447.835 118.567C448.125 118.762 448.385 119.011 448.604 119.303C448.822 119.597 449.008 119.92 449.16 120.264C449.305 120.615 449.418 120.982 449.497 121.359C449.566 121.724 449.601 122.097 449.599 122.471Z" fill="#2D147A"/>
<path d="M451.934 127.102L452.037 127.395C452.075 127.5 452.121 127.601 452.176 127.696C452.228 127.803 452.292 127.901 452.366 127.989C452.44 128.087 452.53 128.169 452.63 128.231C452.708 128.293 452.799 128.33 452.893 128.34C452.964 128.369 453.042 128.369 453.113 128.34C453.184 128.293 453.238 128.219 453.267 128.131C453.312 128.004 453.332 127.866 453.325 127.729C453.325 127.463 453.265 127.201 453.15 126.969C453.04 126.734 452.875 126.54 452.674 126.409C452.621 126.369 452.561 126.343 452.498 126.333H452.344H452.22C452.187 126.347 452.151 126.347 452.117 126.333L451.093 125.656C451.036 125.608 450.991 125.545 450.961 125.472C450.925 125.395 450.91 125.308 450.917 125.221L451.115 121.217C451.112 121.151 451.13 121.086 451.166 121.033C451.174 121.024 451.184 121.016 451.194 121.011C451.205 121.006 451.216 121.004 451.228 121.004C451.24 121.004 451.251 121.006 451.262 121.011C451.272 121.016 451.282 121.024 451.29 121.033L454.108 122.889C454.164 122.932 454.208 122.993 454.233 123.065C454.267 123.142 454.285 123.228 454.284 123.315V124.544C454.287 124.577 454.285 124.611 454.276 124.643C454.267 124.674 454.252 124.703 454.233 124.728C454.225 124.738 454.215 124.745 454.204 124.75C454.194 124.755 454.182 124.758 454.171 124.758C454.159 124.758 454.148 124.755 454.137 124.75C454.126 124.745 454.117 124.738 454.108 124.728L452.191 123.457L452.147 124.461C452.236 124.439 452.328 124.439 452.418 124.461C452.54 124.485 452.656 124.536 452.762 124.611C453.034 124.784 453.281 125.004 453.494 125.263C453.716 125.536 453.908 125.839 454.065 126.166C454.229 126.515 454.354 126.885 454.438 127.27C454.53 127.682 454.576 128.106 454.577 128.532C454.588 128.916 454.536 129.299 454.423 129.661C454.351 129.916 454.207 130.137 454.013 130.288C453.835 130.424 453.618 130.477 453.406 130.438C453.146 130.392 452.897 130.286 452.674 130.129C452.376 129.932 452.105 129.687 451.869 129.401C451.637 129.116 451.438 128.799 451.276 128.457C451.118 128.131 450.993 127.786 450.902 127.428C450.816 127.1 450.769 126.76 450.763 126.417C450.76 126.361 450.773 126.305 450.8 126.258C450.816 126.245 450.835 126.238 450.855 126.238C450.874 126.238 450.894 126.245 450.91 126.258L451.744 126.81C451.81 126.856 451.865 126.919 451.905 126.994C451.916 127.03 451.926 127.066 451.934 127.102Z" fill="#2D147A"/>
</g>
<path d="M295.425 297.454C295.366 297.312 291.348 289.345 291.348 289.345C291.348 289.345 292.211 289.93 296.252 287.33C297.762 286.279 299.17 285.048 300.454 283.66L303.133 289.554C304.838 291.627 308.418 289.37 312.495 287.572C313.176 287.271 313.871 286.92 314.567 286.561H314.611C316.843 285.725 319.478 286.611 317.626 289.529C315.774 292.446 312.078 294.436 308.659 296.217C304.546 298.407 297.313 302.11 295.425 297.454Z" fill="#B16668"/>
<path d="M325.408 287.698C325.903 288.426 326.219 289.292 326.323 290.206C326.454 291.184 325.129 295.046 321.931 298.114C318.732 301.182 314.237 302.671 312.283 303.966C310.328 305.262 308.703 307.26 306.368 308.698C304.033 310.136 301.654 311.206 298.726 310.103C298.082 309.425 297.138 307.712 297.262 307.486C297.533 306.976 325.408 287.698 325.408 287.698Z" fill="#263238"/>
<path d="M303.982 290.197C305.878 290.983 309.003 289.111 312.495 287.572C315.782 286.118 319.288 283.618 321.806 283.844C324.324 284.07 326.93 286.594 324.734 291.493C324.09 292.915 322.648 295.506 321.264 296.585C317.758 299.318 314.31 300.48 311.983 301.927C308.952 303.808 307.554 305.973 304.663 307.269C300.9 308.941 298.184 308.531 297.247 307.553C296.31 306.575 293.5 297.212 295.205 296.919C295.205 296.919 296.611 299.795 302.262 294.904C304.728 292.764 304.245 290.858 303.982 290.197Z" fill="#BA68C8"/>
<path opacity="0.4" d="M303.982 290.197C305.878 290.983 309.003 289.111 312.495 287.572C315.782 286.118 319.288 283.618 321.806 283.844C324.324 284.07 326.93 286.594 324.734 291.493C324.09 292.915 322.648 295.506 321.264 296.585C317.758 299.318 314.31 300.48 311.983 301.927C308.952 303.808 307.554 305.973 304.663 307.269C300.9 308.941 298.184 308.531 297.247 307.553C296.31 306.575 293.5 297.212 295.205 296.919C295.205 296.919 296.611 299.795 302.262 294.904C304.728 292.764 304.245 290.858 303.982 290.197Z" fill="black"/>
<path d="M315.906 292.104C315.906 292.104 314.618 288.191 311.771 287.924C311.509 287.871 311.24 287.903 310.994 288.017C310.748 288.131 310.535 288.322 310.38 288.567C310.38 288.567 312.891 288.25 314.772 292.747C314.772 292.747 314.97 293.015 315.467 292.747C315.636 292.63 316.002 292.43 315.906 292.104Z" fill="#FAFAFA"/>
<path d="M308.235 289.52C308.235 289.52 308.198 289.387 308.784 289.069C309.009 288.934 309.267 288.893 309.516 288.952C309.516 288.952 311.712 289.328 313.007 293.433C313.028 293.609 312.995 293.789 312.914 293.941C312.833 294.093 312.708 294.209 312.561 294.269C312.498 294.317 312.427 294.35 312.352 294.366C312.277 294.381 312.2 294.379 312.126 294.36C312.052 294.34 311.982 294.303 311.921 294.252C311.86 294.2 311.809 294.135 311.77 294.06C311.77 294.06 310.358 289.746 308.235 289.52Z" fill="#FAFAFA"/>
<path d="M306.163 290.256C306.163 290.256 306.214 289.963 306.675 289.838C307.254 289.662 307.444 289.838 307.444 289.838C307.444 289.838 309.201 291.042 310.021 294.561C310.021 294.561 310.211 295.138 309.501 295.397C308.791 295.656 308.769 294.971 308.769 294.971C308.769 294.971 307.459 290.599 306.163 290.256Z" fill="#FAFAFA"/>
<path d="M279.401 239.929C285.074 249.885 302.093 284.897 302.093 284.897C302.093 284.897 297.898 292.154 291.362 291.368L266.474 248.866L279.401 239.929Z" fill="#37474F"/>
<path d="M319.244 312.059C318.395 311.097 314.566 303.933 314.566 303.933C314.566 303.933 317.436 305.02 321.652 302.804C323.797 301.676 325.407 298.399 325.407 298.399L328.606 305.396C330.165 307.62 333.635 305.964 337.822 304.56C338.554 304.326 339.242 304.042 339.959 303.724H340.003C342.295 303.114 344.849 304.234 342.8 306.959C340.75 309.685 336.944 311.34 333.379 312.811C329.133 314.609 322.443 315.67 319.244 312.059Z" fill="#B16668"/>
<path d="M352.301 304.226C352.781 305.067 353.051 306.04 353.084 307.043C353.158 308.105 351.445 312.101 347.777 315.069C344.11 318.036 339.198 319.173 337.002 320.402C334.806 321.631 332.925 323.571 330.312 324.875C327.699 326.179 325.071 327.124 322.018 325.61C321.382 324.825 320.511 322.893 320.642 322.659C320.994 322.024 352.301 304.226 352.301 304.226Z" fill="#263238"/>
<path d="M329.206 304.685C329.502 304.833 329.805 304.962 330.114 305.07C330.421 305.133 330.736 305.133 331.044 305.07C331.785 304.997 332.52 304.852 333.24 304.635C335.018 304.117 336.753 303.398 338.517 302.804C342.177 301.575 346.094 299.251 348.765 299.745C351.437 300.238 354.314 303.089 351.576 308.155C350.527 310.107 349.189 311.838 347.623 313.271C343.839 316.189 339.491 316.807 336.885 318.12C333.503 319.834 331.842 322.007 328.628 323.136C324.478 324.549 321.601 323.838 320.671 322.693C320.152 322.057 319.939 318.17 318.871 315.344C317.963 312.92 317.78 311.164 318.6 311.097C318.829 311.385 319.09 311.638 319.376 311.85C319.698 312.143 320.069 312.359 320.466 312.485C321.02 312.637 321.587 312.719 322.157 312.728C323.171 312.844 324.195 312.771 325.188 312.51C325.467 312.442 325.723 312.279 325.92 312.042C326.132 311.671 326.225 311.228 326.183 310.788C326.183 310.404 326.183 310.011 326.183 309.626C326.173 309.414 326.198 309.201 326.256 308.999C326.356 308.774 326.502 308.579 326.681 308.431C327.254 307.971 327.721 307.36 328.042 306.65C328.216 306.058 328.273 305.43 328.211 304.811C328.2 304.703 328.22 304.594 328.269 304.501C328.372 304.368 328.562 304.418 328.709 304.501C328.855 304.585 329.038 304.602 329.206 304.685Z" fill="#BA68C8"/>
<path opacity="0.4" d="M329.206 304.685C329.502 304.833 329.805 304.962 330.114 305.07C330.421 305.133 330.736 305.133 331.044 305.07C331.785 304.997 332.52 304.852 333.24 304.635C335.018 304.117 336.753 303.398 338.517 302.804C342.177 301.575 346.094 299.251 348.765 299.745C351.437 300.238 354.314 303.089 351.576 308.155C350.527 310.107 349.189 311.838 347.623 313.271C343.839 316.189 339.491 316.807 336.885 318.12C333.503 319.834 331.842 322.007 328.628 323.136C324.478 324.549 321.601 323.838 320.671 322.693C320.152 322.057 319.939 318.17 318.871 315.344C317.963 312.92 317.78 311.164 318.6 311.097C318.829 311.385 319.09 311.638 319.376 311.85C319.698 312.143 320.069 312.359 320.466 312.485C321.02 312.637 321.587 312.719 322.157 312.728C323.171 312.844 324.195 312.771 325.188 312.51C325.467 312.442 325.723 312.279 325.92 312.042C326.132 311.671 326.225 311.228 326.183 310.788C326.183 310.404 326.183 310.011 326.183 309.626C326.173 309.414 326.198 309.201 326.256 308.999C326.356 308.774 326.502 308.579 326.681 308.431C327.254 307.971 327.721 307.36 328.042 306.65C328.216 306.058 328.273 305.43 328.211 304.811C328.2 304.703 328.22 304.594 328.269 304.501C328.372 304.368 328.562 304.418 328.709 304.501C328.855 304.585 329.038 304.602 329.206 304.685Z" fill="black"/>
<path d="M341.79 307.996C341.79 307.996 340.721 303.674 337.691 303.08C337.415 303 337.125 303.009 336.853 303.106C336.582 303.204 336.339 303.386 336.153 303.632C336.153 303.632 338.869 303.54 340.545 308.531C340.545 308.531 340.728 308.84 341.277 308.606C341.46 308.531 341.878 308.355 341.79 307.996Z" fill="#FAFAFA"/>
<path d="M333.781 304.468C333.781 304.468 333.781 304.326 334.403 304.05C334.656 303.928 334.937 303.907 335.201 303.991C335.201 303.991 337.485 304.61 338.59 309.133C338.596 309.322 338.546 309.507 338.447 309.659C338.349 309.811 338.209 309.92 338.049 309.969C337.977 310.013 337.898 310.041 337.817 310.05C337.736 310.059 337.653 310.049 337.576 310.021C337.498 309.993 337.426 309.947 337.363 309.886C337.301 309.826 337.251 309.751 337.214 309.668C337.214 309.668 336.036 304.911 333.781 304.468Z" fill="#FAFAFA"/>
<path d="M331.513 305.011C331.513 305.011 331.593 304.71 332.091 304.618C332.721 304.493 332.911 304.744 332.911 304.744C332.911 304.744 334.697 306.207 335.304 310.052C335.304 310.052 335.466 310.688 334.682 310.888C333.899 311.089 333.899 310.362 333.899 310.362C333.899 310.362 332.874 305.538 331.513 305.011Z" fill="#FAFAFA"/>
<path d="M306.815 254.233C310.914 262.543 321.089 287.422 326.337 299.77C323.7 303.445 319.947 305.851 315.826 306.508L288.288 263.261L296.486 255.378L306.815 254.233Z" fill="#455A64"/>
<path d="M212.979 245.68C212.979 245.68 246.227 234.219 252.01 232.413C257.793 230.607 268.392 228.183 271.635 229.847C274.877 231.51 276.707 234.428 278.684 237.989C280.733 241.684 282.241 245.053 282.241 245.053C282.241 245.053 260.472 251.85 247.296 251.85C234.12 251.85 212.979 245.68 212.979 245.68Z" fill="#37474F"/>
<path d="M215.308 230.75C213.222 238.884 210.506 253.38 220.102 263.964C223.843 268.094 245.298 281.227 258.474 276.612C273.194 271.454 290.77 261.514 290.77 261.514C290.77 261.514 299.656 262.108 302.547 260.202C305.439 258.296 307.196 255.144 306.815 254.233C302.225 243.365 298.404 237.713 288.471 238.85C276.32 240.238 256.073 244.452 256.073 244.452L215.308 230.75Z" fill="#455A64"/>
<path d="M264.768 171.845C258.473 165.55 249.638 168.417 244.726 173.876C237.201 182.236 232.736 192.854 234.39 198.12C236.315 204.148 264.768 171.845 264.768 171.845Z" fill="#455A64"/>
<path d="M339.14 208.671C339.271 207.626 338.532 206.439 337.039 205.569L319.617 195.395C316.95 194.045 313.952 193.808 311.148 194.726L295.22 200.996C293.829 201.548 293.068 202.317 293.024 203.069C292.987 203.621 292.731 205.761 292.716 206.372C292.702 206.982 293.046 207.433 293.785 207.86C295.571 208.905 299.575 209.248 302.723 208.629L306.763 207.843C309.911 207.224 313.908 207.567 315.686 208.595C316.766 209.194 317.63 210.201 318.131 211.446L317.194 215.15C316.971 215.823 316.971 216.566 317.194 217.24L316.902 218.41C316.543 219.806 316.426 221.269 319.471 222.807C320.428 223.356 321.492 223.618 322.562 223.569C323.632 223.521 324.674 223.164 325.59 222.532L337.939 213.336C338.176 213.185 338.38 212.977 338.537 212.725C338.694 212.473 338.8 212.185 338.847 211.881C338.905 211.338 339.074 209.206 339.14 208.671Z" fill="#455A64"/>
<path d="M318.937 213.938L318.995 204.29L313.739 202.718L313.264 207.801C314.1 207.932 314.916 208.2 315.687 208.595C316.766 209.194 317.63 210.201 318.131 211.446L317.751 212.943L318.937 213.938Z" fill="#263238"/>
<path d="M338.174 206.43C339.762 208.102 339.879 208.595 339.44 215.183C339.001 221.771 337.691 221.946 336.212 220.818C334.733 219.689 333.73 216.554 331.915 217.833L338.174 206.43Z" fill="#455A64"/>
<path d="M294.092 204.599C295.878 205.644 299.882 205.987 303.03 205.368L307.071 204.583C310.218 203.964 314.215 204.307 315.994 205.335C317.772 206.363 318.922 208.345 318.563 209.741L317.194 215.15C316.836 216.546 316.718 218.009 319.764 219.547C320.721 220.094 321.784 220.356 322.854 220.308C323.924 220.26 324.966 219.903 325.883 219.271L338.232 210.117C339.835 208.93 339.301 206.89 337.039 205.569L319.617 195.395C316.95 194.045 313.952 193.808 311.148 194.726L295.22 200.996C292.804 201.949 292.299 203.563 294.092 204.599Z" fill="#BA68C8"/>
<path opacity="0.2" d="M294.092 204.599C295.878 205.644 299.882 205.987 303.03 205.368L307.071 204.583C310.218 203.964 314.215 204.307 315.994 205.335C317.772 206.363 318.922 208.345 318.563 209.741L317.194 215.15C316.836 216.546 316.718 218.009 319.764 219.547C320.721 220.094 321.784 220.356 322.854 220.308C323.924 220.26 324.966 219.903 325.883 219.271L338.232 210.117C339.835 208.93 339.301 206.89 337.039 205.569L319.617 195.395C316.95 194.045 313.952 193.808 311.148 194.726L295.22 200.996C292.804 201.949 292.299 203.563 294.092 204.599Z" fill="black"/>
<path d="M332.8 205.519C332.786 205.41 332.746 205.307 332.686 205.22C332.625 205.134 332.546 205.067 332.456 205.026C332.149 204.862 331.816 204.769 331.476 204.753C331.137 204.737 330.798 204.799 330.48 204.934C330.173 205.076 330.019 205.268 330.004 205.477C329.99 205.686 329.938 206.121 329.931 206.263C329.924 206.405 330.041 206.639 330.275 206.79C330.896 207.119 331.607 207.156 332.251 206.89C332.544 206.756 332.705 206.564 332.727 206.363C332.749 206.163 332.808 205.678 332.8 205.519Z" fill="#263238"/>
<path d="M328.591 207.492C328.58 207.378 328.542 207.27 328.482 207.179C328.421 207.087 328.34 207.017 328.247 206.974C327.939 206.809 327.606 206.717 327.267 206.701C326.928 206.685 326.589 206.747 326.271 206.882C325.978 207.015 325.817 207.208 325.802 207.4C325.788 207.592 325.729 208.077 325.722 208.236C325.733 208.35 325.771 208.458 325.831 208.549C325.892 208.64 325.973 208.711 326.066 208.754C326.687 209.084 327.397 209.12 328.042 208.855C328.335 208.721 328.496 208.529 328.518 208.336C328.54 208.144 328.591 207.651 328.591 207.492Z" fill="#37474F"/>
<path d="M328.848 205.36C328.848 205.176 328.738 204.984 328.504 204.833C327.883 204.504 327.172 204.468 326.528 204.733C326.235 204.867 326.074 205.059 326.052 205.26C326.03 205.46 325.993 205.92 325.979 206.054C325.964 206.188 326.081 206.439 326.323 206.597C326.63 206.762 326.964 206.854 327.303 206.87C327.642 206.886 327.981 206.824 328.299 206.689C328.599 206.556 328.76 206.355 328.775 206.154C328.79 205.954 328.841 205.502 328.848 205.36Z" fill="#263238"/>
<path d="M332.537 207.718C332.537 207.534 332.435 207.341 332.193 207.191C331.887 207.025 331.556 206.931 331.218 206.914C330.879 206.897 330.542 206.957 330.224 207.091C329.931 207.224 329.77 207.417 329.748 207.609C329.726 207.801 329.69 208.269 329.675 208.445C329.66 208.621 329.77 208.83 330.019 208.997C330.641 209.325 331.352 209.358 331.996 209.089C332.288 208.955 332.442 208.763 332.464 208.57C332.486 208.378 332.537 207.86 332.537 207.718Z" fill="#37474F"/>
<path d="M330.48 204.934C329.894 205.201 329.843 205.686 330.348 206.012C330.969 206.342 331.68 206.378 332.324 206.113C332.91 205.837 332.961 205.352 332.456 205.026C332.148 204.862 331.815 204.769 331.476 204.753C331.137 204.737 330.798 204.799 330.48 204.934Z" fill="#455A64"/>
<path d="M326.271 206.898C325.693 207.166 325.634 207.651 326.139 207.977C326.761 208.307 327.471 208.343 328.116 208.077C328.701 207.801 328.76 207.316 328.248 206.99C327.94 206.826 327.607 206.734 327.267 206.718C326.928 206.702 326.59 206.763 326.271 206.898Z" fill="#455A64"/>
<path d="M326.528 204.733C325.942 205.009 325.883 205.486 326.396 205.812C326.703 205.977 327.036 206.071 327.375 206.088C327.715 206.106 328.053 206.046 328.372 205.912C328.951 205.644 329.009 205.159 328.504 204.833C327.883 204.504 327.172 204.468 326.528 204.733Z" fill="#455A64"/>
<path d="M330.224 207.091C329.638 207.358 329.58 207.843 330.092 208.169C330.714 208.499 331.424 208.535 332.069 208.269C332.647 207.994 332.705 207.517 332.193 207.191C331.887 207.025 331.555 206.931 331.217 206.914C330.879 206.897 330.541 206.957 330.224 207.091Z" fill="#455A64"/>
<path d="M316.946 196.724L315.094 195.545L312.993 196.524L311.141 195.345L309.033 196.331L308.952 197.226L310.029 197.911L308.784 198.488L308.696 199.383L310.548 200.561L312.649 199.575L314.501 200.754L316.602 199.776L316.69 198.881L315.614 198.196L316.858 197.61L316.946 196.724Z" fill="#37474F"/>
<path d="M315.093 195.545L312.992 196.524L311.14 195.345L309.032 196.331L310.884 197.51L308.783 198.488L310.628 199.667L312.736 198.689L314.581 199.868L316.689 198.881L314.837 197.702L316.945 196.724L315.093 195.545Z" fill="#455A64"/>
<path d="M312.737 198.689L312.649 199.575L310.548 200.561L310.628 199.667L312.737 198.689Z" fill="#263238"/>
<path d="M314.837 197.702L315.613 198.196L316.857 197.61L316.945 196.724L314.837 197.702Z" fill="#263238"/>
<path d="M316.69 198.881L316.602 199.776L314.501 200.754L314.582 199.868L316.69 198.881Z" fill="#263238"/>
<path d="M310.884 197.51L309.032 196.331L308.944 197.268L310.028 197.911L310.884 197.51Z" fill="#263238"/>
<path d="M295.059 194.81C299.451 193.673 302.064 194.551 305.804 194.375C307.012 194.325 308.037 193.581 308.63 193.706C309.764 193.957 309.677 195.303 308.945 196.214C308.213 197.126 307.371 197.987 304.128 198.564C301.361 199.065 301.251 198.706 298.008 199.851L294.458 201.757L293.214 198.271L295.059 194.81Z" fill="#B16668"/>
<path d="M302.927 194.375C300.594 193.231 298.019 192.894 295.519 193.405C291.94 194.375 293.221 198.564 293.221 198.564L302.927 194.375Z" fill="#B16668"/>
<path d="M285.279 173.141L274.665 183.984L260.647 178.366L270.661 162.473L285.279 173.141Z" fill="#B16668"/>
<path d="M295.827 152.316C295.827 152.316 299.385 158.486 298.982 159.096C298.579 159.706 295.952 160.25 295.952 160.25L295.827 152.316Z" fill="#9A4A4D"/>
<path d="M285.938 135.278C293.141 137.009 295.22 140.629 295.901 153.67C296.633 167.33 295.388 171.628 293.822 173.467C292.76 174.704 286.868 174.93 283.896 173.993C280.17 172.823 271.759 169.421 267.792 162.549C263.166 154.464 261.936 143.513 266.906 139.015C273.911 132.72 283.01 134.568 285.938 135.278Z" fill="#B16668"/>
<path d="M284.225 174.111C287.322 174.997 292.065 174.637 293.492 173.751C291.749 174.129 289.95 174.006 288.258 173.392C286.572 172.838 284.97 171.992 283.508 170.884L284.225 174.111Z" fill="#9A4A4D"/>
<path d="M297.496 140.921C295.439 142.46 292.965 143.053 290.534 143.429C290.681 145.645 290.022 147.818 289.378 149.917C288.931 151.371 287.336 155.927 285.718 153.361C284.569 151.505 283.522 149.816 281.253 150.209C277.505 150.845 277 156.304 279.357 159.623C281.714 162.942 283.925 161.671 283.925 161.671C283.925 161.671 284.151 167.523 281.355 171.644C279.842 172.478 278.195 172.947 276.517 173.023C274.838 173.099 273.164 172.781 271.598 172.087C268.04 170.649 262.96 165.341 261.13 161.261C256.101 150.017 256.284 139.383 262.726 136.273C263.458 130.965 267.118 128.59 271.246 127.495C277.029 125.974 282.922 130.254 288.529 127.679C289.715 127.136 290.805 126.35 292.013 125.89C292.339 125.721 292.694 125.638 293.051 125.648C293.409 125.658 293.76 125.761 294.077 125.949C294.552 126.415 294.855 127.069 294.926 127.779C295.26 129.038 295.155 130.394 294.634 131.566C295.464 131.079 296.352 130.73 297.269 130.53C297.729 130.435 298.201 130.453 298.654 130.583C299.107 130.713 299.53 130.951 299.897 131.282C300.52 131.986 300.88 132.94 300.9 133.941C301.09 136.733 299.538 139.383 297.496 140.921Z" fill="#263238"/>
<path d="M262.668 138.054L258.356 135.153C258.705 134.527 259.252 134.08 259.884 133.906C260.515 133.733 261.181 133.846 261.74 134.223C262.3 134.599 262.709 135.209 262.882 135.924C263.056 136.639 262.979 137.402 262.668 138.054Z" fill="#263238"/>
<path d="M264.768 171.845C256.833 169.136 250.296 170.507 239.931 181.785C228.571 194.116 220.211 215.066 217.283 237.663C217.283 237.663 217.671 248.105 228.263 255.052C239.499 262.417 256.862 260.62 263.838 247.361C263.838 247.361 265.302 235.548 269.936 229.228C272.937 225.132 279.877 216.086 285.001 209.624C289.458 203.997 294.114 190.279 287.109 183.816C285.052 181.927 283.031 180.472 280.184 178.332C272.915 179.804 263.465 174.888 264.768 171.845Z" fill="#BA68C8"/>
<path opacity="0.75" d="M264.768 171.845C256.833 169.136 250.296 170.507 239.931 181.785C228.571 194.116 220.211 215.066 217.283 237.663C217.283 237.663 217.671 248.105 228.263 255.052C239.499 262.417 256.862 260.62 263.838 247.361C263.838 247.361 265.302 235.548 269.936 229.228C272.937 225.132 279.877 216.086 285.001 209.624C289.458 203.997 294.114 190.279 287.109 183.816C285.052 181.927 283.031 180.472 280.184 178.332C272.915 179.804 263.465 174.888 264.768 171.845Z" fill="white"/>
<path opacity="0.1" d="M285.645 208.771L285.996 208.253L286.15 208.019L286.53 207.4C286.53 207.35 286.596 207.3 286.626 207.241C286.787 206.968 286.948 206.689 287.109 206.405C287.125 206.38 287.138 206.352 287.145 206.322C287.292 206.062 287.431 205.787 287.57 205.486L287.665 205.285C287.789 205.026 287.921 204.758 288.038 204.449C288.065 204.401 288.09 204.35 288.112 204.298C288.57 203.266 288.978 202.206 289.334 201.122V201.063C290.218 198.458 290.677 195.69 290.688 192.895C288.286 197.408 285.2 201.397 281.575 204.675C276.941 208.855 271.495 211.789 267.11 216.295C262.47 221.077 258.795 227.163 254.732 232.572C253.1 234.729 250.706 239.026 248.218 238.8C245.18 238.524 242.837 233.859 241.564 230.699C239.529 225.683 238.013 219.539 235.276 214.957C232.882 210.953 229.061 205.695 224.925 207.107C221.184 216.853 218.614 227.131 217.283 237.663C217.283 237.663 217.671 248.105 228.263 255.052C229.207 255.679 230.185 256.238 231.191 256.724C231.499 256.783 231.806 256.858 232.106 256.941C233.621 257.393 235.034 258.237 236.593 258.613L237.15 258.739L237.779 258.864L238.453 258.981L239.024 259.073L239.756 259.173L240.261 259.224L241.051 259.291H241.527H242.332H243.635H244.148L244.88 259.249L245.458 259.199L246.124 259.132L246.761 259.048L247.368 258.956L248.1 258.822L248.576 258.722C248.891 258.655 249.198 258.588 249.506 258.505L249.703 258.455C255.464 256.908 260.779 253.23 263.882 247.327C263.882 247.327 263.956 246.759 264.109 245.814C264.16 245.538 264.212 245.237 264.27 244.903C264.387 244.251 264.541 243.482 264.724 242.637C265.354 239.649 266.241 236.739 267.374 233.951C267.784 232.97 268.246 232.018 268.757 231.101C269.014 230.649 269.277 230.214 269.555 229.796L269.987 229.228L270.595 228.392C273.413 224.588 278.596 217.825 283.039 212.148L285.037 209.64L285.52 208.988L285.645 208.771Z" fill="#BA68C8"/>
<path d="M332.324 222.063C329.872 226.528 329.396 229.328 318.79 230.273C318.79 230.273 298.887 244.535 292.496 247.152C286.106 249.769 283.8 245.664 282.468 239.051C281.136 232.438 277.644 207.492 277.644 207.492C277.644 207.492 274.87 192.101 286.186 183.357C290.981 187.537 293.506 191.809 294.312 199.165C295.256 207.969 296.632 228.643 296.632 228.643C296.632 228.643 313.417 220.283 315.95 217.407C316.695 216.504 317.368 215.528 317.963 214.489C319.031 212.817 320.539 210.995 320.964 208.796C321.63 205.31 323.035 205.795 323.54 207.709C324.13 210.175 324.113 212.779 323.489 215.233C323.489 215.233 328.679 219.89 331.226 218.327L331.915 217.825C332.198 217.596 332.544 217.49 332.89 217.525C333.236 217.56 333.559 217.735 333.803 218.017C333.942 218.82 333.825 219.338 332.324 222.063Z" fill="#B16668"/>
<path d="M284.913 181.944C291.296 185.38 294.429 190.872 295.088 199.182C295.747 207.492 296.632 221.93 296.632 221.93C296.632 221.93 296.237 227.197 290.132 229.646C288.408 230.373 286.558 230.626 284.731 230.385C282.905 230.144 281.155 229.415 279.621 228.258L277.088 209.448C277.088 209.448 273.509 189.1 284.913 181.944Z" fill="#455A64"/>
<path d="M238.556 242.78C228.11 228.183 218.396 210.669 210.359 205.377C195.895 195.863 166.512 216.772 163.299 264.482C160.085 312.193 190.932 338.928 220.746 346.268C236.008 350.013 256.065 346.218 263.934 343.108C287.922 333.619 301.354 320.344 307.122 301.993C313.417 281.879 308.652 269.782 300.453 264.633C296.761 262.371 292.516 261.572 288.383 262.359C259.22 267.575 246.644 254.082 238.556 242.78Z" fill="#230C75"/>
<path opacity="0.2" d="M275.002 338.033L276.32 337.331C278.413 325.627 277.235 314.659 272.769 304.51C268.377 294.603 260.918 285.323 249.872 276.086C233.585 262.517 227.18 249.643 221.017 237.195C218.755 232.63 216.625 228.317 214.034 224.061C208.273 214.564 202.527 209.574 195.961 208.37C193.282 207.908 190.552 208.015 187.909 208.687C187.006 209.356 186.108 210.089 185.215 210.886C188.589 209.543 192.195 209.136 195.734 209.699C201.963 210.844 207.446 215.651 213.031 224.831C215.578 229.011 217.708 233.324 219.956 237.855C226.192 250.437 232.648 263.437 249.14 277.147C263.4 289.069 280.902 307.946 275.002 338.033Z" fill="black"/>
<path opacity="0.1" d="M220.746 346.268C236.008 350.013 256.065 346.218 263.934 343.108C287.922 333.619 301.354 320.344 307.122 301.993C307.276 301.5 307.408 301.024 307.547 300.539L307.195 300.38C301.054 298.098 294.451 300.831 288.368 303.298C273.069 309.501 255.78 314.09 240.971 306.508C231.221 301.492 221.171 293.692 215.988 283.016C210.805 272.34 208.412 260.143 204.649 248.74C202.951 243.599 201.37 236.953 197.549 231.945C193.969 227.263 189.248 223.861 183.809 223.869C179.344 223.869 175.216 225.407 171.365 230.607C167.208 239.728 164.214 251.064 163.313 264.532C160.085 312.201 190.932 338.928 220.746 346.268Z" fill="black"/>
<path d="M434.285 306.591L455.074 292.881C455.617 292.476 456.069 291.93 456.393 291.288C456.718 290.646 456.905 289.926 456.941 289.186V289.462C456.906 288.722 456.718 288.001 456.394 287.359C456.07 286.717 455.618 286.172 455.074 285.767L413.269 258.179C412.691 257.845 412.051 257.671 411.403 257.671C410.754 257.671 410.115 257.845 409.536 258.179L388.747 271.889C388.204 272.292 387.752 272.836 387.427 273.477C387.103 274.118 386.916 274.837 386.881 275.576V275.308C386.916 276.047 387.103 276.766 387.427 277.407C387.752 278.048 388.204 278.592 388.747 278.995L430.552 306.583C431.13 306.918 431.769 307.093 432.418 307.095C433.066 307.096 433.706 306.924 434.285 306.591Z" fill="#37474F"/>
<path d="M432.426 270.836L455.081 285.767C455.625 286.172 456.077 286.717 456.401 287.359C456.726 288.001 456.913 288.722 456.948 289.462V289.186C456.912 289.926 456.725 290.646 456.401 291.288C456.076 291.93 455.624 292.476 455.081 292.881L434.292 306.591C433.717 306.937 433.076 307.112 432.426 307.101V270.836Z" fill="#263238"/>
<path d="M455.081 288.233L434.292 301.96C433.715 302.298 433.075 302.475 432.426 302.475C431.777 302.475 431.137 302.298 430.559 301.96L388.755 274.372C387.722 273.695 387.722 272.591 388.755 271.914L409.543 258.204C410.122 257.87 410.762 257.696 411.41 257.696C412.058 257.696 412.698 257.87 413.277 258.204L455.081 285.792C456.113 286.452 456.113 287.556 455.081 288.233Z" fill="#455A64"/>
<path d="M455.081 283.727V285.992L433.502 300.204C433.265 300.367 433.001 300.473 432.726 300.514C432.25 300.592 431.765 300.483 431.35 300.204L388.755 272.123V269.774L430.559 297.412C431.138 297.748 431.777 297.923 432.426 297.923C433.075 297.923 433.714 297.748 434.293 297.412L455.081 283.727Z" fill="#BA68C8"/>
<path opacity="0.2" d="M455.082 283.727V285.992L433.502 300.204C433.265 300.368 433.001 300.473 432.726 300.514H432.419V297.905C433.072 297.921 433.717 297.746 434.293 297.395L455.082 283.727Z" fill="black"/>
<path d="M434.293 297.429L455.082 283.727C455.626 283.323 456.078 282.777 456.403 282.135C456.727 281.493 456.914 280.772 456.948 280.032V275.643C456.914 274.903 456.727 274.182 456.403 273.54C456.078 272.898 455.626 272.352 455.082 271.948L413.277 244.36C412.698 244.026 412.059 243.852 411.411 243.852C410.762 243.852 410.123 244.026 409.544 244.36L388.755 258.062C388.213 258.468 387.761 259.014 387.437 259.656C387.112 260.297 386.925 261.017 386.889 261.757V266.146C386.924 266.876 387.112 267.585 387.436 268.215C387.761 268.845 388.213 269.377 388.755 269.766L430.56 297.404C431.136 297.746 431.775 297.927 432.424 297.931C433.073 297.936 433.714 297.763 434.293 297.429Z" fill="#37474F"/>
<path d="M432.426 257.008L455.081 271.948C455.625 272.352 456.078 272.898 456.402 273.54C456.726 274.182 456.913 274.902 456.948 275.643V280.032C456.913 280.772 456.726 281.493 456.402 282.135C456.078 282.777 455.625 283.322 455.081 283.727L434.292 297.429C433.719 297.779 433.076 297.955 432.426 297.939V257.008Z" fill="#263238"/>
<path d="M455.081 274.414L434.292 288.116C433.713 288.449 433.074 288.623 432.426 288.623C431.777 288.623 431.138 288.449 430.559 288.116L388.755 260.528C387.722 259.851 387.722 258.747 388.755 258.02L409.543 244.318C410.122 243.984 410.762 243.81 411.41 243.81C412.058 243.81 412.698 243.984 413.277 244.318L455.081 271.906C456.113 272.625 456.113 273.728 455.081 274.414Z" fill="#455A64"/>
<path d="M426.087 263.504C428.393 265.017 428.393 267.467 426.087 268.98C424.793 269.722 423.366 270.108 421.918 270.108C420.47 270.108 419.043 269.722 417.749 268.98C415.451 267.467 415.451 265.017 417.749 263.504C419.041 262.754 420.469 262.363 421.918 262.363C423.367 262.363 424.795 262.754 426.087 263.504Z" fill="#BA68C8"/>
<path d="M392.144 265.117C392.358 265.276 392.537 265.491 392.664 265.744C392.791 265.997 392.864 266.281 392.876 266.572C392.876 267.107 392.547 267.333 392.144 267.074C391.931 266.916 391.753 266.702 391.626 266.451C391.499 266.2 391.426 265.917 391.412 265.627C391.412 265.084 391.742 264.858 392.144 265.117Z" fill="#BA68C8"/>
<path d="M392.144 268.336C392.358 268.495 392.536 268.71 392.663 268.963C392.79 269.216 392.863 269.499 392.876 269.791C392.876 270.326 392.547 270.551 392.144 270.292C391.931 270.134 391.753 269.921 391.626 269.67C391.499 269.418 391.426 269.136 391.412 268.846C391.412 268.303 391.742 268.077 392.144 268.336Z" fill="#BA68C8"/>
<path d="M203.42 126.851V114.311L212.694 113.383C212.826 113.37 212.959 113.402 213.075 113.475C213.434 113.701 220.907 118.608 221.025 118.684C221.112 118.742 221.187 118.823 221.244 118.919C221.3 119.016 221.337 119.126 221.351 119.241C221.365 119.356 221.356 119.473 221.325 119.584C221.294 119.694 221.241 119.795 221.171 119.879L211.34 132.051L203.42 126.851Z" fill="#BA68C8"/>
<path d="M211.34 132.043L221.171 119.871C221.266 119.757 221.328 119.613 221.349 119.457C221.37 119.302 221.348 119.143 221.288 119.001C221.227 118.86 221.13 118.744 221.01 118.667C220.889 118.591 220.751 118.559 220.614 118.575L211.34 119.495V132.043Z" fill="#BA68C8"/>
<path d="M203.42 114.295L211.34 119.503L220.615 118.575C220.724 118.564 220.834 118.581 220.937 118.625C220.205 118.124 213.419 113.676 213.082 113.467C212.963 113.388 212.824 113.356 212.687 113.375L203.42 114.295Z" fill="#BA68C8"/>
<path opacity="0.5" d="M203.42 114.295L211.34 119.503L220.615 118.575C220.724 118.564 220.834 118.581 220.937 118.625C220.205 118.124 213.419 113.676 213.082 113.467C212.963 113.388 212.824 113.356 212.687 113.375L203.42 114.295Z" fill="white"/>
<path d="M211.347 104.304C211.301 103.392 211.068 102.505 210.668 101.714C210.268 100.922 209.711 100.249 209.041 99.7483L207.167 98.5194C206.455 98.1033 205.666 97.8864 204.865 97.8864C204.065 97.8864 203.276 98.1033 202.563 98.5194L173.825 117.505C173.155 118.003 172.598 118.674 172.199 119.464C171.799 120.255 171.569 121.142 171.526 122.053V158.168C171.568 159.081 171.797 159.969 172.197 160.761C172.596 161.553 173.154 162.226 173.825 162.724L175.699 163.961C176.413 164.372 177.201 164.585 178.001 164.585C178.8 164.585 179.589 164.372 180.303 163.961L209.041 144.976C209.713 144.478 210.272 143.805 210.673 143.014C211.073 142.222 211.304 141.333 211.347 140.42V104.304Z" fill="#BA68C8"/>
<path opacity="0.2" d="M171.526 158.168C171.568 159.081 171.797 159.969 172.197 160.761C172.596 161.553 173.154 162.226 173.825 162.724L175.699 163.961C176.348 164.332 177.059 164.542 177.784 164.578C178.509 164.614 179.233 164.475 179.908 164.17C178.824 164.639 178.005 163.936 178.005 162.44V126.325C178.032 125.41 178.264 124.518 178.678 123.733L172.2 119.461C171.786 120.246 171.554 121.138 171.526 122.053V158.168Z" fill="black"/>
<path opacity="0.5" d="M211.267 103.56C211.003 102.44 210.11 102.089 209.071 102.783L180.303 121.776C179.621 122.256 179.061 122.93 178.678 123.733L172.207 119.469C172.589 118.666 173.147 117.99 173.825 117.504L202.563 98.5189C203.277 98.1087 204.066 97.895 204.865 97.895C205.665 97.895 206.453 98.1087 207.167 98.5189L209.049 99.7562C209.625 100.185 210.12 100.743 210.501 101.397C210.882 102.051 211.143 102.787 211.267 103.56Z" fill="white"/>
<path d="M188.487 124.494L191.086 122.78V124.97L193.692 123.257V127.93L196.29 126.208V121.534L198.896 119.821V117.63L201.502 115.908V118.107L204.101 116.385V121.058L206.707 119.344V126.208L204.101 127.93V131.357L201.502 133.08V136.507L198.896 138.229V141.657L196.29 143.379L196.298 146.807L193.692 148.521V145.093L191.086 146.807V143.379L188.487 145.093V141.657L185.881 143.379V139.943L183.275 141.657V134.793L185.881 133.08V128.406L188.487 126.684V124.494Z" fill="white"/>
</g>
<defs>
<linearGradient id="paint0_linear_178_166" x1="300" y1="0.937256" x2="300" y2="497.56" gradientUnits="userSpaceOnUse">
<stop stop-color="#A560E2"/>
<stop offset="1" stop-color="#6A0ECA"/>
</linearGradient>
<linearGradient id="paint1_linear_178_166" x1="300" y1="0" x2="300" y2="496.623" gradientUnits="userSpaceOnUse">
<stop stop-color="#13006D"/>
<stop offset="1" stop-color="#F8B2DF"/>
</linearGradient>
<clipPath id="clip0_178_166">
<rect width="600" height="499" fill="white"/>
</clipPath>
</defs>
</svg>
