<svg width="25" height="25" viewBox="0 0 25 25" fill="none" xmlns="http://www.w3.org/2000/svg">
<g clip-path="url(#clip0_185_4)">
<path d="M23.7199 8.55923L16.8929 7.56529L13.8421 1.39038C13.5678 0.83861 13.0329 0.559692 12.4979 0.559692C11.9662 0.559692 11.4349 0.834879 11.1597 1.39038L8.10795 7.56482L1.28052 8.55783C0.0561778 8.73507 -0.434494 10.2411 0.453099 11.104L5.392 15.9081L4.22316 22.6936C4.05711 23.6628 4.8309 24.4403 5.6975 24.4403C5.92745 24.4403 6.16392 24.3857 6.39107 24.2654L12.4988 21.062L18.6061 24.2663C18.8328 24.3853 19.0688 24.4394 19.2978 24.4394C20.1653 24.4394 20.9405 23.6646 20.7745 22.695L19.607 15.909L24.5469 11.1059C25.4349 10.243 24.9442 8.73646 23.7199 8.55923ZM18.0417 14.3055L17.1966 15.1273L17.3962 16.2878L18.3066 21.5793L13.5431 19.0797L12.4993 18.5322L12.5007 3.73786L14.8808 8.55549L15.4023 9.611L16.5688 9.78077L21.8967 10.5564L18.0417 14.3055Z" fill="#FFBB00"/>
</g>
<defs>
<clipPath id="clip0_185_4">
<rect width="25" height="25" fill="white"/>
</clipPath>
</defs>
</svg>
